<svg xmlns="http://www.w3.org/2000/svg" xmlns:xlink="http://www.w3.org/1999/xlink" width="159.146" height="164.069" viewBox="0 0 159.146 164.069">
  <defs>
    <linearGradient id="linear-gradient" x1="0.343" y1="0.821" x2="0.947" y2="0.081" gradientUnits="objectBoundingBox">
      <stop offset="0" stop-color="#e9bf68"/>
      <stop offset="0.356" stop-color="#f3d49b"/>
      <stop offset="0.732" stop-color="#d4a858"/>
      <stop offset="1" stop-color="#ffe4b4"/>
    </linearGradient>
  </defs>
  <g id="Untitled-1-01" transform="translate(-586.065 -283.82)">
    <path id="Path_83" data-name="Path 83" d="M728.355,338.688l-10.992-15.169V304.765L699.533,299,688.508,283.82l-17.831,5.768-17.831-5.768-11.008,15.153L624,304.74v18.778l-11,15.169,11.025,15.177v18.745l17.847,5.768,10.983,15.177,17.822-5.768,17.822,5.768L699.516,378.4l17.847-5.768v-18.77Zm-25.543,23.351,5.949-1.936,5.957,1.928v8.676l-8.24,2.661-3.667-5.067Zm-76.192,0,5.957-1.928,5.949,1.936v6.262l-3.691,5.067-8.24-2.661Zm88.107-2.76L708.77,357.3l-5.957,1.969v-6.262l-3.683-5.067L705.095,346l3.675-5.076L712.461,346l5.949,1.936L714.727,353Zm-53.69,16.339L667,373.682l3.675-5.067,3.675,5.067,5.966,1.936-3.683,5.059v6.287l-5.957-1.945-5.957,1.945v-6.279Zm-8.586,2.793,5.949-1.936,3.683,5.067v6.246l-8.24,2.67-5.092-7.012Zm-29.506-30.487,5.949-1.936,3.691-5.067L636.26,346l5.966,1.936-3.683,5.076v6.262l-5.957-1.969-5.966,1.936v-6.27ZM621.3,331.676l5.957,1.936,3.683,5.076-3.683,5.067-5.957,1.936-5.092-7Zm40.778-42.113v6.262l-3.691,5.067-5.957-1.928-3.675-5.076,5.092-7Zm2.628.824,5.957,1.936,5.957-1.936v6.27l3.683,5.067-5.957,1.928-3.667,5.1L667,303.694l-5.957-1.928,3.683-5.067Zm53.69,39.015-5.957,1.936-3.683,5.067-3.683-5.067-5.966-1.945,3.708-5.051V318.08l5.957,1.945,5.957-1.936v6.27Zm-32.786,32.6v6.254l-3.683,5.076-5.957-1.936-3.642-5.034,5.084-7.012Zm11.881-30.355,5.949,1.928,3.683,5.067-3.683,5.067-5.966,1.945-5.076-7Zm-9.253,12.706,2.53-3.469,4.12,5.619-6.592,2.142Zm11.939-20.838-3.675,5.076-8.24-2.678v-8.66l5.957-1.936,5.965,1.928Zm-5.306,7.317-4.12,5.619-2.521-3.469v-4.293Zm-20.121,27.685-4.07,5.6-4.07-5.6,4.07-1.335Zm10.876-14.963v6l-5.71,1.862-3.527,4.861-5.71-1.862-5.7,1.854-3.535-4.861-5.71-1.862v-6l-3.535-4.861,3.535-4.853v-6.007l5.7-1.854,3.527-4.87,5.71,1.862,5.71-1.862,3.527,4.87,5.7,1.854v6.007l3.535,4.853Zm-6.592-23.293,6.592-2.142v6.938l-4.12-1.327Zm-12.475-1.393,4.12-5.6,4.12,5.6-4.12,1.318Zm-10.868,6.18v-6.946l6.592,2.151-2.53,3.469Zm6.592,32.069-6.592,2.151v-6.913l4.12,1.335Zm23.343-4.763V359.3l-6.592-2.151,2.521-3.461Zm0-36.988-8.24,2.678-5.092-7,3.675-5.076,5.965-1.936,3.683,5.067Zm-29.893,0V309.1l3.683-5.067,5.966,1.936,3.675,5.076-5.092,7Zm-6.789,23.359-5.076,7-5.966-1.945-3.683-5.067,3.683-5.067,5.949-1.928Zm4.12-12.788-8.24,2.678-3.642-5.1v-6.262l5.966-1.928,5.957,1.936Zm0,2.777v4.293l-2.521,3.469-4.12-5.619Zm0,15.713v4.293l-6.592-2.142,4.12-5.619Zm0,15.729-5.957,1.928-5.957-1.928V353.9l3.675-5.076,8.24,2.678Zm10.868-.766,5.1,6.971-3.675,5.067-5.957,1.936-3.683-5.076v-6.254Zm32.538-10.571,3.675,5.076v6.262l-5.957,1.928-5.957-1.928v-8.693Zm3.675-40.58v6.213l-5.957-1.928-5.933,1.928v-6.262l-3.667-5.059,5.949-1.945,3.683-5.059L697.9,301.2l5.957,1.928Zm-47.073,0v6.213l-5.966-1.92-5.924,1.92v-6.27l-3.683-5.067,5.957-1.928,3.683-5.067,3.683,5.059,5.949,1.945ZM626.6,324.417v-6.27l5.957,1.936,5.949-1.945v6.2l3.7,5.067-5.974,1.945-3.675,5.067-3.683-5.067-5.957-1.936Zm14.584,44.75v-6.279l5.941,1.945,5.966-1.928v6.254l3.691,5.067-5.957,1.945-3.675,5.067-3.659-5.076-5.957-1.928Zm47.09,0V362.9l5.966,1.928,5.941-1.945v6.279l3.683,5.067-5.99,1.928-3.691,5.076L690.5,376.17l-5.957-1.945Zm36.856-30.487-5.084,7-5.957-1.936L710.4,338.68l3.683-5.076,5.957-1.936Zm-22.313-23.335v-6.279l3.675-5.059,8.24,2.67v8.652l-5.957,1.945ZM688.9,298.973l-5.957,1.928-3.691-5.067v-6.262l8.24-2.67,5.092,7Zm-62.292,7.7,8.24-2.67,3.675,5.059v6.279l-5.949,1.928-5.957-1.944Zm52.651,74.865,3.683-5.067,5.949,1.936,3.683,5.059-5.092,7.012-8.24-2.67Z" transform="translate(-4.741 0)" fill="url(#linear-gradient)"/>
    <g id="Group_2" data-name="Group 2" transform="translate(586.065 409.524)">
      <path id="Path_84" data-name="Path 84" d="M591.112,449.889q-5.043,0-5.043-4.359a4.623,4.623,0,0,1,1.195-3.3,4.944,4.944,0,0,1,3.79-1.434,10.985,10.985,0,0,1,3.93.651v6.476h1.837v1.953Zm-2.752-10.646a1.228,1.228,0,0,1-.354-.9,1.253,1.253,0,0,1,.354-.906,1.186,1.186,0,0,1,.882-.379,1.212,1.212,0,0,1,.906.379,1.227,1.227,0,0,1,.354.906,1.253,1.253,0,0,1-.354.9,1.211,1.211,0,0,1-.906.379A1.162,1.162,0,0,1,588.36,439.243Zm4.219,3.856a4.22,4.22,0,0,0-1.788-.338,2.052,2.052,0,0,0-1.648.717,2.72,2.72,0,0,0-.593,1.821q0,2.628,2.826,2.637H592.6Zm-1.1-3.856a1.228,1.228,0,0,1-.354-.9,1.252,1.252,0,0,1,.354-.906,1.187,1.187,0,0,1,.882-.379,1.146,1.146,0,0,1,.882.379,1.236,1.236,0,0,1,.362.906,1.261,1.261,0,0,1-.362.9,1.146,1.146,0,0,1-.882.379,1.162,1.162,0,0,1-.882-.379Z" transform="translate(-586.065 -436.5)" fill="#fff"/>
      <path id="Path_85" data-name="Path 85" d="M598.78,448.788h2.653V441.9h2.472v6.888h2.563v1.953h-7.679Zm2.472,5.669a1.261,1.261,0,0,1-1.788,0,1.335,1.335,0,0,1,0-1.813,1.22,1.22,0,0,1,.882-.379,1.236,1.236,0,0,1,.906.371,1.251,1.251,0,0,1,.354.906,1.227,1.227,0,0,1-.321.915Zm3.1,0a1.162,1.162,0,0,1-.882.379,1.2,1.2,0,0,1-.882-.363,1.335,1.335,0,0,1,0-1.813,1.219,1.219,0,0,1,.882-.379,1.17,1.17,0,0,1,.882.371,1.261,1.261,0,0,1,.363.906,1.244,1.244,0,0,1-.33.9Z" transform="translate(-588.304 -437.352)" fill="#fff"/>
      <path id="Path_86" data-name="Path 86" d="M607.75,450.689v-1.953h1.071a3.592,3.592,0,0,1,1.046.124,3.09,3.09,0,0,1-1.046-2.686,4.425,4.425,0,0,1,1.211-3.181,4.886,4.886,0,0,1,3.675-1.384q4.252,0,4.252,4.326v4.754Zm7.786-4.449c0-1.788-.676-2.678-2.01-2.678a2.077,2.077,0,0,0-1.648.717,2.719,2.719,0,0,0-.585,1.821q0,2.628,2.818,2.637h1.434Z" transform="translate(-589.883 -437.299)" fill="#fff"/>
      <path id="Path_87" data-name="Path 87" d="M626.288,446.4h-2.472l-2.686-9.682,2.472-.338Zm-4.441,3.37v-1.953h5.817v-11.3h2.472v11.3H632v1.953Z" transform="translate(-592.238 -436.38)" fill="#fff"/>
      <path id="Path_88" data-name="Path 88" d="M634,448.63h.939a1.557,1.557,0,0,0,1.3-.478,3.147,3.147,0,0,0,.4-1.854V442.87h2.472v3.477a4.849,4.849,0,0,0,.231,1.846,1.063,1.063,0,0,0,1.063.585c1.005,0,1.508-.824,1.508-2.414v-4.252h2.39v4.721c0,.742.148,1.219.461,1.45a3.074,3.074,0,0,0,1.763.346h.486a17.864,17.864,0,0,0,.132-2.266,22.567,22.567,0,0,0-.552-5.034l2.472-.33a22.16,22.16,0,0,1,.6,5.2,31.324,31.324,0,0,1-.28,4.384h-3.106a7.416,7.416,0,0,1-2.274-.255,2.11,2.11,0,0,1-1.2-1.038,2.806,2.806,0,0,1-2.843,1.442c-1.45,0-2.175-.486-2.472-1.458a2.421,2.421,0,0,1-2.472,1.31H634Z" transform="translate(-594.504 -437.193)" fill="#fff"/>
      <path id="Path_89" data-name="Path 89" d="M658.776,446.4H656.3l-2.694-9.682,2.472-.338Zm-4.433,3.37v-1.953h5.817v-11.3h2.472v13.258Z" transform="translate(-597.956 -436.38)" fill="#fff"/>
      <path id="Path_90" data-name="Path 90" d="M668.42,436.54h2.472V449.8H668.42Z" transform="translate(-600.563 -436.408)" fill="#fff"/>
      <path id="Path_91" data-name="Path 91" d="M683.732,449.889q-5.043,0-5.043-4.359a4.622,4.622,0,0,1,1.195-3.3,4.944,4.944,0,0,1,3.79-1.434,10.984,10.984,0,0,1,3.93.651v6.476h1.837v1.953Zm-2.752-10.646a1.228,1.228,0,0,1-.354-.9,1.252,1.252,0,0,1,.354-.906,1.187,1.187,0,0,1,.882-.379,1.211,1.211,0,0,1,.906.379,1.228,1.228,0,0,1,.354.906,1.253,1.253,0,0,1-.354.9,1.211,1.211,0,0,1-.906.379A1.162,1.162,0,0,1,680.98,439.243ZM685.2,443.1a4.244,4.244,0,0,0-1.788-.338,2.051,2.051,0,0,0-1.648.717,2.719,2.719,0,0,0-.593,1.821q0,2.628,2.826,2.637h1.2Zm-1.1-3.856a1.227,1.227,0,0,1-.354-.9,1.252,1.252,0,0,1,.354-.906,1.186,1.186,0,0,1,.882-.379,1.146,1.146,0,0,1,.882.379,1.236,1.236,0,0,1,.362.906,1.26,1.26,0,0,1-.362.9,1.146,1.146,0,0,1-.882.379A1.162,1.162,0,0,1,684.1,439.243Z" transform="translate(-602.37 -436.5)" fill="#fff"/>
      <path id="Path_92" data-name="Path 92" d="M691.4,448.735h2.876a3.008,3.008,0,0,1-1.458-2.8,4.046,4.046,0,0,1,1.211-3.04,5.125,5.125,0,0,1,3.708-1.285,7.284,7.284,0,0,1,2.332.354l-.428,1.977a4.647,4.647,0,0,0-1.978-.363,2.331,2.331,0,0,0-1.722.651,2.373,2.373,0,0,0-.651,1.739,2.34,2.34,0,0,0,1.022,2,5.562,5.562,0,0,0,3.246.824h1.475v1.953H691.4Z" transform="translate(-604.608 -437.299)" fill="#fff"/>
      <path id="Path_93" data-name="Path 93" d="M705.109,455.182l.157-2.027a13.585,13.585,0,0,0,2.925.321q3.3,0,3.3-2.472v-.288h-1.475q-5.043,0-5.043-4.359a4.663,4.663,0,0,1,1.195-3.3,4.944,4.944,0,0,1,3.8-1.434,10.982,10.982,0,0,1,3.93.651v6.476h1.813v1.953h-1.838v.041a4.267,4.267,0,0,1-1.368,3.3,6.592,6.592,0,0,1-4.524,1.376,16.969,16.969,0,0,1-2.867-.239Zm6.344-11.28a4.259,4.259,0,0,0-1.8-.338,2.035,2.035,0,0,0-1.648.717,2.727,2.727,0,0,0-.6,1.821q0,2.628,2.834,2.637h1.2Z" transform="translate(-606.996 -437.302)" fill="#fff"/>
      <path id="Path_94" data-name="Path 94" d="M717.65,448.63h.939a1.565,1.565,0,0,0,1.3-.478,3.148,3.148,0,0,0,.4-1.854V442.87h2.472v3.477a4.844,4.844,0,0,0,.231,1.846,1.046,1.046,0,0,0,1.063.585c1.005,0,1.508-.824,1.508-2.414v-4.252h2.389v4.721a1.755,1.755,0,0,0,.453,1.45,3.09,3.09,0,0,0,1.763.346h.486a16.4,16.4,0,0,0,.14-2.266,22.56,22.56,0,0,0-.552-5.034l2.431-.33a22.166,22.166,0,0,1,.6,5.2,31.3,31.3,0,0,1-.28,4.384h-3.106a7.5,7.5,0,0,1-2.282-.255,2.159,2.159,0,0,1-1.2-1.038,2.793,2.793,0,0,1-2.834,1.442c-1.442,0-2.175-.486-2.472-1.458a2.421,2.421,0,0,1-2.472,1.31H717.7Z" transform="translate(-609.229 -437.193)" fill="#fff"/>
      <path id="Path_95" data-name="Path 95" d="M739.027,455.182l.156-2.027a13.732,13.732,0,0,0,2.933.321q3.254,0,3.3-2.472v-.288h-1.491q-5.043,0-5.043-4.359a4.622,4.622,0,0,1,1.195-3.3,4.944,4.944,0,0,1,3.79-1.434,10.981,10.981,0,0,1,3.93.651v6.476h1.837v1.953h-1.837v.041a4.243,4.243,0,0,1-1.368,3.3,6.592,6.592,0,0,1-4.515,1.376,17.076,17.076,0,0,1-2.884-.239Zm6.345-11.28a4.219,4.219,0,0,0-1.788-.338,2.052,2.052,0,0,0-1.648.717,2.719,2.719,0,0,0-.593,1.821q0,2.629,2.826,2.637h1.2Z" transform="translate(-612.965 -437.302)" fill="#fff"/>
      <path id="Path_96" data-name="Path 96" d="M758.62,449.8q-3.04,0-4.219-1.467c-.379.981-1.376,1.467-2.983,1.467h-.288v-1.953a2.175,2.175,0,0,0,1.648-.544,2.883,2.883,0,0,0,.577-2.019,4.424,4.424,0,0,1,1.211-3.181,4.869,4.869,0,0,1,3.675-1.384q4.252,0,4.252,4.326v2.8h3.3v-11.3h2.472V449.8Zm1.434-4.449c0-1.788-.676-2.678-2.019-2.678a2.06,2.06,0,0,0-1.648.717,2.719,2.719,0,0,0-.593,1.821c0,1.755.948,2.637,2.826,2.637h1.467Z" transform="translate(-615.123 -436.408)" fill="#fff"/>
      <path id="Path_97" data-name="Path 97" d="M775.84,436.54h2.472V449.8H775.84Z" transform="translate(-619.472 -436.408)" fill="#fff"/>
    </g>
    <g id="Group_3" data-name="Group 3" transform="translate(586.918 432.002)">
      <path id="Path_98" data-name="Path 98" d="M588.822,475.921H587.1V463.66h1.722Z" transform="translate(-587.1 -463.66)" fill="#fff"/>
      <path id="Path_99" data-name="Path 99" d="M594.157,476.626a5.392,5.392,0,0,1-1.269-.453,5.254,5.254,0,0,1-1.088-.758l1.022-1.261a5.613,5.613,0,0,0,1.409.824,3.748,3.748,0,0,0,1.376.272,3,3,0,0,0,1.533-.313,1.055,1.055,0,0,0,.511-.948.725.725,0,0,0-.28-.634,1.558,1.558,0,0,0-.692-.288c-.272-.041-.659-.091-1.162-.124h-.42a6.908,6.908,0,0,1-1.442-.255,1.894,1.894,0,0,1-.981-.676,2.241,2.241,0,0,1-.4-1.425,2.941,2.941,0,0,1,.379-1.541,2.341,2.341,0,0,1,1.129-.923,4.985,4.985,0,0,1,1.887-.313,6.13,6.13,0,0,1,1.3.132,5.61,5.61,0,0,1,1.178.371,5.986,5.986,0,0,1,1.088.626l-1.03,1.261a5.9,5.9,0,0,0-1.3-.634,3.887,3.887,0,0,0-1.236-.206,2.365,2.365,0,0,0-1.318.3,1,1,0,0,0-.437.9.593.593,0,0,0,.247.527,1.383,1.383,0,0,0,.626.239,10.711,10.711,0,0,0,1.079.1h.321a7.6,7.6,0,0,1,1.566.247,2.109,2.109,0,0,1,1.079.733,2.472,2.472,0,0,1,.445,1.59,2.768,2.768,0,0,1-.412,1.557,2.422,2.422,0,0,1-1.211.931,5.651,5.651,0,0,1-2.052.313A6.812,6.812,0,0,1,594.157,476.626Z" transform="translate(-587.927 -464.39)" fill="#fff"/>
      <path id="Path_100" data-name="Path 100" d="M605.249,473.663a.823.823,0,0,0,.14.494.469.469,0,0,0,.4.173h.824v1.648h-1.046a1.9,1.9,0,0,1-1.508-.61,2.472,2.472,0,0,1-.535-1.706v-10h1.714Z" transform="translate(-589.99 -463.66)" fill="#fff"/>
      <path id="Path_101" data-name="Path 101" d="M609.829,476.105a2.983,2.983,0,0,1-.066-3.988,3.3,3.3,0,0,1,2.217-.643h2.472l.115,1.376h-2.6a1.484,1.484,0,0,0-1.005.3,1.161,1.161,0,0,0-.338.915,1.137,1.137,0,0,0,.445.989,2.356,2.356,0,0,0,1.343.313,3.923,3.923,0,0,0,1.475-.206.7.7,0,0,0,.486-.659l.173,1.228a1.9,1.9,0,0,1-.56.585,2.47,2.47,0,0,1-.766.338,4.6,4.6,0,0,1-3.411-.552Zm4.565-5a1.871,1.871,0,0,0-.461-1.343,1.739,1.739,0,0,0-1.3-.47,3.294,3.294,0,0,0-1.022.157,3,3,0,0,0-.89.445l-1.261-.824a3.212,3.212,0,0,1,1.31-.931,4.739,4.739,0,0,1,1.813-.338,4.169,4.169,0,0,1,1.862.387,2.654,2.654,0,0,1,1.178,1.112,3.544,3.544,0,0,1,.4,1.755v5.628h-1.648Z" transform="translate(-590.961 -464.388)" fill="#fff"/>
      <path id="Path_102" data-name="Path 102" d="M620.66,467.892h1.714v8.75H620.66Zm5.224,3.444a2.068,2.068,0,0,0-.453-1.434,1.648,1.648,0,0,0-1.294-.5,1.8,1.8,0,0,0-1.3.445,1.648,1.648,0,0,0-.461,1.261l-.173-1.689a3.073,3.073,0,0,1,1.055-1.219,2.588,2.588,0,0,1,1.45-.437,2.81,2.81,0,0,1,1.566.42,2.57,2.57,0,0,1,.989,1.22,4.861,4.861,0,0,1,.346,1.928v5.315h-1.722Zm5.224,0a1.994,1.994,0,0,0-.478-1.434,1.763,1.763,0,0,0-1.351-.5,1.59,1.59,0,0,0-1.236.486,1.994,1.994,0,0,0-.437,1.384l-.346-1.648a3.353,3.353,0,0,1,1.088-1.343,2.6,2.6,0,0,1,1.5-.478,2.982,2.982,0,0,1,1.648.42,2.678,2.678,0,0,1,1.022,1.219,4.864,4.864,0,0,1,.346,1.928v5.315h-1.722Z" transform="translate(-593.008 -464.381)" fill="#fff"/>
      <path id="Path_103" data-name="Path 103" d="M638.6,463.66h1.722v1.722H638.6Zm0,3.51h1.722v8.75H638.6Z" transform="translate(-596.166 -463.66)" fill="#fff"/>
      <path id="Path_104" data-name="Path 104" d="M645.3,476.321a2.991,2.991,0,0,1-1.294-1.3,4.358,4.358,0,0,1-.445-2.052v-1.442A4.316,4.316,0,0,1,644,469.49,3,3,0,0,1,645.3,468.2a4.351,4.351,0,0,1,2.044-.445,4.991,4.991,0,0,1,1.285.165,4.075,4.075,0,0,1,1.088.478,2.927,2.927,0,0,1,.824.758l-1.244,1.112a2.53,2.53,0,0,0-.824-.643,2.389,2.389,0,0,0-1.038-.231,2.06,2.06,0,0,0-1.541.552,2.175,2.175,0,0,0-.552,1.574v1.442a2.208,2.208,0,0,0,.544,1.6,2.043,2.043,0,0,0,1.549.569,2.3,2.3,0,0,0,1.047-.247,2.562,2.562,0,0,0,.824-.692l1.211,1.178a3.05,3.05,0,0,1-.824.75,3.814,3.814,0,0,1-1.088.47,4.947,4.947,0,0,1-1.277.157,4.35,4.35,0,0,1-2.027-.428Z" transform="translate(-597.039 -464.381)" fill="#fff"/>
      <path id="Path_105" data-name="Path 105" d="M660.13,463.66h1.722v12.261H660.13Zm.824,0h7.037v1.648h-7.037Zm0,5.356h6.114v1.648h-6.114Zm0,5.265h7.037v1.648h-7.037Z" transform="translate(-599.956 -463.66)" fill="#fff"/>
      <path id="Path_106" data-name="Path 106" d="M672.46,467.891h1.714v8.751H672.46Zm5.306,3.444a2,2,0,0,0-.478-1.434,2.093,2.093,0,0,0-2.653-.058,1.648,1.648,0,0,0-.461,1.261L674,469.415a3.073,3.073,0,0,1,1.055-1.219,2.587,2.587,0,0,1,1.45-.437,2.719,2.719,0,0,1,2.2.931,4.012,4.012,0,0,1,.824,2.637v5.315h-1.763Z" transform="translate(-602.126 -464.381)" fill="#fff"/>
      <path id="Path_107" data-name="Path 107" d="M685.627,476.321a2.992,2.992,0,0,1-1.294-1.3,4.36,4.36,0,0,1-.453-2.052v-1.442a4.319,4.319,0,0,1,.453-2.035,3,3,0,0,1,1.294-1.285,4.325,4.325,0,0,1,2.043-.445,4.994,4.994,0,0,1,1.285.165,4.07,4.07,0,0,1,1.088.478,3.052,3.052,0,0,1,.824.758l-1.244,1.112a2.529,2.529,0,0,0-.824-.643,2.389,2.389,0,0,0-1.038-.231,2.06,2.06,0,0,0-1.541.552,2.142,2.142,0,0,0-.552,1.574v1.442a2.208,2.208,0,0,0,.544,1.6,2.044,2.044,0,0,0,1.549.569,2.324,2.324,0,0,0,1.047-.247,2.561,2.561,0,0,0,.824-.692l1.187,1.178a3.085,3.085,0,0,1-.824.75,3.666,3.666,0,0,1-1.079.47,4.943,4.943,0,0,1-1.277.157,4.326,4.326,0,0,1-2.01-.428Z" transform="translate(-604.136 -464.381)" fill="#fff"/>
      <path id="Path_108" data-name="Path 108" d="M693.06,467.917h1.755l2.694,7.605-.956,1.862Zm7.754,0-3.683,10.777a2.671,2.671,0,0,1-.536.948,1.9,1.9,0,0,1-.824.5,4.118,4.118,0,0,1-1.187.148h-.346v-1.648h.346a1.318,1.318,0,0,0,.766-.189,1.566,1.566,0,0,0,.494-.667l3.238-9.888Z" transform="translate(-605.752 -464.406)" fill="#fff"/>
      <path id="Path_109" data-name="Path 109" d="M705.538,476.321a3.032,3.032,0,0,1-1.294-1.3,4.359,4.359,0,0,1-.445-2.052v-1.442a4.316,4.316,0,0,1,.445-2.035,3.04,3.04,0,0,1,1.294-1.285,4.349,4.349,0,0,1,2.043-.445,4.945,4.945,0,0,1,1.286.165,4.073,4.073,0,0,1,1.088.478,2.923,2.923,0,0,1,.824.758l-1.236,1.112a2.472,2.472,0,0,0-.873-.643,2.391,2.391,0,0,0-1.038-.231,2.06,2.06,0,0,0-1.541.552,2.176,2.176,0,0,0-.544,1.574v1.442a2.208,2.208,0,0,0,.544,1.6,2.027,2.027,0,0,0,1.541.569,2.3,2.3,0,0,0,1.046-.247,2.6,2.6,0,0,0,.824-.692l1.236,1.195a3.05,3.05,0,0,1-.824.75,3.814,3.814,0,0,1-1.088.47,4.886,4.886,0,0,1-1.277.156A4.35,4.35,0,0,1,705.538,476.321Z" transform="translate(-607.643 -464.381)" fill="#fff"/>
      <path id="Path_110" data-name="Path 110" d="M716.256,473.663a.823.823,0,0,0,.14.494.469.469,0,0,0,.4.173h.824v1.648H716.56a1.928,1.928,0,0,1-1.516-.61,2.472,2.472,0,0,1-.536-1.706v-10h1.722Z" transform="translate(-609.527 -463.66)" fill="#fff"/>
      <path id="Path_111" data-name="Path 111" d="M721.964,476.321a3,3,0,0,1-1.236-1.3,4.64,4.64,0,0,1-.428-2.06v-1.425a4.523,4.523,0,0,1,.428-2.035,2.983,2.983,0,0,1,1.236-1.294,4.49,4.49,0,0,1,3.9,0A2.983,2.983,0,0,1,727.1,469.5a4.531,4.531,0,0,1,.42,2.035v1.45a4.562,4.562,0,0,1-.42,2.043,3.023,3.023,0,0,1-1.236,1.294A4.491,4.491,0,0,1,721.964,476.321Zm3.345-1.755a2.331,2.331,0,0,0,.494-1.582v-1.45a2.315,2.315,0,0,0-.494-1.582,2.043,2.043,0,0,0-2.793,0,2.315,2.315,0,0,0-.494,1.582v1.45a2.332,2.332,0,0,0,.5,1.566,1.989,1.989,0,0,0,2.785,0Z" transform="translate(-610.548 -464.382)" fill="#fff"/>
      <path id="Path_112" data-name="Path 112" d="M732,467.9h1.722v12.31H732Zm2.472,8.487a2.3,2.3,0,0,1-.89-1.112l.115-1.829a2.036,2.036,0,0,0,.206.964,1.376,1.376,0,0,0,.585.6,1.894,1.894,0,0,0,.931.214,1.7,1.7,0,0,0,1.318-.519,2.1,2.1,0,0,0,.47-1.458v-1.9a2.184,2.184,0,0,0-.47-1.491,1.648,1.648,0,0,0-1.318-.527,1.993,1.993,0,0,0-.931.2,1.4,1.4,0,0,0-.585.593,1.978,1.978,0,0,0-.206.939l-.181-1.648a3.048,3.048,0,0,1,1.038-1.186,2.555,2.555,0,0,1,1.426-.42,2.9,2.9,0,0,1,1.59.42,2.6,2.6,0,0,1,1.005,1.219,4.859,4.859,0,0,1,.346,1.928v1.912a4.591,4.591,0,0,1-.354,1.9,2.621,2.621,0,0,1-1.03,1.211,3.164,3.164,0,0,1-1.648.412,2.62,2.62,0,0,1-1.368-.42Z" transform="translate(-612.607 -464.388)" fill="#fff"/>
      <path id="Path_113" data-name="Path 113" d="M744.883,476.312a3.107,3.107,0,0,1-1.31-1.335,4.689,4.689,0,0,1-.453-2.134v-.981a5.158,5.158,0,0,1,.437-2.216,3.074,3.074,0,0,1,1.261-1.4,3.89,3.89,0,0,1,1.994-.486,3.2,3.2,0,0,1,1.87.552,3.4,3.4,0,0,1,1.178,1.582,6.643,6.643,0,0,1,.412,2.472v.577h-5.9v-1.384h4.268a3.025,3.025,0,0,0-.552-1.648,1.566,1.566,0,0,0-1.277-.593,1.871,1.871,0,0,0-1.516.634,2.777,2.777,0,0,0-.536,1.813V472.9a2.274,2.274,0,0,0,.569,1.648,2.208,2.208,0,0,0,1.648.585,2.752,2.752,0,0,0,1.038-.214,2.942,2.942,0,0,0,.915-.585l1.137,1.129a4.943,4.943,0,0,1-1.467.964,4.218,4.218,0,0,1-1.648.338A4.393,4.393,0,0,1,744.883,476.312Z" transform="translate(-614.565 -464.381)" fill="#fff"/>
      <path id="Path_114" data-name="Path 114" d="M755.7,475.657a2.643,2.643,0,0,1-1.03-1.219,4.7,4.7,0,0,1-.354-1.92v-1.936a4.864,4.864,0,0,1,.346-1.928,2.645,2.645,0,0,1,1.005-1.219,2.916,2.916,0,0,1,1.59-.42,2.7,2.7,0,0,1,1.425.4,2.984,2.984,0,0,1,1.038,1.145l-.173,1.788a2.127,2.127,0,0,0-.206-.956,1.376,1.376,0,0,0-.585-.6,1.92,1.92,0,0,0-.931-.206,1.648,1.648,0,0,0-1.318.527,2.175,2.175,0,0,0-.47,1.491v1.912a2.1,2.1,0,0,0,.47,1.467,1.648,1.648,0,0,0,1.318.519,1.92,1.92,0,0,0,.931-.214,1.508,1.508,0,0,0,.585-.618,2.2,2.2,0,0,0,.206-.972l.115,1.846a2.473,2.473,0,0,1-.824,1.088,2.365,2.365,0,0,1-1.467.437A3.148,3.148,0,0,1,755.7,475.657Zm3.848-12h1.714v12.261h-1.714Z" transform="translate(-616.536 -463.66)" fill="#fff"/>
      <path id="Path_115" data-name="Path 115" d="M766,463.66h1.722v1.722H766Zm0,3.51h1.722v8.75H766Z" transform="translate(-618.593 -463.66)" fill="#fff"/>
      <path id="Path_116" data-name="Path 116" d="M771.5,476.105a2.53,2.53,0,0,1-.824-2.035,2.473,2.473,0,0,1,.733-1.953,3.3,3.3,0,0,1,2.217-.643H776.1l.124,1.376h-2.562a1.483,1.483,0,0,0-1.005.3,1.384,1.384,0,0,0,.107,1.9,2.389,2.389,0,0,0,1.351.313,3.9,3.9,0,0,0,1.467-.206.7.7,0,0,0,.486-.659l.181,1.228a2.028,2.028,0,0,1-.569.585,2.469,2.469,0,0,1-.766.338,4.6,4.6,0,0,1-3.411-.552Zm4.565-5a1.837,1.837,0,0,0-.461-1.343,1.739,1.739,0,0,0-1.3-.47,3.293,3.293,0,0,0-1.022.157,3,3,0,0,0-.89.445l-1.261-.824a3.3,3.3,0,0,1,1.31-.931,4.737,4.737,0,0,1,1.813-.338,4.169,4.169,0,0,1,1.862.387,2.612,2.612,0,0,1,1.178,1.112,3.543,3.543,0,0,1,.412,1.755v5.628h-1.648Z" transform="translate(-619.415 -464.388)" fill="#fff"/>
    </g>
  </g>
</svg>
