<svg xmlns="http://www.w3.org/2000/svg" xmlns:xlink="http://www.w3.org/1999/xlink" width="540" height="90" viewBox="0 0 540 90">
  <defs>
    <clipPath id="clip-path">
      <path id="Rectangle_24" data-name="Rectangle 24" d="M10,0H530a10,10,0,0,1,10,10V90a0,0,0,0,1,0,0H0a0,0,0,0,1,0,0V10A10,10,0,0,1,10,0Z" fill="#fff"/>
    </clipPath>
    <linearGradient id="linear-gradient" x1="0.5" y1="-0.001" x2="0.5" y2="0.999" gradientUnits="objectBoundingBox">
      <stop offset="0" stop-color="#86764e" stop-opacity="0.2"/>
      <stop offset="1" stop-color="#fff" stop-opacity="0"/>
    </linearGradient>
  </defs>
  <g id="Mask_Group_4" data-name="Mask Group 4" clip-path="url(#clip-path)">
    <g id="Layer_2_1_" transform="translate(-12.747 -107.307)">
      <g id="Layer_1-2" transform="translate(0)">
        <path id="Path_121" data-name="Path 121" d="M211.46,240.185a2.756,2.756,0,0,0-.433,1.5c.216,0,.649-.749,1.731-2.247.433-.749,1.731-2.5,3.246-4.744a35.918,35.918,0,0,0,2.38-3.5,8.371,8.371,0,0,0,.649-3.246c0-1.748-.866-2.747-2.6-2.747-.649,0-2.164.749-4.328,2a82.464,82.464,0,0,1-7.862,3.745,32.954,32.954,0,0,1-11.324,1.748c-6.78,0-11.324-1.748-13.7-5.493a60.826,60.826,0,0,1-2.164-7.075c-.649-3.246-1.3-4.744-1.515-4.744-.433,0-.649.5-.866,1.248a3.658,3.658,0,0,0-.433,1.748,15.515,15.515,0,0,0,.866,3.745,12.1,12.1,0,0,1,.866,4.495c0,2.247-1.082,3.246-3.462,3.246a5.125,5.125,0,0,1-2.164-.5,1.373,1.373,0,0,0-1.082-.5c-.649,0-1.515.5-2.813,2a9.82,9.82,0,0,0-1.947,4.494c.216,1,.433,1,.866.5,1.3-1.5,2.38-2.247,3.462-2.247a1.342,1.342,0,0,1,1.3.5,3.438,3.438,0,0,0,1.731.5c2.38,0,3.895-1.5,4.76-4.245a3.792,3.792,0,0,0,.216-1.248c2.38,5.244,7.429,7.824,15,7.824,7,0,14.353-2.247,21.782-6.575a4.372,4.372,0,0,1,1.947-.749,1.7,1.7,0,0,1,1.515,1.5,27.516,27.516,0,0,0-5.626,9.072Zm20.2-12.984c-.288,0-.5.916-1.3,2.33a40.952,40.952,0,0,0-3.823,16.4c0,4.411,1.01,6.492,3.318,6.492,2.02,0,3.534-2.663,4.544-8.49v-.583c0-.333,0-.333-.289-.333,0,.333-.288.333-.288.583-1.3,2.663-2.308,3.829-3.029,3.829-1.515,0-2.308-1.748-2.308-4.994,0-2.33.793-6.742,2.524-12.568a24.049,24.049,0,0,0,.649-2.663Zm320.46-94.718a7.454,7.454,0,0,0,1.731-2.33,13.819,13.819,0,0,0,.938-4.245c.144-.749.216-1.415.289-2.164q0-5.368-2.813-7.491a52.585,52.585,0,0,0-7.285-4.411,28,28,0,0,1-8.223-6.409c1.875.166,2.813,0,3.1-.333s0-.749-.938-1.415a5.365,5.365,0,0,1-.649-.333l-5.7-3.163c-.433-.333-.649-.5-.793-.333a1.259,1.259,0,0,0-.144.749v3.745a2.75,2.75,0,0,0,.649,2.081,10.009,10.009,0,0,1,1.515,1.248A30.948,30.948,0,0,0,540.286,115a51.661,51.661,0,0,0,6.347,3.912,30.434,30.434,0,0,1,5.7,3.745c.938.916,1.515,1.581,1.515,2.164a1.494,1.494,0,0,1-.5,1.082c-1.082,1.248-4.76,4.078-10.963,8.739-6.924,5.327-11.685,7.99-14.065,7.99-2.308,0-4.183-2.164-4.183-4.827v-.5a49.444,49.444,0,0,1,1.659-10.487,9.846,9.846,0,0,0,.289-1.415c0-.333,0-.333-.144-.333s-.433.5-.793,1.415a45.136,45.136,0,0,0-2.308,13.567c0,5.909,1.875,8.739,5.7,8.739,2.02,0,6.491-2.5,13.271-7.824A80.408,80.408,0,0,0,552.115,132.483Zm-29.356-84.73a29.9,29.9,0,0,0,2.164,4.994,2.979,2.979,0,0,0,2.236,1.415,31.6,31.6,0,0,1,3.246.916c2.308,1.082,4.111,1.831,5.193,2.247a121.345,121.345,0,0,1-2.164,14.4c-.289,1.831-.866,4.495-1.947,8.823a20.241,20.241,0,0,0-.577,3.662l.144.25a9.046,9.046,0,0,0,1.37-2.33c3.606-6.326,5.77-14.316,6.275-23.638a40.383,40.383,0,0,1,4.832,1.248c.361,6.659.721,11.819,1.515,14.982a35.62,35.62,0,0,0,4.328,11.486q4.652,7.741,9.088,4.245c1.875-1.5,3.462-4.328,4.9-8.323a29.021,29.021,0,0,0,2.164-9.322,22.7,22.7,0,0,0-1.01-4.911,30.511,30.511,0,0,0-1.8-4.911,27.449,27.449,0,0,0-5.265-6.575c-2.308-2-5.77-3.662-10.314-4.827-.144-6.242-.216-10.9-.433-14.566a42.413,42.413,0,0,0-1.515-8.573,30.589,30.589,0,0,0-3.029-8.323c-1.01-1.748-1.947-2.33-2.813-1.581-1.3,1-2.236,4.994-3.1,11.9-.144,8.073-.216,14.4-.361,19.227-2.308-.666-3.751-1.165-3.823-1.415s.649-.832,2.092-2c.938-.749,1.154-1.248,1.082-1.5s-.433-.25-1.37-.5c-1.659,0-3.895-.083-6.852,0a14.492,14.492,0,0,0-4.833.666C521.966,45.09,521.966,45.922,522.759,47.753Zm24.884,12.318a31.172,31.172,0,0,1,12.766,4.411c.289.083.361,1,.072,2.5a28.79,28.79,0,0,1-3.246,9.239,15.2,15.2,0,0,1-3.174,4.411c-2.236,1.748-3.895,1.748-4.9.083a1.563,1.563,0,0,1-.216-.832A44.2,44.2,0,0,1,547.5,69.643,60.6,60.6,0,0,1,547.643,60.072Zm-6.852-29.963a3.79,3.79,0,0,1,.721-1.165c.938-.749,1.731,2.414,1.731,9.405.361,6.991.289,11.153.289,12.485a27.424,27.424,0,0,1-4.472-.583c-.072-10.237.649-16.813,1.731-20.142ZM234.9,217.879c.288,0,.5-.333,1.01-1.5.721-1.165,1.3-3.5,1.8-6.742,1.01-7.657,2.308-11.4,3.823-11.4a2.751,2.751,0,0,1,1.8,1.5,2.952,2.952,0,0,0,1.01,1.165c.5,0,1.01-.583,1.3-1.748a6.556,6.556,0,0,0,.288-2.081,3.718,3.718,0,0,0-1.01-2.33c-.721-1.5-1.515-2.081-2.308-2.081-1.515,0-3.029,1.748-4.328,5.576a88.319,88.319,0,0,0-2.308,11.4,1.4,1.4,0,0,0-.289.583c0,.333,0,.333-.288,0v-.583a31.9,31.9,0,0,0-3.318-10.57c-1.515-2.663-3.318-3.829-5.049-3.829-.289,0-.793.583-1.515,2.33a14.474,14.474,0,0,0-1.3,2.663,3.616,3.616,0,0,0,1.515,2.331,3.484,3.484,0,0,0,2.308,1.5c.5,0,.721,0,.721-.333.289-.333.5-.583.793-.583.793,0,1.515,2.081,2.813,5.826s2.02,6.159,2.02,7.657C234.4,217.629,234.685,217.879,234.9,217.879Zm56.908,42.448c-.144,0-.288.166-.288.5l-1.875,4.078v.5a46.059,46.059,0,0,1,4.328,3.413c.144.166.288,0,.577-.333a11.387,11.387,0,0,0,1.731-4.494c0-.166-.649-.749-2.02-1.914a25.146,25.146,0,0,0-2.452-1.748ZM217.3,137.977c-1.515-2.663-3.318-3.829-5.049-3.829-.289,0-.793.583-1.515,2.33a14.473,14.473,0,0,0-1.3,2.663,3.616,3.616,0,0,0,1.515,2.33,3.484,3.484,0,0,0,2.308,1.5c.5,0,.721,0,.721-.333.288-.333.5-.583.793-.583.721,0,1.515,2.081,2.813,5.826s2.02,6.159,2.02,7.574c0,.916.289,1.165.5,1.165s.5-.333,1.01-1.5c.721-1.165,1.3-3.5,1.8-6.742,1.01-7.574,2.308-11.4,3.823-11.4a2.751,2.751,0,0,1,1.8,1.5,2.483,2.483,0,0,0,1.01,1.165c.5,0,1.01-.583,1.3-1.748a6.556,6.556,0,0,0,.288-2.081,3.719,3.719,0,0,0-1.01-2.33c-.721-1.5-1.515-2.081-2.308-2.081-1.515,0-3.029,1.748-4.328,5.577a88.321,88.321,0,0,0-2.308,11.4,1.4,1.4,0,0,0-.289.583c0,.333,0,.333-.289,0v-.583C219.827,144.136,218.817,140.557,217.3,137.977Zm-42.771,27.217c-.216,0-.5.916-1.3,2.33a40.952,40.952,0,0,0-3.823,16.4c0,4.411,1.01,6.409,3.318,6.409,2.02,0,3.534-2.663,4.544-8.49v-.583c0-.333,0-.333-.216-.333,0,.333-.288.333-.288.583-1.3,2.663-2.308,3.829-3.029,3.829-1.515,0-2.308-1.748-2.308-4.994,0-2.33.793-6.742,2.524-12.568A18.069,18.069,0,0,0,174.531,165.193Zm356.018-3.08c-.144,0-.289.166-.289.5l-1.875,4.078v.5a46.063,46.063,0,0,1,4.328,3.413c.144.166.288,0,.577-.333a11.387,11.387,0,0,0,1.731-4.495c0-.166-.649-.749-2.02-1.914-1.515-1.165-2.164-1.748-2.452-1.748ZM363,217.3c-.289,0-.5.916-1.3,2.33a40.952,40.952,0,0,0-3.823,16.4c0,4.411,1.01,6.409,3.318,6.409,2.02,0,3.534-2.663,4.544-8.49v-.583c0-.333,0-.333-.289-.333,0,.333-.289.333-.289.583-1.3,2.663-2.308,3.829-3.029,3.829-1.515,0-2.308-1.748-2.308-4.994,0-2.33.793-6.742,2.524-12.568A24.705,24.705,0,0,0,363,217.3Zm-11.035-81.317a4.816,4.816,0,0,0,1.37,1.665c4.76,3.662,7.79,7.241,9.232,10.487.577,1.248-.072,4.078-2.02,8.906a68.845,68.845,0,0,1-8.295,14.9,46.252,46.252,0,0,1-13.56,13.151c-5.554,3.329-10.6,3.662-15.219,1.248a15.946,15.946,0,0,1-7.79-8.157c-.288-.749-1.37-4.328-3.174-10.9-.144-.832-.433-1.332-.721-1.165a1.772,1.772,0,0,0-.144,1.415,42.127,42.127,0,0,0,1.659,7.99,27.376,27.376,0,0,0,2.02,5.327c2.669,5.826,5.842,9.988,9.665,12.235,5.121,3.163,10.891,2.913,17.022-.749,5.987-3.579,11.252-9.655,15.94-17.895,3.751-6.742,6.347-12.818,7.213-18.061.866-3.662-.361-8.989-3.606-16.064a14.918,14.918,0,0,0,2.6-1.165c3.534-2.164,5.41-6.159,5.626-12.152q4,3,6.491,1.5c2.308-1.415,3.606-3.745,3.751-7.241a18.534,18.534,0,0,0-1.947-8.573,8.419,8.419,0,0,0-3.39-4.078c-.577-.333-.793-.416-.938-.333-.289.166-.289.666-.144,1.415a47.316,47.316,0,0,0,1.154,5.577l2.6,1.831a3.873,3.873,0,0,1-2.092,3.08,3.694,3.694,0,0,1-3.462.5,2.975,2.975,0,0,1-2.308-1.581,11.091,11.091,0,0,0-.649-3.246c.072-.25,0-.416-.144-.832-.216-.5-.5-.583-.793-.416a1.538,1.538,0,0,0-.577,1.248c-.216,2.58-.433,4.994-.649,7.574a9.722,9.722,0,0,1-4.616,7.491,7.16,7.16,0,0,1-6.2,1,11.545,11.545,0,0,1-3.606-2.33c-.721-.666-1.154-.832-1.3-.749s-.144.5-.072,1.165a22.319,22.319,0,0,0,1.082,5.993Zm15.363,65.753a5.853,5.853,0,0,0-1.37-4.328,8.3,8.3,0,0,0-1.37,2.414c-.721,1.165-1.01,2-.721,2.414a22.067,22.067,0,0,0,.721,3.163c-.361.416-.361.416-.721.416-3.751,0-5.121-.416-4.833-1.165a19.484,19.484,0,0,0,.721-3.579c0-.416,0-.832-.361-.832s-1.01.832-1.731,1.581c-.721,1.581-1.731,3.163-2.38,4.744a5.551,5.551,0,0,1-4.111,2,6.485,6.485,0,0,1-3.462-.832,13.118,13.118,0,0,0-3.1-.749c-3.462,0-6.852,1.581-9.953,4.328a53.159,53.159,0,0,0-7.862,8.323c-3.462,4.744-5.842,7.907-7.862,10.321-3.751,3.163-6.491,5.577-8.222,6.742a25.371,25.371,0,0,0-3.1,2c0,.416,0,.416.361.416a18.085,18.085,0,0,0,4.472-1.581c2.092-.416,4.111-2,6.2-3.579l10.314-11.9c4.833-5.16,9.593-7.491,14.065-7.491a8.119,8.119,0,0,1,2.741.832,19.184,19.184,0,0,0,3.1.832c2.741,0,5.482-2,8.223-5.16,3.462,2,5.842,2,7.573.832a12.03,12.03,0,0,0,1.731-4,21.076,21.076,0,0,0,.938-6.159ZM297.8,233.526c0-1.831-.938-2.913-2.741-2.913-.721,0-2.308.749-4.76,2.081a60.611,60.611,0,0,1-8.006,3.912,35.242,35.242,0,0,1-12.117,1.831,21.443,21.443,0,0,1-10.747-2.913,25.753,25.753,0,0,1-3.39-2.663,9.258,9.258,0,0,0-1.37-1.082c-.649,0-1.154,1.082-1.37,3.163a56.8,56.8,0,0,0,2.957,5.244,22.21,22.21,0,0,1,.938,5.826v1.581c.216,0,.433-.5.721-1.332a9.89,9.89,0,0,0,.433-6.326,22.238,22.238,0,0,0,10.963,2.913c7.285,0,14.786-2.414,22.792-6.825a3.08,3.08,0,0,1,2.02-.749,1.715,1.715,0,0,1,1.587,1.581c-.938,1.082-1.875,2.247-2.741,3.413a20.065,20.065,0,0,0-3.39,6.076,5.591,5.591,0,0,0-.433,1.581h.216a15.989,15.989,0,0,0,1.587-2.33,49.724,49.724,0,0,1,3.678-4.994c.866-1.165,1.731-2.414,2.524-3.662a8.6,8.6,0,0,0,.649-3.412Zm-107.18-58.179a37.89,37.89,0,0,0-4.76,3.163,8.013,8.013,0,0,0-.793.749c0,.166.433,0,1.226-.166,4.328-1.415,7.068-2.33,7.862-3a23.457,23.457,0,0,0,3.823-4.827c1.226-1.914,1.875-3.163,1.875-3.745,0-1.415-2.6-2-7.718-2a11.587,11.587,0,0,0-2.957.166,3.446,3.446,0,0,0-2.6,1.748l-1.515,3a4.857,4.857,0,0,0-.433.749c0,.083.433.333,1.226.166h2.6c4.472,0,6.636.333,6.636.916,0,.166,0,.166-.144.333a40.237,40.237,0,0,1-4.328,2.747ZM231.583,69.81c-.288,0-.5.916-1.3,2.33a40.952,40.952,0,0,0-3.823,16.4c0,4.411,1.01,6.409,3.318,6.409,2.02,0,3.534-2.663,4.544-8.49v-.583c0-.25,0-.25-.288-.25,0,.25-.289.25-.289.583-1.3,2.663-2.308,3.829-3.029,3.829-1.515,0-2.308-1.748-2.308-4.994,0-2.33.793-6.742,2.524-12.568a9.648,9.648,0,0,0,.649-2.663ZM203.454,87.871a10.849,10.849,0,0,0,.577-2.663v-.416c-.361,0-.721.832-1.515,2.414a34.741,34.741,0,0,0-3.39,15.564c0,5.244,1.154,9.405,3.606,12.984,3.606,4.827,9.521,7.491,17.527,7.491,7.573,0,17.31-2.164,28.923-6.825,1.875-.666,7.429-3.08,16.733-7.241,4.183-1.748,6.852-2.663,8.367-2.663.938,0,1.515.25,1.515.916,0,.916-1.515,3.246-4.76,7.491-3.39,4.578-5.7,8.573-6.636,12.069a42.825,42.825,0,0,0-.938,4.411c0,.083.072.25.144.25h0c.216,0,.938-1.5,2.308-4.578a31.86,31.86,0,0,1,3.606-5.743c1.154-1.581,2.452-3.329,3.606-4.827,2.308-3.329,3.606-5.244,3.967-5.909a15.658,15.658,0,0,0,2.669-7.907c0-3.08-1.3-4.578-4.4-4.578-1.731,0-4.183.666-7.429,2.164-3.029,1.5-6.059,3.08-9.16,4.411a99.353,99.353,0,0,1-16.373,6.326,64.718,64.718,0,0,1-19.042,3.329c-8.367,0-14.425-2-18.464-5.743a11.119,11.119,0,0,1-3.967-8.573,25.342,25.342,0,0,1,.793-6.991c.649-1.831,1.226-3.413,1.731-5.16ZM533.29,12.8A11.387,11.387,0,0,0,535.021,8.3c0-.166-.649-.749-2.02-1.914-1.515-1.082-2.164-1.748-2.452-1.748-.144,0-.289.166-.289.5l-1.875,4.078v.5a46.059,46.059,0,0,1,4.328,3.412C532.857,13.3,533,13.129,533.29,12.8ZM269.955,147.382c-7.573,3.745-11.757,5.743-12.622,6.242-1.875.916-2.885,1.581-2.885,1.748s0,.166.144.166a15.825,15.825,0,0,0,2.741-.5,105.574,105.574,0,0,0,10.314-2.663c5.121-1.415,7.718-2.164,7.862-2.164,1.082,0,4.183-1.748,9.593-5.327,6.2-4.078,10.675-7.99,13.271-11.4a17.3,17.3,0,0,0,2.813-5.327,26.96,26.96,0,0,0,1.875-5.327q6.059,6.742,9.737,6.742c.649,0,1.37-.666,2.02-2a15.7,15.7,0,0,0,1.37-4.078,9.317,9.317,0,0,0,.144-2,13.589,13.589,0,0,0-1.082-5.909c-.938-2-2.164-3.163-3.823-3.163-2.02,0-4.039,1.581-6.2,4.827a1.218,1.218,0,0,0-.649-.333c-.433,0-.649.333-.938.749-.288.666-.793,2-1.8,4.245a46.346,46.346,0,0,1-1.875,4.411c-2.164,3.745-7.862,8.323-16.806,13.9C279.692,142.388,275.364,144.718,269.955,147.382Zm38.588-28.715a4.477,4.477,0,0,1,1.731-.666,2.743,2.743,0,0,1,1.875,1.248,5.2,5.2,0,0,1,.938,2.5c.144.916,0,1.415-.289,1.415a9.43,9.43,0,0,1-2.741-1.581,16.93,16.93,0,0,1-2.741-2.164,12.566,12.566,0,0,1,1.226-.749ZM363,59.988c-.289,0-.5.916-1.3,2.33a40.952,40.952,0,0,0-3.823,16.4c0,4.411,1.01,6.409,3.318,6.409,2.02,0,3.534-2.663,4.544-8.49v-.583c0-.25,0-.25-.289-.25,0,.25-.289.25-.289.583-1.3,2.663-2.308,3.829-3.029,3.829-1.515,0-2.308-1.748-2.308-4.994,0-2.33.793-6.742,2.524-12.568.361-1.581.649-2.414.649-2.663ZM245.864,136.062a37.888,37.888,0,0,0-4.76,3.163,8.017,8.017,0,0,0-.793.749c0,.166.433,0,1.226-.166,4.328-1.415,7.068-2.33,7.862-3a23.455,23.455,0,0,0,3.823-4.827c1.226-1.914,1.875-3.163,1.875-3.745,0-1.415-2.6-2-7.718-2a11.588,11.588,0,0,0-2.957.166,3.446,3.446,0,0,0-2.6,1.748l-1.515,3a4.855,4.855,0,0,0-.433.749c0,.083.433.333,1.226.166h2.6c4.472,0,6.636.333,6.636.916,0,.166,0,.166-.144.333A40.238,40.238,0,0,1,245.864,136.062Zm48.614-24.969a11.389,11.389,0,0,0,1.731-4.495c0-.166-.649-.749-2.02-1.914-1.515-1.082-2.164-1.748-2.452-1.748-.144,0-.289.166-.289.5l-1.875,4.078v.5a46.056,46.056,0,0,1,4.328,3.413c.216.166.361,0,.577-.333ZM178.786,75.053c-1.515-2.663-3.318-3.829-5.049-3.829-.288,0-.793.583-1.515,2.33a17.646,17.646,0,0,0-1.3,2.663,3.616,3.616,0,0,0,1.515,2.33,3.484,3.484,0,0,0,2.308,1.5c.5,0,.793,0,.793-.333.289-.25.5-.583.793-.583.721,0,1.515,2.081,2.813,5.826s2.02,6.159,2.02,7.657c0,.916.288,1.165.5,1.165s.5-.25,1.01-1.5c.793-1.165,1.3-3.5,1.8-6.742,1.01-7.574,2.308-11.4,3.823-11.4a2.751,2.751,0,0,1,1.8,1.5,2.483,2.483,0,0,0,1.01,1.165c.5,0,1.01-.583,1.3-1.748a6.556,6.556,0,0,0,.288-2.081,3.718,3.718,0,0,0-1.01-2.33c-.721-1.5-1.515-2.081-2.308-2.081-1.515,0-3.029,1.748-4.328,5.577a88.322,88.322,0,0,0-2.308,11.4,1.4,1.4,0,0,0-.288.583c0,.25,0,.25-.289,0v-.583A33.727,33.727,0,0,0,178.786,75.053Zm13.2,54.85c-2.164,3-3.39,5.743-3.39,8.406,0,2,.577,3,1.659,3,.793,0,1.515-.5,2.308-1.581a6.28,6.28,0,0,0,.938-2.164,9.9,9.9,0,0,0,2.164,1.914,25.154,25.154,0,0,1-5.842,4.994c-2.164,1.581-4.328,3-6.491,4.495-.577.333-.793.666-.793.749h.144a1.32,1.32,0,0,0,.938-.333,44.364,44.364,0,0,1,4.9-2c1.587-1,3.1-2.081,4.616-3.246a18.814,18.814,0,0,0,3.534-4.245,4.557,4.557,0,0,1,1.659,1.581,6.216,6.216,0,0,0,1.226-2.83,14.407,14.407,0,0,0-1.659-1.415,17.977,17.977,0,0,0,.577-4.411,12.4,12.4,0,0,0,2.957-6.742v-.666a1.233,1.233,0,0,0-1.37-1.415c-.793,0-2.02.666-3.678,1.748A18.642,18.642,0,0,0,191.986,129.9Zm4.76,6.742c-1.37-.749-2.02-1.415-2.02-1.914,0-.166.144-.333.5-.583.433-.166.577-.333.793-.333.433,0,.649.333.793.916A3.462,3.462,0,0,1,196.746,136.645Zm3.246-8.323c0,.749-.649,2-1.875,3.579a1.062,1.062,0,0,0-.649-.749c-.649-.166-1.659.166-2.741,1.248a6.2,6.2,0,0,0-1.659,3.745,2.172,2.172,0,0,1-.649,1.748,2.114,2.114,0,0,1-1.731.666c-.577,0-.938-.5-.938-1.581,0-1.581.938-3.413,2.741-5.66a18.292,18.292,0,0,1,3.678-3.246,5.943,5.943,0,0,1,2.813-1.082c.649-.083,1.01.416,1.01,1.332Zm30.438,50.022c1.154-1.415,1.8-2.5,1.659-2.913-.072-.25-.433,0-1.01.333a13.3,13.3,0,0,0-1.731,1.165c-3.174,2.5-8.006,5.66-14.642,9.821-5.193,3.413-9.449,5.993-12.478,7.657-10.386,5.743-19.258,7.324-26.326,4.578-5.554-2.247-9.881-6.742-12.766-13.816-2.741-6.659-2.813-14.732-.216-24.054,1.8-6.825,5.121-14.815,9.809-23.721,2.957-5.16,6.059-10.487,9.088-15.9a8.258,8.258,0,0,0,.793-3l.288-6.242a1.9,1.9,0,0,0-.144-1.415.379.379,0,0,0-.5-.25,3.783,3.783,0,0,0-.938,1c-2.813,4.911-5.482,9.655-8.439,14.316s-5.626,7.657-7.79,8.823a15.837,15.837,0,0,1-15.507.416,18.325,18.325,0,0,1-8.367-7.408,23.624,23.624,0,0,1,5.626-8.24,45.321,45.321,0,0,1,9.16-7.075,24.356,24.356,0,0,1,8.222-2.5,3.577,3.577,0,0,0,1.875-.25.617.617,0,0,0,.361-.749c-.072-.25-.649-.416-1.587-.666a21.246,21.246,0,0,0-16.95,1.665,19.9,19.9,0,0,0-8.583,9.572,17.073,17.073,0,0,0-.216,13.816c1.875,4.578,5.265,7.99,10.242,10.4a20.981,20.981,0,0,0,12.911,1.831c-5.914,15.481-5.554,30.8.938,46.527,7.718,18.644,21.854,22.056,42.915,10.487a39.078,39.078,0,0,0,6.852-4.827c9.737-10.82,15.579-17.062,17.455-19.393Zm-80.566,24.72c-.144,0-.289.166-.433.333l-1.37,3.412a19.127,19.127,0,0,0-2.452-2,10.463,10.463,0,0,0-1.875-1.415q-.216,0-.433.5l-1.731,4.078a.318.318,0,0,0-.072.416l.072.083a42.532,42.532,0,0,1,4.183,3.246c.289.166.433.166.577-.166a28.088,28.088,0,0,0,1.515-3.413c1.515,1.248,2.957,2.33,4.039,3.246.289.166.433.166.5-.166,1.226-2.33,1.875-3.745,1.875-4.494a13.172,13.172,0,0,0-2.164-2A5.678,5.678,0,0,0,149.863,203.064ZM164,94.946a11.387,11.387,0,0,0,1.731-4.495c0-.166-.649-.749-2.02-1.914-1.515-1.082-2.164-1.748-2.452-1.748-.144,0-.289.166-.289.5L159.1,91.367v.5a46.053,46.053,0,0,1,4.328,3.412C163.64,95.445,163.712,95.279,164,94.946ZM161.332,244.18c-.144,0-.288.166-.288.5l-1.875,4.078v.5a46.046,46.046,0,0,1,4.328,3.412c.144.167.289,0,.577-.333a11.175,11.175,0,0,0,1.731-4.578c0-.167-.649-.749-2.02-1.914-1.515-1-2.236-1.581-2.452-1.665Zm-27.408-79.4c-.144,0-.288.166-.288.5l-1.875,4.078v.5a46.055,46.055,0,0,1,4.328,3.412c.144.166.288,0,.577-.333a11.387,11.387,0,0,0,1.731-4.495c0-.166-.649-.749-2.02-1.914-1.515-1-2.164-1.665-2.452-1.748ZM556.37,32.522c2.02,0,3.534-2.663,4.544-8.49v-.666c0-.333,0-.333-.289-.333,0,.333-.216.333-.216.583-1.3,2.663-2.308,3.829-3.029,3.829-1.515,0-2.308-1.748-2.308-4.994,0-2.33.793-6.742,2.524-12.568.288-1.5.5-2.33.5-2.663-.216,0-.5.916-1.3,2.33a40.953,40.953,0,0,0-3.823,16.4C553.125,30.441,554.135,32.522,556.37,32.522Zm-140.5,104.872c-.216,0-.5.916-1.3,2.33a40.951,40.951,0,0,0-3.823,16.4c0,4.411,1.01,6.492,3.318,6.492,2.02,0,3.534-2.663,4.544-8.49v-.583c0-.333,0-.333-.289-.333,0,.333-.216.333-.216.583-1.3,2.663-2.308,3.829-3.029,3.829-1.515,0-2.308-1.748-2.308-4.994,0-2.33.721-6.742,2.524-12.568A24.535,24.535,0,0,0,415.867,137.394Zm25.677-90.057a11.388,11.388,0,0,0,1.731-4.495c0-.166-.649-.749-2.019-1.914-1.515-1.082-2.164-1.748-2.452-1.748-.144,0-.288.166-.288.5l-1.875,4.078v.416a46.056,46.056,0,0,1,4.328,3.412C441.112,47.753,441.256,47.67,441.545,47.337Zm-56.187,1.914c-1.226-2.164-2.741-3.329-4.4-3.329,0,0-.433.749-1.082,1.914A7.181,7.181,0,0,0,378.866,50c0,.749.433,1.165,1.01,2.164a3.561,3.561,0,0,0,1.875,1.165c.649,0,.866-.25.866-.5a.923.923,0,0,1,.649-.25c.433,0,1.226,1.415,2.092,4.328a42.253,42.253,0,0,1,2.092,6.742c-1.226.749-2.092,2.663-2.524,6.242,0,.749,0,1,.216,1a14.143,14.143,0,0,0,.866-1.165c.649-1,1.01-1.415,1.443-1.415.649,0,1.226.5,2.092,1.415a7.4,7.4,0,0,0-3.534,1.665c-1.443,1.165-2.092,3.163-2.092,5.743,0,.749.649,3.829,1.443,9.155a72.543,72.543,0,0,1,1.443,13.733,25.79,25.79,0,0,0,.216,3.329c.216,0,.216-.25.433-1a28.231,28.231,0,0,0,.649-5.993,75.048,75.048,0,0,0-2.885-19.726c.649-1,1.875-1.665,3.534-2.414a24.237,24.237,0,0,1,4.183-1.165,8.907,8.907,0,0,0,.866-1.914,8.366,8.366,0,0,0,.649-1.914c0-1-.866-2.164-2.308-3.579a12.321,12.321,0,0,0-3.534-2.164,26.643,26.643,0,0,0,1.443-5.743c.866-5.993,1.875-9.155,3.1-9.155.433,0,.866.5,1.443,1a4.275,4.275,0,0,0,.866,1.165c.433,0,.649-.5,1.082-1.415,0-.749.216-1.248.216-1.665a3.752,3.752,0,0,0-.866-2.164,2.454,2.454,0,0,0-2.092-1.415c-1.226,0-2.308,1.415-3.318,4.328a82.955,82.955,0,0,0-1.875,9.405,1.487,1.487,0,0,0-.216.749h-.433v-.749a26.989,26.989,0,0,0-2.6-8.573ZM508.55,113.423a1.964,1.964,0,0,0-1.875.916c-.866.916-.866,2.414-.433,4.328a9.791,9.791,0,0,0-1.226,4.744c0,1.914,1.443,3.08,4.328,3.579a16.222,16.222,0,0,1-4.111,4.494c-1.226.916-2.524,2.164-3.751,3.08a6.915,6.915,0,0,0-2.308,5.244c0,1.914,1.226,2.83,3.895,2.83a18.35,18.35,0,0,0,7.213-1.665,12.744,12.744,0,0,0,4.328-2.164c1.659-1.415,2.524-2.164,2.524-2.414a1.719,1.719,0,0,0-.866.25c-4.544,1.165-7.429,1.914-8.655,2.164a14.914,14.914,0,0,1-6.636-.25.569.569,0,0,1-.649-.5v-.166c0-.25.433-.749,1.01-.916a18.641,18.641,0,0,0,5.193-3.829,16.671,16.671,0,0,0,3.967-5.743,28.7,28.7,0,0,1,4.833.916c.577,0,1.01-.749,1.587-2.164a8.629,8.629,0,0,0,.866-3.579,1.485,1.485,0,0,0-.216-.749,14.091,14.091,0,0,0-6.636-7.657A4.578,4.578,0,0,0,508.55,113.423Zm1.8,10.487c-2.524-.5-3.967-1.165-3.967-1.914,0-.5.433-.916,1.01-1.665a2.364,2.364,0,0,1,1.443-1.165c.649,0,1.01.5,1.226,1.665a4.148,4.148,0,0,1,.288,3.08Zm1.875-4.078a8.7,8.7,0,0,1,3.751,4.078c.216.5.216.749,0,.916h-.216q-3.679-.749-3.895-.749a26.364,26.364,0,0,0,.361-4.245ZM422.575,176.1a43.967,43.967,0,0,0-4.76,3.163,8.017,8.017,0,0,0-.793.749c0,.166.433,0,1.226-.166,4.328-1.415,7.068-2.33,7.862-3a23.458,23.458,0,0,0,3.823-4.827c1.226-1.914,1.875-3.163,1.875-3.745,0-1.415-2.6-2-7.718-2a11.587,11.587,0,0,0-2.957.166,3.446,3.446,0,0,0-2.6,1.748l-1.515,3a4.854,4.854,0,0,0-.433.749c0,.083.433.333,1.226.166h2.6c4.472,0,6.636.333,6.636.916,0,.166,0,.166-.144.333A40.247,40.247,0,0,1,422.575,176.1Zm-27.336-45.611a5.318,5.318,0,0,0-1.659,3.745c0,1.082.793,2.164,2.6,3.246a24.427,24.427,0,0,1-5.987,4.994c-2.164,1.581-4.328,3-6.491,4.495-.577.333-.649.666-.649.749a1.32,1.32,0,0,0,.938-.333c2.957-1.248,4.616-1.914,4.9-2a30.527,30.527,0,0,0,4.616-3.329,16.2,16.2,0,0,0,3.678-4.245c.793.666,1.226.916,1.226,1.248,0,0-.289.916-.793,2.83a18.855,18.855,0,0,0-.793,4.494c0,2.331.5,3.413,1.731,3.413,1.082,0,1.875-1.581,2.452-4.661V144.8h-.144a.457.457,0,0,0-.144.333c-.649,1.248-1.226,1.914-1.587,1.914-.793,0-1.226-.749-1.226-2.5a17.606,17.606,0,0,1,1.37-6.076,3.082,3.082,0,0,0,.289-1.415c0-.666-.433-1.248-1.226-1.914a12.606,12.606,0,0,0,.5-3.745c0-1.248-.289-2-.793-2.33a3.873,3.873,0,0,0-2.813,1.415Zm1.875,4.245c-1.37-.749-2.02-1.415-2.02-1.914,0-.166.289-.333.577-.666a3.228,3.228,0,0,1,.793-.333c.433,0,.649.333.793.916a3.136,3.136,0,0,1-.144,2ZM372.808,244.513c-.144,0-.289.166-.289.5l-1.947,4.078v.5A46.059,46.059,0,0,1,374.9,253c.144.166.289,0,.577-.333a11.388,11.388,0,0,0,1.731-4.494c0-.167-.649-.749-2.02-1.914s-2.092-1.831-2.38-1.748Zm0-157.391c-.144,0-.289.166-.289.5l-1.875,4v.5a46.062,46.062,0,0,1,4.328,3.412c.144.166.289,0,.577-.333a11.388,11.388,0,0,0,1.731-4.494c0-.166-.649-.749-2.02-1.914a10.062,10.062,0,0,0-2.452-1.665Zm31.231,1.665a25.758,25.758,0,0,1-3.39-2.663,9.253,9.253,0,0,0-1.37-1.082c-.721,0-1.154,1.082-1.37,3.163a56.834,56.834,0,0,0,2.957,5.244,19.582,19.582,0,0,1,.938,5.826v1.581c.216,0,.433-.5.721-1.332a10.544,10.544,0,0,0,.433-6.326,23.5,23.5,0,0,0,10.963,2.83c7.285,0,14.786-2.33,22.792-6.825a3.174,3.174,0,0,1,2.02-.832,1.715,1.715,0,0,1,1.587,1.581c-.938,1.082-1.875,2.247-2.741,3.412a20.066,20.066,0,0,0-3.39,6.076,5.59,5.59,0,0,0-.433,1.581h.216a15.99,15.99,0,0,0,1.587-2.33,59.243,59.243,0,0,1,3.606-4.994,39.764,39.764,0,0,0,2.524-3.662,11.026,11.026,0,0,0,.721-3.412c0-1.831-.938-2.913-2.741-2.913-.721,0-2.308.832-4.76,2.081a73.725,73.725,0,0,1-8.006,4,35.5,35.5,0,0,1-12.117,1.831,22.665,22.665,0,0,1-10.747-2.83Zm-4.9,70.747a1.855,1.855,0,0,1,1.587,1.082c.433.749.938,1.332,1.154,1.332s.721-.5.938-1.581a5.314,5.314,0,0,0,.216-1.831,4.617,4.617,0,0,0-.938-2.414c-.649-1.082-1.37-1.581-2.02-1.581-1.37,0-2.741,1.581-3.895,4.744a80.8,80.8,0,0,0-2.02,10.321,1.486,1.486,0,0,0-.216.749h-.216V169.6a24.009,24.009,0,0,0-2.957-9.239c-1.37-2.414-2.957-3.662-4.544-3.662-.216,0-.721.749-1.37,2.081A11.843,11.843,0,0,0,383.7,161.2a4.645,4.645,0,0,0,1.37,2.414c.938.832,1.587,1.332,2.02,1.332a1.108,1.108,0,0,0,.938-.5c0-.25.216-.25.433-.25.649,0,1.37,1.581,2.524,4.994a21.7,21.7,0,0,1,1.8,6.825,4.767,4.767,0,0,0,.144,1c-.216.333-.5.666-.866,1.165-.938,1.581-2.524,2.913-4.328,4.744-7.573,5.576-13.271,9.738-17.383,12.4-.938.5-1.37,1.082-1.37,1.332h.216a2.782,2.782,0,0,0,1.587-.5c5.049-2.081,7.573-3.163,8.222-3.412a85.315,85.315,0,0,0,7.79-5.493c2.957-2.663,5.265-5.244,6.131-8.157.5-1.248.793-2.164,1.01-2.663l.144-.25a20.861,20.861,0,0,0,1.587-6.326c1.154-6.908,2.308-10.321,3.462-10.321Zm24.739-44.862c-1.154,1.914-1.01,4,.721,6.326,1.3,1.914,4.039,4.744,8.367,8.323,1.082.916,7.573,5.16,19.619,13.234,11.973,7.824,18.825,12.568,20.773,14.233a29.563,29.563,0,0,1,6.708,7.491,13.484,13.484,0,0,1,1.37,7.158c.072.666-.216.832-.5.5-2.452-1.665-12.622-8.406-30.654-20.142-16.229-10.654-26.182-17.4-30.077-20.558a86.69,86.69,0,0,1-12.55-12.568c-1.875-2.58-3.751-5.244-5.7-7.99a22.57,22.57,0,0,0-1.587-2.081c-.144-.083-.144-.083-.216,0a9.588,9.588,0,0,0,.649,2.414c1.37,4.994,2.452,8.573,3.174,10.9s2.524,4.827,5.049,7.491c1.37,1.332,3.606,3.329,6.636,5.909,3.606,3,13.993,9.9,30.87,20.891,10.53,6.659,21.061,13.567,31.592,20.142a2.369,2.369,0,0,0,1.01.5,8.061,8.061,0,0,0,2.524-1.248c1.082.832,2.092,1.581,3.1,2.5.144.166.289,0,.577-.333a11.388,11.388,0,0,0,1.731-4.495c0-.166-.649-.749-1.947-1.831,1.01-2.663.866-5.743-.577-9.155a24.828,24.828,0,0,0-7.357-9.821c-2.669-2.164-9.16-6.659-19.763-13.567s-17.671-11.9-21.422-14.982a36.669,36.669,0,0,1-7.141-7.324c-1.226-1.748-1.659-2.913-1.226-3.662.144-.25,1.659-.749,4.4-1.165a72.856,72.856,0,0,1,12.045-1,33.532,33.532,0,0,1,8.15.832c3.029.583,4.832,1.082,5.7,1.831a2.974,2.974,0,0,1,1.154,2.164c0,.749.072,1.248.216,1.332.216.166.649,0,1.587-.666a12.527,12.527,0,0,0,2.02-1.581,1.758,1.758,0,0,0,.649-.832c.866-1.415.577-2.83-1.154-4.245-2.164-1.831-7-2.913-14.281-3-7.213-.25-12.622.416-16.373,1.914a15.9,15.9,0,0,0-7.862,6.159ZM511.219,91.45c-1.659,0-3.246.916-5.7,3.163-1.659,2.164-3.246,4.078-4.9,5.993-2.741,0-4.111,0-3.823-.333a16.055,16.055,0,0,0-6.78,3.745,41.98,41.98,0,0,0-6.275,6.575c-2.741,3.745-4.616,6.575-6.275,8.157-3.029,2.5-5.193,4.411-6.491,5.327a26.052,26.052,0,0,0-2.452,1.581c0,.333,0,.333.288.333a13.92,13.92,0,0,0,3.534-1.248c1.659-.333,3.246-1.581,4.9-2.83,2.741-3.163,5.41-6.242,8.15-9.738,3.823-4.078,7.573-5.993,11.18-5.993a6.519,6.519,0,0,1,2.164.333,8.206,8.206,0,0,0,2.452.583,14.278,14.278,0,0,0,9.232-3.413,11.5,11.5,0,0,0,4.111-8.49c-.072-2.58-1.154-3.829-3.318-3.745Zm-2.164,8.157a15.022,15.022,0,0,1-5.987,1.581h-1.082c3.246-3.745,5.987-5.66,7.573-5.66s2.741.333,2.957,1.581c-.5.832-1.587,1.5-3.462,2.5Zm-19.474,96.133a14.583,14.583,0,0,0,.649-4.328,11.082,11.082,0,0,0-.649-3.08c-.866-2.33-1.3-3.579-1.3-3.579a15.083,15.083,0,0,0-.433-2.5c0-.5,0-1-.216-1a4.486,4.486,0,0,1-.649,1,4.9,4.9,0,0,0-.649,2.5c0,2,.866,4.578,2.669,7.907a1.7,1.7,0,0,1-1.515,1.5c-1.947,0-3.1-1.5-3.1-4.328a26.679,26.679,0,0,0-.649-4.827c-.216-2-.649-3.08-.866-3.08s-.433.25-.649,1a2.538,2.538,0,0,0-.433,1.748,9.632,9.632,0,0,0,.433,2.83c.216,1.748.433,2.83.433,3.329a3.663,3.663,0,0,1-1.082,3.08,2.316,2.316,0,0,1-2.164,1.248c-.649,0-1.082-.5-1.515-1.5a7.3,7.3,0,0,1-.649-3.08c0-.25.216-1,.216-1.5a7.642,7.642,0,0,0,.216-2.58c0-1.748-.216-2.83-.649-2.83-.216,0-.649.5-1.3,1.248a4.353,4.353,0,0,0-1.082,2.83,1.041,1.041,0,0,0,.649,1c.433.25.649.25.649.749v4.078a9.92,9.92,0,0,0,.866,4.578,2.8,2.8,0,0,0,2.236,1.165c2.164,0,3.534-1.748,4.4-5.077.649,2.58,1.947,4.078,3.751,4.078.649.166,1.515-.832,2.38-2.58ZM458.783,38.6c-.216,0-.5.916-1.3,2.33a40.952,40.952,0,0,0-3.823,16.4c0,4.411,1.01,6.409,3.318,6.409,2.02,0,3.534-2.663,4.544-8.49v-.583c0-.25,0-.25-.216-.25,0,.25-.216.25-.216.583-1.3,2.663-2.308,3.829-3.029,3.829-1.515,0-2.308-1.748-2.308-4.994,0-2.33.793-6.742,2.524-12.568C458.566,39.763,458.783,38.848,458.783,38.6ZM428.706,67.23a9.252,9.252,0,0,1,1.731-1,2.706,2.706,0,0,1,1.731,1.5c0,.5.216.5.433.25a7.576,7.576,0,0,0,1.082-3.579c0-1.5-.649-2.5-2.02-2.5-1.515,0-3.318,1.5-5.482,4.578a9.49,9.49,0,0,0-1.731,4.827c0,1.248,1.082,2.33,3.318,3.329-1.731,1.5-2.669,2.5-2.885,3.08l-.216,2.247v.25c.433-.25.649-.25.866-.5,5.482-4.328,9.232-7.075,10.819-8.406a4.77,4.77,0,0,0,1.082-2.83c.216-.5.216-1,0-1a1.847,1.847,0,0,0-1.3.5,21.014,21.014,0,0,0-2.669,2,6.724,6.724,0,0,1-2.38,1.248,3.581,3.581,0,0,1-2.164-1q-1.3-.749-1.3-1.5C427.624,68.228,427.84,67.729,428.706,67.23Zm91.241,7.907a11.388,11.388,0,0,0,1.731-4.495c0-.166-.649-.749-2.02-1.914-1.515-1.082-2.164-1.748-2.452-1.748-.144,0-.289.166-.289.5l-1.875,4.078v.5a46.058,46.058,0,0,1,4.328,3.412C519.586,75.636,519.73,75.47,519.946,75.137Zm-29,59.011c0-.333,0-.333-.216-.333,0,.333-.289.333-.289.583-1.3,2.663-2.236,3.829-3.029,3.829-1.515,0-2.308-1.748-2.308-4.994,0-2.33.793-6.742,2.524-12.568.216-1.5.5-2.33.5-2.663-.216,0-.5.916-1.3,2.33a40.951,40.951,0,0,0-3.823,16.4c0,4.411,1.01,6.492,3.318,6.492,2.02,0,3.534-2.663,4.544-8.49ZM477.9,209.389c-.216,0-.5.333-.5.916l-3.534,7.574v.916c2.813,2,5.482,4.162,8.15,6.409.216.333.5,0,1.01-.583,2.308-4.078,3.318-7.075,3.318-8.49,0-.25-1.3-1.5-3.823-3.5-2.813-2.081-4.111-3.246-4.616-3.246ZM447.747,61.237c.216-.916,0-1.332-.216-1.332s-.361.25-.793,1.082a39.6,39.6,0,0,0-1.875,8.823,42.788,42.788,0,0,0-.361,6.825,26.684,26.684,0,0,0,.938,8.157c3.606,10.987,10.458,16.48,19.979,16.48,7.429,0,15.219-2.83,23.585-8.157,6.491-4.411,11.612-8.739,15-13.4,2.092-2.83,3.246-6.991,3.246-12.485,0-2.83-.938-6.159-2.452-10.071-2.092-4.578-3.246-7.241-3.246-7.907a6.664,6.664,0,0,0,3.029.832c.577,0,.721-.25.721-.666a2.417,2.417,0,0,0-.721-1.5c-3.246-3.5-5.337-6.159-6.275-7.241-.361-.416-.577-.666-.721-.666s-.361.416-.577,1.082a49.508,49.508,0,0,0-.938,6.575,2.091,2.091,0,0,0,.577,1.5,5.523,5.523,0,0,1,1.3,2.83,73.766,73.766,0,0,0,4.328,12.485,53.778,53.778,0,0,1,2.308,5.66c0,1.5-1.875,4-5.7,7.491a58.681,58.681,0,0,1-14.642,9.655,41.9,41.9,0,0,1-18.825,4.827,17.958,17.958,0,0,1-15.363-7.657,20.934,20.934,0,0,1-3.967-12.485,29.309,29.309,0,0,1,.793-6.159c.288-1.332.5-2.83.865-4.578ZM428.706,224.621a9.253,9.253,0,0,1,1.731-1,2.706,2.706,0,0,1,1.731,1.5c0,.5.216.5.433.25a7.576,7.576,0,0,0,1.082-3.579c0-1.5-.649-2.5-2.02-2.5-1.515,0-3.318,1.5-5.482,4.578a9.491,9.491,0,0,0-1.731,4.827c0,1.248,1.082,2.247,3.318,3.329-1.731,1.5-2.669,2.5-2.885,3.08l-.144,2.164v.25c.433-.25.649-.25.866-.5,5.482-4.328,9.232-7.075,10.819-8.406a4.771,4.771,0,0,0,1.082-2.83c.216-.5.216-1,0-1a1.847,1.847,0,0,0-1.3.5,21.025,21.025,0,0,0-2.669,2,6.721,6.721,0,0,1-2.38,1.248,3.581,3.581,0,0,1-2.164-1q-1.3-.749-1.3-1.5C427.624,225.619,427.84,225.12,428.706,224.621ZM482.945,67.23c2.308-4.078,3.318-6.991,3.318-8.49,0-.25-1.3-1.5-3.823-3.5C479.627,53.163,478.4,52,477.9,52c-.216,0-.5.333-.5.916l-3.534,7.657v.916c2.813,2,5.482,4.162,8.15,6.409C482.224,68.145,482.44,67.812,482.945,67.23Zm-7.934-35.79c.433.25.649.25.649.749v4.078a9.13,9.13,0,0,0,.938,4.578,2.9,2.9,0,0,0,2.236,1.248c2.164,0,3.534-1.748,4.4-5.077.649,2.5,1.947,4.078,3.751,4.078.865,0,1.731-1,2.669-2.83a14.581,14.581,0,0,0,.649-4.328,11.078,11.078,0,0,0-.649-3.08c-.865-2.33-1.3-3.579-1.3-3.579a13.72,13.72,0,0,0-.433-2.5c0-.5,0-1-.216-1a4.487,4.487,0,0,1-.649,1,5.127,5.127,0,0,0-.649,2.5c0,2,.866,4.578,2.669,7.907a1.7,1.7,0,0,1-1.515,1.5c-1.947,0-3.1-1.5-3.1-4.328a26.685,26.685,0,0,0-.649-4.827c-.216-2-.649-3.08-.866-3.08s-.433.25-.649,1a2.538,2.538,0,0,0-.433,1.748,9.63,9.63,0,0,0,.433,2.83c.216,1.748.433,2.747.433,3.329a3.664,3.664,0,0,1-1.082,3.08,2.317,2.317,0,0,1-2.164,1.248c-.649,0-1.082-.5-1.515-1.5a7.3,7.3,0,0,1-.649-3.08c0-.25.216-1,.216-1.5a7.642,7.642,0,0,0,.216-2.58c0-1.748-.216-2.83-.649-2.83-.216,0-.649.5-1.3,1.248a4.353,4.353,0,0,0-1.082,2.83c-.288.666-.072.916.289,1.165ZM417.887,14.627h2.524c4.472,0,6.636.333,6.636.916,0,.166,0,.166-.144.333a40.872,40.872,0,0,1-4.328,2.83,43.969,43.969,0,0,0-4.76,3.163,8.015,8.015,0,0,0-.793.749c0,.166.433,0,1.226-.166,4.328-1.415,7.068-2.33,7.862-3a23.458,23.458,0,0,0,3.823-4.827c1.226-1.914,1.875-3.163,1.875-3.745,0-1.415-2.6-2-7.718-2a11.587,11.587,0,0,0-2.957.166,3.446,3.446,0,0,0-2.6,1.748l-1.515,3a4.852,4.852,0,0,0-.433.749C416.589,14.627,417.021,14.794,417.887,14.627ZM485.4,20.453a11.387,11.387,0,0,0,1.731-4.495c0-.166-.649-.749-2.02-1.914-1.515-1.082-2.164-1.748-2.452-1.748-.144,0-.289.166-.289.5l-1.875,4.078v.5a46.058,46.058,0,0,1,4.328,3.412c.144.166.289,0,.577-.333ZM500.9,28.86c-3.534,0-6.131-.583-7.645-1.5a6.969,6.969,0,0,0,2.308,4.078,8.043,8.043,0,0,0,5.842,2.33c4.328,0,10.675-1.5,19.042-4.411.5-.25,1.01-.916,1.515-2.663a13.142,13.142,0,0,0,.793-4.078,6.245,6.245,0,0,0-.216-2.33c-1.01-2.33-3.029-3.5-6.636-3.5-.793,0-2.308.333-4.832.583a35.514,35.514,0,0,1-6.636.916c-2.524,0-3.823-.333-3.823-1.165a1.876,1.876,0,0,1,.216-.916,31.732,31.732,0,0,1,5.842-5.826c2.308-1.748,4.039-2.663,4.832-2.663a1.513,1.513,0,0,1,1.515.832,4.818,4.818,0,0,1,.793.583c.5,0,.721-1.165,1.515-3.246.216-2.081-.5-2.913-2.524-3.246-1.8.333-3.823,1.165-6.636,3.5a29.665,29.665,0,0,0-7.357,10.57,8.407,8.407,0,0,0-1.01,3.5c0,2.081,2.02,3.246,5.842,3.246a26.441,26.441,0,0,0,5.626-.916,35.766,35.766,0,0,1,5.049-.916c4.039,0,6.347.916,6.852,2.913-1.3.333-4.328,1.165-9.376,2.33a54.915,54.915,0,0,1-10.891,2ZM403.534,76.052c.144.166,1.587-.916,4.111-3.662s5.77-7.99,9.232-15.4c1.947-4.411,3.679-8.906,5.482-13.067C425.677,36.434,428.2,31.606,430,29.11a12.4,12.4,0,0,1,8.872-5.66,23.067,23.067,0,0,1,10.314,1.914c-.938,2.58-1.3,3.912-.793,4.411s1.731-.749,3.318-3.413c6.924,2.83,11.18,4.827,12.766,5.577a36.556,36.556,0,0,0,6.78-4.911c1.154-1.665,1.01-5.577-.433-11.486-1.3-5.743-2.885-9.322-4.688-10.987-2.164-2-4.472-2.913-6.852-2.081a10.372,10.372,0,0,0-5.41,4.162,12.407,12.407,0,0,0-1.947,4c-.433,2.663-.938,4.661-1.154,5.826a15.839,15.839,0,0,0-11.4.5c-4.111,2-8.295,6.159-12.911,12.568-3.39,4.744-8.511,15.648-15.291,33.043-2.164,3.829-3.678,6.825-5.049,8.656-1.875,3.08-2.741,4.744-2.6,4.827ZM456.186,9.3c.144-.583.577-.416,1.515.416,1.226,1.165,2.38,3.329,3.606,6.242s1.659,4.744,1.226,5.327c-1.37-.583-4.039-1.415-8.295-3.412.866-4.078,1.659-6.742,1.947-8.573ZM356.579,50.084a17.565,17.565,0,0,0,3.967-1.415c1.8-.333,3.678-1.748,5.482-3.163l9.088-10.487c4.256-4.578,8.511-6.659,12.478-6.659a8.332,8.332,0,0,1,2.452.666,10.26,10.26,0,0,0,2.741.666c2.452,0,4.833-1.748,7.285-4.578,3.029,1.748,5.193,1.748,6.708.666a10.529,10.529,0,0,0,1.515-3.5,16.342,16.342,0,0,0,.938-5.244,5.152,5.152,0,0,0-1.226-3.829,7.228,7.228,0,0,0-1.226,2.081c-.577,1.082-.938,1.748-.577,2.081.144.916.361,1.914.577,2.83-.289.333-.289.333-.577.333-3.318,0-4.544-.333-4.256-1.082a15.166,15.166,0,0,0,.577-3.163c0-.333,0-.666-.289-.666s-.938.666-1.515,1.415c-.577,1.415-1.515,2.83-2.164,4.245a4.7,4.7,0,0,1-3.678,1.748,5.457,5.457,0,0,1-3.029-.666,10.261,10.261,0,0,0-2.741-.666,13.357,13.357,0,0,0-8.8,3.829,48.555,48.555,0,0,0-7,7.408c-3.029,4.162-5.193,6.991-7,9.155-3.318,2.83-5.77,4.911-7.285,5.993a19.7,19.7,0,0,0-2.741,1.748C356.291,50.084,356.291,50.084,356.579,50.084Zm7.79-34.791A11.387,11.387,0,0,0,366.1,10.8c0-.166-.649-.749-2.02-1.914-1.515-1.082-2.164-1.748-2.452-1.748-.144,0-.289.166-.289.5l-1.875,4.078v.5c1.515,1.082,2.957,2.247,4.328,3.412.144.083.289,0,.577-.333Zm28.706,190.684c.433,0,.866.5,1.443,1a4.275,4.275,0,0,0,.866,1.165c.433,0,.649-.5,1.082-1.415,0-.749.216-1.165.216-1.665a3.752,3.752,0,0,0-.866-2.164,2.454,2.454,0,0,0-2.092-1.415c-1.226,0-2.308,1.415-3.318,4.328a82.942,82.942,0,0,0-1.875,9.405,1.486,1.486,0,0,0-.216.749H388.1v-.749a25.728,25.728,0,0,0-2.741-8.406c-1.226-2.164-2.741-3.413-4.4-3.413,0,0-.433.749-1.082,1.914a8.262,8.262,0,0,0-1.01,2.164c0,.749.433,1.165,1.01,2.164a3.561,3.561,0,0,0,1.875,1.165c.649,0,.866-.25.866-.5a.924.924,0,0,1,.649-.25c.433,0,1.226,1.415,2.092,4.328a42.252,42.252,0,0,1,2.092,6.742c-1.226.749-2.092,2.663-2.524,6.242,0,.749,0,1,.216,1a14.142,14.142,0,0,0,.866-1.165c.649-1,1.01-1.415,1.443-1.415.649,0,1.226.5,2.092,1.415-1.875.5-2.885.916-3.534,1.665-1.443,1.165-2.092,3.163-2.092,5.743,0,.749.649,3.829,1.443,9.155A72.543,72.543,0,0,1,386.8,257.5a25.79,25.79,0,0,0,.216,3.329c.216,0,.216-.25.433-.916a28.231,28.231,0,0,0,.649-5.993,75.048,75.048,0,0,0-2.885-19.726c.649-1,1.875-1.665,3.534-2.414a35.3,35.3,0,0,1,4.183-1.248,8.907,8.907,0,0,0,.866-1.914,8.367,8.367,0,0,0,.649-1.914c0-.916-.866-2.164-2.308-3.579a12.32,12.32,0,0,0-3.534-2.164,26.643,26.643,0,0,0,1.443-5.743q1.082-9.239,3.029-9.239Zm165.892-96.133a11.389,11.389,0,0,0,1.731-4.495c0-.166-.649-.749-2.02-1.914-1.515-1.082-2.164-1.748-2.452-1.748-.144,0-.288.166-.288.5l-1.875,4.078v.5a46.067,46.067,0,0,1,4.328,3.413C558.534,110.344,558.679,110.177,558.967,109.844ZM522.038,184.17a13.059,13.059,0,0,0,.721-4.078,6.245,6.245,0,0,0-.216-2.331c-1.01-2.33-3.029-3.5-6.636-3.5-.793,0-2.308.333-4.832.583a35.513,35.513,0,0,1-6.636.916c-2.524,0-3.823-.333-3.823-1.165a1.877,1.877,0,0,1,.216-.916,35.061,35.061,0,0,1,5.842-5.909c2.308-1.748,4.039-2.663,4.833-2.663a1.512,1.512,0,0,1,1.515.832,4.815,4.815,0,0,1,.793.583c.5,0,.721-1.165,1.515-3.246.216-2.081-.5-2.913-2.524-3.246-1.8.333-3.823,1.165-6.636,3.5a29.664,29.664,0,0,0-7.357,10.57,8.406,8.406,0,0,0-1.01,3.5c0,2.081,2.02,3.246,5.842,3.246a26.44,26.44,0,0,0,5.626-.916,35.769,35.769,0,0,1,5.049-.916c4.039,0,6.347.916,6.852,2.913-1.3.333-4.328,1.165-9.376,2.33A75.013,75.013,0,0,1,500.833,186c-3.534,0-6.131-.583-7.645-1.5a6.969,6.969,0,0,0,2.308,4.078,8.043,8.043,0,0,0,5.842,2.331c4.328,0,10.675-1.5,19.042-4.411.649.083,1.154-.5,1.659-2.33Zm-56.62,74.409c7.429,0,15.219-2.83,23.585-8.157,6.491-4.411,11.612-8.739,15-13.4,2.092-2.83,3.246-6.991,3.246-12.485,0-2.83-.938-6.159-2.452-10.071-2.092-4.578-3.246-7.241-3.246-7.907a6.663,6.663,0,0,0,3.029.832c.577,0,.721-.25.721-.666a2.8,2.8,0,0,0-.721-1.581c-3.246-3.5-5.337-6.159-6.275-7.241-.361-.416-.577-.666-.721-.666s-.361.416-.577,1.082a49.508,49.508,0,0,0-.938,6.575,2.46,2.46,0,0,0,.577,1.581,5.523,5.523,0,0,1,1.3,2.83,73.768,73.768,0,0,0,4.328,12.485,48.636,48.636,0,0,1,2.308,5.743c0,1.581-1.875,4-5.7,7.491a61.417,61.417,0,0,1-14.642,9.738,41.9,41.9,0,0,1-18.825,4.827,17.958,17.958,0,0,1-15.363-7.657,20.934,20.934,0,0,1-3.967-12.485,29.311,29.311,0,0,1,.793-6.159c.361-1.332.577-2.83.938-4.578.216-.832,0-1.332-.216-1.332s-.361.25-.793,1.082a39.9,39.9,0,0,0-1.875,8.739,42.774,42.774,0,0,0-.361,6.825,26.687,26.687,0,0,0,.938,8.157C449.046,253.086,455.9,258.579,465.418,258.579Zm90.952-68.666c2.02,0,3.534-2.663,4.544-8.49v-.583c0-.333,0-.333-.289-.333,0,.333-.216.333-.216.583-1.3,2.663-2.308,3.829-3.029,3.829-1.515,0-2.308-1.748-2.308-4.994,0-2.33.793-6.742,2.524-12.568.288-1.5.5-2.33.5-2.663-.216,0-.5.916-1.3,2.33a40.952,40.952,0,0,0-3.823,16.4C553.125,187.832,554.135,189.913,556.37,189.913Zm-115.114,8.406c-1.515-1.082-2.164-1.748-2.452-1.748-.144,0-.288.166-.288.5l-1.875,4.078v.5a46.061,46.061,0,0,1,4.328,3.413c.144.166.289,0,.577-.333a11.388,11.388,0,0,0,1.731-4.495C443.275,199.984,442.626,199.4,441.256,198.319ZM556.37,151.543a11.388,11.388,0,0,0,1.731-4.495,12.427,12.427,0,0,0-2.019-1.914c-1.515-1.082-2.164-1.748-2.452-1.748-.144,0-.289.166-.289.5l-1.875,4.078v.5a46.065,46.065,0,0,1,4.327,3.413C556.01,152.043,556.154,151.876,556.37,151.543Zm-112.3,40.617c.433.416,1.37-.583,2.669-2.747,5.626,2.33,9.016,3.912,10.242,4.495A32.633,32.633,0,0,0,462.461,190c.938-1.332.793-4.494-.361-9.239-1.01-4.578-2.308-7.491-3.751-8.906-1.731-1.665-3.606-2.33-5.554-1.665a8.59,8.59,0,0,0-4.328,3.329,9.337,9.337,0,0,0-1.587,3.246c-.361,2.164-.721,3.745-.938,4.661a13.084,13.084,0,0,0-9.232.416c-3.318,1.581-6.708,4.994-10.386,10.071-2.741,3.829-6.852,12.651-12.334,26.634-1.731,3.08-2.957,5.493-4.039,6.991-1.515,2.414-2.164,3.745-2.02,3.829.144.166,1.226-.749,3.318-2.913s4.616-6.409,7.429-12.4c1.587-3.5,2.957-7.158,4.4-10.487,2.669-6.076,4.688-9.988,6.131-11.9a10.144,10.144,0,0,1,7.141-4.578c2.092-.25,4.9.25,8.295,1.5C444,190.579,443.636,191.744,444.069,192.16Zm6.347-16.563c.072-.5.5-.333,1.226.333a14.2,14.2,0,0,1,2.885,4.994c.938,2.331,1.37,3.829,1.01,4.328-1.082-.5-3.246-1.165-6.708-2.747C449.478,179.176,450.128,177.012,450.416,175.6Zm-16.229,81.317a6.461,6.461,0,0,0-.433,1.581h.216a13.157,13.157,0,0,0,1.587-2.414c.649-1.082,1.8-2.58,3.606-4.994.865-1.165,1.731-2.414,2.524-3.662a11.029,11.029,0,0,0,.721-3.413c0-1.831-.938-2.913-2.741-2.913-.721,0-2.308.832-4.76,2.081a64.453,64.453,0,0,1-7.934,3.912,35.242,35.242,0,0,1-12.117,1.831,21.643,21.643,0,0,1-10.747-2.913,25.753,25.753,0,0,1-3.39-2.663,9.255,9.255,0,0,0-1.37-1.082c-.721,0-1.154,1.082-1.37,3.163a56.824,56.824,0,0,0,2.957,5.244,19.583,19.583,0,0,1,.938,5.826v1.581c.216,0,.433-.5.721-1.332a10.544,10.544,0,0,0,.433-6.326,22.349,22.349,0,0,0,10.963,2.83c7.285,0,14.786-2.414,22.792-6.825a3.7,3.7,0,0,1,2.019-.832,1.715,1.715,0,0,1,1.587,1.581c-.938,1.082-1.875,2.247-2.741,3.412A25.275,25.275,0,0,0,434.188,256.915Zm24.6-60.926c-.216,0-.5.832-1.3,2.331a40.952,40.952,0,0,0-3.823,16.4c0,4.411,1.01,6.409,3.318,6.409,2.02,0,3.534-2.663,4.544-8.49v-.583c0-.333,0-.333-.216-.333,0,.333-.216.333-.216.583-1.3,2.663-2.308,3.829-3.029,3.829-1.515,0-2.308-1.748-2.308-4.994,0-2.33.793-6.742,2.524-12.568.289-1.415.5-2.331.5-2.58ZM29.051,264.572a2.9,2.9,0,0,0,2.236,1.249c2.164,0,3.534-1.748,4.4-5.077.649,2.5,1.947,4.078,3.751,4.078.866,0,1.731-1,2.669-2.83a14.582,14.582,0,0,0,.649-4.328,11.082,11.082,0,0,0-.649-3.08c-.866-2.247-1.3-3.579-1.3-3.579a13.717,13.717,0,0,0-.433-2.5c0-.5,0-1-.216-1a2.875,2.875,0,0,1-.649,1,5.127,5.127,0,0,0-.649,2.5c0,2,.866,4.578,2.669,7.907a1.7,1.7,0,0,1-1.515,1.5c-2.02,0-3.1-1.5-3.1-4.328a26.68,26.68,0,0,0-.649-4.827c-.216-2-.649-3.08-.866-3.08s-.433.25-.649,1a2.99,2.99,0,0,0-.433,1.748,9.631,9.631,0,0,0,.433,2.83c.216,1.748.433,2.83.433,3.329a3.664,3.664,0,0,1-1.082,3.08,2.316,2.316,0,0,1-2.164,1.248c-.649,0-1.082-.5-1.515-1.5a7.3,7.3,0,0,1-.649-3.08c0-.25.216-1,.216-1.5a7.338,7.338,0,0,0,.216-2.5c0-1.748-.216-2.83-.649-2.83-.216,0-.649.5-1.3,1.248a4.353,4.353,0,0,0-1.082,2.83,1.041,1.041,0,0,0,.649,1c.433.25.649.25.649.749v4.078A7.31,7.31,0,0,0,29.051,264.572Zm-9.737,22.889c-.793,0-2.02.666-3.678,1.748a16.486,16.486,0,0,0-4.328,4.078c-2.164,3-3.39,5.743-3.39,8.406,0,2,.577,3,1.659,3,.793,0,1.515-.5,2.308-1.581a6.281,6.281,0,0,0,.938-2.164,9.9,9.9,0,0,0,2.164,1.914,25.156,25.156,0,0,1-5.842,4.994c-2.164,1.581-4.328,3-6.491,4.494-.577.333-.793.666-.793.749H2a1.32,1.32,0,0,0,.938-.333,44.338,44.338,0,0,1,4.9-2c1.587-1,3.1-2.081,4.616-3.246A20.84,20.84,0,0,0,16,303.275a4.557,4.557,0,0,1,1.659,1.581,6.216,6.216,0,0,0,1.226-2.83,14.414,14.414,0,0,0-1.659-1.415A17.977,17.977,0,0,0,17.8,296.2a12.951,12.951,0,0,0,2.957-6.742v-.583C20.684,287.96,20.252,287.461,19.314,287.461Zm-3.246,12.485c-1.37-.749-2.02-1.415-2.02-1.914,0-.166.144-.333.577-.666.433-.166.577-.333.793-.333.433,0,.649.333.793.916a5.893,5.893,0,0,1-.144,2Zm1.37-4.661a1.062,1.062,0,0,0-.649-.749c-.649-.166-1.659.167-2.741,1.249a6.2,6.2,0,0,0-1.659,3.745,2.172,2.172,0,0,1-.649,1.748,2.113,2.113,0,0,1-1.731.666c-.577,0-.938-.5-.938-1.581,0-1.581.938-3.413,2.741-5.66a18.294,18.294,0,0,1,3.678-3.246,5.194,5.194,0,0,1,2.813-1.082c.649,0,1.082.5,1.082,1.415a10.131,10.131,0,0,1-1.947,3.5ZM3.734,101.937c2.02,0,3.534-2.663,4.544-8.49v-.583c0-.25,0-.25-.289-.25,0,.25-.289.25-.289.583-1.3,2.663-2.308,3.829-3.029,3.829-1.515,0-2.308-1.748-2.308-4.994,0-2.33.721-6.742,2.524-12.568.289-1.5.5-2.33.5-2.663a12.058,12.058,0,0,0-1.154,2.33,39.775,39.775,0,0,0-3.823,16.4c0,4.411,1.01,6.409,3.318,6.409Zm13.56,143.991c5.987,0,12.478-2.747,19.763-7.99a57.814,57.814,0,0,0,12.189-12.069c2.236-2.913,3.318-6.908,3.318-12.069a23.622,23.622,0,0,0-3.606-13.317c-2.236-3.5-4.76-5.077-7.429-5.077-1.587,0-3.174,1.248-4.76,3.829a15.494,15.494,0,0,0-2.164,7.657,6.853,6.853,0,0,0,1.443,4.578,4.114,4.114,0,0,0,3.606,1.831h4.255a7.794,7.794,0,0,1,4.616,1.248,4.241,4.241,0,0,1,2.236,3.829c-.5,1.082-2.38,3.246-5.7,6.409a77.2,77.2,0,0,1-12.478,9.155c-5.554,3.08-10.6,4.578-15.147,4.578-5.7,0-9.954-2-12.766-6.242a18.457,18.457,0,0,1-3.318-10.4c0-.916.5-4.411,1.443-10.57.144-.749.144-1.082-.144-1.248A2.57,2.57,0,0,0,2,211.137a35.509,35.509,0,0,0-1.587,7.324,25.662,25.662,0,0,0-.361,5.244c0,5.993,1.082,10.9,3.318,14.732,2.885,4.994,7.573,7.491,13.92,7.491Zm23.8-39.7c-1.731-.166-2.669-.916-2.669-2.164,0-.916.793-1.5,2.02-1.5,2.02,0,3.823,1.248,5.193,4-2.02-.166-3.534-.333-4.544-.333ZM11.164,73.555a21.07,21.07,0,0,0,17.022,5.66c6.78-.583,12.117-3.5,15.868-8.823a13.1,13.1,0,0,0,2.452-6.409,11.586,11.586,0,0,0-.721-5.66c-.793-1.748-3.246-4.744-7.285-8.906-5.626-5.66-9.665-9.9-12.045-12.734a25.959,25.959,0,0,1,5.049-.5,5.609,5.609,0,0,0,0,2.663c.144.166,1.082-.583,2.38-2.414a154.762,154.762,0,0,1,22.576,6.159,1.55,1.55,0,0,0,1.587-.25L61,40.1a.893.893,0,0,0,.072-1.332c-.866-1.248-3.823-4.495-8.511-9.738-5.193-5.743-9.16-9.821-11.54-12.318-2.308-2-4.4-2.913-6.419-2.83a5.4,5.4,0,0,0-4.183,2.5,4.164,4.164,0,0,0-1.01,2.414,17.253,17.253,0,0,0,.5,5.743,76.5,76.5,0,0,1,1.37,8.157,29.516,29.516,0,0,0-6.564,1.665A8.351,8.351,0,0,0,23.641,33.1c-.289-.25-.5-.5-.721-.25s0,.749.361,1.914A33.268,33.268,0,0,0,10.01,45.839Q-1.242,61.695,11.164,73.555ZM32.729,17.54c.072-.083.289.083.721.25.793.333,2.452,1.748,4.977,4.078A136.877,136.877,0,0,1,50.905,35.352c.433.583.721.916.649,1-.216-.083-.5-.166-.721-.25a78.626,78.626,0,0,0-15.652-3.329c-.072-1.082-.433-3.579-1.01-7.408-.5-2.247-.938-4.328-1.3-6.492A2.416,2.416,0,0,1,32.729,17.54ZM12.173,46.172a25.772,25.772,0,0,1,6.636-6.409,22.157,22.157,0,0,1,5.265-2.5,31.244,31.244,0,0,0,4.472,9.072,54.193,54.193,0,0,0,6.2,7.075,39.689,39.689,0,0,1,6.275,7.158,12.28,12.28,0,0,1,1.659,6.242,8.045,8.045,0,0,1-1.515,4.827c-1.082,1.581-3.246,2.58-6.275,3.163a25.075,25.075,0,0,1-9.954-.5,21.616,21.616,0,0,1-9.665-5.16C7.557,61.82,6.547,54.162,12.173,46.172ZM53.43,273.644c-.721-.666-2.164-.916-4.183-.916a7.153,7.153,0,0,0-5.842,3.329c-2.813,4.162-3.678,12.318-2.38,24.137a86.059,86.059,0,0,0-8.367-9.239c-.721-.666-4.328-3.5-10.747-8.24s-9.665-7.075-9.737-7.158c-.361-.25-.361-.5-.144-.5,2.524-.166,3.318-.583,2.669-1.165a5.235,5.235,0,0,0-1.154-.583c-.649-.333-2.452-1-5.482-2.081-2.885-1-4.616-1.581-5.337-1.748-.361.083-.5,0-.577.083s-.072.333.072.666c1.37,2.58,2.164,4.162,2.741,4.578a8.448,8.448,0,0,1,3.895,2.33c.721.666,5.193,4.245,13.271,10.321,8.15,6.242,12.55,9.655,13.055,10.071l4.688,4.245a5.878,5.878,0,0,1,1.515,2.081c.433,2.164,1.01,4.661,1.37,7.408-1.154,2.247-2.164,4-2.957,5.327h6.347a83.1,83.1,0,0,0,8.511-18.228c2.813-7.741,3.823-13.4,3.174-16.73A13.243,13.243,0,0,0,53.43,273.644Zm1.443,5.993c-.721,5.493-2.6,11.486-5.482,18.394a72.406,72.406,0,0,1-5.193,10.82c-1.875-13.317-1.082-22.306,2.092-27.134,1.587-2.33,4.255-3.5,8.078-3.08.288.083.5,0,.577.167-.072.083.072.416-.072.832Zm61.38-13.816c2.02,0,3.534-2.663,4.544-8.49v-.583c0-.333,0-.333-.289-.333,0,.333-.289.333-.289.583-1.3,2.663-2.308,3.829-3.029,3.829-1.515,0-2.308-1.748-2.308-4.994,0-2.33.793-6.742,2.524-12.568.289-1.5.5-2.33.5-2.663-.216,0-.5.916-1.3,2.33a40.952,40.952,0,0,0-3.823,16.4c.144,4.495,1.154,6.492,3.462,6.492ZM250.7,183.92a67.466,67.466,0,0,1,7.068,1.581,45.479,45.479,0,0,0-1.154,7.657,7.29,7.29,0,0,0-1.37.666c-.361.25-.577.333-.433.666.072.166.649.333,1.731.333a42.131,42.131,0,0,0,3.967,18.394c5.626,11.9,13.271,14.982,22.648,8.989,5.265-3.329,8.872-8.656,10.891-16.147,2.092-7.574,1.731-14.233-1.154-20.309a11.688,11.688,0,0,0-4.255-4.994,7.535,7.535,0,0,0-4.76-1.248q-2.6.375-9.953,4.495c-6.636,3.829-11.54,6.575-14.714,8.073a37.128,37.128,0,0,1,1.515-5.577c1.154.832,1.875,1.082,2.164.916.361-.25-.072-1.415-1.01-3.413A193.625,193.625,0,0,1,275.292,162.2a2.3,2.3,0,0,0,.361-1.831l-.649-4c-.144-.583-.5-.749-1.082-.583-1.443.583-5.121,2.5-11.108,5.577-6.564,3.412-11.324,6.076-14.209,7.741a11.478,11.478,0,0,0-4.688,5.826,7.006,7.006,0,0,0,.433,5.41,4.524,4.524,0,0,0,1.587,2,11.737,11.737,0,0,0,4.76,1.581Zm17.022,9.488a52.29,52.29,0,0,0,8.006-4,39.577,39.577,0,0,1,8.078-4.078,9.33,9.33,0,0,1,5.626.5,6.749,6.749,0,0,1,3.318,3.413c.866,1.748.866,4.411.216,7.907a34.9,34.9,0,0,1-4.111,10.487,24.631,24.631,0,0,1-7.718,8.49c-8.8,5.577-15.291,3.829-19.618-5.244a30.469,30.469,0,0,1-2.669-16.147,21.773,21.773,0,0,0,8.872-1.332Zm-21.133-15.814c.577-.749,2.308-2,5.121-3.829a124.46,124.46,0,0,1,15.507-8.323c.649-.25,1.01-.5,1.082-.333-.144.25-.289.416-.433.666a97.424,97.424,0,0,0-8.511,15.564c-.938-.333-3.029-.916-6.347-1.665-2.02-.333-3.823-.583-5.7-1a2.223,2.223,0,0,1-1.082-.333C246.009,178.094,246.3,177.928,246.586,177.595Zm-63.76,92.054a1.9,1.9,0,0,0-.144-1.415.379.379,0,0,0-.5-.25,3.781,3.781,0,0,0-.938,1c-2.813,4.911-5.482,9.655-8.439,14.316s-5.626,7.657-7.79,8.823a15.837,15.837,0,0,1-15.507.416,18.325,18.325,0,0,1-8.367-7.408,22.672,22.672,0,0,1,5.626-8.157,45.318,45.318,0,0,1,9.16-7.075,24.356,24.356,0,0,1,8.222-2.5,3.577,3.577,0,0,0,1.875-.25.617.617,0,0,0,.361-.749c-.072-.25-.649-.416-1.587-.666a21.246,21.246,0,0,0-16.95,1.665,20.279,20.279,0,0,0-8.583,9.572,17.073,17.073,0,0,0-.216,13.816c1.875,4.578,5.265,7.99,10.242,10.4a20.256,20.256,0,0,0,12.839,1.831,61.372,61.372,0,0,0-3.318,11.9h4.977a129.165,129.165,0,0,1,8.8-20.225c2.957-5.16,6.059-10.4,9.088-15.9a8.256,8.256,0,0,0,.793-3Zm-55.754,28.132c-.649,0-2.164.749-4.328,2a82.451,82.451,0,0,1-7.862,3.745,32.954,32.954,0,0,1-11.324,1.748c-6.78,0-11.324-1.748-13.7-5.493A60.822,60.822,0,0,1,87.69,292.7c-.649-3.246-1.3-4.744-1.515-4.744-.433,0-.649.5-.866,1.248a2.99,2.99,0,0,0-.433,1.748,15.478,15.478,0,0,0,.793,3.745,12.1,12.1,0,0,1,.866,4.495c0,2.247-1.082,3.246-3.462,3.246a5.125,5.125,0,0,1-2.164-.5,1.373,1.373,0,0,0-1.082-.5c-.649,0-1.515.5-2.813,2a9.821,9.821,0,0,0-1.947,4.495c.216,1,.433,1,.866.5,1.3-1.5,2.38-2.247,3.462-2.247a1.342,1.342,0,0,1,1.3.5,3.438,3.438,0,0,0,1.731.5c2.38,0,3.895-1.5,4.76-4.245a3.792,3.792,0,0,0,.216-1.249c2.38,5.244,7.429,7.824,15,7.824,7,0,14.353-2.247,21.782-6.492a4.373,4.373,0,0,1,1.947-.749,1.7,1.7,0,0,1,1.515,1.5,26.627,26.627,0,0,0-2.6,3.246,23.459,23.459,0,0,0-3.029,5.743,2.756,2.756,0,0,0-.433,1.5c.216,0,.649-.749,1.731-2.247.433-.749,1.731-2.5,3.246-4.744a28.042,28.042,0,0,0,2.38-3.5,8.482,8.482,0,0,0,.649-3.329A2.233,2.233,0,0,0,127.071,297.781Zm72.92-16.313c-.793,0-2.02.666-3.678,1.748a16.486,16.486,0,0,0-4.328,4.078c-2.164,3-3.39,5.743-3.39,8.406,0,2.081.577,3,1.659,3,.793,0,1.515-.5,2.308-1.581a6.28,6.28,0,0,0,.938-2.164,9.9,9.9,0,0,0,2.164,1.914,25.154,25.154,0,0,1-5.842,4.994c-2.164,1.581-4.328,3-6.491,4.578-.577.333-.793.666-.793.749h.144a1.32,1.32,0,0,0,.938-.333,44.373,44.373,0,0,1,4.9-2c1.587-1,3.1-2.081,4.616-3.246a18.814,18.814,0,0,0,3.534-4.245,4.557,4.557,0,0,1,1.659,1.581,6.216,6.216,0,0,0,1.226-2.83A14.41,14.41,0,0,0,197.9,294.7a17.977,17.977,0,0,0,.577-4.411,12.4,12.4,0,0,0,2.957-6.742v-.666C201.362,281.967,200.929,281.468,199.992,281.468Zm-3.246,12.485c-1.37-.749-2.02-1.415-2.02-1.914,0-.166.144-.333.5-.666.433-.166.577-.333.793-.333.433,0,.649.333.793.916a3.647,3.647,0,0,1-.072,2Zm1.37-4.661a1.062,1.062,0,0,0-.649-.749c-.649-.166-1.659.167-2.741,1.249a6.2,6.2,0,0,0-1.659,3.745,2.172,2.172,0,0,1-.649,1.748,2.418,2.418,0,0,1-1.731.666c-.577,0-.938-.5-.938-1.581,0-1.581.938-3.413,2.741-5.66a18.71,18.71,0,0,1,3.678-3.329,5.942,5.942,0,0,1,2.813-1.082c.649,0,1.082.5,1.082,1.415a7.752,7.752,0,0,1-1.947,3.579ZM7.413,17.624h2.6c4.472,0,6.636.333,6.636.916,0,.166,0,.166-.144.333a50.987,50.987,0,0,1-4.4,2.83,43.965,43.965,0,0,0-4.76,3.163,3.12,3.12,0,0,0-.721.749c0,.166.433,0,1.226-.166,4.328-1.415,7.068-2.33,7.862-3a23.457,23.457,0,0,0,3.823-4.827c1.226-1.914,1.875-3.163,1.875-3.745,0-1.415-2.6-2-7.718-2a11.587,11.587,0,0,0-2.957.166,3.446,3.446,0,0,0-2.6,1.748L6.62,16.708a4.856,4.856,0,0,0-.433.749C6.187,17.54,6.62,17.79,7.413,17.624ZM126.062,277.889a11.387,11.387,0,0,0,1.731-4.495c0-.166-.649-.749-2.02-1.914-1.515-1.082-2.164-1.748-2.452-1.748-.144,0-.288.166-.288.5l-1.875,4.078v.5c1.515,1.082,2.957,2.247,4.328,3.412C125.629,278.305,125.773,278.139,126.062,277.889Zm3.678-134.752c0-1.748-.866-2.747-2.6-2.747-.649,0-2.164.749-4.328,2a82.46,82.46,0,0,1-7.862,3.745,32.955,32.955,0,0,1-11.324,1.748c-6.78,0-11.324-1.748-13.7-5.493a64.827,64.827,0,0,1-2.164-6.991c-.649-3.246-1.3-4.744-1.515-4.744-.433,0-.649.5-.866,1.248a3.658,3.658,0,0,0-.433,1.748,12.684,12.684,0,0,0,.793,3.745,12.1,12.1,0,0,1,.866,4.495c0,2.247-1.082,3.246-3.462,3.246a5.125,5.125,0,0,1-2.164-.5,1.373,1.373,0,0,0-1.082-.5c-.649,0-1.515.5-2.813,2a9.821,9.821,0,0,0-1.947,4.495c.216,1,.433,1,.866.5,1.3-1.5,2.38-2.247,3.462-2.247a1.342,1.342,0,0,1,1.3.5,3.438,3.438,0,0,0,1.731.5c2.38,0,3.895-1.5,4.76-4.245a3.791,3.791,0,0,0,.216-1.248c2.38,5.244,7.429,7.824,15,7.824,7,0,14.353-2.247,21.782-6.575a4.373,4.373,0,0,1,1.947-.749,1.7,1.7,0,0,1,1.515,1.5,26.63,26.63,0,0,0-2.6,3.246,23.46,23.46,0,0,0-3.029,5.743,2.756,2.756,0,0,0-.433,1.5c.216,0,.649-.749,1.731-2.247.433-.749,1.731-2.5,3.246-4.744a28.039,28.039,0,0,0,2.38-3.5A9.565,9.565,0,0,0,129.74,143.137ZM125.052,203.9a7.442,7.442,0,0,0-1.3.333c-7.068,1.831-11.612,3-13.488,3.329a22.755,22.755,0,0,1-10.314-.333.844.844,0,0,1-.938-.832v-.25c0-.333.649-1.082,1.587-1.5a29.007,29.007,0,0,0,8.006-5.909c2.236-1.831,4.183-4.827,6.131-8.906,5.049.666,7.645,1.332,7.5,1.5.938-.083,1.587-1.165,2.452-3.329a12.067,12.067,0,0,0,1.3-5.577,1.356,1.356,0,0,0-.289-1.082c-1.587-4.827-5.121-8.906-10.314-11.9a5.621,5.621,0,0,0-3.823-1.5,2.877,2.877,0,0,0-2.885,1.5c-1.3,1.5-1.3,3.745-.649,6.659a17.5,17.5,0,0,0-1.947,7.408c0,3,2.236,4.827,6.78,5.577a25.513,25.513,0,0,1-6.419,7.075c-1.947,1.5-3.895,3.329-5.77,4.827a10.441,10.441,0,0,0-3.534,8.157c0,3,1.947,4.495,6.131,4.495a28.237,28.237,0,0,0,11.252-2.58,22.527,22.527,0,0,0,6.78-3.329c2.38-2.33,3.678-3.412,3.751-3.829Zm-7.718-25.968a12.44,12.44,0,0,1,5.77,6.326c.289.749.289,1.082,0,1.5h-.288c-3.895-.749-5.77-1.082-6.131-1.082a35.577,35.577,0,0,0,.649-6.742Zm-9.016,3.329c0-.749.649-1.5,1.587-2.58.938-1.5,1.947-1.831,2.236-1.831.938,0,1.587.749,1.947,2.58a7.886,7.886,0,0,1,.288,4.827c-3.823-.749-6.131-1.831-6.059-3ZM126.062,120.5A11.387,11.387,0,0,0,127.793,116c0-.166-.649-.749-2.02-1.914-1.515-1.082-2.164-1.748-2.452-1.748-.144,0-.288.166-.288.5l-1.875,4.078v.5a46.056,46.056,0,0,1,4.328,3.412c.144.083.289-.083.577-.333ZM93.6,53.829c3.895,0,8.655-1.581,14.209-4.578A45.236,45.236,0,0,0,120.8,39.6a11.258,11.258,0,0,0,3.246-8.157,5.469,5.469,0,0,0-1.515-4.245c-.938-.916-3.1-1.748-6.2-2.5-5.41-1.415-8.15-3-8.15-4.744a9.2,9.2,0,0,1,1.37-3.412,46.724,46.724,0,0,1,3.39-5.16c2.741-3.246,4.9-4.994,6.491-4.994.938,0,1.659.583,2.164,2,.288.749.433,1.082.649,1.082.144,0,.433-.333.793-1.082a6.722,6.722,0,0,0,.649-3.579,6.066,6.066,0,0,0-.793-3.412A2.785,2.785,0,0,0,120.58-.022c-1.37,0-3.1,1.082-5.41,3.246a38.425,38.425,0,0,0-5.987,8.323A27.425,27.425,0,0,0,105.938,23.7a5.213,5.213,0,0,0,2.308,4.495,11.671,11.671,0,0,0,5.049,2c1.875.666,3.823,1.082,5.554,1.581s2.741,1.082,2.741,1.748-1.659,1.914-4.616,4.078A62.574,62.574,0,0,1,106.3,44.008c-4.616,2.164-8.655,3.246-11.9,3.246a10.422,10.422,0,0,1-9.232-4.661,14.77,14.77,0,0,1-2.308-8.406c0-3.912,1.082-8.573,3.39-14.233a5.807,5.807,0,0,0,.577-1.914.168.168,0,0,0-.144-.166h0c-.144,0-.577.5-1.226,1.581a37.074,37.074,0,0,0-4.328,18.394c0,4.495.793,8.157,2.741,10.82A10.8,10.8,0,0,0,93.6,53.829ZM59.056,100.772,57.18,104.85v.5a46.053,46.053,0,0,1,4.328,3.412c.144.166.288,0,.577-.333a11.388,11.388,0,0,0,1.731-4.495c0-.166-.649-.749-2.02-1.914-1.515-1.082-2.164-1.748-2.452-1.748C59.2,100.273,59.056,100.439,59.056,100.772Zm6.852-68.25c2.02,0,3.534-2.663,4.544-8.49v-.666c0-.333,0-.333-.216-.333,0,.333-.289.333-.289.583-1.226,2.747-2.236,3.912-3.029,3.912-1.515,0-2.308-1.748-2.308-4.994,0-2.33.793-6.742,2.524-12.568.288-1.5.577-2.414.577-2.663-.216,0-.5.916-1.3,2.33a40.794,40.794,0,0,0-3.751,16.4c0,4.411.938,6.492,3.246,6.492Zm1.875,10.654.144.666A22.362,22.362,0,0,0,69.8,48.835,11.472,11.472,0,0,1,73.409,52c1.01,1.248,6.131,7.075,15.363,17.229s14.5,16.064,15.652,17.562,2.38,3.246,3.246,4.578a10.16,10.16,0,0,0,1.3,1.831c.289.166.361,0,.289-.583a12.575,12.575,0,0,0-.577-1.665A34.325,34.325,0,0,0,102.62,79.8c-1.01-1.248-5.482-6.242-13.56-15.148S76.871,51.249,76.655,51c-.289-.333-.289-.583,0-.416,2.38.25,3.246.166,2.741-.5a5.334,5.334,0,0,0-.866-1c-.649-.416-2.236-1.5-5.121-3.08-2.741-1.581-4.328-2.414-4.977-2.747-.216-.083-.5-.166-.649-.083Zm74.94,198.84a14.582,14.582,0,0,0,.649-4.328,11.081,11.081,0,0,0-.649-3.08c-.866-2.33-1.3-3.579-1.3-3.579a15.087,15.087,0,0,0-.433-2.5c0-.5,0-1-.216-1a10.418,10.418,0,0,1-.649,1,4.9,4.9,0,0,0-.649,2.5c0,2.081.866,4.578,2.669,7.907a1.7,1.7,0,0,1-1.515,1.5c-1.947,0-3.1-1.5-3.1-4.328a26.682,26.682,0,0,0-.649-4.827c-.216-2-.649-3.08-.866-3.08s-.433.25-.649,1a2.99,2.99,0,0,0-.433,1.748,9.631,9.631,0,0,0,.433,2.83c.216,1.748.433,2.83.433,3.329a3.664,3.664,0,0,1-1.082,3.08,2.316,2.316,0,0,1-2.164,1.248c-.649,0-1.082-.5-1.515-1.5a7.3,7.3,0,0,1-.649-3.08c0-.25.216-1,.216-1.5a7.338,7.338,0,0,0,.216-2.5c0-1.748-.216-2.83-.649-2.83-.216,0-.649.5-1.3,1.248a4.353,4.353,0,0,0-1.082,2.83,1.041,1.041,0,0,0,.649,1c.433.25.649.25.649.749v4.078a9.92,9.92,0,0,0,.866,4.578,2.664,2.664,0,0,0,2.164,1.248c2.236,0,3.534-1.748,4.4-5.077.649,2.5,1.947,4.078,3.751,4.078C140.92,244.846,141.857,243.764,142.723,242.016Zm367.7,18.977a11.253,11.253,0,0,0,4.111-8.49q0-3.745-3.246-3.745c-1.659,0-3.246.916-5.7,3.163-1.659,2.164-3.246,4.078-4.9,5.993-2.741,0-4.111,0-3.823-.333a16.055,16.055,0,0,0-6.78,3.745,41.978,41.978,0,0,0-6.275,6.575c-2.741,3.745-4.616,6.575-6.275,8.157-3.029,2.5-5.193,4.411-6.491,5.327a26.058,26.058,0,0,0-2.452,1.581c0,.333,0,.333.289.333a13.921,13.921,0,0,0,3.534-1.248c1.659-.333,3.246-1.581,4.9-2.83,2.741-3.163,5.41-6.242,8.15-9.738,3.823-4.078,7.573-5.993,11.18-5.993a6.519,6.519,0,0,1,2.164.333,12.018,12.018,0,0,0,2.452.666,14.326,14.326,0,0,0,9.16-3.5Zm-.793-8.157c1.659,0,2.741.333,2.957,1.581-.577.916-1.659,1.581-3.534,2.5a15.021,15.021,0,0,1-5.987,1.581h-1.082c3.246-3.745,5.987-5.66,7.646-5.66Zm-8.15,41.616a19.75,19.75,0,0,0,5.193-3.829,16.67,16.67,0,0,0,3.967-5.743,28.69,28.69,0,0,1,4.832.916c.577,0,1.01-.749,1.587-2.164a8.628,8.628,0,0,0,.866-3.579,1.486,1.486,0,0,0-.216-.749,14.091,14.091,0,0,0-6.636-7.657,3.174,3.174,0,0,0-2.452-.916,1.964,1.964,0,0,0-1.875.916c-.866.916-.866,2.414-.433,4.245a9.791,9.791,0,0,0-1.226,4.744c0,1.914,1.443,3.08,4.328,3.579a16.637,16.637,0,0,1-4.111,4.578c-1.226.916-2.524,2.164-3.751,3.08a6.915,6.915,0,0,0-2.308,5.244c0,1.914,1.226,2.913,3.895,2.913a18.35,18.35,0,0,0,7.213-1.665,12.745,12.745,0,0,0,4.328-2.164c1.659-1.415,2.524-2.164,2.524-2.414a1.719,1.719,0,0,0-.866.25c-4.544,1.165-7.429,1.914-8.655,2.164a14.914,14.914,0,0,1-6.636-.25.569.569,0,0,1-.649-.5v-.166A2.065,2.065,0,0,1,501.482,294.452Zm10.747-17.229a8.7,8.7,0,0,1,3.751,4.078c.216.5.216.749,0,.916h-.216q-3.679-.749-3.895-.749A27.21,27.21,0,0,0,512.229,277.223Zm-5.77,2.164c0-.5.433-.916,1.01-1.665a2.116,2.116,0,0,1,1.443-1.165c.649,0,1.01.5,1.226,1.665a5.627,5.627,0,0,1,.216,3.08c-2.452-.5-3.895-1.165-3.895-1.914Zm-278.77,9.488c-1.515,0-3.029,1.748-4.328,5.577a88.324,88.324,0,0,0-2.308,11.4,1.4,1.4,0,0,0-.289.583c0,.333,0,.333-.288,0v-.583a33.674,33.674,0,0,0-3.318-10.57c-1.515-2.663-3.318-3.829-5.049-3.829-.288,0-.793.583-1.515,2.331a14.473,14.473,0,0,0-1.3,2.663,3.616,3.616,0,0,0,1.515,2.33,3.484,3.484,0,0,0,2.308,1.5c.5,0,.721,0,.721-.333.289-.333.5-.583.793-.583.721,0,1.515,2.081,2.813,5.826s2.02,6.159,2.02,7.574c0,.916.289,1.165.5,1.165s.5-.333,1.01-1.5c.721-1.165,1.3-3.5,1.8-6.742,1.01-7.574,2.308-11.4,3.823-11.4a2.751,2.751,0,0,1,1.8,1.5,2.483,2.483,0,0,0,1.01,1.165c.5,0,1.01-.583,1.3-1.748a6.557,6.557,0,0,0,.289-2.081A3.719,3.719,0,0,0,230,290.79C229.2,289.458,228.41,288.876,227.688,288.876ZM519.73,226.119c-1.515-1.082-2.164-1.748-2.452-1.748-.144,0-.289.166-.289.5l-1.875,4.078v.5a46.044,46.044,0,0,1,4.328,3.412c.144.166.289,0,.577-.333a11.177,11.177,0,0,0,1.731-4.578c0-.083-.721-.666-2.02-1.831Zm-42.483,83.814c-2.669-2.164-9.16-6.659-19.763-13.567s-17.671-11.819-21.422-14.9a36.669,36.669,0,0,1-7.141-7.324c-1.226-1.748-1.659-2.913-1.226-3.662.144-.25,1.659-.749,4.4-1.165a72.64,72.64,0,0,1,11.973-1,33.533,33.533,0,0,1,8.15.832c3.029.583,4.832,1.082,5.7,1.831a2.974,2.974,0,0,1,1.154,2.164c0,.749.072,1.248.216,1.332.216.166.649,0,1.587-.666a10.011,10.011,0,0,0,2.02-1.581,1.758,1.758,0,0,0,.649-.832c.866-1.415.577-2.83-1.154-4.245-2.164-1.831-7-2.913-14.281-3-7.213-.25-12.622.416-16.373,1.914-3.823,1.581-6.491,3.662-7.934,5.909-1.154,1.914-1.01,4,.721,6.326,1.3,1.914,4.039,4.744,8.367,8.323,1.082.916,7.573,5.16,19.618,13.234,11.973,7.824,18.825,12.568,20.773,14.233l.938.832h7.79A26.538,26.538,0,0,0,477.247,309.933Zm81.431-49.107c-1.515-1.082-2.164-1.748-2.452-1.748-.144,0-.288.167-.288.5l-1.875,4.078v.5a46.054,46.054,0,0,1,4.328,3.413c.144.166.289,0,.577-.333a11.389,11.389,0,0,0,1.731-4.495c0-.167-.649-.832-2.02-1.914Zm-4.833,26.717a13.819,13.819,0,0,0,.938-4.245c.144-.749.216-1.415.289-2.164q0-5.368-2.813-7.491c-.649-.666-3.1-2.164-7.285-4.411a28,28,0,0,1-8.223-6.409c1.875.167,2.813,0,3.1-.333s0-.749-.938-1.415a5.373,5.373,0,0,1-.649-.333l-5.7-3.163c-.433-.333-.649-.5-.793-.333a1.259,1.259,0,0,0-.144.749v3.745a2.466,2.466,0,0,0,.649,2,10.012,10.012,0,0,1,1.515,1.248,29.442,29.442,0,0,0,6.491,7.324,43.168,43.168,0,0,0,6.347,3.912,30.437,30.437,0,0,1,5.7,3.745c.938.916,1.515,1.581,1.515,2.164a1.494,1.494,0,0,1-.5,1.082c-1.082,1.248-4.76,4.078-10.963,8.739-6.924,5.327-11.685,7.99-14.065,7.99-2.308,0-4.183-2.164-4.183-4.827v-.5a49.444,49.444,0,0,1,1.659-10.487,9.847,9.847,0,0,0,.289-1.415c0-.333,0-.333-.144-.333s-.433.5-.793,1.415a45.136,45.136,0,0,0-2.308,13.567c0,5.909,1.875,8.739,5.7,8.739,2.02,0,6.491-2.5,13.271-7.824a100.567,100.567,0,0,0,10.531-8.739A5.155,5.155,0,0,0,553.846,287.544Zm8.8-67.418a27.452,27.452,0,0,0-5.265-6.575c-2.308-2-5.77-3.662-10.314-4.827-.144-6.242-.216-10.9-.433-14.566a42.418,42.418,0,0,0-1.515-8.573,30.585,30.585,0,0,0-3.029-8.323c-1.01-1.748-1.947-2.33-2.813-1.581-1.3,1-2.236,4.911-3.1,11.9-.144,8.073-.216,14.4-.361,19.227-2.308-.666-3.751-1.165-3.823-1.415s.649-.832,2.092-2c.938-.749,1.154-1.248,1.082-1.5s-.433-.25-1.37-.5c-1.659,0-3.895-.083-6.852,0a14.494,14.494,0,0,0-4.833.666c-.216.166-.216,1.082.649,3a29.889,29.889,0,0,0,2.164,4.994,2.979,2.979,0,0,0,2.236,1.415,31.589,31.589,0,0,1,3.246.916c2.308,1.082,4.111,1.831,5.193,2.247a121.32,121.32,0,0,1-2.164,14.4c-.289,1.831-.866,4.494-1.947,8.823a20.24,20.24,0,0,0-.577,3.662l.144.25a9.045,9.045,0,0,0,1.37-2.33c3.606-6.326,5.77-14.316,6.275-23.638a40.383,40.383,0,0,1,4.833,1.248c.361,6.659.721,11.819,1.515,14.982a35.624,35.624,0,0,0,4.328,11.486c3.1,5.16,6.131,6.575,9.088,4.162,1.875-1.5,3.462-4.328,4.9-8.323a29.024,29.024,0,0,0,2.164-9.322,22.711,22.711,0,0,0-1.01-4.911,36.374,36.374,0,0,0-1.875-4.994ZM543.46,208.141a27.429,27.429,0,0,1-4.472-.583c0-10.154.721-16.73,1.8-20.059a3.794,3.794,0,0,1,.721-1.165c.938-.749,1.731,2.414,1.731,9.405C543.532,202.731,543.46,206.809,543.46,208.141Zm17.022,16.23a28.79,28.79,0,0,1-3.246,9.239,15.2,15.2,0,0,1-3.174,4.411c-2.236,1.748-3.895,1.831-4.9.083a1.563,1.563,0,0,1-.216-.832,44.2,44.2,0,0,1-1.443-10.237,60.587,60.587,0,0,1,.072-9.572,31.172,31.172,0,0,1,12.766,4.411c.361.083.361,1.082.144,2.5Zm-4.328,78.238c-1.515-1.082-2.164-1.748-2.452-1.748-.144,0-.289.167-.289.5l-1.875,4.078v.5a46.062,46.062,0,0,1,4.328,3.413c.144.166.289,0,.577-.333a11.386,11.386,0,0,0,1.731-4.494c0-.25-.721-.832-2.02-1.914Zm-65.419-11.319c0,.333-.289.333-.289.583-1.3,2.663-2.308,3.829-3.029,3.829-1.515,0-2.308-1.748-2.308-4.994,0-2.331.793-6.742,2.524-12.568.216-1.5.5-2.33.5-2.663-.216,0-.5.916-1.3,2.33a40.951,40.951,0,0,0-3.823,16.4c0,4.411,1.01,6.409,3.318,6.409,2.02,0,3.534-2.663,4.544-8.49v-.583c.072-.333.072-.333-.144-.25Zm-181.9-17.728c1.082,0,4.183-1.748,9.593-5.327,6.2-4.078,10.675-7.99,13.271-11.4a17.469,17.469,0,0,0,2.885-5.327,26.965,26.965,0,0,0,1.875-5.327q6.059,6.742,9.737,6.742c.649,0,1.37-.666,2.02-2a15.7,15.7,0,0,0,1.37-4.078,10.1,10.1,0,0,0,.144-2.081,13.587,13.587,0,0,0-1.082-5.909c-.938-2-2.164-3.163-3.823-3.163-2.02,0-4.039,1.581-6.2,4.827a1.194,1.194,0,0,0-.721-.333c-.433,0-.649.333-.938.749-.288.666-.793,2.081-1.731,4.245a46.335,46.335,0,0,1-1.875,4.411c-2.164,3.745-7.862,8.323-16.806,13.9-3.534,2.164-7.862,4.495-13.271,7.158-7.573,3.745-11.757,5.743-12.622,6.242-1.875.916-2.813,1.581-2.813,1.748s0,.166.144.166a15.826,15.826,0,0,0,2.741-.5,105.576,105.576,0,0,0,10.314-2.663C306.09,274.31,308.687,273.561,308.831,273.561Zm33.034-31.545a4.476,4.476,0,0,1,1.731-.666,2.743,2.743,0,0,1,1.875,1.248,6.06,6.06,0,0,1,.938,2.5c.144.916,0,1.415-.289,1.415a9.429,9.429,0,0,1-2.741-1.581,16.93,16.93,0,0,1-2.741-2.164,12.554,12.554,0,0,1,1.226-.749ZM277.1,267.9a15.659,15.659,0,0,0,2.669-7.907c0-3.08-1.3-4.578-4.4-4.578-1.731,0-4.183.666-7.429,2.164-3.029,1.581-6.059,3.08-9.16,4.411a107.373,107.373,0,0,1-16.373,6.326,64.718,64.718,0,0,1-19.042,3.329c-8.367,0-14.425-2-18.464-5.743a11.119,11.119,0,0,1-3.967-8.573,25.341,25.341,0,0,1,.793-6.991c.577-1.748,1.154-3.329,1.731-5.077a10.846,10.846,0,0,0,.577-2.663v-.416c-.361,0-.721.832-1.515,2.414a34.741,34.741,0,0,0-3.39,15.564c0,5.244,1.154,9.405,3.606,12.984,3.606,4.827,9.521,7.491,17.527,7.491,7.573,0,17.31-2.164,28.923-6.825,1.875-.666,7.429-3.08,16.733-7.241,4.183-1.748,6.852-2.663,8.367-2.663.938,0,1.515.25,1.515.832,0,.916-1.515,3.329-4.76,7.491-3.39,4.578-5.7,8.573-6.636,12.069a42.827,42.827,0,0,0-.938,4.411c0,.083.072.25.144.25h0c.216,0,.938-1.5,2.308-4.578a31.858,31.858,0,0,1,3.606-5.743c1.154-1.581,2.452-3.329,3.606-4.827,2.236-3.329,3.606-5.244,3.967-5.909Zm3.246,31.3c0,.333-.289.333-.289.583-1.3,2.663-2.308,3.829-3.029,3.829-1.515,0-2.308-1.748-2.308-4.994,0-2.331.793-6.742,2.524-12.568.289-1.5.5-2.33.5-2.663-.288,0-.5.916-1.3,2.33a40.952,40.952,0,0,0-3.823,16.4c0,4.411,1.01,6.492,3.318,6.492,2.02,0,3.534-2.663,4.544-8.49v-.583c.072-.333.072-.333-.144-.333Zm-32.962-15.564a11.587,11.587,0,0,0-2.957.166,3.446,3.446,0,0,0-2.6,1.748l-1.515,3a4.855,4.855,0,0,0-.433.749c0,.083.433.333,1.226.167h2.524c4.472,0,6.636.333,6.636.916,0,.166,0,.166-.144.333a40.873,40.873,0,0,1-4.328,2.83,37.886,37.886,0,0,0-4.76,3.163,8.008,8.008,0,0,0-.793.749c0,.166.433,0,1.226-.166,4.328-1.415,7.068-2.331,7.862-3a23.458,23.458,0,0,0,3.823-4.827c1.226-1.914,1.875-3.163,1.875-3.745C255.1,284.215,252.5,283.632,247.379,283.632Zm144.542,5.244a18.279,18.279,0,0,0,3.1-8.073,9.77,9.77,0,0,0-.5-5.577c-.216-.666-.361-.916-.577-.916-.361-.083-.577.25-.866,1a40.5,40.5,0,0,0-2.092,5.244l1.082,3.246a3.139,3.139,0,0,1-3.318.916,4.264,4.264,0,0,1-3.029-2.081,3.744,3.744,0,0,1-.938-2.83c0,.166.5-.749,1.226-3,.216-.166.216-.333.288-.749.072-.583-.072-.832-.361-.916a1.183,1.183,0,0,0-1.154.583c-1.587,1.914-3.029,3.579-4.616,5.493a7.479,7.479,0,0,1-7.645,2.58,8.008,8.008,0,0,1-5.41-3.579,14.989,14.989,0,0,1-1.587-4.411c-.144-1.082-.433-1.5-.649-1.581s-.433.333-.649.832a26.917,26.917,0,0,0-2.308,5.41,7.867,7.867,0,0,0,.144,2.247c1.8,6.242,2.236,11.236,1.659,14.815-.216,1.332-2.236,3.163-6.347,5.493a52.737,52.737,0,0,1-14.5,5.826,38.441,38.441,0,0,1-17.671.583c-6.131-1.332-10.314-4.661-12.622-9.9a19.762,19.762,0,0,1-1.731-12.069c.144-.749,1.226-4.411,3.39-10.82.288-.749.361-1.332.072-1.415-.144,0-.577.25-.866,1a38.623,38.623,0,0,0-2.957,7.491,36.5,36.5,0,0,0-1.3,5.577c-1.082,6.492-.721,12.069,1.01,16.48a17.3,17.3,0,0,0,10.314,10.487h20.556c1.659-.5,3.246-1,4.977-1.665,6.564-2.58,11.829-5.577,15.363-9.072,2.669-2.247,4.544-7.324,5.842-15.231a14.981,14.981,0,0,0,2.669,1c3.895.832,7.573-1,10.963-5.577,1.01,3.5,2.452,5.41,4.328,5.826C387.594,292.371,389.9,291.456,391.921,288.876Zm28.2-.25a86.692,86.692,0,0,1-12.55-12.568c-1.875-2.58-3.751-5.244-5.7-7.99a22.559,22.559,0,0,0-1.587-2.081c-.144-.083-.144-.083-.216,0a10.6,10.6,0,0,0,.649,2.5c1.37,4.994,2.452,8.573,3.174,10.9s2.524,4.827,5.049,7.491c1.37,1.332,3.606,3.329,6.636,5.909,3.606,3,13.993,9.9,30.87,20.891.721.416,1.37.916,2.092,1.332H459l-8.872-5.826c-16.156-10.654-26.11-17.4-30-20.558Zm-14.065,17.312c-.649,1.248-1.226,1.831-1.659,1.914-.793,0-1.226-.749-1.226-2.5a17.608,17.608,0,0,1,1.37-6.076,3.082,3.082,0,0,0,.289-1.415c0-.666-.433-1.248-1.226-1.914a13.039,13.039,0,0,0,.577-3.745c0-1.248-.289-2-.793-2.33-.793-.166-1.659.166-2.741,1.249a5.317,5.317,0,0,0-1.659,3.745c0,1.082.793,2.164,2.6,3.246a25.838,25.838,0,0,1-5.987,4.994c-2.164,1.581-4.328,3-6.491,4.495-.577.333-.649.666-.649.749a1.321,1.321,0,0,0,.938-.333c2.957-1.248,4.616-1.914,4.9-2.081a29.939,29.939,0,0,0,4.616-3.246,16.2,16.2,0,0,0,3.678-4.245c.793.666,1.226.916,1.226,1.248,0,0-.288.916-.793,2.83a19.533,19.533,0,0,0-.793,4.578c0,2.33.577,3.413,1.731,3.413,1.082,0,1.875-1.581,2.452-4.661v-.333h-.144a.8.8,0,0,0-.216.416Zm-3.534-10.57c-1.37-.749-2.02-1.415-2.02-1.914,0-.166.289-.333.577-.666a3.227,3.227,0,0,1,.793-.333c.433,0,.649.333.793.916a3.723,3.723,0,0,1-.144,2ZM299.382,306.854c-1.515-1.082-2.164-1.748-2.452-1.748-.144,0-.289.166-.289.5l-1.875,4.078v.5a46.034,46.034,0,0,1,4.328,3.413c.144.166.289,0,.577-.333a11.963,11.963,0,0,0,1.8-4.495,7.115,7.115,0,0,0-2.092-1.914Zm40.968-22.223a37.89,37.89,0,0,0-4.76,3.163,8.025,8.025,0,0,0-.793.749c0,.166.433,0,1.226-.167,4.328-1.415,7.068-2.33,7.862-3a23.458,23.458,0,0,0,3.823-4.827c1.226-1.914,1.875-3.163,1.875-3.745,0-1.415-2.6-2-7.718-2a11.587,11.587,0,0,0-2.957.166,3.446,3.446,0,0,0-2.6,1.748l-1.515,3a4.848,4.848,0,0,0-.433.749c0,.083.433.333,1.226.166h2.6c4.472,0,6.636.333,6.636.916,0,.166,0,.166-.144.333C343.308,282.8,341.865,283.8,340.35,284.631Zm-274.731,16.4c-1.515-1.082-2.164-1.748-2.452-1.748-.144,0-.289.166-.289.5L61,303.857v.5a46.061,46.061,0,0,1,4.328,3.413c.144.166.289,0,.577-.333a11.388,11.388,0,0,0,1.731-4.495C67.711,302.775,66.99,302.193,65.619,301.027ZM271.614,22.035a15.56,15.56,0,0,0-2.236,7.657,6.853,6.853,0,0,0,1.443,4.578,4.114,4.114,0,0,0,3.606,1.831h4.255a7.445,7.445,0,0,1,4.544,1.248,4.241,4.241,0,0,1,2.236,3.829c-.5,1.082-2.38,3.246-5.7,6.409a72.526,72.526,0,0,1-12.478,9.155c-5.554,3.08-10.6,4.578-15.147,4.578-5.7,0-9.954-2-12.766-6.159a18.457,18.457,0,0,1-3.318-10.4c0-.916.5-4.411,1.443-10.57.144-.749.144-1.082-.144-1.248a2.57,2.57,0,0,0-.649,1.082,35.508,35.508,0,0,0-1.587,7.324,25.6,25.6,0,0,0-.288,5.244c0,5.993,1.082,10.9,3.318,14.732,3.029,4.911,7.718,7.491,14.065,7.491,5.987,0,12.478-2.747,19.763-7.99a59.605,59.605,0,0,0,12.117-12.069c2.236-2.913,3.318-6.908,3.318-11.985A23.622,23.622,0,0,0,283.8,23.45c-2.236-3.5-4.76-5.077-7.429-5.077C274.787,18.206,273.2,19.538,271.614,22.035Zm9.016,7.324c-2.092-.166-3.606-.333-4.616-.333-1.731-.166-2.669-.916-2.669-2.164,0-.916.793-1.5,2.092-1.5C277.456,25.364,279.187,26.613,280.629,29.359ZM270.243,81.213A21.443,21.443,0,0,1,259.5,78.3a21.756,21.756,0,0,1-3.39-2.663,9.258,9.258,0,0,0-1.37-1.082c-.649,0-1.154,1.082-1.37,3.163a58.258,58.258,0,0,0,2.957,5.244,22.21,22.21,0,0,1,.938,5.826v1.581c.216,0,.433-.5.721-1.332a9.89,9.89,0,0,0,.433-6.326,22.237,22.237,0,0,0,10.963,2.913c7.285,0,14.786-2.33,22.792-6.825a3.174,3.174,0,0,1,2.02-.832,1.715,1.715,0,0,1,1.587,1.581c-.938,1.082-1.875,2.247-2.741,3.412a20.067,20.067,0,0,0-3.39,6.076,5.592,5.592,0,0,0-.433,1.581h.216a15.985,15.985,0,0,0,1.587-2.33,49.73,49.73,0,0,1,3.679-4.994c.866-1.165,1.731-2.414,2.524-3.662a9.209,9.209,0,0,0,.649-3.412c0-1.831-.938-2.913-2.741-2.913-.721,0-2.308.749-4.76,2.081a73.723,73.723,0,0,1-8.006,4A37.657,37.657,0,0,1,270.243,81.213Zm20.989-31.794c.433.25.649.25.649.749v4.078a9.92,9.92,0,0,0,.866,4.578,2.882,2.882,0,0,0,2.164,1.248c2.164,0,3.534-1.748,4.4-5.077.649,2.5,1.947,4.078,3.751,4.078.866,0,1.731-1,2.669-2.83a14.582,14.582,0,0,0,.649-4.328,11.082,11.082,0,0,0-.649-3.08c-.866-2.33-1.3-3.579-1.3-3.579a15.09,15.09,0,0,0-.433-2.5c0-.5,0-1-.216-1a10.405,10.405,0,0,1-.649,1,4.9,4.9,0,0,0-.649,2.5c0,2,.866,4.578,2.6,7.907a1.638,1.638,0,0,1-1.515,1.5c-1.947,0-3.1-1.5-3.1-4.328a26.677,26.677,0,0,0-.649-4.827c-.216-2-.649-3.08-.866-3.08s-.433.25-.649,1a2.989,2.989,0,0,0-.433,1.748,8.7,8.7,0,0,0,.433,2.747c.216,1.748.433,2.83.433,3.329a3.664,3.664,0,0,1-1.082,3.08,2.316,2.316,0,0,1-2.164,1.248c-.649,0-1.082-.5-1.515-1.5a7.3,7.3,0,0,1-.649-3.08c0-.25.216-1,.216-1.5a7.338,7.338,0,0,0,.216-2.5c0-1.748-.216-2.747-.649-2.747-.216,0-.649.5-1.3,1.248a4.392,4.392,0,0,0-1.154,2.747,1,1,0,0,0,.577,1.165ZM269.161,16.042c.288.166.5.166.649-.166a38.223,38.223,0,0,0,1.731-4c1.731,1.5,3.462,2.747,4.76,3.829.289.166.433.166.649-.166,1.443-2.747,2.236-4.411,2.236-5.327A24.389,24.389,0,0,0,276.663,7.8a12.2,12.2,0,0,0-2.669-1.831c-.144,0-.288.166-.5.333l-1.587,4a18.7,18.7,0,0,0-2.813-2.33A9.1,9.1,0,0,0,266.853,6.3c-.144,0-.289.166-.5.583l-2.02,4.744c-.144.083-.144.333-.072.5l.072.083C265.988,13.462,267.575,14.71,269.161,16.042Zm-62.1,8.739c1.3-1.5,2.38-2.247,3.462-2.247a1.342,1.342,0,0,1,1.3.5,3.438,3.438,0,0,0,1.731.5c2.38,0,3.895-1.5,4.76-4.245a3.791,3.791,0,0,0,.216-1.248c2.38,5.244,7.429,7.824,15,7.824,7,0,14.353-2.247,21.782-6.575a4.372,4.372,0,0,1,1.947-.749,1.7,1.7,0,0,1,1.515,1.5,26.629,26.629,0,0,0-2.6,3.246,23.46,23.46,0,0,0-3.029,5.743,2.756,2.756,0,0,0-.433,1.5c.216,0,.649-.749,1.731-2.247.433-.749,1.731-2.5,3.246-4.744a35.916,35.916,0,0,0,2.38-3.5,8.371,8.371,0,0,0,.649-3.246c0-1.748-.866-2.747-2.6-2.747-.649,0-2.164.749-4.328,2a74.913,74.913,0,0,1-7.862,3.745,32.954,32.954,0,0,1-11.324,1.748c-6.78,0-11.324-1.748-13.7-5.493a64.819,64.819,0,0,1-2.164-6.991c-.721-3.246-1.37-4.744-1.587-4.744-.433,0-.649.5-.866,1.248a3.658,3.658,0,0,0-.433,1.748,15.517,15.517,0,0,0,.866,3.745,12.1,12.1,0,0,1,.866,4.495c0,2.247-1.082,3.246-3.462,3.246a5.125,5.125,0,0,1-2.164-.5,1.483,1.483,0,0,0-1.082-.5c-.649,0-1.515.5-2.813,2a9.821,9.821,0,0,0-1.947,4.495C206.411,25.281,206.627,25.281,207.06,24.781ZM150.152,44.258c4.039,4.495,9.665,7.574,16.517,9.655,5.626,1.581,10.458,2.33,14.281,1.748,2.741-.166,6.131-2.913,10.458-8.073a21.241,21.241,0,0,0,4.328,7.491,28.858,28.858,0,0,0,12.694,8.24c3.462,1.082,6.2,1.581,8.295,1.332a10.511,10.511,0,0,0,3.967-1.665,13.576,13.576,0,0,0,3.751-3c1.01-1.165,1.37-3.579,1.154-6.742a14.089,14.089,0,0,0-3.751-9.405c-2.6-2.913-6.708-3.912-12.406-3.08a116.412,116.412,0,0,0-12.983,3.412,11.562,11.562,0,0,1-.288-7.158c.216-.749.288-1.082.072-1.332-.072-.083-.289-.083-.793.25-2.236,1.5-3.39,2.247-3.606,2.414a4.395,4.395,0,0,0-.793,1.914,27.582,27.582,0,0,1-5.193,10.82c-.721.832-2.813,1-6.636.5a46.378,46.378,0,0,1-12.406-3.5,34.542,34.542,0,0,1-12.55-8.739c-3.751-4.162-5.337-8.656-4.977-13.484a15.327,15.327,0,0,1,3.462-9.239c.361-.5,2.6-2.414,6.564-5.826.5-.333.793-.749.577-.916s-.5-.083-1.01.25a28.037,28.037,0,0,0-5.049,3.662,20.486,20.486,0,0,0-3.1,3.246c-3.318,4-5.265,7.99-5.77,12.069C144.238,34.6,145.969,39.68,150.152,44.258Zm66.645,3.08a15.881,15.881,0,0,1,3.318,8.49c.433,3.08.5,4.911,0,5.493-.289.333-1.515.166-3.751-.5a37.614,37.614,0,0,1-7.573-3.08,35.3,35.3,0,0,1-8.15-6.492,20.161,20.161,0,0,1-3.246-4.994C206.772,43.176,213.191,43.592,216.8,47.337Zm-44.07-14.316c2.02,0,3.534-2.663,4.544-8.49v-.583c0-.333,0-.333-.216-.333,0,.333-.288.333-.288.583-1.3,2.663-2.308,3.829-3.029,3.829-1.515,0-2.308-1.748-2.308-4.994,0-2.33.793-6.742,2.524-12.568.289-1.5.5-2.33.5-2.663-.216,0-.5.916-1.3,2.33a40.952,40.952,0,0,0-3.823,16.4C169.482,30.941,170.492,33.021,172.728,33.021ZM304.143,18.955a3.484,3.484,0,0,0,2.308,1.5c.5,0,.793,0,.793-.333.288-.333.5-.583.793-.583.721,0,1.515,2.081,2.813,5.826s2.02,6.159,2.02,7.574c0,.832.288,1.165.5,1.165s.5-.333,1.01-1.5c.793-1.165,1.3-3.5,1.8-6.742,1.01-7.574,2.308-11.4,3.823-11.4a2.751,2.751,0,0,1,1.8,1.5,2.953,2.953,0,0,0,1.01,1.165c.5,0,1.01-.583,1.3-1.748a6.556,6.556,0,0,0,.289-2.081,3.719,3.719,0,0,0-1.01-2.33c-.721-1.5-1.515-2.081-2.308-2.081-1.515,0-3.029,1.748-4.328,5.577a88.335,88.335,0,0,0-2.308,11.4,1.4,1.4,0,0,0-.288.583c0,.25,0,.25-.289,0v-.583a31.9,31.9,0,0,0-3.318-10.57c-1.515-2.663-3.318-3.829-5.049-3.829-.289,0-.721.583-1.515,2.33a17.642,17.642,0,0,0-1.3,2.663C302.556,17.207,303.133,18.123,304.143,18.955ZM185.927,13.878h2.6c4.472,0,6.636.333,6.636.916,0,.166,0,.166-.144.333a40.87,40.87,0,0,1-4.328,2.83,37.885,37.885,0,0,0-4.76,3.163,8.01,8.01,0,0,0-.793.749c0,.166.433,0,1.226-.166,4.328-1.415,7.068-2.33,7.862-3a23.457,23.457,0,0,0,3.823-4.827c1.226-1.914,1.875-3.163,1.875-3.745,0-1.415-2.6-2-7.718-2a11.587,11.587,0,0,0-2.957.166,3.33,3.33,0,0,0-2.6,1.748l-1.515,3c-.288.5-.433.583-.433.749S185.134,14.045,185.927,13.878Zm153.63,75.158a11.963,11.963,0,0,0,1.8-4.495c0-.166-.649-.749-2.02-1.914-1.515-1.082-2.164-1.748-2.452-1.748-.144,0-.289.166-.289.5l-1.875,4.078v.5a46.066,46.066,0,0,1,4.328,3.412c.072.083.216,0,.5-.333ZM315.611,55.91a11.176,11.176,0,0,0,1.731-4.578c0-.166-.649-.749-2.02-1.914-1.515-1.082-2.164-1.748-2.452-1.748-.144,0-.288.166-.288.5l-1.875,4.078v.5a46.045,46.045,0,0,1,4.328,3.413C315.178,56.326,315.323,56.16,315.611,55.91Zm-9.593,192.015a11.387,11.387,0,0,0,1.731-4.495c0-.166-.649-.749-2.02-1.914-1.515-1.082-2.164-1.748-2.452-1.748-.144,0-.289.166-.289.5l-1.875,4.078v.5c1.515,1.082,2.957,2.247,4.328,3.412C305.585,248.342,305.73,248.175,306.018,247.926Zm9.593-34.708a11.388,11.388,0,0,0,1.731-4.495c0-.166-.649-.749-2.02-1.914-1.515-1.082-2.164-1.748-2.452-1.748-.144,0-.288.166-.288.5l-1.875,4.078v.5a46.046,46.046,0,0,1,4.328,3.412c.144.166.289,0,.577-.333Zm-15.94-57.43a11.963,11.963,0,0,0,1.8-4.495,12.427,12.427,0,0,0-2.02-1.914c-1.515-1.082-2.164-1.748-2.452-1.748-.144,0-.288.166-.288.5l-1.875,4.078v.5c1.515,1.082,2.957,2.247,4.328,3.413.072.166.216,0,.5-.333Zm32.169,18.144a11.387,11.387,0,0,0,1.731-4.494c0-.166-.649-.749-2.02-1.914-1.515-1.082-2.164-1.748-2.452-1.748-.144,0-.288.166-.288.5l-1.875,4.078v.5a46.051,46.051,0,0,1,4.328,3.412c.144.083.288,0,.577-.333Zm10.891-24.72a37.881,37.881,0,0,0-4.76,3.163,8.014,8.014,0,0,0-.793.749c0,.166.433,0,1.226-.166,4.328-1.415,7.068-2.33,7.862-3a23.457,23.457,0,0,0,3.823-4.827c1.226-1.914,1.875-3.163,1.875-3.745,0-1.415-2.6-2-7.718-2a11.587,11.587,0,0,0-2.957.166,3.446,3.446,0,0,0-2.6,1.748l-1.515,3a2.334,2.334,0,0,0-.361.749c0,.083.361.333,1.226.166h2.6c4.472,0,6.636.333,6.636.916,0,.166,0,.166-.144.333a50.011,50.011,0,0,1-4.4,2.747ZM136.664,15.626a11.852,11.852,0,0,0,1.731-4.495c0-.166-.649-.749-2.02-1.914-1.515-1.082-2.164-1.748-2.452-1.748-.144,0-.288.166-.288.5l-1.875,4.078v.5a46.052,46.052,0,0,1,4.328,3.412C136.232,16.042,136.376,15.876,136.664,15.626ZM337.61,24.781c2.092,3.08,9.881,12.318,10.026,14.649.144,1.748-7.357,17.312-30.077,37.621L315.9,78.466a261.468,261.468,0,0,1-31.88,23.555s3.606-.25,13.127-4.245a156.07,156.07,0,0,0,17.96-9.239S346.7,62.4,348.717,49.834s.433-20.392-3.174-25.552-6.924-10.737-6.924-10.737l2.452-.749-9.737-9.488s-.938,8.573.072,10.9a100.315,100.315,0,0,0,6.2,10.57Zm8.078,76.906c-1.947,0-3.895,2.247-5.482,6.659-1.587,6.659-2.6,11.153-2.885,14.482a6.349,6.349,0,0,0-.361,1.082h-.288v-1.082a34.63,34.63,0,0,0-4.183-12.984c-1.947-3.329-4.183-5.16-6.419-5.16-.361,0-.938,1.082-1.947,3a19.648,19.648,0,0,0-1.587,3.329c0,.749.649,1.831,1.947,3.329,1.3,1.082,2.236,1.831,2.885,1.831a1.485,1.485,0,0,0,1.3-.749c0-.333.361-.333.649-.333.938,0,1.947,2.247,3.534,7.075,1.947,4.827,2.6,8.157,2.6,9.655a4.816,4.816,0,0,0,.216,1.415c-.361.416-.721,1-1.154,1.581-1.3,2.247-3.534,4.078-6.131,6.659-10.6,7.824-18.681,13.733-24.451,17.4-1.3.749-1.947,1.5-1.947,1.831h.361a3.666,3.666,0,0,0,2.236-.749c7.068-3,10.6-4.495,11.612-4.827a84.645,84.645,0,0,0,10.963-7.741c4.183-3.745,7.429-7.408,8.655-11.486.649-1.748,1.154-3,1.443-3.745l.216-.333c.938-1.831,1.587-4.827,2.236-8.906,1.587-9.239,3.246-14.066,4.832-14.066a2.6,2.6,0,0,1,2.236,1.5c.649,1.082,1.3,1.831,1.587,1.831s.938-.749,1.3-2.247a7.89,7.89,0,0,0,.288-2.58,6.584,6.584,0,0,0-1.3-3.329c-1.01-1.581-1.947-2.331-2.957-2.331ZM12.1,179.093a43.968,43.968,0,0,0-4.76,3.163,8.017,8.017,0,0,0-.793.749c0,.166.433,0,1.226-.166,4.328-1.415,7.068-2.33,7.862-3a23.457,23.457,0,0,0,3.823-4.827c1.226-1.914,1.875-3.163,1.875-3.745,0-1.415-2.6-2-7.718-2a11.586,11.586,0,0,0-2.957.166,3.446,3.446,0,0,0-2.6,1.748l-1.515,3a4.857,4.857,0,0,0-.433.749c0,.083.433.333,1.226.166h2.6c4.472,0,6.636.333,6.636.916,0,.166,0,.166-.144.333a40.233,40.233,0,0,1-4.328,2.747Zm105.954-95.8c-.216,0-.5.916-1.3,2.33a40.952,40.952,0,0,0-3.823,16.4c0,4.411,1.01,6.409,3.318,6.409,2.02,0,3.534-2.663,4.544-8.49v-.583c0-.25,0-.25-.289-.25,0,.25-.289.25-.289.583-1.3,2.663-2.308,3.829-3.029,3.829-1.515,0-2.308-1.748-2.308-4.994,0-2.33.793-6.742,2.524-12.568C117.767,84.459,118.056,83.543,118.056,83.293Zm0,150.067c.288-.083.288-.25,0-.666a13.27,13.27,0,0,1-1.3-1,26.632,26.632,0,0,0-10.458-5.327c-1.443-.416-7.573-1.665-18.609-3.745-11.108-2.164-16.589-3.246-16.878-3.329-.433-.083-.5-.333-.216-.416,2.092-1.332,2.741-2,2.02-2.164a2.952,2.952,0,0,0-1.226-.166c-.721.083-2.6.25-5.77.832-3.029.416-4.76.749-5.482.916-.289.083-.577.166-.649.333l.433.416a15.169,15.169,0,0,0,3.967,2.913,9.4,9.4,0,0,1,4.544.333c1.443.416,8.511,1.914,21.133,4.328,12.55,2.58,19.763,3.912,21.494,4.411,1.875.5,3.534,1.165,4.977,1.665.649.167,1.3.416,2.02.666Zm-11.108,64.754c2.02,0,3.534-2.663,4.544-8.49v-.583c0-.333,0-.333-.288-.333,0,.333-.289.333-.289.583-1.3,2.663-2.308,3.829-3.029,3.829-1.515,0-2.308-1.748-2.308-4.994,0-2.33.721-6.742,2.524-12.568.289-1.5.5-2.33.5-2.663-.288,0-.5.832-1.3,2.33a40.952,40.952,0,0,0-3.823,16.4C103.63,296.033,104.64,298.114,106.948,298.114ZM92.739,239.02a11.388,11.388,0,0,0,1.731-4.494c0-.166-.649-.749-2.02-1.914-1.515-1.082-2.164-1.748-2.452-1.748-.144,0-.289.166-.289.5l-1.875,4.078v.5a46.052,46.052,0,0,1,4.328,3.412c.216.083.289,0,.577-.333ZM117.695,55.244a9.129,9.129,0,0,0-2.308-1.581c-.144,0-.289.166-.433.333l-1.37,3.5a19.13,19.13,0,0,0-2.452-2,10.464,10.464,0,0,0-1.875-1.415q-.216,0-.433.5l-1.731,4.078c-.144.083-.144.25-.072.416l.072.083c1.443,1,2.813,2.081,4.183,3.246.289.166.433.166.577-.166a28.085,28.085,0,0,0,1.515-3.412c1.515,1.248,2.957,2.33,4.039,3.246.289.166.433.166.577-.166,1.226-2.33,1.875-3.745,1.875-4.495A14.25,14.25,0,0,0,117.695,55.244ZM68.937,174.682c-.216,0-.5.916-1.3,2.33a40.952,40.952,0,0,0-3.823,16.4c0,4.411,1.01,6.409,3.318,6.409,2.02,0,3.534-2.663,4.544-8.49v-.583c0-.333,0-.333-.289-.333,0,.333-.216.333-.216.583-1.3,2.663-2.308,3.829-3.029,3.829-1.515,0-2.308-1.748-2.308-4.994,0-2.33.793-6.742,2.524-12.568A21.048,21.048,0,0,0,68.937,174.682Zm-5.77-32.71c-.144,0-.289.166-.289.5L61,146.549v.5a46.059,46.059,0,0,1,4.328,3.412c.144.166.289,0,.577-.333a11.388,11.388,0,0,0,1.731-4.495c0-.166-.649-.749-2.02-1.914-1.443-1.165-2.164-1.748-2.452-1.748ZM80.333,105.1c-.216,0-.5.916-1.3,2.33a40.952,40.952,0,0,0-3.823,16.4c0,4.411,1.01,6.409,3.318,6.409,2.02,0,3.534-2.663,4.544-8.49v-.583c0-.333,0-.333-.216-.333,0,.333-.216.333-.216.583-1.3,2.663-2.308,3.829-3.029,3.829-1.515,0-2.308-1.748-2.308-4.994,0-2.33.793-6.742,2.524-12.568.289-1.415.5-2.33.5-2.58Zm51.21-4.744a27.961,27.961,0,0,0,11.252-2.58,22.528,22.528,0,0,0,6.78-3.329c2.6-2.247,3.895-3.329,3.895-3.662a7.442,7.442,0,0,0-1.3.333c-7.068,1.831-11.54,3-13.488,3.329a23.645,23.645,0,0,1-10.314-.333.844.844,0,0,1-.938-.832v-.25c0-.333.649-1.082,1.587-1.5a29.007,29.007,0,0,0,8.006-5.909c2.236-1.831,4.183-4.827,6.131-8.906,5.049.666,7.645,1.415,7.5,1.5.938-.083,1.515-1.165,2.452-3.329a12.067,12.067,0,0,0,1.3-5.577,1.356,1.356,0,0,0-.288-1.082C152.532,63.4,149,59.323,143.8,56.326a5.621,5.621,0,0,0-3.823-1.5,2.892,2.892,0,0,0-2.885,1.5c-1.3,1.5-1.3,3.745-.649,6.659a17.5,17.5,0,0,0-1.947,7.408c0,3,2.236,4.827,6.78,5.577a25.513,25.513,0,0,1-6.419,7.075c-1.947,1.5-3.895,3.329-5.77,4.827a10.441,10.441,0,0,0-3.534,8.157c-.144,2.83,1.8,4.328,5.987,4.328ZM145.68,64.733a12.44,12.44,0,0,1,5.77,6.326c.288.749.288,1.082,0,1.5h-.288c-3.895-.749-5.77-1.082-6.131-1.082a35.576,35.576,0,0,0,.649-6.742Zm-9.016,3.329c0-.749.649-1.5,1.587-2.58,1.01-1.5,1.947-1.831,2.236-1.831.938,0,1.587.749,1.947,2.58a7.886,7.886,0,0,1,.289,4.827c-3.823-.749-6.059-1.831-6.059-3Zm-34.477,59.427A16.174,16.174,0,0,1,98,129.4c-1.01.083-2.164.333-3.318.5a5.146,5.146,0,0,0-1.587.5l-.216.166c.144.25.721.25,1.8.25a17.481,17.481,0,0,0,9.593-2.913,13.067,13.067,0,0,0,5.77-7.075c1.443-4.328.721-9.405-2.02-15.148Q103.81,96.818,94.4,87.205c-5.482-5.577-9.376-8.823-11.757-9.655a8.484,8.484,0,0,0-4.544-.666A16.173,16.173,0,0,0,73.914,78.8a16.838,16.838,0,0,0-7.068,8.823c-1.3,3.329-1.37,6.242-.216,8.573.649,1.332,2.164,2.247,4.472,2.5a9.29,9.29,0,0,0,5.914-1.248A5.275,5.275,0,0,0,79.4,94.28a4.93,4.93,0,0,0-.289-3.912l-1.8-3.662a9.519,9.519,0,0,1-1.082-4.495,3.571,3.571,0,0,1,1.587-3.5A73.006,73.006,0,0,1,88.916,88.37c5.842,6.076,10.314,12.152,13.127,18.061,2.885,5.993,4.039,10.987,3.246,15.231-.361,2.83-1.443,4.827-3.1,5.826ZM73.409,95.362c-.721.5-1.3-.083-1.947-1.248a7.828,7.828,0,0,1,.577-6.242q1.19,3,1.731,4.245c.433,1.665.361,2.747-.361,3.246ZM86.68,184.753c-1.515-2.663-3.318-3.829-5.049-3.829-.216,0-.721.583-1.515,2.331a17.646,17.646,0,0,0-1.3,2.663,3.616,3.616,0,0,0,1.515,2.331,3.484,3.484,0,0,0,2.308,1.5c.5,0,.793,0,.793-.333a1.086,1.086,0,0,1,.793-.583c.721,0,1.515,2.081,2.813,5.826s2.02,6.159,2.02,7.574c0,.916.289,1.165.5,1.165s.5-.333,1.01-1.5c.721-1.165,1.3-3.5,1.8-6.742,1.01-7.574,2.308-11.4,3.823-11.4a2.751,2.751,0,0,1,1.8,1.5,2.483,2.483,0,0,0,1.01,1.165c.5,0,1.01-.583,1.3-1.748a6.556,6.556,0,0,0,.289-2.081,3.719,3.719,0,0,0-1.01-2.33c-.793-1.5-1.515-2.081-2.308-2.081-1.515,0-3.029,1.748-4.328,5.577a88.327,88.327,0,0,0-2.308,11.4,1.4,1.4,0,0,0-.288.583c0,.333,0,.333-.216,0v-.583a38.172,38.172,0,0,0-3.462-10.4Zm-49.7-10.238c-.144,0-.289.166-.5.333l-1.587,4a26.455,26.455,0,0,0-2.813-2.414,9.1,9.1,0,0,0-2.236-1.665c-.144,0-.289.166-.5.583l-2.092,4.744c-.144.083-.144.333-.072.5,0,0,0,.083.072.083a53.528,53.528,0,0,1,4.9,3.829c.289.166.5.166.649-.166a31.856,31.856,0,0,0,1.731-4c1.731,1.5,3.462,2.747,4.76,3.829.289.166.5.166.649-.166,1.443-2.747,2.236-4.411,2.236-5.327a24.388,24.388,0,0,0-2.524-2.414A15.576,15.576,0,0,0,36.985,174.515Zm8.655-14.233a80.151,80.151,0,0,0,9.232-19.393c2.813-7.741,3.823-13.4,3.174-16.73a15.091,15.091,0,0,0-4.616-7.907c-.721-.666-2.164-.916-4.183-.916a7.153,7.153,0,0,0-5.842,3.329c-2.813,4.162-3.678,12.318-2.38,24.137a105.612,105.612,0,0,0-8.367-9.239c-.721-.666-4.328-3.5-10.747-8.24s-9.665-7.075-9.737-7.158c-.361-.333-.361-.5-.144-.5,2.524-.166,3.318-.583,2.669-1.165a5.235,5.235,0,0,0-1.154-.583c-.649-.333-2.452-1-5.482-2.081-2.885-1-4.616-1.581-5.337-1.748-.361.083-.5,0-.577.083s-.072.333.072.666c1.37,2.58,2.164,4.162,2.741,4.578a8.448,8.448,0,0,1,3.895,2.33c.721.666,5.193,4.245,13.271,10.321,8.15,6.242,12.55,9.655,13.055,10.071l4.688,4.245a5.518,5.518,0,0,1,1.515,2.164c.433,2.164,1.01,4.661,1.37,7.408-1.226,2.414-2.6,4.744-4.039,7.075-1.01,1.5-2.092,3.08-3.462,4.827-1.226,1.831-2.092,2.83-2.38,3.246a2.794,2.794,0,0,0-.577,1.082c-.144.25-.072.333.216.416.289-.166.721-.333,1.3-.666a34.929,34.929,0,0,0,6.491-4.245,27.782,27.782,0,0,0,5.337-5.41Zm.649-35.956c1.587-2.33,4.255-3.5,8.078-3.08.289.083.5.083.577.166-.072.083.072.416-.072.916-.721,5.493-2.6,11.486-5.482,18.394a72.406,72.406,0,0,1-5.193,10.82c-1.875-13.4-1.154-22.389,2.092-27.217ZM9.144,150.378c-2.164,1.581-4.328,3-6.491,4.494-.577.333-.793.666-.793.749H2a1.321,1.321,0,0,0,.938-.333,44.358,44.358,0,0,1,4.9-2c1.587-1,3.1-2.081,4.616-3.246A20.839,20.839,0,0,0,16,145.8a4.557,4.557,0,0,1,1.659,1.581,6.216,6.216,0,0,0,1.226-2.83,14.409,14.409,0,0,0-1.659-1.415,17.978,17.978,0,0,0,.577-4.411,12.951,12.951,0,0,0,2.957-6.742v-.666a1.233,1.233,0,0,0-1.37-1.415c-.793,0-2.02.666-3.678,1.748a16.486,16.486,0,0,0-4.328,4.078c-2.164,3-3.39,5.743-3.39,8.406,0,2,.577,3,1.659,3,.793,0,1.515-.5,2.308-1.581a6.28,6.28,0,0,0,.938-2.164,9.9,9.9,0,0,0,2.164,1.914A25.353,25.353,0,0,1,9.144,150.378Zm3.246-8.323a2.172,2.172,0,0,1-.649,1.748,2.114,2.114,0,0,1-1.731.666c-.577,0-.938-.5-.938-1.581,0-1.581.938-3.413,2.741-5.66a18.3,18.3,0,0,1,3.678-3.246A5.194,5.194,0,0,1,18.3,132.9c.649,0,1.082.5,1.082,1.415,0,.749-.649,2-1.875,3.579a1.247,1.247,0,0,0-.649-.749c-.649-.166-1.659.166-2.741,1.248a5.067,5.067,0,0,0-1.731,3.662Zm1.659-1.332c0-.166.144-.333.577-.666.433-.166.577-.333.793-.333.433,0,.649.333.793.916a4.324,4.324,0,0,1-.144,1.914C14.7,141.805,14.049,141.139,14.049,140.723ZM29.917,95.528c0-1.748-.216-2.83-.649-2.83-.216,0-.649.5-1.3,1.248a4.307,4.307,0,0,0-1.082,2.747,1.041,1.041,0,0,0,.649,1c.433.25.649.25.649.749v4.078a9.92,9.92,0,0,0,.866,4.578,2.9,2.9,0,0,0,2.236,1.248c2.164,0,3.534-1.748,4.4-5.077.649,2.5,1.947,4.078,3.751,4.078.866,0,1.731-1,2.669-2.747a14.582,14.582,0,0,0,.649-4.328,11.081,11.081,0,0,0-.649-3.08c-.866-2.247-1.3-3.579-1.3-3.579a15.087,15.087,0,0,0-.433-2.5c0-.5,0-1-.216-1a2.875,2.875,0,0,1-.649,1,4.9,4.9,0,0,0-.649,2.5c0,2,.866,4.495,2.669,7.824a1.7,1.7,0,0,1-1.515,1.5c-2.02,0-3.1-1.5-3.1-4.328a26.68,26.68,0,0,0-.649-4.827c-.216-2-.649-3.08-.866-3.08s-.433.25-.649,1a2.99,2.99,0,0,0-.433,1.748,9.631,9.631,0,0,0,.433,2.83c.216,1.748.433,2.747.433,3.329a3.664,3.664,0,0,1-1.082,3.08,2.347,2.347,0,0,1-2.236,1.165c-.649,0-1.082-.5-1.515-1.5a7.3,7.3,0,0,1-.649-3.08c0-.25.216-1,.216-1.5-.072-.583,0-1.415,0-2.247ZM64.465,265.321c5.337,2.663,12.189,4.411,20.556,4.994,7.285.583,12.117.416,14.425-.666a9.862,9.862,0,0,0,3.967-2.663,15.776,15.776,0,0,0,2.236-4.494,20.586,20.586,0,0,0,.938-11.985c-.721-3.579-2.236-5.909-4.328-6.908-1.226-.583-2.885-.25-4.832,1.165a12.253,12.253,0,0,0-4.039,5.16,5.929,5.929,0,0,0-.216,4.162,4.111,4.111,0,0,0,2.308,2.83l3.318,1.665a7.434,7.434,0,0,1,3.246,2.83,3.807,3.807,0,0,1,.577,3.912,57.031,57.031,0,0,1-13.92.166c-7.862-.666-14.642-2.33-19.979-4.994-5.482-2.747-9.016-5.826-10.675-9.738a8.639,8.639,0,0,1-.577-6.742,21.515,21.515,0,0,1,2.308-4.495c.721-.832,1.587-1.748,2.38-2.747a10.251,10.251,0,0,0,1.01-1.5c.072-.083.072-.166.144-.333-.216-.083-.721.333-1.587,1.082a21.979,21.979,0,0,0-6.059,9.072,15.61,15.61,0,0,0-.793,9.655c1.082,4.411,4.4,7.907,9.593,10.57ZM98.8,252c-1.3-1-1.8-1.914-1.443-2.747s1.082-.832,2.236-.416c1.443.916,2.452,2.58,2.885,5.327-1.731-1.082-2.957-1.831-3.678-2.164ZM57.108,49.5c-.216,0-.5.832-1.3,2.33a40.952,40.952,0,0,0-3.823,16.4c0,4.411,1.01,6.492,3.318,6.492,2.02,0,3.534-2.663,4.544-8.49v-.583c0-.25,0-.25-.216-.25,0,.25-.289.25-.289.583-1.3,2.663-2.308,3.829-3.029,3.829-1.515,0-2.308-1.748-2.308-4.994,0-2.33.721-6.742,2.524-12.568C56.82,50.667,57.108,49.834,57.108,49.5ZM74.13,227.7c-.216,0-.5.832-1.3,2.33a40.952,40.952,0,0,0-3.823,16.4c0,4.411,1.01,6.409,3.318,6.409,2.02,0,3.534-2.663,4.544-8.49v-.583c0-.333,0-.333-.216-.333,0,.333-.216.333-.216.583-1.3,2.663-2.308,3.829-3.029,3.829-1.515,0-2.308-1.748-2.308-4.994,0-2.33.793-6.742,2.524-12.568C73.914,228.865,74.13,228.033,74.13,227.7Zm-54.672-6.076c2.02,0,3.534-2.663,4.544-8.49v-.583c0-.333,0-.333-.289-.333,0,.333-.216.333-.216.583-1.3,2.663-2.308,3.829-3.029,3.829-1.515,0-2.308-1.748-2.308-4.994,0-2.33.793-6.742,2.524-12.568.289-1.5.5-2.33.5-2.663-.289,0-.5.832-1.3,2.331a40.952,40.952,0,0,0-3.823,16.4C16.14,219.627,17.15,221.624,19.458,221.624Z" transform="translate(-0.038 0.022)" fill="url(#linear-gradient)"/>
      </g>
    </g>
  </g>
</svg>
