<svg xmlns="http://www.w3.org/2000/svg" xmlns:xlink="http://www.w3.org/1999/xlink" width="1110" height="90" viewBox="0 0 1110 90">
  <defs>
    <clipPath id="clip-path">
      <path id="Rectangle_14" data-name="Rectangle 14" d="M10,0H1100a10,10,0,0,1,10,10V90a0,0,0,0,1,0,0H0a0,0,0,0,1,0,0V10A10,10,0,0,1,10,0Z" transform="translate(1100 555)" fill="#fff"/>
    </clipPath>
    <linearGradient id="linear-gradient" x1="0.5" y1="-0.001" x2="0.5" y2="0.999" gradientUnits="objectBoundingBox">
      <stop offset="0" stop-color="#86764e" stop-opacity="0.2"/>
      <stop offset="1" stop-color="#fff" stop-opacity="0"/>
    </linearGradient>
  </defs>
  <g id="Mask_Group_2" data-name="Mask Group 2" transform="translate(-1100 -555)" clip-path="url(#clip-path)">
    <g id="Layer_2_1_" transform="translate(1073.798 431.044)">
      <g id="Layer_1-2" transform="translate(0 0)">
        <path id="Path_119" data-name="Path 119" d="M434.628,222.768a1.759,1.759,0,0,0-.89,1.39c.445,0,1.334-.695,3.558-2.084.89-.695,3.558-2.316,6.672-4.4a50.323,50.323,0,0,0,4.893-3.242,4.421,4.421,0,0,0,1.334-3.011c0-1.621-1.779-2.548-5.337-2.548-1.334,0-4.448.695-8.9,1.853-6.227,1.621-11.713,2.547-16.16,3.474a145.088,145.088,0,0,1-23.277,1.621c-13.936,0-23.277-1.621-28.17-5.095a39.288,39.288,0,0,1-4.448-6.562c-1.334-3.011-2.669-4.4-3.113-4.4a1.975,1.975,0,0,0-1.779,1.158,2.136,2.136,0,0,0-.89,1.621,8.594,8.594,0,0,0,1.779,3.474,6.293,6.293,0,0,1,1.779,4.169c0,2.084-2.224,3.011-7.117,3.011a21.762,21.762,0,0,1-4.448-.463,4.784,4.784,0,0,0-2.224-.463c-1.334,0-3.113.463-5.782,1.853a8.506,8.506,0,0,0-4,4.169c.445.926.89.926,1.779.463a15.294,15.294,0,0,1,7.117-2.084,4.9,4.9,0,0,1,2.669.463,14.073,14.073,0,0,0,3.558.463c4.893,0,8.006-1.39,9.785-3.937a1.9,1.9,0,0,0,.445-1.158c4.893,4.863,15.271,7.257,30.838,7.257a177.08,177.08,0,0,0,44.775-6.1,16.749,16.749,0,0,1,4-.695c1.483,0,2.817.618,3.113,1.39a44.709,44.709,0,0,0-5.337,3.011A27.863,27.863,0,0,0,434.628,222.768Zm41.513-12.043c-.593,0-1.038.849-2.669,2.161-5.189,5.4-7.858,10.344-7.858,15.208,0,4.091,2.076,6.021,6.82,6.021,4.151,0,7.265-2.47,9.34-7.874v-.54c0-.309,0-.309-.593-.309,0,.309-.593.309-.593.54-2.669,2.47-4.744,3.551-6.227,3.551-3.113,0-4.744-1.621-4.744-4.632,0-2.161,1.631-6.253,5.189-11.657a13.4,13.4,0,0,0,1.334-2.47Zm658.723-87.85a11.464,11.464,0,0,0,3.558-2.162,7.538,7.538,0,0,0,1.927-3.937,10.3,10.3,0,0,0,.593-2.007q0-4.979-5.782-6.948c-1.334-.54-6.375-2.007-14.974-4.091-6.968-1.776-12.75-3.628-16.9-5.944,3.855.154,5.782,0,6.375-.309s0-.695-1.927-1.312c-.593-.154-.89-.154-1.334-.309l-11.713-2.933c-.89-.309-1.334-.463-1.631-.309a.684.684,0,0,0-.3.695v3.474c-.148.695.3,1.39,1.334,1.93a25.434,25.434,0,0,1,3.114,1.158,57.92,57.92,0,0,0,13.343,6.793c4.151,1.39,8.6,2.548,13.047,3.628,5.634,1.467,9.489,2.47,11.713,3.474,1.927.849,3.113,1.467,3.113,2.007,0,.386-.445.772-1.038,1-2.224,1.158-9.785,3.783-22.536,8.106-14.233,4.941-24.018,7.411-28.911,7.411-4.744,0-8.6-2.007-8.6-4.477v-.463c0-2.316,1.186-5.481,3.41-9.727a5.136,5.136,0,0,0,.593-1.312c0-.309,0-.309-.3-.309s-.89.463-1.631,1.312a22.444,22.444,0,0,0-4.744,12.583c0,5.481,3.855,8.106,11.713,8.106,4.151,0,13.344-2.316,27.28-7.257A202.151,202.151,0,0,0,1134.863,122.876Zm-60.342-78.586a25.768,25.768,0,0,0,4.448,4.632,8.844,8.844,0,0,0,4.6,1.312c3.262.309,5.486.695,6.672.849,4.744,1,8.451,1.7,10.675,2.084a57.649,57.649,0,0,1-4.448,13.355,58.678,58.678,0,0,1-4,8.183,9.766,9.766,0,0,0-1.186,3.4l.3.232a10.726,10.726,0,0,0,2.817-2.162c7.413-5.867,11.861-13.278,12.9-21.924,3.262.309,6.375.618,9.933,1.158.741,6.176,1.483,10.962,3.113,13.9a27.134,27.134,0,0,0,8.9,10.653q9.563,7.179,18.681,3.937a22.994,22.994,0,0,0,10.082-7.72,16.189,16.189,0,0,0,4.448-8.646,11.933,11.933,0,0,0-2.076-4.555,22.651,22.651,0,0,0-3.707-4.555,46.037,46.037,0,0,0-10.823-6.1c-4.744-1.853-11.861-3.4-21.2-4.477-.3-5.79-.445-10.113-.89-13.509a21.143,21.143,0,0,0-3.113-7.951,22.606,22.606,0,0,0-6.227-7.72c-2.076-1.621-4-2.162-5.782-1.467-2.669.926-4.6,4.632-6.375,11.039-.3,7.488-.445,13.355-.741,17.832-4.744-.618-7.71-1.081-7.858-1.312s1.334-.772,4.3-1.853c1.927-.695,2.372-1.158,2.224-1.39s-.89-.232-2.817-.463c-3.41,0-8.006-.077-14.085,0a63.637,63.637,0,0,0-9.934.618C1072.89,41.819,1072.89,42.591,1074.521,44.289Zm51.15,11.425a123.139,123.139,0,0,1,26.242,4.091c.593.077.741.926.148,2.316a20.735,20.735,0,0,1-6.672,8.569,22.567,22.567,0,0,1-6.523,4.091c-4.6,1.621-8.006,1.621-10.082.077a.947.947,0,0,1-.445-.772,20.865,20.865,0,0,1-2.965-9.5A25.55,25.55,0,0,1,1125.671,55.715Zm-14.085-27.791a4.75,4.75,0,0,1,1.483-1.081c1.927-.695,3.558,2.239,3.558,8.723a83.986,83.986,0,0,1,.593,11.58c-3.113-.077-6.079-.232-9.192-.54-.148-9.5,1.334-15.594,3.558-18.682ZM482.812,202.08c.593,0,1.038-.309,2.076-1.39,1.483-1.081,2.669-3.242,3.706-6.253,2.076-7.1,4.744-10.576,7.858-10.576a6.763,6.763,0,0,1,3.707,1.39,5.383,5.383,0,0,0,2.076,1.081,3.027,3.027,0,0,0,2.669-1.621,3.117,3.117,0,0,0,.593-1.93,3.248,3.248,0,0,0-2.076-2.161,6.744,6.744,0,0,0-4.744-1.93c-3.113,0-6.227,1.621-8.9,5.172a45.927,45.927,0,0,0-4.744,10.576,1.393,1.393,0,0,0-.593.54c0,.309,0,.309-.593,0v-.54a21.407,21.407,0,0,0-6.82-9.8,16.619,16.619,0,0,0-10.378-3.551c-.593,0-1.631.54-3.113,2.162a14.056,14.056,0,0,0-2.669,2.47c0,.54,1.038,1.39,3.113,2.162a10.255,10.255,0,0,0,4.744,1.39c1.038,0,1.483,0,1.483-.309a3.406,3.406,0,0,1,1.631-.54c1.631,0,3.113,1.93,5.782,5.4s4.151,5.713,4.151,7.1A1.007,1.007,0,0,0,482.812,202.08ZM599.79,241.45c-.3,0-.593.154-.593.463l-3.855,3.783v.463c3.114,1,6.079,2.007,8.9,3.165.3.154.593,0,1.186-.309,2.521-2.007,3.558-3.474,3.558-4.169,0-.154-1.334-.695-4.151-1.776-3.113-1-4.448-1.544-5.041-1.621ZM446.637,127.971a16.619,16.619,0,0,0-10.378-3.551c-.593,0-1.631.54-3.113,2.162a14.055,14.055,0,0,0-2.669,2.47c0,.54,1.038,1.39,3.114,2.161a10.254,10.254,0,0,0,4.744,1.39c1.038,0,1.483,0,1.483-.309a3.406,3.406,0,0,1,1.631-.54c1.483,0,3.113,1.93,5.782,5.4s4.151,5.713,4.151,7.025a.981.981,0,0,0,1.038,1.081c.445,0,1.038-.309,2.076-1.39,1.483-1.081,2.669-3.242,3.707-6.253,2.076-7.025,4.744-10.576,7.858-10.576a6.762,6.762,0,0,1,3.706,1.39,4.484,4.484,0,0,0,2.076,1.081,3.027,3.027,0,0,0,2.669-1.621,3.117,3.117,0,0,0,.593-1.93,3.248,3.248,0,0,0-2.076-2.162,6.744,6.744,0,0,0-4.744-1.93c-3.113,0-6.227,1.621-8.9,5.172a45.933,45.933,0,0,0-4.744,10.576,1.392,1.392,0,0,0-.593.54c0,.309,0,.309-.593,0v-.54C451.826,133.683,449.75,130.364,446.637,127.971Zm-87.919,25.243c-.445,0-1.038.849-2.669,2.161-5.189,5.4-7.858,10.344-7.858,15.208,0,4.091,2.076,5.944,6.82,5.944,4.151,0,7.265-2.47,9.34-7.874v-.54c0-.309,0-.309-.445-.309,0,.309-.593.309-.593.54-2.669,2.47-4.744,3.551-6.227,3.551-3.113,0-4.744-1.621-4.744-4.632,0-2.162,1.631-6.253,5.189-11.657A9.64,9.64,0,0,0,358.718,153.214Zm731.815-2.856c-.3,0-.593.154-.593.463l-3.855,3.783v.463c3.114,1,6.079,2.007,8.9,3.165.3.154.593,0,1.186-.309,2.521-2.007,3.558-3.474,3.558-4.169,0-.154-1.334-.695-4.151-1.776-3.114-1.081-4.448-1.621-5.041-1.621Zm-344.41,51.182c-.593,0-1.038.849-2.669,2.161-5.189,5.4-7.858,10.344-7.858,15.208,0,4.091,2.076,5.944,6.82,5.944,4.151,0,7.265-2.47,9.34-7.874v-.54c0-.309,0-.309-.593-.309,0,.309-.593.309-.593.54-2.669,2.47-4.744,3.551-6.227,3.551-3.113,0-4.744-1.621-4.744-4.632,0-2.161,1.631-6.253,5.189-11.657A14,14,0,0,0,746.124,201.539ZM723.44,126.118a8.3,8.3,0,0,0,2.817,1.544c9.785,3.4,16.012,6.716,18.977,9.727,1.186,1.158-.148,3.783-4.151,8.26a76.922,76.922,0,0,1-17.05,13.818c-7.561,5.018-17.05,9.109-27.873,12.2-11.416,3.088-21.794,3.4-31.283,1.158-6.968-1.467-12.6-4.091-16.012-7.565-.593-.695-2.817-4.014-6.523-10.113-.3-.772-.89-1.235-1.483-1.081-.3.077-.593.618-.3,1.312a22.2,22.2,0,0,0,3.41,7.411,20.905,20.905,0,0,0,4.151,4.941,43.742,43.742,0,0,0,19.867,11.348c10.527,2.933,22.387,2.7,34.99-.695a89.772,89.772,0,0,0,32.766-16.6c7.71-6.253,13.047-11.888,14.826-16.752,1.779-3.4-.741-8.337-7.413-14.9,1.779-.309,3.707-.618,5.337-1.081,7.265-2.007,11.12-5.713,11.564-11.271q8.228,2.779,13.343,1.39c4.744-1.312,7.413-3.474,7.71-6.716.148-2.779-1.334-5.481-4-7.951a14.519,14.519,0,0,0-6.968-3.783,4.653,4.653,0,0,0-1.927-.309c-.593.154-.593.618-.3,1.312a24.814,24.814,0,0,0,2.372,5.172l5.337,1.7c-.148,1.081-1.483,2.084-4.3,2.856a15.641,15.641,0,0,1-7.116.463,8.337,8.337,0,0,1-4.744-1.467c.148.154,0-.849-1.334-3.011.148-.232,0-.386-.3-.772a1.593,1.593,0,0,0-1.631-.386c-.741.232-1.186.695-1.186,1.158-.445,2.393-.89,4.632-1.334,7.025-.741,3.011-4.3,5.635-9.489,6.948a30.468,30.468,0,0,1-12.75.926,35,35,0,0,1-7.413-2.162,6,6,0,0,0-2.669-.695c-.3.077-.3.463-.148,1.081a11.281,11.281,0,0,0,2.224,5.558ZM755.019,187.1c0-1.853-.741-2.933-2.817-4.014a9.492,9.492,0,0,0-2.817,2.239c-1.483,1.081-2.076,1.853-1.483,2.239a12.079,12.079,0,0,0,1.483,2.933,2.16,2.16,0,0,1-1.483.386c-7.71,0-10.526-.386-9.934-1.081a10.145,10.145,0,0,0,1.483-3.319c0-.386,0-.772-.741-.772s-2.076.772-3.558,1.467c-1.483,1.467-3.558,2.933-4.892,4.4a19.074,19.074,0,0,1-8.451,1.853,27.227,27.227,0,0,1-7.116-.772,45.414,45.414,0,0,0-26.835,3.319,106.528,106.528,0,0,0-16.16,7.72c-7.117,4.4-12.009,7.334-16.16,9.572-7.71,2.933-13.343,5.172-16.9,6.253-2.224.54-4.3,1.158-6.375,1.853,0,.386,0,.386.741.386a71.471,71.471,0,0,0,9.192-1.467c4.3-.386,8.451-1.853,12.75-3.319l21.2-11.039a66.476,66.476,0,0,1,28.911-6.948,33.113,33.113,0,0,1,5.634.772c2.076.309,4.151.618,6.375.772,5.634,0,11.268-1.853,16.9-4.786,7.116,1.853,12.009,1.853,15.567.772a10.412,10.412,0,0,0,3.558-3.705,10.153,10.153,0,0,0,1.927-5.713ZM612.1,216.593c0-1.7-1.927-2.7-5.634-2.7-1.483,0-4.744.695-9.785,1.93-5.337,1.39-10.823,2.625-16.457,3.628a155.329,155.329,0,0,1-24.908,1.7,88.578,88.578,0,0,1-22.091-2.7,68.065,68.065,0,0,1-6.968-2.47,24.343,24.343,0,0,0-2.817-1c-1.334,0-2.372,1-2.817,2.933a65.7,65.7,0,0,0,6.079,4.863,10.844,10.844,0,0,1,1.927,5.4v1.467c.445,0,.89-.463,1.483-1.235,1.927-2.47,1.927-4.4.89-5.867a92.194,92.194,0,0,0,22.536,2.7c14.974,0,30.393-2.239,46.85-6.33a11.753,11.753,0,0,1,4.151-.695c1.631,0,2.965.618,3.262,1.467-1.927,1-3.855,2.084-5.634,3.165a22.464,22.464,0,0,0-6.968,5.635,3.392,3.392,0,0,0-.89,1.467h.445a22.384,22.384,0,0,0,3.262-2.162,75.384,75.384,0,0,1,7.561-4.632c1.779-1.081,3.558-2.239,5.189-3.4a4.491,4.491,0,0,0,1.334-3.165ZM391.78,162.632c-3.41.849-6.672,1.853-9.785,2.933-.593.232-1.186.463-1.631.695,0,.154.89,0,2.52-.154,8.9-1.312,14.53-2.162,16.16-2.779a38.9,38.9,0,0,0,7.858-4.477c2.52-1.776,3.855-2.933,3.855-3.474,0-1.312-5.337-1.853-15.864-1.853a52.41,52.41,0,0,0-6.079.154,9.824,9.824,0,0,0-5.337,1.621l-3.113,2.779c-.593.463-.89.618-.89.695a5.047,5.047,0,0,0,2.52.154h5.337c9.192,0,13.64.309,13.64.849,0,.154,0,.154-.3.309q-4.225,1.39-8.9,2.548Zm84.212-97.886c-.593,0-1.038.849-2.669,2.162-5.189,5.4-7.858,10.344-7.858,15.208,0,4.091,2.076,5.944,6.82,5.944,4.151,0,7.265-2.47,9.34-7.874v-.54c0-.232,0-.232-.593-.232,0,.232-.593.232-.593.54-2.669,2.47-4.744,3.551-6.227,3.551-3.114,0-4.744-1.621-4.744-4.632,0-2.162,1.631-6.253,5.189-11.657.89-1.312,1.483-2.162,1.334-2.47ZM418.171,81.5a5.838,5.838,0,0,0,1.186-2.47v-.386c-.741,0-1.483.772-3.113,2.239-4.744,4.4-7.116,9.418-6.968,14.436,0,4.863,2.372,8.723,7.413,12.043,7.413,4.477,19.57,6.948,36.027,6.948,15.567,0,35.583-2.007,59.453-6.33,3.855-.618,15.271-2.856,34.4-6.716,8.6-1.621,14.085-2.47,17.2-2.47,1.927,0,3.113.232,3.113.849,0,.849-3.113,3.011-9.785,6.948-6.968,4.246-11.713,7.951-13.64,11.194a22.7,22.7,0,0,0-1.927,4.091.334.334,0,0,0,.3.232h0c.445,0,1.927-1.39,4.744-4.246a40.728,40.728,0,0,1,7.413-5.327c2.372-1.467,5.041-3.088,7.413-4.477,4.744-3.088,7.413-4.863,8.154-5.481,3.855-2.856,5.486-5.327,5.486-7.334,0-2.856-2.669-4.246-9.044-4.246A79.488,79.488,0,0,0,550.716,93c-6.227,1.39-12.454,2.856-18.829,4.091-10.971,2.393-22.091,4.4-33.655,5.867a283.172,283.172,0,0,1-39.141,3.088c-17.2,0-29.652-1.853-37.955-5.327-5.486-2.239-8.154-4.863-8.154-7.951a11.589,11.589,0,0,1,1.631-6.485c1.334-1.7,2.52-3.165,3.558-4.786Zm678-69.632c2.521-2.007,3.558-3.474,3.558-4.169,0-.154-1.334-.695-4.151-1.776-3.114-1-4.448-1.621-5.041-1.621-.3,0-.593.154-.593.463l-3.855,3.783V9.01c3.114,1,6.079,2.007,8.9,3.165C1095.278,12.33,1095.574,12.176,1096.167,11.867Zm-541.3,124.827c-15.567,3.474-24.166,5.327-25.946,5.79-3.855.849-5.93,1.467-5.93,1.621s0,.154.3.154c1.927-.077,3.706-.232,5.634-.463,2.817-.154,9.785-1,21.2-2.47,10.527-1.312,15.864-2.007,16.16-2.007,2.224,0,8.6-1.621,19.719-4.941,12.75-3.783,21.943-7.411,27.28-10.576a18.249,18.249,0,0,0,5.782-4.941,19.363,19.363,0,0,0,3.855-4.941q12.454,6.253,20.015,6.253a6.279,6.279,0,0,0,4.151-1.853,10.9,10.9,0,0,0,2.817-3.783,4.061,4.061,0,0,0,.3-1.853,7.024,7.024,0,0,0-2.224-5.481,10.783,10.783,0,0,0-7.858-2.933c-4.151,0-8.3,1.467-12.75,4.477a4.183,4.183,0,0,0-1.334-.309,3.1,3.1,0,0,0-1.927.695c-.593.618-1.631,1.853-3.706,3.937a39.225,39.225,0,0,1-3.855,4.091c-4.448,3.474-16.16,7.72-34.545,12.892C574.882,132.062,565.987,134.224,554.867,136.694Zm79.32-26.633a17.188,17.188,0,0,1,3.558-.618A7.931,7.931,0,0,1,641.6,110.6a3.969,3.969,0,0,1,1.927,2.316c.3.849,0,1.312-.593,1.312a31.269,31.269,0,0,1-5.634-1.467,44.557,44.557,0,0,1-5.634-2.007c.3-.154,1.186-.309,2.52-.695ZM746.124,55.637c-.593,0-1.038.849-2.669,2.162-5.189,5.4-7.858,10.344-7.858,15.208,0,4.091,2.076,5.944,6.82,5.944,4.151,0,7.265-2.47,9.34-7.874v-.54c0-.232,0-.232-.593-.232,0,.232-.593.232-.593.54-2.669,2.47-4.744,3.551-6.227,3.551-3.113,0-4.744-1.621-4.744-4.632,0-2.162,1.631-6.253,5.189-11.657.741-1.467,1.334-2.239,1.334-2.47ZM505.348,126.2c-3.41.849-6.672,1.853-9.785,2.933-.593.232-1.186.463-1.631.695,0,.154.89,0,2.52-.154,8.9-1.312,14.53-2.162,16.16-2.779a38.893,38.893,0,0,0,7.858-4.477c2.521-1.776,3.855-2.933,3.855-3.474,0-1.312-5.337-1.853-15.864-1.853a52.412,52.412,0,0,0-6.079.154,9.824,9.824,0,0,0-5.337,1.621l-3.113,2.779c-.593.463-.89.618-.89.695a5.047,5.047,0,0,0,2.52.154H500.9c9.192,0,13.64.309,13.64.849,0,.154,0,.154-.3.309Q510.018,125.037,505.348,126.2Zm99.928-23.159c2.52-2.007,3.558-3.474,3.558-4.169,0-.154-1.334-.695-4.151-1.776-3.114-1-4.448-1.621-5.041-1.621-.3,0-.593.154-.593.463l-3.855,3.783v.463c3.113,1,6.079,2.007,8.9,3.165.445.154.741,0,1.186-.309ZM367.466,69.61a16.619,16.619,0,0,0-10.378-3.551c-.593,0-1.631.54-3.113,2.162a17.112,17.112,0,0,0-2.669,2.47c0,.54,1.038,1.39,3.113,2.162a10.255,10.255,0,0,0,4.744,1.39c1.038,0,1.631,0,1.631-.309a4.513,4.513,0,0,1,1.631-.54c1.483,0,3.113,1.93,5.782,5.4s4.151,5.713,4.151,7.1a.981.981,0,0,0,1.038,1.081c.445,0,1.038-.232,2.076-1.39,1.631-1.081,2.669-3.242,3.707-6.253,2.076-7.025,4.744-10.576,7.858-10.576a6.763,6.763,0,0,1,3.707,1.39,4.484,4.484,0,0,0,2.076,1.081,3.027,3.027,0,0,0,2.669-1.621,3.117,3.117,0,0,0,.593-1.93A3.248,3.248,0,0,0,394,65.519a6.744,6.744,0,0,0-4.744-1.93c-3.114,0-6.227,1.621-8.9,5.172a45.929,45.929,0,0,0-4.744,10.576,1.393,1.393,0,0,0-.593.54c0,.232,0,.232-.593,0v-.54A23.058,23.058,0,0,0,367.466,69.61ZM394.6,120.483c-4.448,2.779-6.968,5.327-6.968,7.8,0,1.853,1.186,2.779,3.41,2.779a8.737,8.737,0,0,0,4.744-1.467,5.406,5.406,0,0,0,1.927-2.007,23.562,23.562,0,0,0,4.448,1.776,61.7,61.7,0,0,1-12.009,4.632c-4.448,1.467-8.9,2.779-13.343,4.169-1.186.309-1.631.618-1.631.695h.3a5.076,5.076,0,0,0,1.927-.309c5.782-1.158,9.192-1.776,10.082-1.853,3.262-.926,6.375-1.93,9.489-3.011a32.936,32.936,0,0,0,7.265-3.937,10.05,10.05,0,0,1,3.41,1.467c1.631-1.158,2.52-2.007,2.52-2.625a35.521,35.521,0,0,0-3.41-1.312,8.38,8.38,0,0,0,1.186-4.091c3.262-1.7,5.486-3.86,6.079-6.253v-.618c0-.849-.89-1.312-2.817-1.312a31.72,31.72,0,0,0-7.561,1.621A41.627,41.627,0,0,0,394.6,120.483Zm9.785,6.253c-2.817-.695-4.151-1.312-4.151-1.776,0-.154.3-.309,1.038-.54a12.74,12.74,0,0,1,1.631-.309,1.622,1.622,0,0,1,1.631.849A1.57,1.57,0,0,1,404.383,126.736Zm6.672-7.72c0,.695-1.334,1.853-3.855,3.319a1.879,1.879,0,0,0-1.334-.695,11.492,11.492,0,0,0-5.634,1.158,5.512,5.512,0,0,0-3.41,3.474c.148.618-.445,1.235-1.334,1.621a7.9,7.9,0,0,1-3.558.618c-1.186,0-1.927-.463-1.927-1.467,0-1.467,1.927-3.165,5.634-5.249a43.634,43.634,0,0,1,7.561-3.011,22.72,22.72,0,0,1,5.782-1c1.334-.077,2.076.386,2.076,1.235Zm62.566,46.4c2.372-1.312,3.707-2.316,3.41-2.7-.148-.232-.89,0-2.076.309-1.334.309-2.372.695-3.558,1.081-6.523,2.316-16.457,5.249-30.1,9.109-10.675,3.165-19.422,5.558-25.649,7.1-21.35,5.327-39.586,6.793-54.115,4.246-11.416-2.084-20.312-6.253-26.242-12.815-5.634-6.176-5.782-13.664-.445-22.31,3.707-6.33,10.527-13.741,20.164-22,6.079-4.786,12.454-9.727,18.681-14.745a4.944,4.944,0,0,0,1.631-2.779l.593-5.79a.953.953,0,0,0-.3-1.312c-.148-.232-.741-.309-1.038-.232a7.53,7.53,0,0,0-1.927.926c-5.782,4.555-11.268,8.955-17.346,13.278s-11.564,7.1-16.012,8.183a68.405,68.405,0,0,1-31.876.386c-8.006-1.776-13.492-3.937-17.2-6.871,1.927-2.393,5.782-5.018,11.564-7.642a121.228,121.228,0,0,1,18.829-6.562,99.338,99.338,0,0,1,16.9-2.316,15.725,15.725,0,0,0,3.855-.232c.741-.154.89-.463.741-.695s-1.334-.386-3.262-.618a92.5,92.5,0,0,0-34.841,1.544c-7.561,1.853-13.788,4.941-17.643,8.878-4.151,4.014-4.3,8.8-.445,12.815,3.855,4.246,10.823,7.411,21.053,9.65a91.489,91.489,0,0,0,26.539,1.7c-12.157,14.359-11.416,28.563,1.927,43.153,15.864,17.292,44.923,20.457,88.215,9.727a112.163,112.163,0,0,0,14.085-4.477c20.015-10.036,32.024-15.825,35.879-17.987ZM308.013,188.339a2.051,2.051,0,0,0-.89.309l-2.817,3.165a49.067,49.067,0,0,0-5.041-1.853,28.53,28.53,0,0,0-3.855-1.312,1.263,1.263,0,0,0-.89.463l-3.558,3.783c-.3.077-.3.309-.148.386l.148.077c2.965.926,5.93,1.93,8.6,3.011.593.154.89.154,1.186-.154a24.778,24.778,0,0,0,3.113-3.165c3.114,1.158,6.079,2.162,8.3,3.011.593.154.89.154,1.038-.154,2.52-2.161,3.855-3.474,3.855-4.169a30.178,30.178,0,0,0-4.448-1.853A15.5,15.5,0,0,0,308.013,188.339ZM337.072,88.06c2.52-2.007,3.558-3.474,3.558-4.169,0-.154-1.334-.695-4.151-1.776-3.113-1-4.448-1.621-5.041-1.621-.3,0-.593.154-.593.463l-3.855,3.783V85.2c3.113,1,6.079,2.007,8.9,3.165C336.331,88.523,336.479,88.369,337.072,88.06Zm-5.486,138.414c-.3,0-.593.154-.593.463l-3.855,3.783v.463c3.113,1,6.079,2.007,8.9,3.165.3.154.593,0,1.186-.309,2.52-2.007,3.558-3.474,3.558-4.246,0-.154-1.334-.695-4.151-1.776-3.113-.926-4.6-1.467-5.041-1.544Zm-56.339-73.646c-.3,0-.593.154-.593.463l-3.855,3.783v.463c3.114,1,6.079,2.007,8.9,3.165.3.154.593,0,1.186-.309,2.52-2.007,3.558-3.474,3.558-4.169,0-.154-1.334-.695-4.151-1.776-3.113-.926-4.448-1.544-5.041-1.621ZM1143.611,30.162c4.151,0,7.265-2.47,9.34-7.874v-.618c0-.309,0-.309-.593-.309,0,.309-.445.309-.445.54-2.669,2.47-4.744,3.551-6.227,3.551-3.113,0-4.744-1.621-4.744-4.632,0-2.162,1.631-6.253,5.189-11.657a16.51,16.51,0,0,0,1.038-2.47c-.445,0-1.038.849-2.669,2.162-5.189,5.4-7.858,10.344-7.858,15.208C1136.939,28.232,1139.015,30.162,1143.611,30.162ZM854.8,127.43c-.445,0-1.038.849-2.669,2.162-5.189,5.4-7.858,10.344-7.858,15.208,0,4.091,2.076,6.021,6.82,6.021,4.151,0,7.265-2.47,9.34-7.874v-.54c0-.309,0-.309-.593-.309,0,.309-.445.309-.445.54-2.669,2.47-4.744,3.551-6.227,3.551-3.114,0-4.744-1.621-4.744-4.632,0-2.161,1.483-6.253,5.189-11.657A12.928,12.928,0,0,0,854.8,127.43ZM907.58,43.9c2.52-2.007,3.558-3.474,3.558-4.169,0-.154-1.334-.695-4.151-1.776-3.114-1-4.448-1.621-5.041-1.621-.3,0-.593.154-.593.463L897.5,40.584v.386c3.113,1,6.079,2.007,8.9,3.165C906.69,44.289,906.987,44.212,907.58,43.9Zm-115.5,1.776a14.327,14.327,0,0,0-9.044-3.088s-.89.695-2.224,1.776a6.674,6.674,0,0,0-2.076,2.007c0,.695.89,1.081,2.076,2.007a10.918,10.918,0,0,0,3.855,1.081c1.334,0,1.779-.232,1.779-.463a3.463,3.463,0,0,1,1.334-.232c.89,0,2.52,1.312,4.3,4.014a27.6,27.6,0,0,1,4.3,6.253c-2.521.695-4.3,2.47-5.189,5.79,0,.695,0,.926.445.926.593-.309,1.186-.695,1.779-1.081,1.334-.926,2.076-1.312,2.965-1.312a9.879,9.879,0,0,1,4.3,1.312c-3.855.463-5.93.926-7.265,1.544-2.965,1.081-4.3,2.933-4.3,5.327,0,.695,1.334,3.551,2.965,8.492a32.574,32.574,0,0,1,2.965,12.737,11.106,11.106,0,0,0,.445,3.088c.445,0,.445-.232.89-.926a12.746,12.746,0,0,0,1.334-5.558,35.819,35.819,0,0,0-5.93-18.3c1.334-.926,3.855-1.544,7.265-2.239,2.817-.463,5.634-.849,8.6-1.081a8.008,8.008,0,0,0,1.779-1.776,5.847,5.847,0,0,0,1.334-1.776c0-.926-1.779-2.007-4.744-3.319a38.655,38.655,0,0,0-7.265-2.007,15.327,15.327,0,0,0,2.965-5.327c1.779-5.558,3.855-8.492,6.375-8.492a9.068,9.068,0,0,1,2.965.926,6.571,6.571,0,0,0,1.779,1.081c.89,0,1.334-.463,2.224-1.312,0-.695.445-1.158.445-1.544a3.045,3.045,0,0,0-1.779-2.007,6.867,6.867,0,0,0-4.3-1.312c-2.521,0-4.744,1.312-6.82,4.014a42.867,42.867,0,0,0-3.855,8.723.938.938,0,0,0-.445.695h-.89V53.63a17.494,17.494,0,0,0-5.337-7.951ZM1045.314,105.2a6.552,6.552,0,0,0-3.855.849c-1.779.849-1.779,2.239-.89,4.014a5.847,5.847,0,0,0-2.521,4.4c0,1.776,2.965,2.856,8.9,3.319a31.366,31.366,0,0,1-8.451,4.169c-2.52.849-5.189,2.007-7.709,2.856-2.965,1.158-4.744,2.933-4.744,4.863,0,1.776,2.521,2.625,8.006,2.625a77.964,77.964,0,0,0,14.826-1.544,44.439,44.439,0,0,0,8.9-2.007c3.41-1.312,5.189-2.007,5.189-2.239a7.037,7.037,0,0,0-1.779.232c-9.34,1.081-15.271,1.776-17.791,2.007a67.15,67.15,0,0,1-13.64-.232,1.372,1.372,0,0,1-1.334-.463v-.154c0-.232.89-.695,2.076-.849a51.545,51.545,0,0,0,10.675-3.551,24.07,24.07,0,0,0,8.154-5.327c6.672.386,10.082.849,9.933.849,1.186,0,2.076-.695,3.262-2.007a4.951,4.951,0,0,0,1.779-3.319.938.938,0,0,0-.445-.695c-2.076-2.856-6.82-5.327-13.64-7.1A18.33,18.33,0,0,0,1045.314,105.2Zm3.706,9.727c-5.189-.463-8.154-1.081-8.154-1.776,0-.463.89-.849,2.076-1.544a5.918,5.918,0,0,1,2.965-1.081,2.357,2.357,0,0,1,2.521,1.544,2.056,2.056,0,0,1,.593,2.856Zm3.855-3.783a16.732,16.732,0,0,1,7.71,3.783c.445.463.445.695,0,.849h-.445q-7.561-.695-8.006-.695a11.573,11.573,0,0,0,.741-3.937ZM868.587,163.327c-3.41.849-6.523,1.853-9.785,2.933-.593.232-1.186.463-1.631.695,0,.154.889,0,2.521-.154,8.9-1.312,14.53-2.161,16.16-2.779a38.9,38.9,0,0,0,7.858-4.477c2.52-1.776,3.855-2.934,3.855-3.474,0-1.312-5.337-1.853-15.864-1.853a52.409,52.409,0,0,0-6.079.154,9.823,9.823,0,0,0-5.337,1.621l-3.113,2.779c-.593.463-.89.618-.89.695a5.047,5.047,0,0,0,2.52.154h5.337c9.192,0,13.64.309,13.64.849,0,.154,0,.154-.3.309Q873.257,162.169,868.587,163.327Zm-56.191-42.3c-2.076.849-3.262,2.084-3.41,3.474,0,1,1.631,2.007,5.337,3.011a61.139,61.139,0,0,1-12.306,4.632c-4.448,1.467-8.9,2.779-13.343,4.169-1.186.309-1.334.618-1.334.695a5.076,5.076,0,0,0,1.927-.309c6.079-1.158,9.489-1.776,10.082-1.853a86.175,86.175,0,0,0,9.489-3.088,29.561,29.561,0,0,0,7.561-3.937c1.631.618,2.52.849,2.52,1.158,0,0-.593.849-1.631,2.625a9.42,9.42,0,0,0-1.631,4.169c0,2.162,1.038,3.165,3.558,3.165,2.224,0,3.855-1.467,5.041-4.323V134.3h-.3c-.148.077-.3.154-.3.309a6.123,6.123,0,0,1-3.262,1.776c-1.631,0-2.52-.695-2.52-2.316a9.708,9.708,0,0,1,2.817-5.635,1.659,1.659,0,0,0,.593-1.312c0-.618-.89-1.158-2.521-1.776a5.948,5.948,0,0,0,1.038-3.474,2.075,2.075,0,0,0-1.631-2.162,13.389,13.389,0,0,0-5.782,1.312Zm3.855,3.937c-2.817-.695-4.151-1.312-4.151-1.776,0-.154.593-.309,1.186-.618a12.122,12.122,0,0,1,1.631-.309,1.622,1.622,0,0,1,1.631.849,1.484,1.484,0,0,1-.3,1.853ZM766.287,226.783c-.3,0-.593.154-.593.463l-4,3.783v.463c3.113,1,6.079,2.007,8.9,3.165.3.154.593,0,1.186-.309,2.52-2.007,3.558-3.474,3.558-4.169,0-.154-1.334-.695-4.151-1.776s-4.3-1.7-4.893-1.621Zm0-145.979c-.3,0-.593.154-.593.463l-3.855,3.705v.463c3.114,1,6.079,2.007,8.9,3.165.3.154.593,0,1.186-.309,2.52-2.007,3.558-3.474,3.558-4.169,0-.154-1.334-.695-4.151-1.776a30.4,30.4,0,0,0-5.041-1.544Zm64.2,1.544a68.089,68.089,0,0,1-6.968-2.47,24.337,24.337,0,0,0-2.817-1c-1.483,0-2.372,1-2.817,2.933a65.727,65.727,0,0,0,6.079,4.863,9.6,9.6,0,0,1,1.927,5.4v1.467c.445,0,.89-.463,1.483-1.235a4.92,4.92,0,0,0,.889-5.867A98.051,98.051,0,0,0,850.8,89.064c14.974,0,30.393-2.162,46.85-6.33a11.744,11.744,0,0,1,4.151-.772c1.631,0,2.965.618,3.262,1.467-1.927,1-3.855,2.084-5.634,3.165a22.466,22.466,0,0,0-6.968,5.635,3.391,3.391,0,0,0-.889,1.467h.445a22.385,22.385,0,0,0,3.262-2.162c1.334-1,3.707-2.47,7.413-4.632a56.507,56.507,0,0,0,5.189-3.4,5.9,5.9,0,0,0,1.483-3.165c0-1.7-1.927-2.7-5.634-2.7-1.483,0-4.744.772-9.785,1.93q-8.006,2.084-16.457,3.705a156.515,156.515,0,0,1-24.908,1.7,94.234,94.234,0,0,1-22.091-2.625ZM820.4,147.965a5.186,5.186,0,0,1,3.262,1,5.653,5.653,0,0,0,2.372,1.235,2.522,2.522,0,0,0,1.927-1.467,2.463,2.463,0,0,0,.445-1.7,3.646,3.646,0,0,0-1.927-2.239,6.985,6.985,0,0,0-4.151-1.467c-2.817,0-5.634,1.467-8.006,4.4a41.5,41.5,0,0,0-4.151,9.572.938.938,0,0,0-.445.695h-.445v-.695c-.741-3.088-2.817-5.944-6.079-8.569a15.01,15.01,0,0,0-9.34-3.4c-.445,0-1.483.695-2.817,1.93a11.28,11.28,0,0,0-2.372,2.239c0,.463.89,1.235,2.817,2.239a13.552,13.552,0,0,0,4.151,1.235,3.591,3.591,0,0,0,1.927-.463c0-.232.445-.232.89-.232,1.334,0,2.817,1.467,5.189,4.632,2.817,3.165,3.706,5.4,3.706,6.33a2.256,2.256,0,0,0,.3.926c-.445.309-1.038.618-1.779,1.081-1.927,1.467-5.189,2.7-8.9,4.4-15.567,5.172-27.28,9.032-35.731,11.5-1.927.463-2.817,1-2.817,1.235h.445a11.133,11.133,0,0,0,3.262-.463c10.378-1.93,15.567-2.933,16.9-3.165q8.228-2.316,16.012-5.1c6.079-2.47,10.823-4.863,12.6-7.565,1.038-1.158,1.631-2.007,2.076-2.47l.3-.232c1.483-1.235,2.372-3.165,3.262-5.867,2.372-6.407,4.744-9.572,7.116-9.572Zm50.853-41.609c-2.372,1.776-2.076,3.705,1.483,5.867,2.669,1.776,8.3,4.4,17.2,7.72,2.224.849,15.567,4.786,40.327,12.274,24.611,7.257,38.7,11.657,42.7,13.2a55.9,55.9,0,0,1,13.788,6.948c2.224,2.007,3.262,4.323,2.817,6.639.148.618-.445.772-1.038.463-5.041-1.544-25.946-7.8-63.011-18.682-33.359-9.881-53.819-16.134-61.825-19.068a183.791,183.791,0,0,1-25.8-11.657c-3.855-2.393-7.709-4.863-11.713-7.411a36.485,36.485,0,0,0-3.262-1.93c-.3-.077-.3-.077-.445,0s.3.772,1.334,2.239c2.817,4.632,5.041,7.951,6.523,10.113s5.189,4.477,10.378,6.948c2.817,1.235,7.413,3.088,13.64,5.481,7.413,2.779,28.763,9.186,63.456,19.376,21.646,6.176,43.292,12.583,64.938,18.682a8.261,8.261,0,0,0,2.076.463,28.3,28.3,0,0,0,5.189-1.158c2.224.772,4.3,1.467,6.375,2.316.3.154.593,0,1.186-.309,2.52-2.007,3.558-3.474,3.558-4.169,0-.154-1.334-.695-4-1.7,2.076-2.47,1.779-5.327-1.186-8.492-3.41-3.705-8.747-6.793-15.123-9.109-5.486-2.007-18.829-6.176-40.624-12.583s-36.324-11.039-44.033-13.9c-6.82-2.548-11.564-4.709-14.678-6.793-2.52-1.621-3.41-2.7-2.52-3.4.3-.232,3.41-.695,9.044-1.081,8.154-.618,16.457-.926,24.76-.926a150.428,150.428,0,0,1,16.753.772c6.227.54,9.933,1,11.713,1.7,1.334.463,2.224,1.158,2.372,2.007,0,.695.148,1.158.445,1.235.445.154,1.334,0,3.262-.618a33.169,33.169,0,0,0,4.151-1.467,2.841,2.841,0,0,0,1.334-.772c1.779-1.312,1.186-2.625-2.372-3.937-4.448-1.7-14.381-2.7-29.356-2.779-14.826-.232-25.946.386-33.655,1.776s-13.343,3.551-16.16,5.713ZM1050.8,84.818c-3.41,0-6.672.849-11.713,2.933-3.41,2.007-6.672,3.783-10.082,5.558-5.634,0-8.451,0-7.858-.309a53.073,53.073,0,0,0-13.937,3.474,84.991,84.991,0,0,0-12.9,6.1c-5.634,3.474-9.489,6.1-12.9,7.565-6.227,2.316-10.675,4.091-13.343,4.941-1.779.463-3.41.926-5.041,1.467,0,.309,0,.309.593.309a55.009,55.009,0,0,0,7.265-1.158,44.165,44.165,0,0,0,10.082-2.625c5.634-2.933,11.12-5.79,16.753-9.032a52.745,52.745,0,0,1,22.98-5.558,28.726,28.726,0,0,1,4.448.309,34.851,34.851,0,0,0,5.041.54,54.576,54.576,0,0,0,18.977-3.165c5.634-2.316,8.3-4.941,8.451-7.874-.148-2.393-2.372-3.551-6.82-3.474Zm-4.448,7.565a62.619,62.619,0,0,1-12.306,1.467h-2.224c6.672-3.474,12.306-5.249,15.568-5.249s5.634.309,6.079,1.467c-1.038.772-3.262,1.39-7.117,2.316Zm-40.03,89.162a7.023,7.023,0,0,0,1.334-4.014,5.908,5.908,0,0,0-1.334-2.856c-1.779-2.162-2.669-3.319-2.669-3.319a7.453,7.453,0,0,0-.89-2.316c0-.463,0-.926-.445-.926a5.968,5.968,0,0,1-1.334.926,2.949,2.949,0,0,0-1.334,2.316c0,1.853,1.779,4.246,5.486,7.334-.3.772-1.631,1.39-3.113,1.39-4,0-6.375-1.39-6.375-4.014a12.432,12.432,0,0,0-1.334-4.477c-.445-1.853-1.334-2.856-1.779-2.856s-.89.232-1.334.926a1.525,1.525,0,0,0-.889,1.621,4.653,4.653,0,0,0,.889,2.625,29.554,29.554,0,0,1,.89,3.088c.3,1.081-.593,2.161-2.224,2.856A7.126,7.126,0,0,1,985.416,181a4.7,4.7,0,0,1-4.448-4.246c0-.232.445-.926.445-1.39a3.419,3.419,0,0,0,.445-2.393c0-1.621-.445-2.625-1.334-2.625a9.23,9.23,0,0,0-2.669,1.158c-1.334.695-2.224,1.621-2.224,2.625,0,.463.445.695,1.334.926s1.334.232,1.334.695v3.783a5.2,5.2,0,0,0,1.779,4.246,9.263,9.263,0,0,0,4.6,1.081c4.448,0,7.265-1.621,9.044-4.709,1.334,2.393,4,3.783,7.709,3.783,1.334.154,3.114-.772,4.893-2.393ZM943.014,35.8c-.445,0-1.038.849-2.669,2.162-5.189,5.4-7.858,10.344-7.858,15.208,0,4.091,2.076,5.944,6.82,5.944,4.151,0,7.265-2.47,9.341-7.874V50.7c0-.232,0-.232-.445-.232,0,.232-.445.232-.445.54-2.669,2.47-4.744,3.551-6.227,3.551-3.113,0-4.744-1.621-4.744-4.632,0-2.162,1.631-6.253,5.189-11.657A21.172,21.172,0,0,0,943.014,35.8ZM881.189,62.353a30.185,30.185,0,0,1,3.558-.926,6.38,6.38,0,0,1,3.558,1.39c0,.463.445.463.89.232a4.95,4.95,0,0,0,2.224-3.319c0-1.39-1.334-2.316-4.151-2.316-3.113,0-6.82,1.39-11.268,4.246-2.224,1.621-3.558,3.088-3.558,4.477,0,1.158,2.224,2.162,6.82,3.088-3.558,1.39-5.486,2.316-5.93,2.856l-.445,2.084V74.4a9.765,9.765,0,0,0,1.779-.463c11.268-4.014,18.977-6.562,22.239-7.8a3.736,3.736,0,0,0,2.224-2.625c.445-.463.445-.926,0-.926a6.927,6.927,0,0,0-2.669.463,57.712,57.712,0,0,0-5.486,1.853,22.9,22.9,0,0,1-4.893,1.158,12.708,12.708,0,0,1-4.448-.926q-2.669-.695-2.669-1.39C878.965,63.28,879.41,62.817,881.189,62.353Zm187.55,7.334c2.52-2.007,3.558-3.474,3.558-4.169,0-.154-1.334-.695-4.151-1.776-3.113-1-4.448-1.621-5.041-1.621-.3,0-.593.154-.593.463l-3.855,3.783v.463c3.113,1,6.078,2.007,8.9,3.165C1068,70.15,1068.294,70,1068.739,69.687Zm-59.6,54.733c0-.309,0-.309-.445-.309,0,.309-.593.309-.593.54-2.669,2.47-4.6,3.551-6.227,3.551-3.113,0-4.744-1.621-4.744-4.632,0-2.162,1.631-6.253,5.189-11.657.445-1.39,1.038-2.162,1.038-2.47-.445,0-1.038.849-2.669,2.162-5.189,5.4-7.858,10.344-7.858,15.208,0,4.091,2.076,6.021,6.82,6.021,4.151,0,7.265-2.47,9.34-7.874ZM982.3,194.206c-.445,0-1.038.309-1.038.849L974,202.08v.849c5.782,1.853,11.268,3.86,16.753,5.944.445.309,1.038,0,2.076-.54,4.744-3.783,6.82-6.562,6.82-7.874,0-.232-2.669-1.39-7.858-3.242-5.782-1.93-8.451-3.011-9.489-3.011ZM920.33,56.8c.445-.849,0-1.235-.445-1.235s-.741.232-1.631,1a21.113,21.113,0,0,0-3.855,8.183,18.31,18.31,0,0,0-.741,6.33c0,3.088.445,5.481,1.927,7.565,7.413,10.19,21.5,15.285,41.068,15.285,15.271,0,31.283-2.625,48.481-7.565,13.344-4.091,23.87-8.106,30.838-12.429a12.935,12.935,0,0,0,6.672-11.58c0-2.625-1.927-5.713-5.041-9.341-4.3-4.246-6.672-6.716-6.672-7.334a27.546,27.546,0,0,0,6.227.772c1.186,0,1.483-.232,1.483-.618s-.445-.849-1.483-1.39c-6.672-3.242-10.971-5.713-12.9-6.716a4.364,4.364,0,0,0-1.483-.618c-.3,0-.741.386-1.186,1a23.273,23.273,0,0,0-1.927,6.1,1.671,1.671,0,0,0,1.186,1.39,5.249,5.249,0,0,1,2.669,2.625,52.309,52.309,0,0,0,8.9,11.58,43.765,43.765,0,0,1,4.744,5.249c0,1.39-3.855,3.705-11.713,6.948a175.892,175.892,0,0,1-30.1,8.955,175.1,175.1,0,0,1-38.7,4.477c-13.64,0-24.167-2.47-31.58-7.1-5.337-3.242-8.154-7.334-8.154-11.58a13.581,13.581,0,0,1,1.631-5.713c.593-1.235,1.038-2.625,1.779-4.246ZM881.189,208.333a30.191,30.191,0,0,1,3.558-.926,6.381,6.381,0,0,1,3.558,1.39c0,.463.445.463.89.232a4.95,4.95,0,0,0,2.224-3.319c0-1.39-1.334-2.316-4.151-2.316-3.113,0-6.82,1.39-11.268,4.246-2.224,1.621-3.558,3.088-3.558,4.477,0,1.158,2.224,2.084,6.82,3.088-3.558,1.39-5.486,2.316-5.93,2.856l-.3,2.007v.232a9.764,9.764,0,0,0,1.779-.463c11.268-4.014,18.977-6.562,22.239-7.8a3.736,3.736,0,0,0,2.224-2.625c.445-.463.445-.926,0-.926a6.926,6.926,0,0,0-2.669.463,57.722,57.722,0,0,0-5.486,1.853,22.89,22.89,0,0,1-4.893,1.158,12.707,12.707,0,0,1-4.448-.926q-2.669-.695-2.669-1.39C878.965,209.259,879.41,208.8,881.189,208.333ZM992.681,62.353c4.744-3.783,6.82-6.485,6.82-7.874,0-.232-2.669-1.39-7.858-3.242-5.782-1.93-8.3-3.011-9.34-3.011-.445,0-1.038.309-1.038.849L974,56.178v.849c5.782,1.853,11.268,3.86,16.753,5.944C991.2,63.2,991.643,62.894,992.681,62.353ZM976.372,29.159c.89.232,1.334.232,1.334.695v3.783a4.939,4.939,0,0,0,1.927,4.246,9.265,9.265,0,0,0,4.6,1.158c4.448,0,7.265-1.621,9.044-4.709,1.334,2.316,4,3.783,7.71,3.783,1.779,0,3.558-.926,5.486-2.625a7.022,7.022,0,0,0,1.334-4.014,5.908,5.908,0,0,0-1.334-2.856c-1.779-2.162-2.669-3.319-2.669-3.319a6.8,6.8,0,0,0-.89-2.316c0-.463,0-.926-.445-.926a5.964,5.964,0,0,1-1.334.926A3.065,3.065,0,0,0,999.8,25.3c0,1.853,1.779,4.246,5.486,7.334-.3.772-1.631,1.39-3.114,1.39-4,0-6.375-1.39-6.375-4.014a12.435,12.435,0,0,0-1.334-4.477c-.445-1.853-1.334-2.856-1.779-2.856s-.89.232-1.334.926a1.524,1.524,0,0,0-.89,1.621,4.652,4.652,0,0,0,.89,2.625,24.9,24.9,0,0,1,.89,3.088c.3,1.081-.593,2.162-2.224,2.856a7.126,7.126,0,0,1-4.448,1.158,3.965,3.965,0,0,1-3.114-1.39,3.955,3.955,0,0,1-1.334-2.856c0-.232.445-.926.445-1.39a3.419,3.419,0,0,0,.445-2.393c0-1.621-.445-2.625-1.334-2.625A9.231,9.231,0,0,0,978,25.453c-1.334.695-2.224,1.621-2.224,2.625-.593.618-.148.849.593,1.081ZM858.95,13.565h5.189c9.192,0,13.64.309,13.64.849,0,.154,0,.154-.3.309-2.817.926-5.782,1.853-8.9,2.625-3.41.849-6.523,1.853-9.785,2.933-.593.232-1.186.463-1.631.695,0,.154.889,0,2.521-.154,8.9-1.312,14.53-2.162,16.16-2.779a38.9,38.9,0,0,0,7.858-4.477c2.52-1.776,3.855-2.933,3.855-3.474,0-1.312-5.337-1.853-15.864-1.853a52.411,52.411,0,0,0-6.079.154,9.823,9.823,0,0,0-5.337,1.621l-3.113,2.779c-.593.463-.89.618-.89.695A6.4,6.4,0,0,0,858.95,13.565Zm138.772,5.4c2.521-2.007,3.558-3.474,3.558-4.169,0-.154-1.334-.695-4.151-1.776-3.113-1-4.448-1.621-5.041-1.621-.3,0-.593.154-.593.463l-3.855,3.783v.463c3.113,1,6.079,2.007,8.9,3.165.3.154.593,0,1.186-.309Zm31.876,7.8c-7.265,0-12.6-.54-15.716-1.39.593,1.544,2.372,2.856,4.744,3.783a29.868,29.868,0,0,0,12.009,2.162c8.9,0,21.943-1.39,39.141-4.091a4.923,4.923,0,0,0,3.113-2.47,6.817,6.817,0,0,0,1.631-3.783,2.833,2.833,0,0,0-.445-2.162c-2.076-2.162-6.227-3.242-13.64-3.242-1.631,0-4.744.309-9.933.54-4.448.463-9.044.772-13.64.849-5.189,0-7.858-.309-7.858-1.081a1.079,1.079,0,0,1,.445-.849,67.478,67.478,0,0,1,12.009-5.4c4.745-1.621,8.3-2.47,9.934-2.47a4.717,4.717,0,0,1,3.113.772,13.434,13.434,0,0,1,1.631.54c1.038,0,1.483-1.081,3.113-3.011.445-1.93-1.038-2.7-5.189-3.011a48.95,48.95,0,0,0-13.64,3.242c-6.375,2.625-11.564,5.944-15.123,9.8a5.306,5.306,0,0,0-2.076,3.242c0,1.93,4.151,3.011,12.009,3.011,3.855-.077,7.709-.386,11.564-.849,3.41-.386,6.968-.695,10.378-.849,8.3,0,13.047.849,14.085,2.7-2.669.309-8.9,1.081-19.274,2.162-11.268,1.312-19.125,1.853-22.387,1.853ZM829.446,70.536c.3.154,3.262-.849,8.451-3.4s11.861-7.411,18.977-14.281c4-4.091,7.561-8.26,11.268-12.12,6.82-6.948,12.009-11.425,15.716-13.741,4.448-3.011,10.971-4.863,18.236-5.249a100.32,100.32,0,0,1,21.2,1.776c-1.927,2.393-2.669,3.628-1.631,4.091s3.558-.695,6.82-3.165c14.233,2.625,22.98,4.477,26.242,5.172a102.772,102.772,0,0,0,13.937-4.555c2.372-1.544,2.076-5.172-.889-10.653-2.669-5.327-5.93-8.646-9.637-10.19a25.818,25.818,0,0,0-14.085-1.93,27.32,27.32,0,0,0-11.12,3.86,12.049,12.049,0,0,0-4,3.705c-.89,2.47-1.927,4.323-2.372,5.4a70.065,70.065,0,0,0-23.425.463c-8.451,1.853-17.05,5.713-26.539,11.657-6.968,4.4-17.495,14.513-31.431,30.647-4.448,3.551-7.561,6.33-10.378,8.028-3.855,2.856-5.634,4.4-5.337,4.477ZM937.676,8.624c.3-.54,1.186-.386,3.113.386A23.178,23.178,0,0,1,948.2,14.8c2.521,2.7,3.41,4.4,2.521,4.941-2.817-.54-8.3-1.312-17.05-3.165,1.779-3.783,3.41-6.253,4-7.951ZM732.928,46.451a69.288,69.288,0,0,0,8.154-1.312,46.7,46.7,0,0,0,11.268-2.933l18.681-9.727A58.8,58.8,0,0,1,796.68,26.3a34.719,34.719,0,0,1,5.041.618,43.494,43.494,0,0,0,5.634.618c5.041,0,9.933-1.621,14.974-4.246,6.227,1.621,10.675,1.621,13.788.618a9.075,9.075,0,0,0,3.113-3.242,8.256,8.256,0,0,0,1.927-4.863c.3-1.312-.741-2.625-2.52-3.551a8.592,8.592,0,0,0-2.52,1.93c-1.186,1-1.927,1.621-1.186,1.93a20.5,20.5,0,0,0,1.186,2.625,1.728,1.728,0,0,1-1.186.309c-6.82,0-9.34-.309-8.747-1a7.642,7.642,0,0,0,1.186-2.933c0-.309,0-.618-.593-.618a9.06,9.06,0,0,0-3.113,1.312c-1.186,1.312-3.113,2.625-4.448,3.937a16.206,16.206,0,0,1-7.561,1.621,23.107,23.107,0,0,1-6.227-.618,43.5,43.5,0,0,0-5.634-.618,48.332,48.332,0,0,0-18.088,3.551,97.3,97.3,0,0,0-14.381,6.871c-6.227,3.86-10.675,6.485-14.381,8.492-6.82,2.625-11.861,4.555-14.974,5.558-1.927.463-3.855,1-5.634,1.621C732.335,46.451,732.335,46.451,732.928,46.451ZM748.94,14.183c2.521-2.007,3.558-3.474,3.558-4.169,0-.154-1.334-.695-4.151-1.776-3.113-1-4.448-1.621-5.041-1.621-.3,0-.593.154-.593.463l-3.855,3.783v.463c3.114,1,6.079,2.084,8.9,3.165.3.077.593,0,1.186-.309Zm59.008,176.858a9.07,9.07,0,0,1,2.965.926,6.572,6.572,0,0,0,1.779,1.081c.89,0,1.334-.463,2.224-1.312,0-.695.445-1.081.445-1.544a3.044,3.044,0,0,0-1.779-2.007,6.867,6.867,0,0,0-4.3-1.312c-2.52,0-4.744,1.312-6.82,4.014a42.866,42.866,0,0,0-3.855,8.723.938.938,0,0,0-.445.695h-.445v-.695a17.517,17.517,0,0,0-5.634-7.8,14.393,14.393,0,0,0-9.044-3.165s-.89.695-2.224,1.776a7.654,7.654,0,0,0-2.076,2.007c0,.695.89,1.081,2.076,2.007a10.917,10.917,0,0,0,3.855,1.081c1.334,0,1.779-.232,1.779-.463a3.463,3.463,0,0,1,1.334-.232c.89,0,2.52,1.312,4.3,4.014a27.6,27.6,0,0,1,4.3,6.253c-2.521.695-4.3,2.47-5.189,5.79,0,.695,0,.926.445.926.593-.309,1.186-.695,1.779-1.081,1.334-.926,2.076-1.312,2.965-1.312a9.879,9.879,0,0,1,4.3,1.312c-3.855.463-5.93.849-7.265,1.544-2.965,1.081-4.3,2.933-4.3,5.327,0,.695,1.334,3.551,2.965,8.492a32.574,32.574,0,0,1,2.965,12.737,11.106,11.106,0,0,0,.445,3.088c.445,0,.445-.232.89-.849a12.746,12.746,0,0,0,1.334-5.558,35.819,35.819,0,0,0-5.93-18.3c1.334-.926,3.855-1.544,7.265-2.239,2.817-.463,5.634-.849,8.6-1.158a8.008,8.008,0,0,0,1.779-1.775,5.848,5.848,0,0,0,1.334-1.776c0-.849-1.779-2.007-4.744-3.319a38.655,38.655,0,0,0-7.265-2.007,15.327,15.327,0,0,0,2.965-5.327q2.224-8.569,6.227-8.569Zm341-89.162c2.52-2.007,3.558-3.474,3.558-4.169,0-.154-1.334-.695-4.151-1.776-3.114-1-4.448-1.621-5.041-1.621-.3,0-.593.154-.593.463l-3.855,3.783v.463c3.113,1,6.079,2.007,8.9,3.165C1148.059,102.341,1148.355,102.187,1148.948,101.878Zm-75.909,68.937a6.573,6.573,0,0,0,1.483-3.783,2.833,2.833,0,0,0-.445-2.162c-2.076-2.162-6.227-3.242-13.64-3.242-1.631,0-4.744.309-9.933.54-4.448.463-9.044.772-13.64.849-5.189,0-7.858-.309-7.858-1.081a1.079,1.079,0,0,1,.445-.849,73.52,73.52,0,0,1,12.009-5.481c4.744-1.621,8.3-2.47,9.933-2.47a4.717,4.717,0,0,1,3.113.772,13.423,13.423,0,0,1,1.631.54c1.038,0,1.483-1.081,3.114-3.011.445-1.93-1.038-2.7-5.189-3.011a48.949,48.949,0,0,0-13.64,3.242c-6.375,2.625-11.564,5.944-15.123,9.8a5.306,5.306,0,0,0-2.076,3.242c0,1.93,4.151,3.011,12.009,3.011,3.855-.077,7.71-.386,11.564-.849,3.41-.386,6.968-.695,10.378-.849,8.3,0,13.047.849,14.085,2.7-2.669.309-8.9,1.081-19.274,2.162-11.564,1.081-19.422,1.621-22.536,1.621-7.265,0-12.6-.54-15.716-1.39.593,1.544,2.372,2.856,4.744,3.783a29.868,29.868,0,0,0,12.009,2.162c8.9,0,21.943-1.39,39.141-4.091,1.335.077,2.372-.463,3.41-2.162ZM956.654,239.829c15.271,0,31.283-2.625,48.481-7.565,13.344-4.091,23.87-8.106,30.838-12.429a12.935,12.935,0,0,0,6.672-11.58c0-2.625-1.927-5.713-5.041-9.341-4.3-4.246-6.672-6.716-6.672-7.334a27.544,27.544,0,0,0,6.227.772c1.186,0,1.483-.232,1.483-.618s-.445-.849-1.483-1.467c-6.672-3.242-10.971-5.713-12.9-6.716a4.366,4.366,0,0,0-1.483-.618c-.3,0-.741.386-1.186,1a23.269,23.269,0,0,0-1.927,6.1,1.859,1.859,0,0,0,1.186,1.467,5.248,5.248,0,0,1,2.669,2.625,52.308,52.308,0,0,0,8.9,11.58,39.079,39.079,0,0,1,4.744,5.327c0,1.467-3.855,3.705-11.713,6.948a183.08,183.08,0,0,1-30.1,9.032,175.092,175.092,0,0,1-38.7,4.477c-13.64,0-24.166-2.47-31.58-7.1-5.337-3.242-8.154-7.334-8.154-11.58a13.582,13.582,0,0,1,1.631-5.713,45.341,45.341,0,0,0,1.927-4.246c.445-.772,0-1.235-.445-1.235s-.741.232-1.631,1a21.335,21.335,0,0,0-3.855,8.106,18.307,18.307,0,0,0-.741,6.33c0,3.088.445,5.481,1.927,7.565C923,234.734,937.083,239.829,956.654,239.829Zm186.957-63.687c4.151,0,7.265-2.47,9.34-7.874v-.54c0-.309,0-.309-.593-.309,0,.309-.445.309-.445.54-2.669,2.47-4.744,3.551-6.227,3.551-3.113,0-4.744-1.621-4.744-4.632,0-2.162,1.631-6.253,5.189-11.657a16.51,16.51,0,0,0,1.038-2.47c-.445,0-1.038.849-2.669,2.162-5.189,5.4-7.858,10.344-7.858,15.208C1136.939,174.212,1139.015,176.142,1143.611,176.142Zm-236.624,7.8c-3.114-1-4.448-1.621-5.041-1.621-.3,0-.593.154-.593.463l-3.855,3.783v.463c3.113,1,6.079,2.007,8.9,3.165.3.154.593,0,1.186-.309,2.52-2.007,3.558-3.474,3.558-4.169C911.138,185.482,909.8,184.942,906.987,183.938Zm236.624-43.385c2.52-2.007,3.558-3.474,3.558-4.169,0-.154-1.483-.695-4.151-1.776-3.114-1-4.448-1.621-5.041-1.621-.3,0-.593.154-.593.463l-3.855,3.783v.463c3.113,1,6.078,2.007,8.9,3.165C1142.869,141.017,1143.166,140.863,1143.611,140.554ZM912.769,178.226c.889.386,2.817-.54,5.486-2.548,11.564,2.162,18.533,3.628,21.053,4.169a92.777,92.777,0,0,0,11.268-3.628c1.927-1.235,1.631-4.169-.741-8.569-2.076-4.246-4.744-6.948-7.71-8.26a20.5,20.5,0,0,0-11.416-1.544,22.632,22.632,0,0,0-8.9,3.088,9.11,9.11,0,0,0-3.262,3.011,35.957,35.957,0,0,1-1.927,4.323,57.937,57.937,0,0,0-18.977.386c-6.82,1.467-13.788,4.632-21.35,9.341-5.634,3.551-14.085,11.734-25.353,24.7-3.558,2.856-6.079,5.095-8.3,6.484-3.113,2.239-4.448,3.474-4.151,3.551.3.154,2.52-.695,6.82-2.7s9.489-5.944,15.271-11.5c3.262-3.242,6.079-6.639,9.044-9.727,5.486-5.635,9.637-9.264,12.6-11.039,3.558-2.393,8.9-3.937,14.678-4.246a82.493,82.493,0,0,1,17.05,1.39C912.62,176.759,911.879,177.84,912.769,178.226Zm13.047-15.362c.148-.463,1.038-.309,2.52.309a16.9,16.9,0,0,1,5.93,4.632c1.927,2.162,2.817,3.551,2.076,4.014-2.224-.463-6.672-1.081-13.788-2.547C923.888,166.183,925.223,164.176,925.816,162.864Zm-33.359,75.421a3.9,3.9,0,0,0-.89,1.467h.445a17.716,17.716,0,0,0,3.262-2.239c1.334-1,3.707-2.393,7.413-4.632,1.779-1.081,3.558-2.239,5.189-3.4a5.9,5.9,0,0,0,1.483-3.165c0-1.7-1.927-2.7-5.634-2.7-1.483,0-4.744.772-9.785,1.93-5.337,1.39-10.823,2.625-16.309,3.628a155.33,155.33,0,0,1-24.908,1.7,89.45,89.45,0,0,1-22.091-2.7,68.069,68.069,0,0,1-6.968-2.47,24.343,24.343,0,0,0-2.817-1c-1.483,0-2.372,1-2.817,2.933a65.734,65.734,0,0,0,6.079,4.863,9.6,9.6,0,0,1,1.927,5.4v1.467c.445,0,.89-.463,1.483-1.235a4.92,4.92,0,0,0,.89-5.867,93.1,93.1,0,0,0,22.536,2.625c14.974,0,30.393-2.239,46.85-6.33a13.764,13.764,0,0,1,4.151-.772c1.631,0,2.965.618,3.262,1.467-1.927,1-3.855,2.084-5.634,3.165A27.653,27.653,0,0,0,892.457,238.285Zm50.557-56.508c-.445,0-1.038.772-2.669,2.162-5.189,5.4-7.858,10.344-7.858,15.208,0,4.091,2.076,5.944,6.82,5.944,4.151,0,7.265-2.47,9.341-7.874v-.54c0-.309,0-.309-.445-.309,0,.309-.445.309-.445.54-2.669,2.47-4.744,3.551-6.227,3.551-3.113,0-4.744-1.621-4.744-4.632,0-2.161,1.631-6.253,5.189-11.657a17.431,17.431,0,0,0,1.038-2.393ZM59.676,245.387a9.264,9.264,0,0,0,4.6,1.158c4.448,0,7.265-1.621,9.044-4.709,1.334,2.316,4,3.783,7.71,3.783,1.779,0,3.558-.926,5.486-2.625a7.022,7.022,0,0,0,1.334-4.014,5.909,5.909,0,0,0-1.334-2.856c-1.779-2.084-2.669-3.319-2.669-3.319a6.794,6.794,0,0,0-.89-2.316c0-.463,0-.926-.445-.926a3.8,3.8,0,0,1-1.334.926A3.064,3.064,0,0,0,79.84,232.8c0,1.853,1.779,4.246,5.486,7.334-.3.772-1.631,1.39-3.113,1.39-4.151,0-6.375-1.39-6.375-4.014a12.432,12.432,0,0,0-1.334-4.477c-.445-1.853-1.334-2.856-1.779-2.856s-.89.232-1.334.926c-.593.463-1.038,1.081-.89,1.621a4.652,4.652,0,0,0,.89,2.625,29.558,29.558,0,0,1,.89,3.088c.3,1.081-.593,2.161-2.224,2.856a7.126,7.126,0,0,1-4.448,1.158,4.695,4.695,0,0,1-4.448-4.246c0-.232.445-.926.445-1.39a3.288,3.288,0,0,0,.445-2.316c0-1.621-.445-2.625-1.334-2.625a9.23,9.23,0,0,0-2.669,1.158c-1.334.695-2.224,1.621-2.224,2.625,0,.463.445.695,1.334.926s1.334.232,1.334.695v3.783C57.749,242.608,58.342,244.075,59.676,245.387ZM39.661,266.616a31.72,31.72,0,0,0-7.561,1.621,36.921,36.921,0,0,0-8.9,3.783c-4.448,2.779-6.968,5.327-6.968,7.8,0,1.853,1.186,2.779,3.41,2.779a8.737,8.737,0,0,0,4.744-1.467,5.406,5.406,0,0,0,1.927-2.007,23.562,23.562,0,0,0,4.448,1.775,61.707,61.707,0,0,1-12.009,4.632c-4.448,1.467-8.9,2.779-13.343,4.169-1.186.309-1.631.618-1.631.695h.3a5.076,5.076,0,0,0,1.927-.309c5.782-1.158,9.192-1.776,10.082-1.853,3.262-.926,6.375-1.93,9.489-3.011a36.476,36.476,0,0,0,7.265-3.937,10.053,10.053,0,0,1,3.41,1.467c1.631-1.158,2.52-2.007,2.52-2.625a35.527,35.527,0,0,0-3.41-1.312,8.38,8.38,0,0,0,1.186-4.091c3.262-1.7,5.337-3.86,6.079-6.253v-.54C42.478,267.079,41.588,266.616,39.661,266.616ZM32.989,278.2c-2.817-.695-4.151-1.312-4.151-1.776,0-.154.3-.309,1.186-.618a12.736,12.736,0,0,1,1.631-.309,1.622,1.622,0,0,1,1.631.849,2.616,2.616,0,0,1-.3,1.853Zm2.817-4.323a1.879,1.879,0,0,0-1.334-.695,11.492,11.492,0,0,0-5.634,1.158,5.512,5.512,0,0,0-3.41,3.474c.148.618-.445,1.235-1.334,1.621a7.9,7.9,0,0,1-3.558.618c-1.186,0-1.927-.463-1.927-1.467,0-1.467,1.927-3.165,5.634-5.249a43.637,43.637,0,0,1,7.561-3.011,19.784,19.784,0,0,1,5.782-1c1.334,0,2.224.463,2.224,1.312-.148.618-1.631,1.775-4,3.242ZM7.637,94.545c4.151,0,7.265-2.47,9.34-7.874v-.54c0-.232,0-.232-.593-.232,0,.232-.593.232-.593.54-2.669,2.47-4.744,3.551-6.227,3.551-3.113,0-4.744-1.621-4.744-4.632C4.82,83.2,6.3,79.105,10.009,73.7a16.506,16.506,0,0,0,1.038-2.47c-.3,0-.89.772-2.372,2.162C3.337,78.8.817,83.737.817,88.6c0,4.091,2.076,5.944,6.82,5.944ZM35.51,228.1c12.306,0,25.649-2.547,40.623-7.411,10.675-3.705,18.829-7.257,25.056-11.194,4.6-2.7,6.82-6.407,6.82-11.194.3-4.4-2.372-8.8-7.413-12.351a25.961,25.961,0,0,0-15.271-4.709,16.426,16.426,0,0,0-9.785,3.551c-2.817,2.084-4.3,4.555-4.448,7.1-.148,1.544.89,3.088,2.965,4.246a13.629,13.629,0,0,0,7.413,1.7h8.747a32.051,32.051,0,0,1,9.489,1.158c3.262,1,4.6,2.007,4.6,3.551-1.038,1-4.893,3.011-11.713,5.944a215.021,215.021,0,0,1-25.649,8.492,129.133,129.133,0,0,1-31.135,4.246c-11.713,0-20.46-1.853-26.242-5.79-4.3-2.7-6.672-6.1-6.82-9.65,0-.849,1.038-4.091,2.965-9.8.3-.695.3-1-.3-1.158a3.125,3.125,0,0,0-1.334,1A19.055,19.055,0,0,0,.817,202.62a11.143,11.143,0,0,0-.741,4.863A16.458,16.458,0,0,0,6.9,221.147c5.93,4.632,15.567,6.948,28.614,6.948Zm48.926-36.823c-3.558-.154-5.486-.849-5.486-2.007,0-.849,1.631-1.39,4.151-1.39a15.486,15.486,0,0,1,10.675,3.705c-4.151-.154-7.265-.309-9.34-.309ZM22.908,68.22C32.4,72.235,43.961,74.01,57.9,73.47S82.8,70.228,90.514,65.287c2.817-1.7,4.448-3.705,5.041-5.944a5.572,5.572,0,0,0-1.483-5.249c-1.631-1.621-6.672-4.4-14.974-8.26-11.564-5.249-19.867-9.186-24.76-11.811,3.41-.309,6.968-.463,10.378-.463-.445,1.467-.3,2.316,0,2.47s2.224-.54,4.893-2.239c15.716,1.39,31.135,3.242,46.406,5.713a6.448,6.448,0,0,0,3.262-.232l6.079-2.084c.89-.386.89-.772.148-1.235-1.779-1.158-7.858-4.169-17.495-9.032C97.334,21.594,89.18,17.811,84.288,15.5a34.188,34.188,0,0,0-13.2-2.625,16.58,16.58,0,0,0-8.6,2.316,3.5,3.5,0,0,0-2.076,2.239,7.732,7.732,0,0,0,1.038,5.327,37.384,37.384,0,0,1,2.817,7.565,124.531,124.531,0,0,0-13.492,1.544A15.234,15.234,0,0,0,48.557,30.7c-.593-.232-1.038-.463-1.483-.232s0,.695.741,1.776C37.141,34.408,27.8,37.959,20.535,42.514,5.116,52.318,5.858,60.887,22.908,68.22Zm44.33-51.953a5.622,5.622,0,0,1,1.483.232c1.631.309,5.041,1.621,10.23,3.783A268.861,268.861,0,0,1,104.6,32.787c.89.54,1.483.849,1.334.926-.445-.077-1.038-.154-1.483-.232-10.527-1.544-21.35-2.547-32.173-3.088A61.457,61.457,0,0,0,70.2,23.523,60.312,60.312,0,0,1,67.534,17.5C67.089,16.807,67.089,16.344,67.238,16.267ZM24.983,42.823a56.4,56.4,0,0,1,13.64-5.944,79.377,79.377,0,0,1,10.823-2.316,30.649,30.649,0,0,0,9.192,8.414,100.505,100.505,0,0,0,12.75,6.562,73.514,73.514,0,0,1,12.9,6.639c2.224,1.7,3.41,3.705,3.41,5.79,0,1.621-1.038,3.242-3.113,4.477-2.224,1.467-6.672,2.393-12.9,2.933a112.982,112.982,0,0,1-20.46-.463,72.629,72.629,0,0,1-19.867-4.786C15.495,57.336,13.419,50.234,24.983,42.823ZM109.788,253.8c-1.483-.618-4.448-.849-8.6-.849A22.479,22.479,0,0,0,89.18,256.04c-5.782,3.86-7.561,11.425-4.893,22.387a165.258,165.258,0,0,0-17.2-8.569c-1.483-.618-8.9-3.242-22.091-7.642s-19.867-6.562-20.015-6.639c-.741-.232-.741-.463-.3-.463,5.189-.154,6.82-.54,5.486-1.081a18.221,18.221,0,0,0-2.372-.54c-1.334-.309-5.041-.926-11.268-1.93-5.93-.926-9.489-1.467-10.971-1.621a10.531,10.531,0,0,0-1.186.077c-.148.077-.148.309.148.618,2.817,2.393,4.448,3.86,5.634,4.246a26.635,26.635,0,0,1,8.006,2.161c1.483.618,10.675,3.937,27.28,9.572,16.753,5.79,25.8,8.955,26.835,9.341l9.637,3.937a8.825,8.825,0,0,1,3.113,1.93,53.671,53.671,0,0,1,2.817,6.87c-2.372,2.084-4.448,3.705-6.079,4.941H94.814a77.157,77.157,0,0,0,17.495-16.906c5.782-7.179,7.858-12.429,6.523-15.517C117.794,258.2,114.384,255.577,109.788,253.8Zm2.965,5.558c-1.483,5.1-5.337,10.653-11.268,17.061a69.092,69.092,0,0,1-10.675,10.036c-3.855-12.351-2.224-20.689,4.3-25.166,3.262-2.161,8.747-3.242,16.605-2.856.593.077,1.038,0,1.186.154-.148.077.148.386-.148.772Zm126.17-12.815c4.151,0,7.265-2.47,9.34-7.874v-.54c0-.309,0-.309-.593-.309,0,.309-.593.309-.593.54-2.669,2.47-4.744,3.551-6.227,3.551-3.113,0-4.744-1.621-4.744-4.632,0-2.161,1.631-6.253,5.189-11.657a16.505,16.505,0,0,0,1.038-2.47c-.445,0-1.038.849-2.669,2.161-5.189,5.4-7.858,10.344-7.858,15.208.3,4.169,2.372,6.021,7.117,6.021Zm276.358-75.962c4.893.386,9.785.849,14.529,1.467a21.681,21.681,0,0,0-2.372,7.1,25.856,25.856,0,0,0-2.817.618c-.741.232-1.186.309-.89.618a10.474,10.474,0,0,0,3.558.309c-.148,5.944,2.669,11.811,8.154,17.06,11.564,11.039,27.28,13.9,46.554,8.337,10.823-3.088,18.236-8.028,22.387-14.976,4.3-7.025,3.558-13.2-2.372-18.836a20.767,20.767,0,0,0-8.747-4.632,31.034,31.034,0,0,0-9.785-1.158q-5.337.347-20.46,4.169c-13.64,3.551-23.722,6.1-30.245,7.488a22.255,22.255,0,0,1,3.113-5.172c2.372.772,3.855,1,4.448.849.741-.232-.148-1.312-2.076-3.165a241.952,241.952,0,0,1,27.576-20.226c.741-.463,1.038-1.081.741-1.7l-1.334-3.705c-.3-.54-1.038-.695-2.224-.54-2.965.54-10.526,2.316-22.832,5.172-13.492,3.165-23.277,5.635-29.207,7.179-5.041,1.621-8.154,3.319-9.637,5.4-1.186,1.7-.89,3.551.89,5.018a7.441,7.441,0,0,0,3.262,1.853,46.772,46.772,0,0,0,9.785,1.467Zm34.989,8.8q8.451-1.505,16.457-3.705a138.032,138.032,0,0,1,16.605-3.783,41.321,41.321,0,0,1,11.564.463,13.648,13.648,0,0,1,6.82,3.165c1.779,1.621,1.779,4.091.445,7.334a27.5,27.5,0,0,1-8.451,9.727,47.1,47.1,0,0,1-15.864,7.874c-18.088,5.172-31.431,3.551-40.327-4.863a20.427,20.427,0,0,1-5.486-8.878,14.1,14.1,0,0,1,0-6.1,95.782,95.782,0,0,0,18.236-1.235Zm-43.44-14.667c1.186-.695,4.744-1.853,10.526-3.551,10.23-2.933,20.9-5.481,31.876-7.72,1.334-.232,2.076-.463,2.224-.309-.3.232-.593.386-.89.618a106.792,106.792,0,0,0-17.495,14.436c-1.927-.309-6.227-.849-13.047-1.544-4.151-.309-7.858-.54-11.713-.926a8.758,8.758,0,0,1-2.224-.309C505.645,165.18,506.238,165.025,506.831,164.716ZM375.768,250.1a.953.953,0,0,0-.3-1.312c-.148-.232-.741-.309-1.038-.232a7.528,7.528,0,0,0-1.927.926c-5.782,4.555-11.268,8.955-17.347,13.278s-11.564,7.1-16.012,8.183a68.406,68.406,0,0,1-31.876.386c-8.006-1.776-13.492-3.937-17.2-6.871,1.927-2.393,5.782-5.018,11.564-7.565a121.223,121.223,0,0,1,18.829-6.562,99.338,99.338,0,0,1,16.9-2.316,15.724,15.724,0,0,0,3.855-.232c.741-.154.89-.463.741-.695s-1.334-.386-3.262-.618a92.5,92.5,0,0,0-34.841,1.544c-7.561,1.853-13.788,5.018-17.643,8.878-4.151,4.014-4.3,8.8-.445,12.815,3.855,4.246,10.823,7.411,21.053,9.65a88.21,88.21,0,0,0,26.39,1.7,37.419,37.419,0,0,0-6.82,11.039h10.23a111.8,111.8,0,0,1,18.088-18.759c6.079-4.786,12.454-9.65,18.681-14.745a4.944,4.944,0,0,0,1.631-2.779ZM261.163,276.189c-1.334,0-4.448.695-8.9,1.853-6.227,1.621-11.713,2.547-16.16,3.474a145.087,145.087,0,0,1-23.277,1.621c-13.937,0-23.277-1.621-28.17-5.095a39.285,39.285,0,0,1-4.448-6.562c-1.334-3.011-2.669-4.4-3.113-4.4a1.976,1.976,0,0,0-1.779,1.158c-.593.463-1.038,1.081-.89,1.621a8.258,8.258,0,0,0,1.631,3.474,6.293,6.293,0,0,1,1.779,4.169c0,2.084-2.224,3.011-7.117,3.011a21.762,21.762,0,0,1-4.448-.463,4.783,4.783,0,0,0-2.224-.463c-1.334,0-3.113.463-5.782,1.853a8.506,8.506,0,0,0-4,4.169c.445.926.89.926,1.779.463a15.294,15.294,0,0,1,7.117-2.084,4.9,4.9,0,0,1,2.669.463,14.075,14.075,0,0,0,3.558.463c4.893,0,8.006-1.39,9.785-3.937a1.9,1.9,0,0,0,.445-1.158c4.893,4.863,15.271,7.257,30.838,7.257a180.438,180.438,0,0,0,44.775-6.021,16.753,16.753,0,0,1,4-.695c1.483,0,2.817.618,3.113,1.39a44.713,44.713,0,0,0-5.337,3.011,24.717,24.717,0,0,0-6.227,5.327,1.759,1.759,0,0,0-.89,1.39c.445,0,1.334-.695,3.558-2.084.89-.695,3.558-2.316,6.672-4.4a39.3,39.3,0,0,0,4.893-3.242,4.453,4.453,0,0,0,1.334-3.088C266.648,277.115,264.869,276.189,261.163,276.189Zm149.892-15.131a31.72,31.72,0,0,0-7.561,1.621,36.922,36.922,0,0,0-8.9,3.783c-4.448,2.779-6.968,5.327-6.968,7.8,0,1.93,1.186,2.779,3.41,2.779a8.737,8.737,0,0,0,4.744-1.467,5.406,5.406,0,0,0,1.927-2.007,23.564,23.564,0,0,0,4.448,1.776,61.706,61.706,0,0,1-12.009,4.632c-4.448,1.467-8.9,2.779-13.343,4.246-1.186.309-1.631.618-1.631.695h.3a5.076,5.076,0,0,0,1.927-.309c5.782-1.158,9.192-1.776,10.082-1.853,3.262-.926,6.375-1.93,9.489-3.011a32.935,32.935,0,0,0,7.265-3.937,10.051,10.051,0,0,1,3.41,1.467c1.631-1.158,2.52-2.007,2.52-2.625a35.529,35.529,0,0,0-3.41-1.312,8.38,8.38,0,0,0,1.186-4.091c3.262-1.7,5.486-3.86,6.079-6.253v-.618C413.871,261.521,412.982,261.058,411.054,261.058Zm-6.672,11.58c-2.817-.695-4.151-1.312-4.151-1.776,0-.154.3-.309,1.038-.618a12.743,12.743,0,0,1,1.631-.309,1.622,1.622,0,0,1,1.631.849,1.656,1.656,0,0,1-.148,1.853Zm2.817-4.323a1.879,1.879,0,0,0-1.334-.695,11.493,11.493,0,0,0-5.634,1.158,5.511,5.511,0,0,0-3.41,3.474c.148.618-.445,1.235-1.334,1.621a9.114,9.114,0,0,1-3.558.618c-1.186,0-1.927-.463-1.927-1.467,0-1.467,1.927-3.165,5.634-5.249a43.618,43.618,0,0,1,7.561-3.088,22.716,22.716,0,0,1,5.782-1c1.334,0,2.224.463,2.224,1.312-.148.772-1.483,1.93-4,3.319ZM15.2,16.344h5.337c9.192,0,13.64.309,13.64.849,0,.154,0,.154-.3.309-2.965.926-5.93,1.853-9.044,2.625-3.41.849-6.523,1.853-9.785,2.933a6.412,6.412,0,0,0-1.483.695c0,.154.89,0,2.52-.154,8.9-1.312,14.53-2.162,16.16-2.779a38.9,38.9,0,0,0,7.858-4.477c2.52-1.776,3.855-2.933,3.855-3.474,0-1.312-5.337-1.853-15.864-1.853a52.411,52.411,0,0,0-6.079.154,9.823,9.823,0,0,0-5.337,1.621l-3.113,2.7c-.593.463-.89.618-.89.695A5.047,5.047,0,0,0,15.2,16.344ZM259.087,257.739c2.52-2.007,3.558-3.474,3.558-4.169,0-.154-1.334-.695-4.151-1.775-3.113-1-4.448-1.621-5.041-1.621-.3,0-.593.154-.593.463l-3.855,3.783v.463c3.113,1,6.079,2.084,8.9,3.165C258.2,258.125,258.494,257.97,259.087,257.739Zm7.561-124.982c0-1.621-1.779-2.547-5.337-2.547-1.334,0-4.448.695-8.9,1.853-6.227,1.621-11.713,2.548-16.16,3.474a145.1,145.1,0,0,1-23.277,1.621c-13.936,0-23.277-1.621-28.17-5.1a42.192,42.192,0,0,1-4.448-6.485c-1.334-3.011-2.669-4.4-3.113-4.4a1.976,1.976,0,0,0-1.779,1.158,2.136,2.136,0,0,0-.89,1.621,6.8,6.8,0,0,0,1.631,3.474,6.293,6.293,0,0,1,1.779,4.169c0,2.084-2.224,3.011-7.117,3.011a21.761,21.761,0,0,1-4.448-.463,4.784,4.784,0,0,0-2.224-.463c-1.334,0-3.113.463-5.782,1.853a8.506,8.506,0,0,0-4,4.169c.445.926.89.926,1.779.463a15.293,15.293,0,0,1,7.117-2.084,4.9,4.9,0,0,1,2.669.463,14.073,14.073,0,0,0,3.558.463c4.893,0,8.006-1.39,9.785-3.937a1.9,1.9,0,0,0,.445-1.158c4.893,4.863,15.271,7.256,30.838,7.256a177.079,177.079,0,0,0,44.775-6.1,16.751,16.751,0,0,1,4-.695c1.483,0,2.817.618,3.113,1.39a44.716,44.716,0,0,0-5.337,3.011,24.716,24.716,0,0,0-6.227,5.327,1.759,1.759,0,0,0-.89,1.39c.445,0,1.334-.695,3.558-2.084.89-.695,3.558-2.316,6.672-4.4a39.3,39.3,0,0,0,4.893-3.242A5.249,5.249,0,0,0,266.648,132.757Zm-9.637,56.354c-.89.077-1.779.154-2.669.309-14.53,1.7-23.87,2.779-27.725,3.088a102.46,102.46,0,0,1-21.2-.309c-.89.077-1.779-.232-1.927-.772v-.232c0-.309,1.334-1,3.262-1.39a80.126,80.126,0,0,0,16.457-5.481,36.941,36.941,0,0,0,12.6-8.26c10.378.618,15.716,1.235,15.419,1.39,1.927-.077,3.262-1.081,5.041-3.088a6.849,6.849,0,0,0,2.669-5.172c.148-.386-.148-.772-.593-1-3.262-4.477-10.527-8.26-21.2-11.039a21.06,21.06,0,0,0-7.858-1.39,9.249,9.249,0,0,0-5.93,1.39c-2.669,1.39-2.669,3.474-1.334,6.176-2.372,2.084-3.855,4.477-4,6.87,0,2.779,4.6,4.477,13.937,5.172a48.83,48.83,0,0,1-13.2,6.562c-4,1.39-8.006,3.088-11.861,4.477-4.6,1.776-7.413,4.555-7.265,7.565,0,2.779,4,4.169,12.6,4.169a120.043,120.043,0,0,0,23.129-2.393,78.432,78.432,0,0,0,13.936-3.088c4.893-2.161,7.561-3.165,7.71-3.551Zm-15.864-24.085c5.189,1.158,9.34,3.242,11.861,5.867.593.695.593,1,0,1.39h-.593c-8.006-.695-11.861-1-12.6-1a15.82,15.82,0,0,0,1.334-6.253Zm-18.533,3.088c0-.695,1.334-1.39,3.262-2.393a9.028,9.028,0,0,1,4.6-1.7,3.9,3.9,0,0,1,4,2.393,3.673,3.673,0,0,1,.593,4.477c-7.858-.695-12.6-1.7-12.454-2.779Zm36.472-56.354c2.52-2.007,3.558-3.474,3.558-4.169,0-.154-1.334-.695-4.151-1.776-3.113-1-4.448-1.621-5.041-1.621-.3,0-.593.154-.593.463l-3.855,3.783v.463c3.113,1,6.079,2.007,8.9,3.165.3.077.593-.077,1.186-.309ZM192.37,49.925c8.006,0,17.791-1.467,29.207-4.246,10.971-2.625,19.867-5.481,26.687-8.955,4.3-1.853,6.672-4.632,6.672-7.565,0-1.853-1.186-3.165-3.113-3.937-1.927-.849-6.375-1.621-12.75-2.316-11.12-1.312-16.753-2.779-16.753-4.4a7.427,7.427,0,0,1,2.817-3.165,62.87,62.87,0,0,1,6.968-4.786c5.634-3.011,10.082-4.632,13.343-4.632a5.262,5.262,0,0,1,4.448,1.853c.593.695.89,1,1.334,1a3.2,3.2,0,0,0,1.631-1,3.52,3.52,0,0,0,1.334-3.319,3.492,3.492,0,0,0-1.631-3.165,8.338,8.338,0,0,0-4.744-1.312c-2.817,0-6.375,1-11.12,3.011a57.217,57.217,0,0,0-12.306,7.72c-4.448,4.091-6.672,7.72-6.672,11.271,0,1.776,1.779,3.319,4.744,4.169A44.339,44.339,0,0,0,232.845,28c3.855.618,7.858,1,11.416,1.467s5.634,1,5.634,1.621-3.41,1.776-9.489,3.783a199.388,199.388,0,0,1-21.943,5.944A122.139,122.139,0,0,1,194,43.826c-8.3,0-14.826-1.467-18.977-4.323-3.262-2.239-4.893-5.018-4.744-7.8,0-3.628,2.224-7.951,6.968-13.2a3.745,3.745,0,0,0,1.186-1.776c0-.077-.148-.154-.3-.154h0a7.225,7.225,0,0,0-2.52,1.467c-6.079,4.941-8.9,10.576-8.9,17.06a11.017,11.017,0,0,0,5.634,10.036C176.8,48.3,183.474,49.925,192.37,49.925ZM121.353,93.464,117.5,97.246v.463c3.113,1,6.079,2.007,8.9,3.165.3.154.593,0,1.186-.309,2.52-2.007,3.558-3.474,3.558-4.169,0-.154-1.334-.695-4.151-1.776-3.113-1-4.448-1.621-5.041-1.621C121.649,93,121.353,93.155,121.353,93.464Zm14.085-63.3c4.151,0,7.265-2.47,9.34-7.874v-.618c0-.309,0-.309-.445-.309,0,.309-.593.309-.593.54-2.52,2.547-4.6,3.628-6.227,3.628-3.113,0-4.744-1.621-4.744-4.632,0-2.162,1.631-6.253,5.189-11.657.593-1.39,1.186-2.239,1.186-2.47-.445,0-1.038.849-2.669,2.162-5.189,5.4-7.71,10.344-7.71,15.208,0,4.091,1.927,6.021,6.672,6.021Zm3.855,9.881.3.618c1.779,2.7,3.113,4.169,3.855,4.632a27.416,27.416,0,0,1,7.413,2.933c2.076,1.158,12.6,6.562,31.58,15.98s29.8,14.9,32.173,16.289,4.893,3.011,6.672,4.246a14.876,14.876,0,0,0,2.669,1.7c.593.154.741,0,.593-.54s-.741-.849-1.186-1.544A37.311,37.311,0,0,0,210.9,74.01c-2.076-1.158-11.268-5.79-27.873-14.05s-25.056-12.429-25.5-12.66c-.593-.309-.593-.54,0-.386,4.893.232,6.672.154,5.634-.463a9.812,9.812,0,0,0-1.779-.926c-1.334-.386-4.6-1.39-10.527-2.856-5.634-1.467-8.9-2.239-10.23-2.547a4.087,4.087,0,0,0-1.334-.077ZM293.335,224.467a7.022,7.022,0,0,0,1.334-4.014,5.909,5.909,0,0,0-1.334-2.856c-1.779-2.161-2.669-3.319-2.669-3.319a7.455,7.455,0,0,0-.89-2.316c0-.463,0-.926-.445-.926a13.88,13.88,0,0,1-1.334.926,2.948,2.948,0,0,0-1.334,2.316c0,1.93,1.779,4.246,5.486,7.334-.3.772-1.631,1.39-3.113,1.39-4,0-6.375-1.39-6.375-4.014a12.432,12.432,0,0,0-1.334-4.477c-.445-1.853-1.334-2.856-1.779-2.856s-.89.232-1.334.926c-.593.463-1.038,1.081-.89,1.621a4.652,4.652,0,0,0,.89,2.625,29.557,29.557,0,0,1,.89,3.088c.3,1.081-.593,2.161-2.224,2.856a7.126,7.126,0,0,1-4.448,1.158,4.695,4.695,0,0,1-4.448-4.246c0-.232.445-.926.445-1.39a3.288,3.288,0,0,0,.445-2.316c0-1.621-.445-2.625-1.334-2.625a9.23,9.23,0,0,0-2.669,1.158c-1.334.695-2.224,1.621-2.224,2.625,0,.463.445.695,1.334.926s1.334.232,1.334.695v3.783a5.2,5.2,0,0,0,1.779,4.246,8.3,8.3,0,0,0,4.448,1.158c4.6,0,7.265-1.621,9.044-4.709,1.334,2.316,4,3.783,7.71,3.783C289.629,227.091,291.556,226.088,293.335,224.467Zm755.833,17.6q8.451-3.474,8.451-7.874,0-3.474-6.672-3.474c-3.41,0-6.672.849-11.713,2.933-3.41,2.007-6.672,3.783-10.082,5.558-5.634,0-8.451,0-7.858-.309a53.074,53.074,0,0,0-13.937,3.474,84.994,84.994,0,0,0-12.9,6.1c-5.634,3.474-9.489,6.1-12.9,7.565-6.227,2.316-10.675,4.091-13.343,4.941-1.779.463-3.41.926-5.041,1.467,0,.309,0,.309.593.309a55.011,55.011,0,0,0,7.265-1.158,44.165,44.165,0,0,0,10.082-2.625c5.634-2.934,11.12-5.79,16.753-9.032a52.744,52.744,0,0,1,22.981-5.558,28.724,28.724,0,0,1,4.448.309,50.2,50.2,0,0,0,5.041.618,54.32,54.32,0,0,0,18.829-3.242Zm-1.631-7.565c3.41,0,5.634.309,6.079,1.467-1.186.849-3.41,1.467-7.265,2.316a62.617,62.617,0,0,1-12.306,1.467h-2.224c6.672-3.474,12.306-5.249,15.716-5.249Zm-16.753,38.6a54.677,54.677,0,0,0,10.675-3.551,24.067,24.067,0,0,0,8.154-5.327c6.672.386,10.082.849,9.933.849,1.186,0,2.076-.695,3.262-2.007a4.951,4.951,0,0,0,1.779-3.319.937.937,0,0,0-.445-.695c-2.076-2.856-6.82-5.327-13.64-7.1a11.991,11.991,0,0,0-5.041-.849,6.553,6.553,0,0,0-3.855.849c-1.779.849-1.779,2.239-.89,3.937a5.847,5.847,0,0,0-2.52,4.4c0,1.776,2.965,2.856,8.9,3.319a31.507,31.507,0,0,1-8.451,4.246c-2.52.849-5.189,2.007-7.709,2.856-2.965,1.158-4.744,2.934-4.744,4.863,0,1.776,2.521,2.7,8.006,2.7a77.965,77.965,0,0,0,14.826-1.544,44.441,44.441,0,0,0,8.9-2.007c3.41-1.312,5.189-2.007,5.189-2.239a7.038,7.038,0,0,0-1.779.232c-9.34,1.081-15.271,1.775-17.791,2.007a67.153,67.153,0,0,1-13.64-.232,1.371,1.371,0,0,1-1.334-.463v-.154A5.14,5.14,0,0,1,1030.784,273.1Zm22.091-15.98a16.732,16.732,0,0,1,7.71,3.783c.445.463.445.695,0,.849h-.445q-7.561-.695-8.006-.695A11.936,11.936,0,0,0,1052.875,257.121Zm-11.861,2.007c0-.463.89-.849,2.076-1.544a5.277,5.277,0,0,1,2.965-1.081,2.357,2.357,0,0,1,2.52,1.544,2.592,2.592,0,0,1,.445,2.856c-5.041-.463-8.006-1.081-8.006-1.776Zm-573.028,8.8c-3.113,0-6.227,1.621-8.9,5.172a45.93,45.93,0,0,0-4.744,10.576,1.393,1.393,0,0,0-.593.54c0,.309,0,.309-.593,0v-.54a22.569,22.569,0,0,0-6.82-9.8,16.618,16.618,0,0,0-10.378-3.551c-.593,0-1.631.54-3.113,2.162a14.055,14.055,0,0,0-2.669,2.47c0,.54,1.038,1.39,3.113,2.162a10.254,10.254,0,0,0,4.744,1.389c1.038,0,1.483,0,1.483-.309a3.406,3.406,0,0,1,1.631-.54c1.483,0,3.113,1.93,5.782,5.4s4.151,5.713,4.151,7.025a.981.981,0,0,0,1.038,1.081c.445,0,1.038-.309,2.076-1.389,1.483-1.081,2.669-3.242,3.707-6.253,2.076-7.025,4.744-10.576,7.858-10.576a6.762,6.762,0,0,1,3.706,1.39,4.484,4.484,0,0,0,2.076,1.081,3.027,3.027,0,0,0,2.669-1.621,3.117,3.117,0,0,0,.593-1.93,3.248,3.248,0,0,0-2.076-2.162A7.9,7.9,0,0,0,467.986,267.929Zm600.308-58.206c-3.113-1-4.448-1.621-5.041-1.621-.3,0-.593.154-.593.463l-3.855,3.783v.463c3.113,1,6.079,2.007,8.9,3.165.3.154.593,0,1.186-.309,2.52-2.007,3.558-3.474,3.558-4.246,0-.077-1.483-.618-4.151-1.7Zm-87.326,77.737c-5.486-2.007-18.829-6.176-40.623-12.583s-36.324-10.962-44.034-13.818c-6.82-2.548-11.564-4.709-14.678-6.793-2.52-1.621-3.41-2.7-2.52-3.4.3-.232,3.41-.695,9.044-1.081,8.154-.618,16.457-.926,24.611-.926a150.426,150.426,0,0,1,16.753.772c6.227.54,9.933,1,11.713,1.7,1.334.463,2.224,1.158,2.372,2.007,0,.695.148,1.158.445,1.235.445.154,1.334,0,3.262-.618a26.448,26.448,0,0,0,4.151-1.467,2.841,2.841,0,0,0,1.334-.772c1.779-1.312,1.186-2.625-2.372-3.937-4.448-1.7-14.381-2.7-29.356-2.779-14.826-.232-25.946.386-33.655,1.775-7.858,1.467-13.344,3.4-16.309,5.481-2.372,1.776-2.076,3.705,1.483,5.867,2.669,1.776,8.3,4.4,17.2,7.72,2.224.849,15.568,4.786,40.327,12.274,24.611,7.257,38.7,11.657,42.7,13.2l1.927.772h16.012A53.585,53.585,0,0,0,980.969,287.459Zm167.387-45.546c-3.114-1-4.448-1.621-5.041-1.621-.3,0-.593.154-.593.463l-3.855,3.783V245c3.113,1,6.079,2.007,8.9,3.165.3.154.593,0,1.186-.309,2.52-2.007,3.558-3.474,3.558-4.169,0-.154-1.334-.772-4.151-1.776Zm-9.934,24.78a7.538,7.538,0,0,0,1.927-3.937,10.3,10.3,0,0,0,.593-2.007q0-4.979-5.782-6.948c-1.334-.618-6.375-2.007-14.974-4.091-6.968-1.776-12.75-3.628-16.9-5.944,3.855.154,5.782,0,6.375-.309s0-.695-1.927-1.312c-.593-.154-.89-.154-1.334-.309l-11.713-2.933c-.89-.309-1.334-.463-1.631-.309a.684.684,0,0,0-.3.695v3.474c-.148.695.3,1.39,1.334,1.853a25.444,25.444,0,0,1,3.114,1.158,55.05,55.05,0,0,0,13.343,6.793c4.151,1.39,8.6,2.625,13.047,3.628,5.634,1.467,9.489,2.47,11.713,3.474,1.927.849,3.113,1.467,3.113,2.007,0,.386-.445.772-1.038,1-2.224,1.158-9.785,3.783-22.536,8.106-14.233,4.941-24.018,7.411-28.911,7.411-4.744,0-8.6-2.007-8.6-4.477v-.463c0-2.316,1.186-5.481,3.41-9.727a5.137,5.137,0,0,0,.593-1.312c0-.309,0-.309-.3-.309s-.89.463-1.631,1.312a22.444,22.444,0,0,0-4.744,12.583c0,5.481,3.855,8.106,11.713,8.106,4.151,0,13.344-2.316,27.28-7.257,11.12-3.783,18.385-6.562,21.646-8.106A8.31,8.31,0,0,0,1138.422,266.693Zm18.088-62.529a46.045,46.045,0,0,0-10.823-6.1c-4.744-1.853-11.861-3.4-21.2-4.477-.3-5.79-.445-10.113-.89-13.509a21.147,21.147,0,0,0-3.114-7.951,22.6,22.6,0,0,0-6.227-7.72c-2.076-1.621-4-2.161-5.782-1.467-2.669.926-4.6,4.555-6.375,11.039-.3,7.488-.445,13.355-.741,17.832-4.744-.618-7.709-1.081-7.858-1.312s1.334-.772,4.3-1.853c1.927-.695,2.372-1.158,2.224-1.39s-.89-.232-2.817-.463c-3.41,0-8.006-.077-14.085,0a63.642,63.642,0,0,0-9.933.618c-.445.154-.445,1,1.334,2.779a25.765,25.765,0,0,0,4.448,4.632,8.844,8.844,0,0,0,4.6,1.312c3.262.309,5.486.695,6.672.849,4.744,1,8.451,1.7,10.675,2.084a57.643,57.643,0,0,1-4.448,13.355,58.67,58.67,0,0,1-4,8.183,9.768,9.768,0,0,0-1.186,3.4l.3.232a10.725,10.725,0,0,0,2.817-2.162c7.413-5.867,11.861-13.278,12.9-21.924,3.262.309,6.375.618,9.933,1.158.741,6.176,1.483,10.962,3.113,13.9a27.135,27.135,0,0,0,8.9,10.653c6.375,4.786,12.6,6.1,18.681,3.86a23,23,0,0,0,10.082-7.72,16.19,16.19,0,0,0,4.448-8.646,11.935,11.935,0,0,0-2.076-4.555,27.543,27.543,0,0,0-3.855-4.632Zm-39.437-11.116c-3.113-.077-6.079-.232-9.192-.54,0-9.418,1.483-15.517,3.707-18.6a4.75,4.75,0,0,1,1.483-1.081c1.927-.695,3.558,2.239,3.558,8.723A100.038,100.038,0,0,1,1117.072,193.048Zm34.99,15.053a20.735,20.735,0,0,1-6.672,8.569,22.568,22.568,0,0,1-6.523,4.091c-4.6,1.621-8.006,1.7-10.082.077a.947.947,0,0,1-.445-.772,20.865,20.865,0,0,1-2.965-9.5,25.518,25.518,0,0,1,.148-8.878,123.139,123.139,0,0,1,26.242,4.091c.741.077.741,1,.3,2.316Zm-8.9,72.565c-3.113-1-4.448-1.621-5.041-1.621-.3,0-.593.154-.593.463l-3.855,3.783v.463c3.113,1,6.079,2.007,8.9,3.165.3.154.593,0,1.186-.309,2.521-2.007,3.558-3.474,3.558-4.169,0-.232-1.483-.772-4.151-1.776Zm-134.473-10.5c0,.309-.593.309-.593.54-2.669,2.47-4.744,3.551-6.227,3.551-3.113,0-4.744-1.621-4.744-4.632,0-2.162,1.631-6.253,5.189-11.657.445-1.39,1.038-2.161,1.038-2.47-.445,0-1.038.849-2.669,2.161-5.189,5.4-7.858,10.344-7.858,15.208,0,4.091,2.076,5.944,6.82,5.944,4.151,0,7.265-2.47,9.34-7.874v-.54c.148-.309.148-.309-.3-.232ZM634.78,253.724c2.224,0,8.6-1.621,19.719-4.941,12.75-3.783,21.943-7.411,27.28-10.576a18.934,18.934,0,0,0,5.93-4.941,19.366,19.366,0,0,0,3.855-4.941q12.454,6.253,20.015,6.253a6.279,6.279,0,0,0,4.151-1.853,10.9,10.9,0,0,0,2.817-3.783,4.39,4.39,0,0,0,.3-1.93,7.024,7.024,0,0,0-2.224-5.481,10.783,10.783,0,0,0-7.858-2.933c-4.151,0-8.3,1.467-12.75,4.477a4.235,4.235,0,0,0-1.483-.309,3.1,3.1,0,0,0-1.927.695c-.593.618-1.631,1.93-3.558,3.937a39.223,39.223,0,0,1-3.855,4.091c-4.448,3.474-16.16,7.72-34.545,12.892-7.265,2.007-16.16,4.169-27.28,6.639-15.568,3.474-24.167,5.327-25.946,5.79-3.855.849-5.782,1.467-5.782,1.621s0,.154.3.154c1.927-.077,3.706-.232,5.634-.463,2.817-.154,9.785-1,21.2-2.47C629.146,254.419,634.483,253.724,634.78,253.724Zm67.9-29.258a17.188,17.188,0,0,1,3.558-.618,7.931,7.931,0,0,1,3.855,1.158,4.617,4.617,0,0,1,1.927,2.316c.3.849,0,1.312-.593,1.312a31.267,31.267,0,0,1-5.634-1.467,44.554,44.554,0,0,1-5.634-2.007c.3-.154,1.186-.309,2.52-.695ZM569.545,248.475c3.855-2.856,5.486-5.327,5.486-7.334,0-2.856-2.669-4.246-9.044-4.246a79.484,79.484,0,0,0-15.271,2.007c-6.227,1.467-12.454,2.856-18.829,4.091-10.971,2.393-22.091,4.323-33.655,5.867a283.171,283.171,0,0,1-39.141,3.088c-17.2,0-29.652-1.853-37.955-5.327-5.486-2.239-8.154-4.863-8.154-7.951a11.589,11.589,0,0,1,1.631-6.485c1.186-1.621,2.372-3.088,3.558-4.709a5.837,5.837,0,0,0,1.186-2.47v-.386c-.741,0-1.483.772-3.113,2.239-4.744,4.4-7.117,9.418-6.968,14.436,0,4.863,2.372,8.723,7.413,12.043,7.413,4.477,19.57,6.948,36.027,6.948,15.567,0,35.583-2.007,59.453-6.33,3.855-.618,15.271-2.856,34.4-6.716,8.6-1.621,14.085-2.47,17.2-2.47,1.927,0,3.113.232,3.113.772,0,.849-3.113,3.088-9.785,6.948-6.968,4.246-11.713,7.951-13.64,11.193a22.7,22.7,0,0,0-1.927,4.091.334.334,0,0,0,.3.232h0c.445,0,1.927-1.389,4.744-4.246a40.727,40.727,0,0,1,7.413-5.327c2.372-1.467,5.041-3.088,7.413-4.477,4.6-3.088,7.413-4.863,8.154-5.481Zm6.672,29.026c0,.309-.593.309-.593.54-2.669,2.47-4.744,3.551-6.227,3.551-3.113,0-4.744-1.621-4.744-4.632,0-2.161,1.631-6.253,5.189-11.657a16.5,16.5,0,0,0,1.038-2.47c-.593,0-1.038.849-2.669,2.161-5.189,5.4-7.858,10.344-7.858,15.208,0,4.091,2.076,6.021,6.82,6.021,4.151,0,7.265-2.47,9.34-7.874v-.54c.148-.309.148-.309-.3-.309Zm-67.755-14.436a52.411,52.411,0,0,0-6.079.154,9.823,9.823,0,0,0-5.337,1.621l-3.114,2.779c-.593.463-.89.618-.89.695a5.048,5.048,0,0,0,2.52.154h5.189c9.192,0,13.64.309,13.64.849,0,.154,0,.154-.3.309-2.817.926-5.782,1.853-8.9,2.625-3.41.849-6.672,1.853-9.785,2.933-.593.232-1.186.463-1.631.695,0,.154.89,0,2.52-.154,8.9-1.312,14.53-2.162,16.16-2.779a38.9,38.9,0,0,0,7.858-4.477c2.52-1.776,3.855-2.933,3.855-3.474C524.325,263.606,518.988,263.065,508.462,263.065Zm297.115,4.863c3.41-2.162,5.486-4.709,6.375-7.488a4.6,4.6,0,0,0-1.038-5.172c-.445-.618-.741-.849-1.186-.849-.741-.077-1.186.232-1.779.926a32.328,32.328,0,0,0-4.3,4.863l2.224,3.011c-1.334.772-3.706,1.158-6.82.849a12.03,12.03,0,0,1-6.227-1.93c-1.483-.926-2.224-1.7-1.927-2.625,0,.154,1.038-.695,2.521-2.779.445-.154.445-.309.593-.695.148-.54-.148-.772-.741-.849a3.9,3.9,0,0,0-2.372.54c-3.262,1.776-6.227,3.319-9.489,5.1-4.151,2.161-10.082,3.088-15.716,2.393-4.893-.463-8.9-1.621-11.12-3.319a10.994,10.994,0,0,1-3.262-4.091,1.851,1.851,0,0,0-1.334-1.467c-.445-.077-.89.309-1.334.772a22.882,22.882,0,0,0-4.744,5.018,3.436,3.436,0,0,0,.3,2.084c3.706,5.79,4.6,10.422,3.41,13.741-.445,1.235-4.6,2.934-13.047,5.1a200.607,200.607,0,0,1-29.8,5.4,173.027,173.027,0,0,1-36.324.54c-12.6-1.235-21.2-4.323-25.946-9.186-3.707-3.4-5.041-7.334-3.558-11.194.3-.695,2.52-4.091,6.968-10.036.593-.695.741-1.235.148-1.312a2.763,2.763,0,0,0-1.779.926,30.553,30.553,0,0,0-6.079,6.948,20.168,20.168,0,0,0-2.669,5.172c-2.224,6.021-1.483,11.194,2.076,15.285,3.855,4.709,11.12,7.951,21.2,9.727h42.254c3.41-.463,6.672-.926,10.23-1.544,13.492-2.393,24.315-5.172,31.58-8.414,5.486-2.084,9.34-6.793,12.009-14.127,1.779.386,3.558.695,5.486.926A35.746,35.746,0,0,0,782.892,265a11.363,11.363,0,0,0,8.9,5.4A20.756,20.756,0,0,0,805.576,267.929Zm57.97-.232a183.79,183.79,0,0,1-25.8-11.657c-3.855-2.393-7.71-4.863-11.713-7.411a36.486,36.486,0,0,0-3.262-1.93c-.3-.077-.3-.077-.445,0s.3.772,1.334,2.316c2.817,4.632,5.041,7.951,6.523,10.113s5.189,4.477,10.378,6.948c2.817,1.235,7.413,3.088,13.64,5.481,7.413,2.779,28.763,9.186,63.456,19.376,1.483.386,2.817.849,4.3,1.235h21.5l-18.236-5.4c-33.211-9.881-53.67-16.134-61.677-19.068Zm-28.911,16.057a6.493,6.493,0,0,1-3.41,1.776c-1.631,0-2.521-.695-2.521-2.316a9.709,9.709,0,0,1,2.817-5.635,1.658,1.658,0,0,0,.593-1.312c0-.618-.889-1.158-2.52-1.776a6.312,6.312,0,0,0,1.186-3.474,2.075,2.075,0,0,0-1.631-2.161,10.938,10.938,0,0,0-5.634,1.158c-2.076.849-3.262,2.084-3.41,3.474,0,1,1.631,2.007,5.337,3.011a64.738,64.738,0,0,1-12.306,4.632c-4.448,1.467-8.9,2.779-13.344,4.169-1.186.309-1.334.618-1.334.695a5.076,5.076,0,0,0,1.927-.309c6.079-1.158,9.489-1.776,10.082-1.93a86.074,86.074,0,0,0,9.489-3.011,29.561,29.561,0,0,0,7.561-3.937c1.631.618,2.52.849,2.52,1.158,0,0-.593.849-1.631,2.625a9.706,9.706,0,0,0-1.631,4.246c0,2.161,1.186,3.165,3.558,3.165,2.224,0,3.855-1.467,5.041-4.323v-.309h-.3c-.3.154-.445.309-.445.386Zm-7.265-9.8c-2.817-.695-4.151-1.312-4.151-1.776,0-.154.593-.309,1.186-.618a12.126,12.126,0,0,1,1.631-.309,1.622,1.622,0,0,1,1.631.849,1.716,1.716,0,0,1-.3,1.853ZM615.358,284.6c-3.113-1-4.448-1.621-5.041-1.621-.3,0-.593.154-.593.463l-3.855,3.783v.463c3.114,1,6.079,2.007,8.9,3.165.3.154.593,0,1.186-.309,2.52-2.007,3.707-3.474,3.707-4.169-.148-.232-1.483-.849-4.3-1.776Zm84.212-20.612c-3.41.849-6.672,1.853-9.785,2.933-.593.232-1.186.463-1.631.695,0,.154.89,0,2.52-.154,8.9-1.312,14.529-2.161,16.16-2.779a38.9,38.9,0,0,0,7.858-4.477c2.52-1.776,3.855-2.933,3.855-3.474,0-1.312-5.337-1.853-15.864-1.853a52.407,52.407,0,0,0-6.079.154,9.823,9.823,0,0,0-5.337,1.621l-3.113,2.779c-.593.463-.89.618-.89.695a5.046,5.046,0,0,0,2.52.154h5.338c9.192,0,13.64.309,13.64.849,0,.154,0,.154-.3.309C705.648,262.293,702.683,263.22,699.57,263.992ZM134.844,279.2c-3.113-1-4.448-1.621-5.041-1.621-.3,0-.593.154-.593.463l-3.855,3.783v.463c3.113,1,6.079,2.007,8.9,3.165.3.154.593,0,1.186-.309,2.52-2.007,3.558-3.474,3.558-4.169C139.144,280.82,137.661,280.28,134.844,279.2ZM558.277,20.436c-2.817,2.084-4.448,4.555-4.6,7.1-.148,1.544.89,3.088,2.965,4.246a13.629,13.629,0,0,0,7.413,1.7h8.747a30.477,30.477,0,0,1,9.34,1.158c3.262,1,4.6,2.007,4.6,3.551-1.038,1-4.893,3.011-11.713,5.944a201.987,201.987,0,0,1-25.649,8.492,129.133,129.133,0,0,1-31.135,4.246c-11.713,0-20.46-1.853-26.242-5.713-4.3-2.7-6.672-6.1-6.82-9.65,0-.849,1.038-4.091,2.965-9.8.3-.695.3-1-.3-1.158a3.124,3.124,0,0,0-1.334,1,19.053,19.053,0,0,0-3.262,6.793,11.01,11.01,0,0,0-.593,4.863,16.458,16.458,0,0,0,6.82,13.664c6.227,4.555,15.864,6.948,28.911,6.948,12.306,0,25.649-2.547,40.623-7.411,10.675-3.783,18.829-7.334,24.908-11.194,4.6-2.7,6.82-6.407,6.82-11.116.3-4.4-2.372-8.8-7.413-12.351a25.961,25.961,0,0,0-15.271-4.709C564.8,16.885,561.539,18.12,558.277,20.436Zm18.532,6.793c-4.3-.154-7.413-.309-9.489-.309-3.558-.154-5.486-.849-5.486-2.007,0-.849,1.631-1.39,4.3-1.39A15.743,15.743,0,0,1,576.81,27.229ZM555.46,75.323a88.579,88.579,0,0,1-22.091-2.7,57.446,57.446,0,0,1-6.968-2.47,24.341,24.341,0,0,0-2.817-1c-1.334,0-2.372,1-2.817,2.933a66.089,66.089,0,0,0,6.079,4.863,10.844,10.844,0,0,1,1.927,5.4v1.467c.445,0,.89-.463,1.483-1.235,1.927-2.47,1.927-4.4.89-5.867a92.193,92.193,0,0,0,22.536,2.7c14.974,0,30.393-2.162,46.85-6.33a11.742,11.742,0,0,1,4.151-.772c1.631,0,2.965.618,3.262,1.467-1.927,1-3.855,2.084-5.634,3.165a22.466,22.466,0,0,0-6.968,5.635,3.393,3.393,0,0,0-.89,1.467h.445a22.377,22.377,0,0,0,3.262-2.162,75.373,75.373,0,0,1,7.561-4.632c1.779-1.081,3.558-2.239,5.189-3.4a4.772,4.772,0,0,0,1.334-3.165c0-1.7-1.927-2.7-5.634-2.7-1.483,0-4.744.695-9.785,1.93Q588.819,72,580.368,73.624A166.114,166.114,0,0,1,555.46,75.323ZM598.6,45.833c.89.232,1.334.232,1.334.695v3.783a5.2,5.2,0,0,0,1.779,4.246,9.109,9.109,0,0,0,4.448,1.158c4.448,0,7.265-1.621,9.044-4.709,1.334,2.316,4,3.783,7.71,3.783,1.779,0,3.558-.926,5.486-2.625a7.022,7.022,0,0,0,1.334-4.014,5.91,5.91,0,0,0-1.334-2.856c-1.779-2.162-2.669-3.319-2.669-3.319a7.456,7.456,0,0,0-.89-2.316c0-.463,0-.926-.445-.926a13.871,13.871,0,0,1-1.334.926,2.949,2.949,0,0,0-1.334,2.316c0,1.853,1.779,4.246,5.337,7.334-.3.772-1.483,1.39-3.113,1.39-4,0-6.375-1.39-6.375-4.014a12.43,12.43,0,0,0-1.334-4.477c-.445-1.853-1.334-2.856-1.779-2.856s-.89.232-1.334.926c-.593.463-1.038,1.081-.89,1.621a4.251,4.251,0,0,0,.89,2.547,29.566,29.566,0,0,1,.89,3.088c.3,1.081-.593,2.162-2.224,2.856a7.126,7.126,0,0,1-4.448,1.158A4.7,4.7,0,0,1,602.9,47.3c0-.232.445-.926.445-1.39a3.288,3.288,0,0,0,.445-2.316c0-1.621-.445-2.547-1.334-2.547a9.231,9.231,0,0,0-2.669,1.158,3.743,3.743,0,0,0-2.372,2.548c-.148.618.3.849,1.186,1.081ZM553.236,14.877c.593.154,1.038.154,1.334-.154a32.936,32.936,0,0,0,3.558-3.705c3.558,1.39,7.117,2.547,9.785,3.551a1.347,1.347,0,0,0,1.334-.154c2.965-2.547,4.6-4.091,4.6-4.941a53.023,53.023,0,0,0-5.189-2.239,35.613,35.613,0,0,0-5.486-1.7,3.655,3.655,0,0,0-1.038.309L558.87,9.551a47.29,47.29,0,0,0-5.782-2.162,24.992,24.992,0,0,0-4.6-1.544,1.656,1.656,0,0,0-1.038.54l-4.151,4.4c-.3.077-.3.309-.148.463l.148.077C546.713,12.484,549.975,13.642,553.236,14.877ZM425.584,22.983A15.293,15.293,0,0,1,432.7,20.9a4.9,4.9,0,0,1,2.669.463,14.073,14.073,0,0,0,3.558.463c4.893,0,8.006-1.39,9.785-3.937a1.9,1.9,0,0,0,.445-1.158c4.893,4.863,15.271,7.256,30.838,7.256a177.078,177.078,0,0,0,44.775-6.1,16.751,16.751,0,0,1,4-.695c1.483,0,2.817.618,3.113,1.39a44.715,44.715,0,0,0-5.337,3.011,24.717,24.717,0,0,0-6.227,5.327,1.759,1.759,0,0,0-.89,1.39c.445,0,1.334-.695,3.558-2.084.89-.695,3.558-2.316,6.672-4.4a50.325,50.325,0,0,0,4.893-3.242,4.421,4.421,0,0,0,1.334-3.011c0-1.621-1.779-2.547-5.337-2.547-1.334,0-4.448.695-8.9,1.853-6.227,1.621-11.564,2.547-16.16,3.474a145.093,145.093,0,0,1-23.277,1.621c-13.936,0-23.277-1.621-28.169-5.095A42.193,42.193,0,0,1,449.6,8.393c-1.483-3.011-2.817-4.4-3.262-4.4a1.976,1.976,0,0,0-1.779,1.158,2.136,2.136,0,0,0-.89,1.621,8.6,8.6,0,0,0,1.779,3.474,6.294,6.294,0,0,1,1.779,4.169c0,2.084-2.224,3.011-7.117,3.011a21.761,21.761,0,0,1-4.448-.463,5.231,5.231,0,0,0-2.224-.463c-1.334,0-3.114.463-5.782,1.853a8.506,8.506,0,0,0-4,4.169C424.249,23.446,424.694,23.446,425.584,22.983ZM308.606,41.047c8.3,4.169,19.867,7.025,33.952,8.955,11.564,1.467,21.5,2.162,29.356,1.621,5.634-.154,12.6-2.7,21.5-7.488a24.692,24.692,0,0,0,8.9,6.948A86.588,86.588,0,0,0,428.4,58.725a93.387,93.387,0,0,0,17.05,1.235,39.271,39.271,0,0,0,8.154-1.544,35.226,35.226,0,0,0,7.71-2.779c2.076-1.081,2.817-3.319,2.372-6.253-.148-3.319-2.965-6.485-7.71-8.723-5.337-2.7-13.788-3.628-25.5-2.856-3.707.232-12.454,1.235-26.687,3.165a5.346,5.346,0,0,1-.593-6.639c.445-.695.593-1,.148-1.235-.148-.077-.593-.077-1.631.232-4.6,1.39-6.968,2.084-7.413,2.239a3.654,3.654,0,0,0-1.631,1.776c-1.927,3.705-5.634,7.179-10.675,10.036-1.483.772-5.782.926-13.64.463a192.234,192.234,0,0,1-25.5-3.242,99.258,99.258,0,0,1-25.8-8.106c-7.71-3.86-10.971-8.028-10.23-12.506.3-3.242,2.817-6.253,7.116-8.569.741-.463,5.337-2.239,13.492-5.4,1.038-.309,1.631-.695,1.186-.849a3.572,3.572,0,0,0-2.076.232,78.74,78.74,0,0,0-10.378,3.4,41.522,41.522,0,0,0-6.375,3.011c-6.82,3.705-10.823,7.411-11.861,11.194C296.449,32.092,300.007,36.8,308.606,41.047ZM445.6,43.9c3.855,2.162,6.227,4.941,6.82,7.874.89,2.856,1.038,4.555,0,5.095-.593.309-3.113.154-7.71-.463a142.832,142.832,0,0,1-15.567-2.856,91.992,91.992,0,0,1-16.753-6.021,26.77,26.77,0,0,1-6.672-4.632C424.991,40.044,438.186,40.43,445.6,43.9ZM355.012,30.626c4.151,0,7.265-2.47,9.34-7.874v-.54c0-.309,0-.309-.445-.309,0,.309-.593.309-.593.54-2.669,2.47-4.744,3.551-6.227,3.551-3.113,0-4.744-1.621-4.744-4.632,0-2.162,1.631-6.253,5.189-11.657a16.507,16.507,0,0,0,1.038-2.47c-.445,0-1.038.849-2.669,2.162-5.189,5.4-7.858,10.344-7.858,15.208C348.34,28.7,350.416,30.626,355.012,30.626ZM625.143,17.579a10.255,10.255,0,0,0,4.744,1.39c1.038,0,1.631,0,1.631-.309a3.405,3.405,0,0,1,1.631-.54c1.483,0,3.114,1.93,5.782,5.4s4.151,5.713,4.151,7.025a1.026,1.026,0,0,0,1.038,1.081c.445,0,1.038-.309,2.076-1.39,1.631-1.081,2.669-3.242,3.707-6.253,2.076-7.025,4.744-10.576,7.858-10.576a6.763,6.763,0,0,1,3.706,1.39,5.383,5.383,0,0,0,2.076,1.081,3.027,3.027,0,0,0,2.669-1.621,3.117,3.117,0,0,0,.593-1.93,3.248,3.248,0,0,0-2.076-2.162,6.744,6.744,0,0,0-4.744-1.93c-3.114,0-6.227,1.621-8.9,5.172a45.937,45.937,0,0,0-4.744,10.576,1.393,1.393,0,0,0-.593.54c0,.232,0,.232-.593,0v-.54a21.407,21.407,0,0,0-6.82-9.8,16.619,16.619,0,0,0-10.378-3.551c-.593,0-1.483.54-3.113,2.162a17.1,17.1,0,0,0-2.669,2.47C621.881,15.958,623.067,16.807,625.143,17.579Zm-243-4.709h5.337c9.192,0,13.64.309,13.64.849,0,.154,0,.154-.3.309-2.817.926-5.782,1.853-8.9,2.625-3.41.849-6.672,1.853-9.785,2.933-.593.232-1.186.463-1.631.695,0,.154.89,0,2.52-.154,8.9-1.312,14.53-2.162,16.16-2.779a38.9,38.9,0,0,0,7.858-4.477c2.52-1.776,3.855-2.933,3.855-3.474,0-1.312-5.337-1.853-15.864-1.853a52.412,52.412,0,0,0-6.079.154,9.429,9.429,0,0,0-5.337,1.621L380.512,12.1c-.593.463-.89.54-.89.695S380.513,13.025,382.143,12.87Zm315.8,69.709c2.52-2.007,3.707-3.474,3.707-4.169,0-.154-1.334-.695-4.151-1.776-3.114-1-4.448-1.621-5.041-1.621-.3,0-.593.154-.593.463l-3.855,3.783v.463c3.113,1,6.079,2.007,8.9,3.165.148.077.445,0,1.038-.309ZM648.716,51.855c2.52-2.007,3.558-3.474,3.558-4.246,0-.154-1.334-.695-4.151-1.776-3.113-1-4.448-1.621-5.041-1.621-.3,0-.593.154-.593.463l-3.855,3.783v.463c3.114,1,6.079,2.007,8.9,3.165C647.827,52.241,648.123,52.086,648.716,51.855ZM629,229.948c2.521-2.007,3.558-3.474,3.558-4.169,0-.154-1.334-.695-4.151-1.775-3.114-1-4.448-1.621-5.041-1.621-.3,0-.593.154-.593.463l-3.855,3.783v.463c3.114,1,6.079,2.084,8.9,3.165C628.108,230.334,628.4,230.179,629,229.948Zm19.719-32.191c2.52-2.007,3.558-3.474,3.558-4.169,0-.154-1.334-.695-4.151-1.776-3.113-1-4.448-1.621-5.041-1.621-.3,0-.593.154-.593.463l-3.855,3.783v.463c3.114,1,6.079,2.007,8.9,3.165.3.154.593,0,1.186-.309Zm-32.766-53.266c2.52-2.007,3.707-3.474,3.707-4.169,0-.154-1.483-.695-4.151-1.776-3.114-1-4.448-1.621-5.041-1.621-.3,0-.593.154-.593.463l-3.855,3.783v.463c3.113,1,6.079,2.084,8.9,3.165.148.154.445,0,1.038-.309Zm66.124,16.829c2.52-2.007,3.558-3.474,3.558-4.169,0-.154-1.334-.695-4.151-1.776-3.114-1-4.448-1.621-5.041-1.621-.3,0-.593.154-.593.463L671.993,158v.463c3.114,1,6.079,2.007,8.9,3.165.3.077.593,0,1.186-.309Zm22.387-22.927c-3.41.849-6.672,1.853-9.785,2.933-.593.232-1.186.463-1.631.695,0,.154.89,0,2.521-.154,8.9-1.312,14.529-2.162,16.16-2.779a38.893,38.893,0,0,0,7.858-4.477c2.52-1.776,3.855-2.933,3.855-3.474,0-1.312-5.337-1.853-15.864-1.853a52.406,52.406,0,0,0-6.079.154,9.824,9.824,0,0,0-5.337,1.621l-3.114,2.779c-.593.463-.741.618-.741.695s.741.309,2.521.154h5.337c9.192,0,13.64.309,13.64.849,0,.154,0,.154-.3.309-2.965.926-5.93,1.776-9.044,2.548ZM280.881,14.491c2.52-2.084,3.558-3.474,3.558-4.169,0-.154-1.334-.695-4.151-1.776-3.114-1-4.448-1.621-5.041-1.621-.3,0-.593.154-.593.463L270.8,11.172v.463c3.114,1,6.079,2.007,8.9,3.165C279.992,14.877,280.288,14.723,280.881,14.491Zm413.054,8.492c4.3,2.856,20.312,11.425,20.608,13.587.3,1.621-15.123,16.057-61.825,34.893l-3.41,1.312c-20.757,8.106-42.7,15.362-65.531,21.847,0,0,7.413-.232,26.984-3.937q18.9-3.705,36.917-8.569s64.938-24.24,69.089-35.9.89-18.913-6.523-23.7-14.233-9.958-14.233-9.958l5.041-.695-20.015-8.8s-1.927,7.951.148,10.113a118.862,118.862,0,0,0,12.75,9.8Zm16.605,71.33c-4,0-8.006,2.084-11.268,6.176-3.262,6.176-5.337,10.344-5.93,13.432a4.361,4.361,0,0,0-.741,1h-.593v-1c-1.186-4.323-4-8.414-8.6-12.043a21.719,21.719,0,0,0-13.2-4.786c-.741,0-1.927,1-4,2.779-1.927,1.7-3.262,2.779-3.262,3.088,0,.695,1.334,1.7,4,3.088,2.669,1,4.6,1.7,5.93,1.7a4.6,4.6,0,0,0,2.669-.695c0-.309.741-.309,1.334-.309,1.927,0,4,2.084,7.265,6.562,4,4.477,5.337,7.565,5.337,8.955a2.326,2.326,0,0,0,.445,1.312c-.741.386-1.483.926-2.372,1.467-2.669,2.084-7.265,3.783-12.6,6.176-21.794,7.256-38.4,12.737-50.26,16.134-2.669.695-4,1.39-4,1.7h.741a14.415,14.415,0,0,0,4.6-.695c14.529-2.779,21.794-4.169,23.87-4.477,7.858-2.084,15.271-4.477,22.536-7.179,8.6-3.474,15.271-6.87,17.791-10.653,1.334-1.621,2.372-2.779,2.965-3.474l.445-.309c1.927-1.7,3.262-4.477,4.6-8.26,3.262-8.569,6.672-13.046,9.933-13.046a7.32,7.32,0,0,1,4.6,1.39,7.913,7.913,0,0,0,3.262,1.7,3.836,3.836,0,0,0,2.669-2.084,3.621,3.621,0,0,0,.593-2.393,5.211,5.211,0,0,0-2.669-3.088,10.267,10.267,0,0,0-6.079-2.162ZM24.835,166.106c-3.41.849-6.523,1.853-9.785,2.933-.593.232-1.186.463-1.631.695,0,.154.89,0,2.52-.154,8.9-1.312,14.53-2.162,16.16-2.779a38.9,38.9,0,0,0,7.858-4.477c2.52-1.775,3.855-2.933,3.855-3.474,0-1.312-5.337-1.853-15.864-1.853a52.406,52.406,0,0,0-6.079.154,9.823,9.823,0,0,0-5.337,1.621l-3.113,2.779c-.593.463-.89.618-.89.695a5.048,5.048,0,0,0,2.52.154h5.337c9.192,0,13.64.309,13.64.849,0,.154,0,.154-.3.309q-4.225,1.39-8.9,2.548Zm217.8-88.854c-.445,0-1.038.849-2.669,2.162-5.189,5.4-7.858,10.344-7.858,15.208,0,4.091,2.076,5.944,6.82,5.944,4.151,0,7.265-2.47,9.34-7.874v-.54c0-.232,0-.232-.593-.232,0,.232-.593.232-.593.54-2.669,2.47-4.744,3.551-6.227,3.551-3.113,0-4.744-1.621-4.744-4.632,0-2.162,1.631-6.253,5.189-11.657A22.354,22.354,0,0,0,242.63,77.252Zm0,139.186c.593-.077.593-.232,0-.618-.741-.232-1.483-.463-2.669-.926a91.877,91.877,0,0,0-21.5-4.941c-2.965-.386-15.567-1.544-38.251-3.474-22.832-2.007-34.1-3.011-34.693-3.088-.89-.077-1.038-.309-.445-.386,4.3-1.235,5.634-1.853,4.151-2.007a13.031,13.031,0,0,0-2.52-.154c-1.483.077-5.337.232-11.861.772-6.227.386-9.785.695-11.268.849a3.415,3.415,0,0,0-1.334.309l.89.386a43.318,43.318,0,0,0,8.154,2.7,42.056,42.056,0,0,1,9.34.309c2.965.386,17.495,1.775,43.44,4.014,25.8,2.393,40.623,3.628,44.182,4.091,3.855.463,7.265,1.081,10.23,1.544,1.334.154,2.669.386,4.151.618ZM219.8,276.5c4.151,0,7.265-2.47,9.34-7.874v-.54c0-.309,0-.309-.593-.309,0,.309-.593.309-.593.54-2.669,2.47-4.744,3.551-6.227,3.551-3.113,0-4.744-1.621-4.744-4.632,0-2.161,1.483-6.253,5.189-11.657a16.5,16.5,0,0,0,1.038-2.47c-.593,0-1.038.772-2.669,2.161-5.189,5.4-7.858,10.344-7.858,15.208C212.978,274.568,215.054,276.5,219.8,276.5Zm-29.207-54.81c2.52-2.007,3.558-3.474,3.558-4.169,0-.154-1.334-.695-4.151-1.776-3.113-1-4.448-1.621-5.041-1.621-.3,0-.593.154-.593.463l-3.855,3.783v.463c3.113,1,6.079,2.007,8.9,3.165.445.077.593,0,1.186-.309Zm51.3-170.451a26.646,26.646,0,0,0-4.744-1.467,2.051,2.051,0,0,0-.89.309l-2.817,3.242a49.069,49.069,0,0,0-5.041-1.853,28.528,28.528,0,0,0-3.855-1.312,1.263,1.263,0,0,0-.89.463L220.094,54.4c-.3.077-.3.232-.148.386l.148.077c2.965.926,5.782,1.93,8.6,3.011.593.154.89.154,1.186-.154a24.779,24.779,0,0,0,3.113-3.165c3.113,1.158,6.079,2.162,8.3,3.011.593.154.89.154,1.186-.154,2.52-2.162,3.855-3.474,3.855-4.169A30.236,30.236,0,0,0,241.889,51.237ZM141.664,162.015c-.445,0-1.038.849-2.669,2.162-5.189,5.4-7.858,10.344-7.858,15.208,0,4.091,2.076,5.944,6.82,5.944,4.151,0,7.265-2.47,9.34-7.874v-.54c0-.309,0-.309-.593-.309,0,.309-.445.309-.445.54-2.669,2.47-4.744,3.551-6.227,3.551-3.113,0-4.744-1.621-4.744-4.632,0-2.162,1.631-6.253,5.189-11.657A11.235,11.235,0,0,0,141.664,162.015ZM129.8,131.676c-.3,0-.593.154-.593.463l-3.855,3.783v.463c3.113,1,6.079,2.007,8.9,3.165.3.154.593,0,1.186-.309,2.52-2.007,3.558-3.474,3.558-4.169,0-.154-1.334-.695-4.151-1.776-2.965-1.081-4.448-1.621-5.041-1.621Zm35.286-34.2c-.445,0-1.038.849-2.669,2.162-5.189,5.4-7.858,10.344-7.858,15.208,0,4.091,2.076,5.944,6.82,5.944,4.151,0,7.265-2.47,9.34-7.874v-.54c0-.309,0-.309-.445-.309,0,.309-.445.309-.445.54-2.669,2.47-4.744,3.551-6.227,3.551-3.113,0-4.744-1.621-4.744-4.632,0-2.162,1.631-6.253,5.189-11.657a17.431,17.431,0,0,0,1.038-2.393Zm105.265-4.4a118.829,118.829,0,0,0,23.129-2.393A78.436,78.436,0,0,0,307.42,87.6c5.337-2.084,8.006-3.088,8.006-3.4-.89.077-1.779.154-2.669.309-14.53,1.7-23.722,2.779-27.725,3.088a106.436,106.436,0,0,1-21.2-.309c-.89.077-1.779-.232-1.927-.772v-.232c0-.309,1.334-1,3.262-1.39a80.128,80.128,0,0,0,16.457-5.481,36.941,36.941,0,0,0,12.6-8.26c10.378.618,15.716,1.312,15.419,1.39,1.927-.077,3.113-1.081,5.041-3.088a6.849,6.849,0,0,0,2.669-5.172c.148-.386-.148-.772-.593-1-3.262-4.477-10.527-8.26-21.2-11.039a21.06,21.06,0,0,0-7.858-1.39c-2.669,0-4.6.309-5.93,1.39-2.669,1.39-2.669,3.474-1.334,6.176-2.372,2.084-3.855,4.477-4,6.871,0,2.779,4.6,4.477,13.937,5.172a48.83,48.83,0,0,1-13.2,6.562c-4,1.39-8.006,3.088-11.861,4.477-4.6,1.776-7.413,4.555-7.265,7.565-.3,2.625,3.707,4.014,12.306,4.014Zm29.059-33.04c5.189,1.158,9.34,3.242,11.861,5.867.593.695.593,1,0,1.39h-.593c-8.006-.695-11.861-1-12.6-1a15.819,15.819,0,0,0,1.334-6.253Zm-18.533,3.088c0-.695,1.334-1.39,3.262-2.393a9.478,9.478,0,0,1,4.6-1.7,3.9,3.9,0,0,1,4,2.393,3.673,3.673,0,0,1,.593,4.477c-7.858-.695-12.454-1.7-12.454-2.779Zm-70.869,55.119a58.742,58.742,0,0,1-8.6,1.776c-2.076.077-4.448.309-6.82.463a20.843,20.843,0,0,0-3.262.463l-.445.154c.3.232,1.483.232,3.707.232a70.553,70.553,0,0,0,19.719-2.7c5.93-1.7,9.933-3.86,11.861-6.562,2.965-4.014,1.483-8.723-4.151-14.05Q213.349,89.8,194,80.881c-11.268-5.172-19.274-8.183-24.167-8.955a37.114,37.114,0,0,0-9.34-.618,58.742,58.742,0,0,0-8.6,1.776c-6.523,1.776-11.713,4.632-14.53,8.183-2.669,3.088-2.817,5.79-.445,7.951,1.334,1.235,4.448,2.084,9.192,2.316a39.314,39.314,0,0,0,12.157-1.158,8.133,8.133,0,0,0,4.893-2.933,2.451,2.451,0,0,0-.593-3.628l-3.707-3.4a5.488,5.488,0,0,1-2.224-4.169c-.3-1.312.89-2.625,3.262-3.242a178.416,178.416,0,0,1,22.832,8.955c12.009,5.635,21.2,11.271,26.983,16.752,5.93,5.558,8.3,10.19,6.672,14.127-.741,2.625-2.965,4.477-6.375,5.4Zm-59.156-29.8c-1.483.463-2.669-.077-4-1.158-1.334-1.621-1.186-3.474,1.186-5.79q2.446,2.779,3.558,3.937c.89,1.544.741,2.548-.741,3.011Zm27.28,82.909a16.618,16.618,0,0,0-10.378-3.551c-.445,0-1.483.54-3.113,2.162a17.11,17.11,0,0,0-2.669,2.47c0,.54,1.038,1.39,3.113,2.162a10.255,10.255,0,0,0,4.744,1.39c1.038,0,1.631,0,1.631-.309a2.959,2.959,0,0,1,1.631-.54c1.483,0,3.113,1.93,5.782,5.4s4.151,5.713,4.151,7.025a.981.981,0,0,0,1.038,1.081c.445,0,1.038-.309,2.076-1.39,1.483-1.081,2.669-3.242,3.706-6.253,2.076-7.025,4.744-10.576,7.858-10.576a6.763,6.763,0,0,1,3.707,1.39,4.484,4.484,0,0,0,2.076,1.081,3.027,3.027,0,0,0,2.669-1.621,3.117,3.117,0,0,0,.593-1.93,3.248,3.248,0,0,0-2.076-2.161,7,7,0,0,0-4.744-1.93c-3.113,0-6.227,1.621-8.9,5.172A45.931,45.931,0,0,0,186.291,181a1.393,1.393,0,0,0-.593.54c0,.309,0,.309-.445,0V181c-1.927-3.937-4-7.179-7.117-9.65Zm-102.152-9.5a3.656,3.656,0,0,0-1.038.309l-3.262,3.705c-1.779-.849-3.855-1.544-5.782-2.239a24.992,24.992,0,0,0-4.6-1.544,1.656,1.656,0,0,0-1.038.54l-4.3,4.4c-.3.077-.3.309-.148.463,0,0,0,.077.148.077,3.41,1.081,6.82,2.239,10.082,3.551.593.154,1.038.154,1.334-.154a27.476,27.476,0,0,0,3.558-3.705c3.558,1.39,7.117,2.548,9.785,3.551.593.154,1.038.154,1.334-.154,2.965-2.548,4.6-4.091,4.6-4.941a53.024,53.024,0,0,0-5.189-2.239A46.975,46.975,0,0,0,75.985,161.86Zm17.791-13.2a75.866,75.866,0,0,0,18.977-17.987c5.782-7.179,7.858-12.429,6.523-15.517-1.483-2.933-4.893-5.481-9.489-7.334-1.483-.618-4.448-.849-8.6-.849a22.479,22.479,0,0,0-12.009,3.088c-5.782,3.86-7.561,11.425-4.893,22.387-5.337-3.011-11.12-5.867-17.2-8.569-1.483-.618-8.9-3.242-22.091-7.642s-19.867-6.562-20.015-6.639c-.741-.309-.741-.463-.3-.463,5.189-.154,6.82-.54,5.486-1.081a18.228,18.228,0,0,0-2.372-.54c-1.334-.309-5.041-.926-11.268-1.93-5.93-.926-9.489-1.467-10.971-1.621a10.531,10.531,0,0,0-1.186.077c-.148.077-.148.309.148.618,2.817,2.393,4.448,3.86,5.634,4.246a26.632,26.632,0,0,1,8.006,2.162c1.483.618,10.675,3.937,27.28,9.572,16.753,5.79,25.8,8.955,26.835,9.341l9.637,3.937a7.949,7.949,0,0,1,3.113,2.007,53.673,53.673,0,0,1,2.817,6.871c-2.52,2.239-5.337,4.4-8.3,6.562-2.076,1.39-4.3,2.856-7.117,4.477-2.52,1.7-4.3,2.625-4.893,3.011s-1.186.772-1.186,1c-.3.232-.148.309.445.386.593-.154,1.483-.309,2.669-.618A105.457,105.457,0,0,0,82.8,153.677a57.941,57.941,0,0,0,10.971-5.018Zm1.334-33.349c3.262-2.162,8.747-3.242,16.605-2.856a7.685,7.685,0,0,1,1.186.154c-.148.077.148.386-.148.849-1.483,5.095-5.337,10.653-11.268,17.061a69.093,69.093,0,0,1-10.675,10.036c-3.855-12.429-2.372-20.766,4.3-25.243ZM18.756,139.473c-4.448,1.467-8.9,2.779-13.343,4.169-1.186.309-1.631.618-1.631.695h.3a5.076,5.076,0,0,0,1.927-.309c5.782-1.158,9.192-1.776,10.082-1.853,3.262-.926,6.375-1.93,9.489-3.011a36.474,36.474,0,0,0,7.265-3.937,10.051,10.051,0,0,1,3.41,1.467c1.631-1.158,2.52-2.007,2.52-2.625a35.519,35.519,0,0,0-3.41-1.312,8.38,8.38,0,0,0,1.186-4.091c3.262-1.7,5.337-3.86,6.079-6.253v-.618c0-.849-.89-1.312-2.817-1.312a31.721,31.721,0,0,0-7.561,1.621,36.921,36.921,0,0,0-8.9,3.783c-4.448,2.779-6.968,5.327-6.968,7.8,0,1.853,1.186,2.779,3.41,2.779A8.737,8.737,0,0,0,24.538,135a5.406,5.406,0,0,0,1.927-2.007,23.563,23.563,0,0,0,4.448,1.776A62.015,62.015,0,0,1,18.756,139.473Zm6.672-7.72c.148.618-.445,1.235-1.334,1.621a7.9,7.9,0,0,1-3.558.618c-1.186,0-1.927-.463-1.927-1.467,0-1.467,1.927-3.165,5.634-5.249a43.637,43.637,0,0,1,7.561-3.011,19.784,19.784,0,0,1,5.782-1c1.334,0,2.224.463,2.224,1.312,0,.695-1.334,1.853-3.855,3.319a2.255,2.255,0,0,0-1.334-.695,11.492,11.492,0,0,0-5.634,1.158c-2.224.849-3.41,2.084-3.558,3.4Zm3.41-1.235c0-.154.3-.309,1.186-.618a12.744,12.744,0,0,1,1.631-.309,1.622,1.622,0,0,1,1.631.849,1.954,1.954,0,0,1-.3,1.776C30.172,131.522,28.838,130.9,28.838,130.518ZM61.455,88.6c0-1.621-.445-2.625-1.334-2.625a9.23,9.23,0,0,0-2.669,1.158c-1.334.695-2.224,1.621-2.224,2.547,0,.463.445.695,1.334.926s1.334.232,1.334.695v3.783a5.2,5.2,0,0,0,1.779,4.246,9.265,9.265,0,0,0,4.6,1.158c4.448,0,7.265-1.621,9.044-4.709,1.334,2.316,4,3.783,7.71,3.783,1.779,0,3.558-.926,5.486-2.548A7.022,7.022,0,0,0,87.846,93a5.909,5.909,0,0,0-1.334-2.856c-1.779-2.084-2.669-3.319-2.669-3.319a7.456,7.456,0,0,0-.89-2.316c0-.463,0-.926-.445-.926a3.8,3.8,0,0,1-1.334.926,2.949,2.949,0,0,0-1.334,2.316c0,1.853,1.779,4.169,5.486,7.257-.3.772-1.631,1.39-3.113,1.39-4.151,0-6.375-1.39-6.375-4.014A12.432,12.432,0,0,0,74.5,86.979c-.445-1.853-1.334-2.856-1.779-2.856s-.89.232-1.334.926c-.593.463-1.038,1.081-.89,1.621a4.652,4.652,0,0,0,.89,2.625,24.9,24.9,0,0,1,.89,3.088c.3,1.081-.593,2.162-2.224,2.856a7.6,7.6,0,0,1-4.6,1.081,4.695,4.695,0,0,1-4.448-4.246c0-.232.445-.926.445-1.39a9.728,9.728,0,0,1,0-2.084Zm71.017,157.482c10.971,2.47,25.056,4.091,42.254,4.632,14.974.54,24.908.386,29.652-.618a29.044,29.044,0,0,0,8.154-2.47,15.641,15.641,0,0,0,4.6-4.169c3.113-3.474,3.706-7.411,1.927-11.116-1.483-3.319-4.6-5.481-8.9-6.407-2.52-.54-5.93-.232-9.933,1.081a19.925,19.925,0,0,0-8.3,4.786,2.823,2.823,0,0,0-.445,3.86,6.89,6.89,0,0,0,4.744,2.625l6.82,1.544a17.744,17.744,0,0,1,6.672,2.625c1.779.926,2.372,2.393,1.186,3.628a258.943,258.943,0,0,1-28.614.154c-16.16-.618-30.1-2.162-41.068-4.632-11.268-2.548-18.533-5.4-21.943-9.032-2.372-2.239-2.669-4.4-1.186-6.253a22.015,22.015,0,0,1,4.744-4.169c1.483-.772,3.262-1.621,4.893-2.547a14.2,14.2,0,0,0,2.076-1.39c.148-.077.148-.154.3-.309a10.093,10.093,0,0,0-3.262,1c-5.486,2.162-9.785,5.1-12.454,8.414-2.669,3.165-3.262,6.176-1.631,8.955,2.224,4.091,9.044,7.334,19.719,9.8Zm70.572-12.351c-2.669-.926-3.707-1.776-2.965-2.547s2.224-.772,4.6-.386c2.965.849,5.041,2.393,5.93,4.941-3.558-1-6.079-1.7-7.561-2.007ZM117.35,45.911c-.445,0-1.038.772-2.669,2.162-5.189,5.4-7.858,10.344-7.858,15.208,0,4.091,2.076,6.021,6.82,6.021,4.151,0,7.265-2.47,9.34-7.874v-.54c0-.232,0-.232-.445-.232,0,.232-.593.232-.593.54-2.669,2.47-4.744,3.551-6.227,3.551-3.113,0-4.744-1.621-4.744-4.632,0-2.162,1.483-6.253,5.189-11.657C116.757,46.991,117.35,46.219,117.35,45.911Zm34.99,165.278c-.445,0-1.038.772-2.669,2.162-5.189,5.4-7.858,10.344-7.858,15.208,0,4.091,2.076,5.944,6.82,5.944,4.151,0,7.265-2.47,9.34-7.874v-.54c0-.309,0-.309-.445-.309,0,.309-.445.309-.445.54-2.669,2.47-4.744,3.551-6.227,3.551-3.113,0-4.744-1.621-4.744-4.632,0-2.161,1.631-6.253,5.189-11.657A13.965,13.965,0,0,0,152.339,211.189ZM39.958,205.554c4.151,0,7.265-2.47,9.34-7.874v-.54c0-.309,0-.309-.593-.309,0,.309-.445.309-.445.54-2.669,2.47-4.744,3.551-6.227,3.551-3.113,0-4.744-1.621-4.744-4.632,0-2.161,1.631-6.253,5.189-11.657a16.506,16.506,0,0,0,1.038-2.47c-.593,0-1.038.772-2.669,2.162-5.189,5.4-7.858,10.344-7.858,15.208C33.138,203.7,35.213,205.554,39.958,205.554Z" transform="translate(-0.038 0.022)" fill="url(#linear-gradient)"/>
      </g>
    </g>
  </g>
</svg>
