<svg xmlns="http://www.w3.org/2000/svg" xmlns:xlink="http://www.w3.org/1999/xlink" width="350" height="90" viewBox="0 0 350 90">
  <defs>
    <clipPath id="clip-path">
      <path id="Rectangle_14" data-name="Rectangle 14" d="M10,0H340a10,10,0,0,1,10,10V90a0,0,0,0,1,0,0H0a0,0,0,0,1,0,0V10A10,10,0,0,1,10,0Z" transform="translate(1100 555)" fill="#fff"/>
    </clipPath>
    <linearGradient id="linear-gradient" x1="0.5" y1="-0.001" x2="0.5" y2="0.999" gradientUnits="objectBoundingBox">
      <stop offset="0" stop-color="#86764e" stop-opacity="0.2"/>
      <stop offset="1" stop-color="#fff" stop-opacity="0"/>
    </linearGradient>
  </defs>
  <g id="Mask_Group_2" data-name="Mask Group 2" transform="translate(-1100 -555)" clip-path="url(#clip-path)">
    <g id="Layer_2_1_" transform="translate(1091.738 431.044)">
      <g id="Layer_1-2" transform="translate(-181.738)">
        <path id="Path_119" data-name="Path 119" d="M272.964,222.768a2.065,2.065,0,0,0-.559,1.39c.279,0,.838-.695,2.235-2.084.559-.695,2.235-2.316,4.19-4.4a35.343,35.343,0,0,0,3.073-3.242,5.927,5.927,0,0,0,.838-3.011c0-1.621-1.117-2.548-3.352-2.548-.838,0-2.793.695-5.587,1.853-3.911,1.621-7.356,2.547-10.149,3.474a58,58,0,0,1-14.618,1.621c-8.752,0-14.618-1.621-17.691-5.095a45.532,45.532,0,0,1-2.793-6.562c-.838-3.011-1.676-4.4-1.955-4.4-.559,0-.838.463-1.117,1.158a2.667,2.667,0,0,0-.559,1.621,11.12,11.12,0,0,0,1.117,3.474,8.531,8.531,0,0,1,1.117,4.169c0,2.084-1.4,3.011-4.469,3.011a8.828,8.828,0,0,1-2.793-.463,2.115,2.115,0,0,0-1.4-.463c-.838,0-1.955.463-3.631,1.853a8.108,8.108,0,0,0-2.514,4.169c.279.926.559.926,1.117.463,1.676-1.389,3.073-2.084,4.469-2.084a2.124,2.124,0,0,1,1.676.463,5.8,5.8,0,0,0,2.235.463,6.145,6.145,0,0,0,6.145-3.937,2.645,2.645,0,0,0,.279-1.158c3.073,4.863,9.59,7.257,19.367,7.257a73.152,73.152,0,0,0,28.119-6.1,7.092,7.092,0,0,1,2.514-.695,2,2,0,0,1,1.955,1.39,28.319,28.319,0,0,0-3.352,3.011A23.526,23.526,0,0,0,272.964,222.768Zm26.071-12.043c-.372,0-.652.849-1.676,2.161-3.259,5.4-4.935,10.344-4.935,15.208,0,4.091,1.3,6.021,4.283,6.021,2.607,0,4.562-2.47,5.866-7.874v-.54c0-.309,0-.309-.372-.309,0,.309-.372.309-.372.54-1.676,2.47-2.98,3.551-3.911,3.551-1.955,0-2.979-1.621-2.979-4.632,0-2.161,1.024-6.253,3.259-11.657a17.254,17.254,0,0,0,.838-2.47Zm413.684-87.85a7.648,7.648,0,0,0,2.235-2.162,9.87,9.87,0,0,0,1.21-3.937,15.2,15.2,0,0,0,.372-2.007q0-4.979-3.631-6.948a76.112,76.112,0,0,0-9.4-4.091c-4.376-1.776-8.007-3.628-10.615-5.944,2.421.154,3.631,0,4-.309s0-.695-1.21-1.312a8.216,8.216,0,0,1-.838-.309l-7.356-2.933c-.559-.309-.838-.463-1.024-.309s-.186.463-.186.695v3.474a2.116,2.116,0,0,0,.838,1.93,12.968,12.968,0,0,1,1.955,1.158,34.611,34.611,0,0,0,8.38,6.793,74.877,74.877,0,0,0,8.194,3.628A42.885,42.885,0,0,1,713,113.767c1.21.849,1.955,1.467,1.955,2.007a1.276,1.276,0,0,1-.652,1c-1.4,1.158-6.145,3.783-14.153,8.106-8.939,4.941-15.084,7.411-18.156,7.411-2.98,0-5.4-2.007-5.4-4.477v-.463c0-2.316.745-5.481,2.141-9.727a6.934,6.934,0,0,0,.372-1.312c0-.309,0-.309-.186-.309s-.559.463-1.024,1.312a31.428,31.428,0,0,0-2.98,12.583c0,5.481,2.421,8.106,7.356,8.106,2.607,0,8.38-2.316,17.132-7.257A103.641,103.641,0,0,0,712.719,122.876Zm-37.9-78.586a24.528,24.528,0,0,0,2.793,4.632,4.212,4.212,0,0,0,2.886,1.312c2.048.309,3.445.695,4.19.849,2.98,1,5.307,1.7,6.7,2.084A83.442,83.442,0,0,1,688.6,66.522,77.826,77.826,0,0,1,686.09,74.7a13.981,13.981,0,0,0-.745,3.4l.186.232a8.339,8.339,0,0,0,1.769-2.162c4.655-5.867,7.449-13.278,8.1-21.924,2.048.309,4,.618,6.238,1.158.466,6.176.931,10.962,1.955,13.9a28.113,28.113,0,0,0,5.587,10.653q6.005,7.179,11.732,3.937c2.421-1.39,4.469-4.014,6.331-7.72a20.854,20.854,0,0,0,2.793-8.646,16.038,16.038,0,0,0-1.3-4.555,23.838,23.838,0,0,0-2.328-4.555,29.216,29.216,0,0,0-6.8-6.1c-2.979-1.853-7.449-3.4-13.315-4.477-.186-5.79-.279-10.113-.559-13.509a29.539,29.539,0,0,0-1.955-7.951,23.892,23.892,0,0,0-3.911-7.72c-1.3-1.621-2.514-2.162-3.631-1.467-1.676.926-2.886,4.632-4,11.039-.186,7.488-.279,13.355-.466,17.832-2.979-.618-4.842-1.081-4.935-1.312s.838-.772,2.7-1.853c1.21-.695,1.49-1.158,1.4-1.39s-.559-.232-1.769-.463c-2.142,0-5.028-.077-8.845,0a25.468,25.468,0,0,0-6.238.618C673.8,41.819,673.8,42.591,674.824,44.289Zm32.123,11.425a51.466,51.466,0,0,1,16.48,4.091c.372.077.465.926.093,2.316a22.319,22.319,0,0,1-4.19,8.569,15.358,15.358,0,0,1-4.1,4.091c-2.886,1.621-5.028,1.621-6.331.077a1.153,1.153,0,0,1-.279-.772,30.351,30.351,0,0,1-1.862-9.5A40.454,40.454,0,0,1,706.946,55.715ZM698.1,27.924a3.576,3.576,0,0,1,.931-1.081c1.211-.695,2.235,2.239,2.235,8.723.466,6.485.372,10.344.372,11.58a48.638,48.638,0,0,1-5.773-.54c-.093-9.5.838-15.594,2.235-18.682ZM303.225,202.08c.372,0,.652-.309,1.3-1.39.931-1.081,1.676-3.242,2.328-6.253,1.3-7.1,2.98-10.576,4.935-10.576a3.532,3.532,0,0,1,2.328,1.39,3.272,3.272,0,0,0,1.3,1.081c.652,0,1.3-.54,1.676-1.621a4.511,4.511,0,0,0,.372-1.93,3.093,3.093,0,0,0-1.3-2.161,3.618,3.618,0,0,0-2.98-1.93c-1.955,0-3.911,1.621-5.587,5.172a62.187,62.187,0,0,0-2.979,10.576,1.214,1.214,0,0,0-.372.54c0,.309,0,.309-.372,0v-.54a24.2,24.2,0,0,0-4.283-9.8,8.342,8.342,0,0,0-6.518-3.551c-.372,0-1.024.54-1.955,2.162a12.379,12.379,0,0,0-1.676,2.47c0,.54.652,1.39,1.955,2.162a4.9,4.9,0,0,0,2.979,1.39c.652,0,.931,0,.931-.309a1.675,1.675,0,0,1,1.024-.54c1.024,0,1.955,1.93,3.631,5.4s2.607,5.713,2.607,7.1C302.573,201.848,302.946,202.08,303.225,202.08Zm73.463,39.37c-.186,0-.372.154-.372.463l-2.421,3.783v.463a60.823,60.823,0,0,1,5.587,3.165c.186.154.372,0,.745-.309,1.583-2.007,2.235-3.474,2.235-4.169a11.269,11.269,0,0,0-2.607-1.776,34.82,34.82,0,0,0-3.166-1.621ZM280.506,127.971a8.342,8.342,0,0,0-6.518-3.551c-.372,0-1.024.54-1.955,2.162a12.381,12.381,0,0,0-1.676,2.47c0,.54.652,1.39,1.955,2.161a4.9,4.9,0,0,0,2.98,1.39c.652,0,.931,0,.931-.309a1.674,1.674,0,0,1,1.024-.54c.931,0,1.955,1.93,3.631,5.4s2.607,5.713,2.607,7.025c0,.849.372,1.081.652,1.081s.652-.309,1.3-1.39c.931-1.081,1.676-3.242,2.328-6.253,1.3-7.025,2.979-10.576,4.935-10.576a3.532,3.532,0,0,1,2.328,1.39,2.745,2.745,0,0,0,1.3,1.081c.652,0,1.3-.54,1.676-1.621a4.512,4.512,0,0,0,.372-1.93,3.093,3.093,0,0,0-1.3-2.162,3.619,3.619,0,0,0-2.98-1.93c-1.955,0-3.911,1.621-5.587,5.172a62.2,62.2,0,0,0-2.979,10.576,1.214,1.214,0,0,0-.372.54c0,.309,0,.309-.372,0v-.54C283.765,133.683,282.462,130.364,280.506,127.971Zm-55.214,25.243c-.279,0-.652.849-1.676,2.161-3.259,5.4-4.935,10.344-4.935,15.208,0,4.091,1.3,5.944,4.283,5.944,2.607,0,4.562-2.47,5.866-7.874v-.54c0-.309,0-.309-.279-.309,0,.309-.372.309-.372.54-1.676,2.47-2.98,3.551-3.911,3.551-1.955,0-2.98-1.621-2.98-4.632,0-2.162,1.024-6.253,3.259-11.657A12.813,12.813,0,0,0,225.292,153.214Zm459.587-2.856c-.186,0-.372.154-.372.463l-2.421,3.783v.463a60.827,60.827,0,0,1,5.587,3.165c.186.154.372,0,.745-.309,1.583-2.007,2.235-3.474,2.235-4.169a11.273,11.273,0,0,0-2.607-1.776c-1.955-1.081-2.793-1.621-3.166-1.621ZM468.587,201.539c-.372,0-.652.849-1.676,2.161-3.259,5.4-4.935,10.344-4.935,15.208,0,4.091,1.3,5.944,4.283,5.944,2.607,0,4.562-2.47,5.866-7.874v-.54c0-.309,0-.309-.372-.309,0,.309-.372.309-.372.54-1.676,2.47-2.98,3.551-3.911,3.551-1.955,0-2.979-1.621-2.979-4.632,0-2.161,1.024-6.253,3.259-11.657A17.814,17.814,0,0,0,468.587,201.539Zm-14.246-75.421a5.2,5.2,0,0,0,1.769,1.544c6.145,3.4,10.056,6.716,11.918,9.727.745,1.158-.093,3.783-2.607,8.26a62.018,62.018,0,0,1-10.708,13.818,55.577,55.577,0,0,1-17.5,12.2c-7.169,3.088-13.687,3.4-19.646,1.158a18.442,18.442,0,0,1-10.056-7.565c-.372-.695-1.769-4.014-4.1-10.113-.186-.772-.559-1.235-.931-1.081-.186.077-.372.618-.186,1.312a29.776,29.776,0,0,0,2.142,7.411,21.591,21.591,0,0,0,2.607,4.941c3.445,5.4,7.542,9.264,12.477,11.348,6.611,2.933,14.059,2.7,21.974-.695,7.728-3.319,14.525-8.955,20.577-16.6,4.842-6.253,8.194-11.888,9.311-16.752,1.117-3.4-.466-8.337-4.655-14.9a23.582,23.582,0,0,0,3.352-1.081c4.562-2.007,6.983-5.713,7.263-11.271q5.168,2.779,8.38,1.39a7.368,7.368,0,0,0,4.842-6.716,13.352,13.352,0,0,0-2.514-7.951,9.12,9.12,0,0,0-4.376-3.783c-.745-.309-1.024-.386-1.21-.309-.372.154-.372.618-.186,1.312a33.4,33.4,0,0,0,1.49,5.172l3.352,1.7c-.093,1.081-.931,2.084-2.7,2.856a6.354,6.354,0,0,1-4.469.463,4.085,4.085,0,0,1-2.98-1.467c.093.154,0-.849-.838-3.011.093-.232,0-.386-.186-.772a.765.765,0,0,0-1.024-.386,1.319,1.319,0,0,0-.745,1.158c-.279,2.393-.559,4.632-.838,7.025a9.248,9.248,0,0,1-5.959,6.948,12.352,12.352,0,0,1-8.007.926,16.431,16.431,0,0,1-4.655-2.162c-.931-.618-1.49-.772-1.676-.695s-.186.463-.093,1.081a15.606,15.606,0,0,0,1.4,5.558ZM474.173,187.1a4.543,4.543,0,0,0-1.769-4.014,7.549,7.549,0,0,0-1.769,2.239c-.931,1.081-1.3,1.853-.931,2.239a15.758,15.758,0,0,0,.931,2.933c-.466.386-.466.386-.931.386-4.842,0-6.611-.386-6.238-1.081a13.725,13.725,0,0,0,.931-3.319c0-.386,0-.772-.466-.772s-1.3.772-2.235,1.467c-.931,1.467-2.235,2.933-3.073,4.4a8.483,8.483,0,0,1-5.307,1.853,11.1,11.1,0,0,1-4.469-.772,22.594,22.594,0,0,0-4-.695,23.975,23.975,0,0,0-12.849,4.014,61.324,61.324,0,0,0-10.149,7.72c-4.469,4.4-7.542,7.334-10.149,9.572-4.842,2.933-8.38,5.172-10.614,6.253a36.235,36.235,0,0,0-4,1.853c0,.386,0,.386.466.386a29.859,29.859,0,0,0,5.773-1.467c2.7-.386,5.307-1.853,8.007-3.319l13.315-11.039c6.238-4.786,12.383-6.948,18.156-6.948a13.655,13.655,0,0,1,3.538.772,32.773,32.773,0,0,0,4,.772c3.538,0,7.076-1.853,10.614-4.786,4.469,1.853,7.542,1.853,9.776.772a9.906,9.906,0,0,0,2.235-3.705,14.553,14.553,0,0,0,1.21-5.713Zm-89.757,29.489c0-1.7-1.21-2.7-3.538-2.7-.931,0-2.98.695-6.145,1.93a93.986,93.986,0,0,1-10.335,3.628,62.07,62.07,0,0,1-15.642,1.7,36.345,36.345,0,0,1-13.873-2.7,34.059,34.059,0,0,1-4.376-2.47,12.212,12.212,0,0,0-1.769-1c-.838,0-1.49,1-1.769,2.933a51.787,51.787,0,0,0,3.818,4.863,15.387,15.387,0,0,1,1.21,5.4v1.467c.279,0,.559-.463.931-1.235,1.21-2.47,1.21-4.4.559-5.867a37.772,37.772,0,0,0,14.153,2.7c9.4,0,19.087-2.239,29.422-6.33a4.988,4.988,0,0,1,2.607-.695,2.012,2.012,0,0,1,2.048,1.467c-1.21,1-2.421,2.084-3.538,3.165a18.113,18.113,0,0,0-4.376,5.635,4.113,4.113,0,0,0-.559,1.467h.279a15.736,15.736,0,0,0,2.048-2.162,50.584,50.584,0,0,1,4.749-4.632c1.117-1.081,2.235-2.239,3.259-3.4a6.073,6.073,0,0,0,.838-3.165Zm-138.36-53.961a53.5,53.5,0,0,0-6.145,2.933,9.755,9.755,0,0,0-1.024.695c0,.154.559,0,1.583-.154,5.587-1.312,9.125-2.162,10.149-2.779a24.831,24.831,0,0,0,4.935-4.477c1.583-1.776,2.421-2.933,2.421-3.474,0-1.312-3.352-1.853-9.963-1.853a20.728,20.728,0,0,0-3.817.154,4.772,4.772,0,0,0-3.352,1.621l-1.955,2.779c-.372.463-.559.618-.559.695s.559.309,1.583.154h3.352c5.773,0,8.566.309,8.566.849,0,.154,0,.154-.186.309a57.745,57.745,0,0,1-5.587,2.548Zm52.886-97.886c-.372,0-.652.849-1.676,2.162-3.259,5.4-4.935,10.344-4.935,15.208,0,4.091,1.3,5.944,4.283,5.944,2.607,0,4.562-2.47,5.866-7.874v-.54c0-.232,0-.232-.372-.232,0,.232-.372.232-.372.54-1.676,2.47-2.979,3.551-3.911,3.551-1.955,0-2.98-1.621-2.98-4.632,0-2.162,1.024-6.253,3.259-11.657a6.906,6.906,0,0,0,.838-2.47ZM262.629,81.5a7.714,7.714,0,0,0,.745-2.47v-.386c-.466,0-.931.772-1.955,2.239a24.893,24.893,0,0,0-4.376,14.436,16.487,16.487,0,0,0,4.655,12.043c4.655,4.477,12.29,6.948,22.626,6.948,9.776,0,22.346-2.007,37.337-6.33,2.421-.618,9.59-2.856,21.6-6.716,5.4-1.621,8.845-2.47,10.8-2.47,1.21,0,1.955.232,1.955.849,0,.849-1.955,3.011-6.145,6.948-4.376,4.246-7.356,7.951-8.566,11.194a30.308,30.308,0,0,0-1.21,4.091c0,.077.093.232.186.232h0c.279,0,1.21-1.39,2.979-4.246a30.231,30.231,0,0,1,4.655-5.327c1.49-1.467,3.166-3.088,4.656-4.477,2.979-3.088,4.655-4.863,5.121-5.481,2.421-2.856,3.445-5.327,3.445-7.334,0-2.856-1.676-4.246-5.68-4.246A32.6,32.6,0,0,0,345.869,93c-3.911,1.39-7.821,2.856-11.825,4.091a161.818,161.818,0,0,1-21.136,5.867,113.486,113.486,0,0,1-24.581,3.088c-10.8,0-18.622-1.853-23.836-5.327-3.445-2.239-5.121-4.863-5.121-7.951a17.264,17.264,0,0,1,1.024-6.485c.838-1.7,1.583-3.165,2.235-4.786ZM688.418,11.867C690,9.86,690.652,8.393,690.652,7.7a11.273,11.273,0,0,0-2.607-1.776c-1.955-1-2.793-1.621-3.166-1.621-.186,0-.372.154-.372.463l-2.421,3.783V9.01a60.819,60.819,0,0,1,5.587,3.165C687.859,12.33,688.045,12.176,688.418,11.867ZM348.476,136.694c-9.776,3.474-15.177,5.327-16.294,5.79-2.421.849-3.724,1.467-3.724,1.621s0,.154.186.154a27.751,27.751,0,0,0,3.538-.463c1.769-.154,6.145-1,13.315-2.47,6.611-1.312,9.963-2.007,10.149-2.007,1.4,0,5.4-1.621,12.384-4.941,8.007-3.783,13.78-7.411,17.132-10.576a15.272,15.272,0,0,0,3.631-4.941,20.852,20.852,0,0,0,2.421-4.941q7.821,6.253,12.57,6.253a3.49,3.49,0,0,0,2.607-1.853,12.021,12.021,0,0,0,1.769-3.783,6.271,6.271,0,0,0,.186-1.853,9.569,9.569,0,0,0-1.4-5.481,5.7,5.7,0,0,0-4.935-2.933c-2.607,0-5.214,1.467-8.007,4.477a1.858,1.858,0,0,0-.838-.309c-.559,0-.838.309-1.21.695-.372.618-1.024,1.853-2.328,3.937a37.781,37.781,0,0,1-2.421,4.091c-2.793,3.474-10.149,7.72-21.694,12.892C361.046,132.062,355.459,134.224,348.476,136.694Zm49.813-26.633a7.27,7.27,0,0,1,2.235-.618,3.822,3.822,0,0,1,2.421,1.158,4.119,4.119,0,0,1,1.21,2.316c.186.849,0,1.312-.372,1.312a14.093,14.093,0,0,1-3.538-1.467,22.346,22.346,0,0,1-3.538-2.007c.186-.154.745-.309,1.583-.695Zm70.3-54.424c-.372,0-.652.849-1.676,2.162-3.259,5.4-4.935,10.344-4.935,15.208,0,4.091,1.3,5.944,4.283,5.944,2.607,0,4.562-2.47,5.866-7.874v-.54c0-.232,0-.232-.372-.232,0,.232-.372.232-.372.54-1.676,2.47-2.98,3.551-3.911,3.551-1.955,0-2.979-1.621-2.979-4.632,0-2.162,1.024-6.253,3.259-11.657.466-1.467.838-2.239.838-2.47ZM317.377,126.2a53.5,53.5,0,0,0-6.145,2.933,9.761,9.761,0,0,0-1.024.695c0,.154.559,0,1.583-.154,5.587-1.312,9.125-2.162,10.149-2.779a24.83,24.83,0,0,0,4.935-4.477c1.583-1.776,2.421-2.933,2.421-3.474,0-1.312-3.352-1.853-9.963-1.853a20.729,20.729,0,0,0-3.818.154,4.772,4.772,0,0,0-3.352,1.621l-1.955,2.779c-.372.463-.559.618-.559.695s.559.309,1.583.154h3.352c5.773,0,8.566.309,8.566.849,0,.154,0,.154-.186.309A57.736,57.736,0,0,1,317.377,126.2Zm62.756-23.159c1.583-2.007,2.235-3.474,2.235-4.169a11.271,11.271,0,0,0-2.607-1.776c-1.955-1-2.793-1.621-3.166-1.621-.186,0-.372.154-.372.463L373.8,99.717v.463a60.8,60.8,0,0,1,5.587,3.165c.279.154.466,0,.745-.309ZM230.786,69.61a8.342,8.342,0,0,0-6.518-3.551c-.372,0-1.024.54-1.955,2.162a15.082,15.082,0,0,0-1.676,2.47c0,.54.652,1.39,1.955,2.162a4.9,4.9,0,0,0,2.979,1.39c.652,0,1.024,0,1.024-.309.372-.232.652-.54,1.024-.54.931,0,1.955,1.93,3.631,5.4s2.607,5.713,2.607,7.1c0,.849.372,1.081.652,1.081s.652-.232,1.3-1.39c1.024-1.081,1.676-3.242,2.328-6.253,1.3-7.025,2.98-10.576,4.935-10.576a3.532,3.532,0,0,1,2.328,1.39,2.745,2.745,0,0,0,1.3,1.081c.652,0,1.3-.54,1.676-1.621a4.512,4.512,0,0,0,.372-1.93,3.093,3.093,0,0,0-1.3-2.162,3.618,3.618,0,0,0-2.979-1.93c-1.955,0-3.911,1.621-5.587,5.172a62.191,62.191,0,0,0-2.979,10.576,1.214,1.214,0,0,0-.372.54c0,.232,0,.232-.372,0v-.54A25.725,25.725,0,0,0,230.786,69.61Zm17.039,50.873c-2.793,2.779-4.376,5.327-4.376,7.8,0,1.853.745,2.779,2.141,2.779a4.214,4.214,0,0,0,2.979-1.467,5.162,5.162,0,0,0,1.21-2.007,12.418,12.418,0,0,0,2.793,1.776,32.045,32.045,0,0,1-7.542,4.632c-2.793,1.467-5.587,2.779-8.38,4.169-.745.309-1.024.618-1.024.695h.186a2.148,2.148,0,0,0,1.21-.309c3.631-1.158,5.773-1.776,6.331-1.853,2.048-.926,4-1.93,5.959-3.011a20.408,20.408,0,0,0,4.562-3.937,5.518,5.518,0,0,1,2.141,1.467c1.024-1.158,1.583-2.007,1.583-2.625a18.388,18.388,0,0,0-2.141-1.312,12.307,12.307,0,0,0,.745-4.091,10.309,10.309,0,0,0,3.817-6.253v-.618c0-.849-.559-1.312-1.769-1.312a13.767,13.767,0,0,0-4.749,1.621A22.67,22.67,0,0,0,247.825,120.483Zm6.145,6.253c-1.769-.695-2.607-1.312-2.607-1.776,0-.154.186-.309.652-.54a5.418,5.418,0,0,1,1.024-.309c.559,0,.838.309,1.024.849A2.353,2.353,0,0,1,253.97,126.736Zm4.19-7.72c0,.695-.838,1.853-2.421,3.319a1.172,1.172,0,0,0-.838-.695,5.009,5.009,0,0,0-3.538,1.158,5.185,5.185,0,0,0-2.141,3.474,1.746,1.746,0,0,1-.838,1.621,3.385,3.385,0,0,1-2.235.618c-.745,0-1.21-.463-1.21-1.467,0-1.467,1.21-3.165,3.538-5.249a22.973,22.973,0,0,1,4.749-3.011,9.63,9.63,0,0,1,3.631-1,1.1,1.1,0,0,1,1.3,1.235Zm39.292,46.4c1.49-1.312,2.328-2.316,2.142-2.7-.093-.232-.559,0-1.3.309a18.677,18.677,0,0,0-2.235,1.081c-4.1,2.316-10.335,5.249-18.9,9.109-6.7,3.165-12.2,5.558-16.108,7.1-13.408,5.327-24.86,6.793-33.985,4.246a26.774,26.774,0,0,1-16.48-12.815c-3.538-6.176-3.631-13.664-.279-22.31,2.328-6.33,6.611-13.741,12.663-22,3.817-4.786,7.821-9.727,11.732-14.745a6.057,6.057,0,0,0,1.024-2.779l.372-5.79a1.33,1.33,0,0,0-.186-1.312.555.555,0,0,0-.652-.232,4.355,4.355,0,0,0-1.21.926c-3.631,4.555-7.076,8.955-10.894,13.278s-7.262,7.1-10.056,8.183a27.558,27.558,0,0,1-20.019.386c-5.028-1.776-8.473-3.937-10.8-6.871,1.21-2.393,3.631-5.018,7.263-7.642a60.334,60.334,0,0,1,11.825-6.562,40.965,40.965,0,0,1,10.614-2.316,6.29,6.29,0,0,0,2.421-.232c.466-.154.559-.463.466-.695s-.838-.386-2.048-.618a37.15,37.15,0,0,0-21.881,1.544,22.363,22.363,0,0,0-11.08,8.878,11.837,11.837,0,0,0-.279,12.815c2.421,4.246,6.8,7.411,13.222,9.65a36.72,36.72,0,0,0,16.667,1.7c-7.635,14.359-7.169,28.563,1.21,43.153,9.963,17.292,28.212,20.457,55.4,9.727a53.975,53.975,0,0,0,8.845-4.477c12.57-10.036,20.112-15.825,22.532-17.987Zm-104,22.927a1.023,1.023,0,0,0-.559.309l-1.769,3.165a24.911,24.911,0,0,0-3.166-1.853,14.069,14.069,0,0,0-2.421-1.312q-.279,0-.559.463l-2.235,3.783a.243.243,0,0,0-.093.386l.093.077a56.531,56.531,0,0,1,5.4,3.011c.372.154.559.154.745-.154a23.22,23.22,0,0,0,1.955-3.165c1.955,1.158,3.818,2.162,5.214,3.011.372.154.559.154.652-.154,1.583-2.161,2.421-3.474,2.421-4.169a16.209,16.209,0,0,0-2.793-1.853A7.652,7.652,0,0,0,193.449,188.339ZM211.7,88.06c1.583-2.007,2.235-3.474,2.235-4.169a11.273,11.273,0,0,0-2.607-1.776c-1.955-1-2.793-1.621-3.166-1.621-.186,0-.372.154-.372.463l-2.421,3.783V85.2a60.809,60.809,0,0,1,5.587,3.165C211.233,88.523,211.326,88.369,211.7,88.06Zm-3.445,138.414c-.186,0-.372.154-.372.463l-2.421,3.783v.463a60.8,60.8,0,0,1,5.587,3.165c.186.154.372,0,.745-.309,1.583-2.007,2.235-3.474,2.235-4.246a11.269,11.269,0,0,0-2.607-1.776c-1.955-.926-2.886-1.467-3.166-1.544Zm-35.381-73.646c-.186,0-.372.154-.372.463l-2.421,3.783v.463a60.816,60.816,0,0,1,5.587,3.165c.186.154.372,0,.745-.309,1.583-2.007,2.235-3.474,2.235-4.169a11.272,11.272,0,0,0-2.607-1.776c-1.955-.926-2.793-1.544-3.166-1.621ZM718.213,30.162c2.607,0,4.562-2.47,5.866-7.874v-.618c0-.309,0-.309-.373-.309,0,.309-.279.309-.279.54-1.676,2.47-2.979,3.551-3.911,3.551-1.955,0-2.979-1.621-2.979-4.632,0-2.162,1.024-6.253,3.259-11.657a22.915,22.915,0,0,0,.652-2.47c-.279,0-.652.849-1.676,2.162-3.259,5.4-4.935,10.344-4.935,15.208C714.023,28.232,715.326,30.162,718.213,30.162ZM536.836,127.43c-.279,0-.652.849-1.676,2.162-3.259,5.4-4.935,10.344-4.935,15.208,0,4.091,1.3,6.021,4.283,6.021,2.607,0,4.562-2.47,5.866-7.874v-.54c0-.309,0-.309-.372-.309,0,.309-.279.309-.279.54-1.676,2.47-2.979,3.551-3.911,3.551-1.955,0-2.98-1.621-2.98-4.632,0-2.161.931-6.253,3.259-11.657A17.338,17.338,0,0,0,536.836,127.43ZM569.983,43.9c1.583-2.007,2.235-3.474,2.235-4.169a11.269,11.269,0,0,0-2.607-1.776c-1.955-1-2.793-1.621-3.166-1.621-.186,0-.372.154-.372.463l-2.421,3.783v.386a60.816,60.816,0,0,1,5.586,3.165C569.424,44.289,569.61,44.212,569.983,43.9Zm-72.532,1.776a7.225,7.225,0,0,0-5.68-3.088s-.559.695-1.4,1.776a6.058,6.058,0,0,0-1.3,2.007c0,.695.559,1.081,1.3,2.007a5.108,5.108,0,0,0,2.421,1.081c.838,0,1.117-.232,1.117-.463a1.481,1.481,0,0,1,.838-.232c.559,0,1.583,1.312,2.7,4.014a31.741,31.741,0,0,1,2.7,6.253c-1.583.695-2.7,2.47-3.259,5.79,0,.695,0,.926.279.926a14.517,14.517,0,0,0,1.117-1.081c.838-.926,1.3-1.312,1.862-1.312a4.7,4.7,0,0,1,2.7,1.312,11.363,11.363,0,0,0-4.562,1.544c-1.862,1.081-2.7,2.933-2.7,5.327,0,.695.838,3.551,1.862,8.492a49.184,49.184,0,0,1,1.862,12.737,17.309,17.309,0,0,0,.279,3.088c.279,0,.279-.232.559-.926a19.169,19.169,0,0,0,.838-5.558,51.689,51.689,0,0,0-3.724-18.3c.838-.926,2.421-1.544,4.562-2.239a41.252,41.252,0,0,1,5.4-1.081,7.419,7.419,0,0,0,1.117-1.776,6.42,6.42,0,0,0,.838-1.776c0-.926-1.117-2.007-2.979-3.319a17.862,17.862,0,0,0-4.562-2.007,19.3,19.3,0,0,0,1.862-5.327c1.117-5.558,2.421-8.492,4-8.492.559,0,1.117.463,1.862.926a4.384,4.384,0,0,0,1.117,1.081c.559,0,.838-.463,1.4-1.312a14.626,14.626,0,0,1,.279-1.544,3.039,3.039,0,0,0-1.117-2.007,3.372,3.372,0,0,0-2.7-1.312c-1.583,0-2.98,1.312-4.283,4.014a58.306,58.306,0,0,0-2.421,8.723,1.109,1.109,0,0,0-.279.695H500.8V53.63a20.256,20.256,0,0,0-3.352-7.951ZM656.481,105.2a2.959,2.959,0,0,0-2.421.849c-1.117.849-1.117,2.239-.559,4.014a7.187,7.187,0,0,0-1.583,4.4c0,1.776,1.862,2.856,5.587,3.319a18.429,18.429,0,0,1-5.307,4.169c-1.583.849-3.259,2.007-4.842,2.856a5.811,5.811,0,0,0-2.979,4.863c0,1.776,1.583,2.625,5.028,2.625a31.619,31.619,0,0,0,9.311-1.544,19.591,19.591,0,0,0,5.587-2.007c2.141-1.312,3.259-2.007,3.259-2.239a2.9,2.9,0,0,0-1.117.232c-5.866,1.081-9.59,1.776-11.173,2.007a26.606,26.606,0,0,1-8.566-.232.734.734,0,0,1-.838-.463v-.154c0-.232.559-.695,1.3-.849a25.261,25.261,0,0,0,6.7-3.551A16.665,16.665,0,0,0,659,118.167a50.018,50.018,0,0,1,6.238.849c.745,0,1.3-.695,2.048-2.007a6.255,6.255,0,0,0,1.117-3.319,1.109,1.109,0,0,0-.279-.695c-1.3-2.856-4.283-5.327-8.566-7.1A7.62,7.62,0,0,0,656.481,105.2Zm2.328,9.727c-3.259-.463-5.121-1.081-5.121-1.776,0-.463.559-.849,1.3-1.544a3.059,3.059,0,0,1,1.862-1.081c.838,0,1.3.463,1.583,1.544a2.889,2.889,0,0,1,.372,2.856Zm2.421-3.783a9.9,9.9,0,0,1,4.842,3.783c.279.463.279.695,0,.849h-.279q-4.748-.695-5.028-.695a17.772,17.772,0,0,0,.466-3.937ZM545.495,163.327a62.09,62.09,0,0,0-6.145,2.933,9.755,9.755,0,0,0-1.024.695c0,.154.559,0,1.583-.154,5.586-1.312,9.125-2.161,10.149-2.779a24.834,24.834,0,0,0,4.935-4.477c1.583-1.776,2.421-2.934,2.421-3.474,0-1.312-3.352-1.853-9.963-1.853a20.729,20.729,0,0,0-3.818.154,4.772,4.772,0,0,0-3.352,1.621l-1.955,2.779c-.372.463-.559.618-.559.695s.559.309,1.583.154H542.7c5.773,0,8.566.309,8.566.849,0,.154,0,.154-.186.309A57.776,57.776,0,0,1,545.495,163.327Zm-35.288-42.3a4.467,4.467,0,0,0-2.142,3.474c0,1,1.024,2.007,3.352,3.011a31.44,31.44,0,0,1-7.728,4.632c-2.793,1.467-5.587,2.779-8.38,4.169-.745.309-.838.618-.838.695a2.148,2.148,0,0,0,1.21-.309c3.817-1.158,5.959-1.776,6.331-1.853a41.8,41.8,0,0,0,5.959-3.088,17.913,17.913,0,0,0,4.749-3.937c1.024.618,1.583.849,1.583,1.158,0,0-.372.849-1.024,2.625a13.141,13.141,0,0,0-1.024,4.169c0,2.162.652,3.165,2.235,3.165,1.4,0,2.421-1.467,3.166-4.323V134.3h-.186a.384.384,0,0,0-.186.309c-.838,1.158-1.583,1.776-2.048,1.776-1.024,0-1.583-.695-1.583-2.316a12.612,12.612,0,0,1,1.769-5.635,2.2,2.2,0,0,0,.372-1.312c0-.618-.559-1.158-1.583-1.776a8.658,8.658,0,0,0,.652-3.474c0-1.158-.372-1.853-1.024-2.162a5.937,5.937,0,0,0-3.631,1.312Zm2.421,3.937c-1.769-.695-2.607-1.312-2.607-1.776,0-.154.372-.309.745-.618a5.174,5.174,0,0,1,1.024-.309c.559,0,.838.309,1.024.849a2.156,2.156,0,0,1-.186,1.853ZM481.25,226.783c-.186,0-.372.154-.372.463l-2.514,3.783v.463a60.8,60.8,0,0,1,5.586,3.165c.186.154.372,0,.745-.309,1.583-2.007,2.235-3.474,2.235-4.169a11.27,11.27,0,0,0-2.607-1.776c-1.769-1.081-2.7-1.7-3.073-1.621Zm0-145.979c-.186,0-.372.154-.372.463l-2.421,3.705v.463a60.805,60.805,0,0,1,5.587,3.165c.186.154.372,0,.745-.309,1.583-2.007,2.235-3.474,2.235-4.169a11.273,11.273,0,0,0-2.607-1.776A14.287,14.287,0,0,0,481.25,80.8Zm40.316,1.544a34.066,34.066,0,0,1-4.376-2.47,12.21,12.21,0,0,0-1.769-1c-.931,0-1.49,1-1.769,2.933a51.822,51.822,0,0,0,3.817,4.863,13.582,13.582,0,0,1,1.21,5.4v1.467c.279,0,.559-.463.931-1.235a7.223,7.223,0,0,0,.559-5.867,40.067,40.067,0,0,0,14.153,2.625c9.4,0,19.087-2.162,29.422-6.33a5.051,5.051,0,0,1,2.607-.772,2.012,2.012,0,0,1,2.048,1.467c-1.21,1-2.421,2.084-3.538,3.165a18.115,18.115,0,0,0-4.376,5.635,4.113,4.113,0,0,0-.558,1.467h.279a15.735,15.735,0,0,0,2.048-2.162A59.754,59.754,0,0,1,566.91,86.9a39.357,39.357,0,0,0,3.259-3.4,7.83,7.83,0,0,0,.931-3.165c0-1.7-1.21-2.7-3.538-2.7-.931,0-2.979.772-6.145,1.93q-5.028,2.084-10.335,3.705a62.539,62.539,0,0,1-15.642,1.7,38.561,38.561,0,0,1-13.873-2.625Zm-6.331,65.617a2.548,2.548,0,0,1,2.048,1c.559.695,1.21,1.235,1.49,1.235s.931-.463,1.211-1.467a3.633,3.633,0,0,0,.279-1.7,3.7,3.7,0,0,0-1.21-2.239,3.527,3.527,0,0,0-2.607-1.467c-1.769,0-3.538,1.467-5.028,4.4a56.705,56.705,0,0,0-2.607,9.572,1.109,1.109,0,0,0-.279.695h-.279v-.695a18.25,18.25,0,0,0-3.817-8.569c-1.769-2.239-3.818-3.4-5.866-3.4-.279,0-.931.695-1.769,1.93a10.063,10.063,0,0,0-1.49,2.239c0,.463.559,1.235,1.769,2.239a6.336,6.336,0,0,0,2.607,1.235,1.642,1.642,0,0,0,1.21-.463c0-.232.279-.232.559-.232.838,0,1.769,1.467,3.259,4.632,1.769,3.165,2.328,5.4,2.328,6.33a3.276,3.276,0,0,0,.186.926c-.279.309-.652.618-1.117,1.081-1.21,1.467-3.259,2.7-5.587,4.4-9.776,5.172-17.132,9.032-22.439,11.5-1.21.463-1.769,1-1.769,1.235h.279a4.629,4.629,0,0,0,2.048-.463c6.518-1.93,9.777-2.933,10.614-3.165q5.168-2.316,10.056-5.1c3.817-2.47,6.8-4.863,7.914-7.565.652-1.158,1.024-2.007,1.3-2.47l.186-.232c.931-1.235,1.49-3.165,2.048-5.867,1.49-6.407,2.979-9.572,4.469-9.572Zm31.936-41.609c-1.49,1.776-1.3,3.705.931,5.867,1.676,1.776,5.214,4.4,10.8,7.72,1.4.849,9.777,4.786,25.326,12.274,15.456,7.257,24.3,11.657,26.815,13.2a33.228,33.228,0,0,1,8.659,6.948A9.578,9.578,0,0,1,621.472,159c.093.618-.279.772-.652.463-3.166-1.544-16.294-7.8-39.571-18.682-20.95-9.881-33.8-16.134-38.827-19.068a102.718,102.718,0,0,1-16.2-11.657c-2.421-2.393-4.842-4.863-7.356-7.411a23.594,23.594,0,0,0-2.048-1.93c-.186-.077-.186-.077-.279,0s.186.772.838,2.239c1.769,4.632,3.166,7.951,4.1,10.113s3.259,4.477,6.518,6.948c1.769,1.235,4.655,3.088,8.566,5.481,4.655,2.779,18.063,9.186,39.851,19.376,13.594,6.176,27.188,12.583,40.782,18.682a3.642,3.642,0,0,0,1.3.463,12.438,12.438,0,0,0,3.259-1.158c1.4.772,2.7,1.467,4,2.316.186.154.372,0,.745-.309,1.583-2.007,2.235-3.474,2.235-4.169a10.372,10.372,0,0,0-2.514-1.7c1.3-2.47,1.117-5.327-.745-8.492a25.6,25.6,0,0,0-9.5-9.109c-3.445-2.007-11.825-6.176-25.512-12.583s-22.812-11.039-27.653-13.9a42.7,42.7,0,0,1-9.218-6.793c-1.583-1.621-2.141-2.7-1.583-3.4.186-.232,2.141-.695,5.68-1.081a130.143,130.143,0,0,1,15.549-.926,59.689,59.689,0,0,1,10.521.772c3.911.54,6.238,1,7.356,1.7a2.667,2.667,0,0,1,1.49,2.007c0,.695.093,1.158.279,1.235.279.154.838,0,2.048-.618a16.582,16.582,0,0,0,2.607-1.467,1.85,1.85,0,0,0,.838-.772c1.117-1.312.745-2.625-1.49-3.937-2.793-1.7-9.032-2.7-18.436-2.779-9.311-.232-16.294.386-21.136,1.776s-8.38,3.551-10.149,5.713ZM659.926,84.818c-2.141,0-4.19.849-7.356,2.933-2.142,2.007-4.19,3.783-6.331,5.558-3.538,0-5.307,0-4.935-.309a23.967,23.967,0,0,0-8.752,3.474,48.665,48.665,0,0,0-8.1,6.1c-3.538,3.474-5.959,6.1-8.1,7.565-3.911,2.316-6.7,4.091-8.38,4.941-1.117.463-2.142.926-3.166,1.467,0,.309,0,.309.372.309a22.98,22.98,0,0,0,4.562-1.158,20.082,20.082,0,0,0,6.331-2.625c3.538-2.933,6.983-5.79,10.521-9.032,4.935-3.783,9.777-5.558,14.432-5.558a11.48,11.48,0,0,1,2.793.309,14.136,14.136,0,0,0,3.166.54A23.145,23.145,0,0,0,658.9,96.166c3.538-2.316,5.214-4.941,5.307-7.874-.093-2.393-1.49-3.551-4.283-3.474Zm-2.793,7.565A25.594,25.594,0,0,1,649.4,93.85h-1.4c4.19-3.474,7.728-5.249,9.777-5.249s3.538.309,3.818,1.467c-.652.772-2.049,1.39-4.469,2.316Zm-25.14,89.162a10.068,10.068,0,0,0,.838-4.014,7.86,7.86,0,0,0-.838-2.856c-1.117-2.162-1.676-3.319-1.676-3.319a10.479,10.479,0,0,0-.559-2.316c0-.463,0-.926-.279-.926a4.331,4.331,0,0,1-.838.926,3.606,3.606,0,0,0-.838,2.316c0,1.853,1.117,4.246,3.445,7.334a2,2,0,0,1-1.955,1.39c-2.514,0-4-1.39-4-4.014a18.262,18.262,0,0,0-.838-4.477c-.279-1.853-.838-2.856-1.117-2.856s-.559.232-.838.926a1.872,1.872,0,0,0-.559,1.621,6.657,6.657,0,0,0,.559,2.625c.279,1.621.559,2.625.559,3.088a2.912,2.912,0,0,1-1.4,2.856A3.344,3.344,0,0,1,618.865,181c-.838,0-1.4-.463-1.955-1.39a5.205,5.205,0,0,1-.838-2.856c0-.232.279-.926.279-1.39a5.177,5.177,0,0,0,.279-2.393c0-1.621-.279-2.625-.838-2.625-.279,0-.838.463-1.676,1.158a3.493,3.493,0,0,0-1.4,2.625c0,.463.279.695.838.926s.838.232.838.695v3.783a7.011,7.011,0,0,0,1.117,4.246,4.2,4.2,0,0,0,2.886,1.081c2.793,0,4.562-1.621,5.68-4.709.838,2.393,2.514,3.783,4.842,3.783.838.154,1.955-.772,3.073-2.393ZM592.236,35.8c-.279,0-.652.849-1.676,2.162-3.259,5.4-4.935,10.344-4.935,15.208,0,4.091,1.3,5.944,4.283,5.944,2.607,0,4.562-2.47,5.866-7.874V50.7c0-.232,0-.232-.279-.232,0,.232-.279.232-.279.54-1.676,2.47-2.98,3.551-3.911,3.551-1.955,0-2.979-1.621-2.979-4.632,0-2.162,1.024-6.253,3.259-11.657C591.956,36.879,592.236,36.029,592.236,35.8ZM553.409,62.353a13.7,13.7,0,0,1,2.235-.926,3.4,3.4,0,0,1,2.235,1.39c0,.463.279.463.559.232a5.712,5.712,0,0,0,1.4-3.319c0-1.39-.838-2.316-2.607-2.316-1.955,0-4.283,1.39-7.076,4.246-1.4,1.621-2.235,3.088-2.235,4.477,0,1.158,1.4,2.162,4.283,3.088-2.235,1.39-3.445,2.316-3.724,2.856l-.279,2.084V74.4a4.464,4.464,0,0,0,1.117-.463c7.076-4.014,11.918-6.562,13.966-7.8a3.82,3.82,0,0,0,1.4-2.625c.279-.463.279-.926,0-.926a2.963,2.963,0,0,0-1.676.463,28.351,28.351,0,0,0-3.445,1.853,10.2,10.2,0,0,1-3.073,1.158,5.566,5.566,0,0,1-2.793-.926q-1.676-.695-1.676-1.39C552.013,63.28,552.292,62.817,553.409,62.353Zm117.783,7.334c1.583-2.007,2.235-3.474,2.235-4.169a11.271,11.271,0,0,0-2.607-1.776c-1.955-1-2.793-1.621-3.166-1.621-.186,0-.372.154-.372.463l-2.421,3.783v.463A60.824,60.824,0,0,1,670.447,70C670.727,70.15,670.913,70,671.192,69.687Zm-37.43,54.733c0-.309,0-.309-.279-.309,0,.309-.372.309-.372.54-1.676,2.47-2.886,3.551-3.911,3.551-1.955,0-2.98-1.621-2.98-4.632,0-2.162,1.024-6.253,3.259-11.657.279-1.39.652-2.162.652-2.47-.279,0-.652.849-1.676,2.162-3.259,5.4-4.935,10.344-4.935,15.208,0,4.091,1.3,6.021,4.283,6.021,2.607,0,4.562-2.47,5.866-7.874ZM616.91,194.206a.78.78,0,0,0-.652.849L611.7,202.08v.849c3.631,1.853,7.076,3.86,10.521,5.944.279.309.652,0,1.3-.54,2.979-3.783,4.283-6.562,4.283-7.874,0-.232-1.676-1.39-4.935-3.242-3.631-1.93-5.307-3.011-5.959-3.011ZM577.99,56.8c.279-.849,0-1.235-.279-1.235s-.466.232-1.024,1a28.088,28.088,0,0,0-2.421,8.183,28.665,28.665,0,0,0-.466,6.33,18.231,18.231,0,0,0,1.21,7.565c4.656,10.19,13.5,15.285,25.791,15.285,9.59,0,19.646-2.625,30.447-7.565,8.38-4.091,14.991-8.106,19.367-12.429,2.7-2.625,4.19-6.485,4.19-11.58,0-2.625-1.21-5.713-3.166-9.341-2.7-4.246-4.19-6.716-4.19-7.334a11.3,11.3,0,0,0,3.911.772c.745,0,.931-.232.931-.618s-.279-.849-.931-1.39c-4.19-3.242-6.89-5.713-8.1-6.716-.466-.386-.745-.618-.931-.618s-.466.386-.745,1a33.962,33.962,0,0,0-1.21,6.1,1.692,1.692,0,0,0,.745,1.39,4.716,4.716,0,0,1,1.676,2.625,56.82,56.82,0,0,0,5.587,11.58,43.283,43.283,0,0,1,2.979,5.249c0,1.39-2.421,3.705-7.356,6.948a82.982,82.982,0,0,1-18.9,8.955,71.5,71.5,0,0,1-24.3,4.477c-8.566,0-15.177-2.47-19.832-7.1a16.035,16.035,0,0,1-5.121-11.58,20.03,20.03,0,0,1,1.024-5.713c.372-1.235.652-2.625,1.117-4.246ZM553.409,208.333a13.7,13.7,0,0,1,2.235-.926,3.4,3.4,0,0,1,2.235,1.39c0,.463.279.463.559.232a5.712,5.712,0,0,0,1.4-3.319c0-1.39-.838-2.316-2.607-2.316-1.955,0-4.283,1.39-7.076,4.246-1.4,1.621-2.235,3.088-2.235,4.477,0,1.158,1.4,2.084,4.283,3.088-2.235,1.39-3.445,2.316-3.724,2.856l-.186,2.007v.232a4.462,4.462,0,0,0,1.117-.463c7.076-4.014,11.918-6.562,13.966-7.8a3.82,3.82,0,0,0,1.4-2.625c.279-.463.279-.926,0-.926a2.962,2.962,0,0,0-1.676.463,28.365,28.365,0,0,0-3.445,1.853,10.2,10.2,0,0,1-3.073,1.158,5.566,5.566,0,0,1-2.793-.926q-1.676-.695-1.676-1.39C552.013,209.259,552.292,208.8,553.409,208.333ZM623.427,62.353c2.98-3.783,4.283-6.485,4.283-7.874,0-.232-1.676-1.39-4.935-3.242-3.631-1.93-5.214-3.011-5.866-3.011a.78.78,0,0,0-.652.849l-4.562,7.1v.849c3.631,1.853,7.076,3.86,10.521,5.944C622.5,63.2,622.776,62.894,623.427,62.353ZM613.185,29.159c.559.232.838.232.838.695v3.783a6.514,6.514,0,0,0,1.21,4.246,4.26,4.26,0,0,0,2.886,1.158c2.793,0,4.562-1.621,5.68-4.709.838,2.316,2.514,3.783,4.842,3.783,1.117,0,2.235-.926,3.445-2.625a10.068,10.068,0,0,0,.838-4.014,7.86,7.86,0,0,0-.838-2.856c-1.117-2.162-1.676-3.319-1.676-3.319a9.54,9.54,0,0,0-.559-2.316c0-.463,0-.926-.279-.926a4.323,4.323,0,0,1-.838.926A3.765,3.765,0,0,0,627.9,25.3c0,1.853,1.117,4.246,3.445,7.334a2,2,0,0,1-1.955,1.39c-2.514,0-4-1.39-4-4.014a18.262,18.262,0,0,0-.838-4.477c-.279-1.853-.838-2.856-1.117-2.856s-.559.232-.838.926a1.871,1.871,0,0,0-.559,1.621,6.656,6.656,0,0,0,.559,2.625c.279,1.621.559,2.547.559,3.088a2.912,2.912,0,0,1-1.4,2.856,3.345,3.345,0,0,1-2.793,1.158c-.838,0-1.4-.463-1.955-1.39a5.206,5.206,0,0,1-.838-2.856c0-.232.279-.926.279-1.39a5.178,5.178,0,0,0,.279-2.393c0-1.621-.279-2.625-.838-2.625-.279,0-.838.463-1.676,1.158a3.493,3.493,0,0,0-1.4,2.625c-.372.618-.093.849.372,1.081ZM539.443,13.565H542.7c5.773,0,8.566.309,8.566.849,0,.154,0,.154-.186.309a58.048,58.048,0,0,1-5.587,2.625,62.1,62.1,0,0,0-6.145,2.933,9.753,9.753,0,0,0-1.024.695c0,.154.559,0,1.583-.154,5.586-1.312,9.125-2.162,10.149-2.779a24.833,24.833,0,0,0,4.935-4.477c1.583-1.776,2.421-2.933,2.421-3.474,0-1.312-3.352-1.853-9.963-1.853a20.73,20.73,0,0,0-3.818.154,4.772,4.772,0,0,0-3.352,1.621l-1.955,2.779c-.372.463-.559.618-.559.695S538.326,13.719,539.443,13.565Zm87.15,5.4c1.583-2.007,2.235-3.474,2.235-4.169a11.271,11.271,0,0,0-2.607-1.776c-1.955-1-2.793-1.621-3.166-1.621-.186,0-.372.154-.372.463l-2.421,3.783v.463a60.826,60.826,0,0,1,5.587,3.165c.186.154.372,0,.745-.309Zm20.019,7.8c-4.562,0-7.914-.54-9.87-1.39a6.365,6.365,0,0,0,2.98,3.783,12.831,12.831,0,0,0,7.542,2.162c5.587,0,13.78-1.39,24.581-4.091.652-.232,1.3-.849,1.955-2.47a9.255,9.255,0,0,0,1.024-3.783,4.246,4.246,0,0,0-.279-2.162c-1.3-2.162-3.911-3.242-8.566-3.242-1.024,0-2.98.309-6.238.54a62.875,62.875,0,0,1-8.566.849c-3.259,0-4.935-.309-4.935-1.081a1.362,1.362,0,0,1,.279-.849,37.667,37.667,0,0,1,7.542-5.4c2.98-1.621,5.214-2.47,6.238-2.47a2.2,2.2,0,0,1,1.955.772,6.554,6.554,0,0,1,1.024.54c.652,0,.931-1.081,1.955-3.011.279-1.93-.652-2.7-3.259-3.011a21.727,21.727,0,0,0-8.566,3.242,29.546,29.546,0,0,0-9.5,9.8,6.266,6.266,0,0,0-1.3,3.242c0,1.93,2.607,3.011,7.542,3.011a46.557,46.557,0,0,0,7.262-.849,62.75,62.75,0,0,1,6.518-.849c5.214,0,8.194.849,8.845,2.7-1.676.309-5.586,1.081-12.1,2.162a96.453,96.453,0,0,1-14.059,1.853Zm-125.7,43.771c.186.154,2.048-.849,5.307-3.4s7.449-7.411,11.918-14.281c2.514-4.091,4.749-8.26,7.076-12.12,4.283-6.948,7.542-11.425,9.869-13.741a17.511,17.511,0,0,1,11.453-5.249,40.3,40.3,0,0,1,13.315,1.776c-1.21,2.393-1.676,3.628-1.024,4.091s2.235-.695,4.283-3.165c8.938,2.625,14.432,4.477,16.48,5.172a49.946,49.946,0,0,0,8.752-4.555c1.49-1.544,1.3-5.172-.559-10.653-1.676-5.327-3.724-8.646-6.052-10.19-2.793-1.853-5.773-2.7-8.845-1.93a13.747,13.747,0,0,0-6.983,3.86A10.632,10.632,0,0,0,583.39,9.86c-.559,2.47-1.21,4.323-1.49,5.4a27.957,27.957,0,0,0-14.711.463c-5.307,1.853-10.708,5.713-16.667,11.657-4.376,4.4-10.987,14.513-19.739,30.647-2.793,3.551-4.749,6.33-6.518,8.028-2.421,2.856-3.538,4.4-3.352,4.477Zm67.97-61.912c.186-.54.745-.386,1.955.386,1.583,1.081,3.073,3.088,4.655,5.79s2.142,4.4,1.583,4.941c-1.769-.54-5.214-1.312-10.708-3.165,1.117-3.783,2.142-6.253,2.514-7.951ZM460.3,46.451a28.968,28.968,0,0,0,5.121-1.312c2.328-.309,4.749-1.621,7.076-2.933l11.732-9.727c5.493-4.246,10.987-6.176,16.108-6.176a14.192,14.192,0,0,1,3.166.618,17.655,17.655,0,0,0,3.538.618c3.166,0,6.238-1.621,9.4-4.246,3.911,1.621,6.7,1.621,8.659.618a8.657,8.657,0,0,0,1.955-3.242,11.428,11.428,0,0,0,1.21-4.863,3.987,3.987,0,0,0-1.583-3.551,6.676,6.676,0,0,0-1.583,1.93c-.745,1-1.21,1.621-.745,1.93.186.849.466,1.776.745,2.625-.372.309-.372.309-.745.309-4.283,0-5.866-.309-5.493-1a10.59,10.59,0,0,0,.745-2.933c0-.309,0-.618-.372-.618a4.834,4.834,0,0,0-1.955,1.312c-.745,1.312-1.955,2.625-2.793,3.937a7.2,7.2,0,0,1-4.749,1.621,9.386,9.386,0,0,1-3.911-.618,17.656,17.656,0,0,0-3.538-.618,20.993,20.993,0,0,0-11.359,3.551,56.009,56.009,0,0,0-9.032,6.871c-3.911,3.86-6.7,6.485-9.032,8.492-4.283,2.625-7.449,4.555-9.4,5.558a28.218,28.218,0,0,0-3.538,1.621C459.928,46.451,459.928,46.451,460.3,46.451Zm10.056-32.268c1.583-2.007,2.235-3.474,2.235-4.169a11.272,11.272,0,0,0-2.607-1.776c-1.955-1-2.793-1.621-3.166-1.621-.186,0-.372.154-.372.463l-2.421,3.783v.463c1.955,1,3.818,2.084,5.587,3.165.186.077.372,0,.745-.309Zm37.057,176.858c.559,0,1.117.463,1.862.926a4.384,4.384,0,0,0,1.117,1.081c.559,0,.838-.463,1.4-1.312,0-.695.279-1.081.279-1.544a3.039,3.039,0,0,0-1.117-2.007,3.372,3.372,0,0,0-2.7-1.312c-1.583,0-2.979,1.312-4.283,4.014a58.309,58.309,0,0,0-2.421,8.723,1.109,1.109,0,0,0-.279.695h-.279v-.695a19.6,19.6,0,0,0-3.538-7.8,7.318,7.318,0,0,0-5.68-3.165s-.559.695-1.4,1.776a6.958,6.958,0,0,0-1.3,2.007c0,.695.559,1.081,1.3,2.007a5.108,5.108,0,0,0,2.421,1.081c.838,0,1.117-.232,1.117-.463a1.481,1.481,0,0,1,.838-.232c.559,0,1.583,1.312,2.7,4.014a31.74,31.74,0,0,1,2.7,6.253c-1.583.695-2.7,2.47-3.259,5.79,0,.695,0,.926.279.926a14.512,14.512,0,0,0,1.117-1.081c.838-.926,1.3-1.312,1.862-1.312a4.7,4.7,0,0,1,2.7,1.312c-2.421.463-3.724.849-4.562,1.544-1.862,1.081-2.7,2.933-2.7,5.327,0,.695.838,3.551,1.862,8.492a49.184,49.184,0,0,1,1.862,12.737,17.309,17.309,0,0,0,.279,3.088c.279,0,.279-.232.559-.849a19.169,19.169,0,0,0,.838-5.558,51.689,51.689,0,0,0-3.724-18.3c.838-.926,2.421-1.544,4.562-2.239,1.769-.463,3.538-.849,5.4-1.158a7.42,7.42,0,0,0,1.117-1.775,6.42,6.42,0,0,0,.838-1.776c0-.849-1.117-2.007-2.979-3.319a17.862,17.862,0,0,0-4.562-2.007,19.3,19.3,0,0,0,1.862-5.327q1.4-8.569,3.91-8.569Zm214.151-89.162c1.583-2.007,2.235-3.474,2.235-4.169a11.273,11.273,0,0,0-2.607-1.776c-1.955-1-2.793-1.621-3.166-1.621-.186,0-.372.154-.372.463l-2.421,3.783v.463a60.82,60.82,0,0,1,5.587,3.165C721.006,102.341,721.192,102.187,721.564,101.878Zm-47.672,68.937a9.123,9.123,0,0,0,.931-3.783,4.246,4.246,0,0,0-.279-2.162c-1.3-2.162-3.911-3.242-8.566-3.242-1.024,0-2.98.309-6.238.54a62.872,62.872,0,0,1-8.566.849c-3.259,0-4.935-.309-4.935-1.081a1.363,1.363,0,0,1,.279-.849,41.331,41.331,0,0,1,7.542-5.481c2.979-1.621,5.214-2.47,6.238-2.47a2.2,2.2,0,0,1,1.955.772,6.544,6.544,0,0,1,1.024.54c.652,0,.931-1.081,1.955-3.011.279-1.93-.652-2.7-3.259-3.011a21.727,21.727,0,0,0-8.566,3.242,29.547,29.547,0,0,0-9.5,9.8,6.267,6.267,0,0,0-1.3,3.242c0,1.93,2.607,3.011,7.542,3.011a46.56,46.56,0,0,0,7.262-.849,62.758,62.758,0,0,1,6.518-.849c5.214,0,8.193.849,8.845,2.7-1.676.309-5.586,1.081-12.1,2.162a132.48,132.48,0,0,1-14.153,1.621c-4.562,0-7.914-.54-9.87-1.39a6.364,6.364,0,0,0,2.979,3.783,12.831,12.831,0,0,0,7.542,2.162c5.587,0,13.78-1.39,24.581-4.091.838.077,1.49-.463,2.142-2.162ZM600.8,239.829c9.59,0,19.646-2.625,30.447-7.565,8.38-4.091,14.991-8.106,19.367-12.429,2.7-2.625,4.19-6.485,4.19-11.58,0-2.625-1.21-5.713-3.166-9.341-2.7-4.246-4.19-6.716-4.19-7.334a11.3,11.3,0,0,0,3.911.772c.745,0,.931-.232.931-.618s-.279-.849-.931-1.467c-4.19-3.242-6.89-5.713-8.1-6.716-.466-.386-.745-.618-.931-.618s-.466.386-.745,1a33.962,33.962,0,0,0-1.21,6.1,1.949,1.949,0,0,0,.745,1.467,4.716,4.716,0,0,1,1.676,2.625,56.816,56.816,0,0,0,5.587,11.58,38.982,38.982,0,0,1,2.979,5.327c0,1.467-2.421,3.705-7.356,6.948a86.585,86.585,0,0,1-18.9,9.032,71.5,71.5,0,0,1-24.3,4.477c-8.566,0-15.177-2.47-19.832-7.1a16.035,16.035,0,0,1-5.121-11.58,20.03,20.03,0,0,1,1.024-5.713c.466-1.235.745-2.625,1.21-4.246.279-.772,0-1.235-.279-1.235s-.466.232-1.024,1a28.321,28.321,0,0,0-2.421,8.106,28.664,28.664,0,0,0-.466,6.33,18.232,18.232,0,0,0,1.21,7.565C579.666,234.734,588.511,239.829,600.8,239.829Zm117.411-63.687c2.607,0,4.562-2.47,5.866-7.874v-.54c0-.309,0-.309-.373-.309,0,.309-.279.309-.279.54-1.676,2.47-2.979,3.551-3.911,3.551-1.955,0-2.979-1.621-2.979-4.632,0-2.162,1.024-6.253,3.259-11.657a22.915,22.915,0,0,0,.652-2.47c-.279,0-.652.849-1.676,2.162-3.259,5.4-4.935,10.344-4.935,15.208C714.023,174.212,715.326,176.142,718.213,176.142Zm-148.6,7.8c-1.955-1-2.793-1.621-3.166-1.621-.186,0-.372.154-.372.463l-2.421,3.783v.463a60.818,60.818,0,0,1,5.586,3.165c.186.154.372,0,.745-.309,1.583-2.007,2.235-3.474,2.235-4.169C572.217,185.482,571.379,184.942,569.61,183.938Zm148.6-43.385c1.583-2.007,2.235-3.474,2.235-4.169a14.875,14.875,0,0,0-2.607-1.776c-1.955-1-2.793-1.621-3.166-1.621-.186,0-.372.154-.372.463l-2.421,3.783v.463a60.815,60.815,0,0,1,5.586,3.165C717.747,141.017,717.933,140.863,718.213,140.554ZM573.242,178.226c.559.386,1.769-.54,3.445-2.548,7.263,2.162,11.639,3.628,13.221,4.169a44.844,44.844,0,0,0,7.076-3.628c1.21-1.235,1.024-4.169-.466-8.569-1.3-4.246-2.979-6.948-4.842-8.26a8.659,8.659,0,0,0-7.169-1.544,11.383,11.383,0,0,0-5.586,3.088,8.018,8.018,0,0,0-2.048,3.011c-.466,2.007-.931,3.474-1.211,4.323a23.109,23.109,0,0,0-11.918.386c-4.283,1.467-8.659,4.632-13.408,9.341-3.538,3.551-8.845,11.734-15.922,24.7-2.235,2.856-3.817,5.095-5.214,6.484-1.955,2.239-2.793,3.474-2.607,3.551.186.154,1.583-.695,4.283-2.7s5.959-5.944,9.59-11.5c2.048-3.242,3.817-6.639,5.68-9.727,3.445-5.635,6.052-9.264,7.914-11.039a14.311,14.311,0,0,1,9.218-4.246,33.113,33.113,0,0,1,10.707,1.39C573.148,176.759,572.683,177.84,573.242,178.226Zm8.194-15.362c.093-.463.652-.309,1.583.309a13.134,13.134,0,0,1,3.724,4.632c1.21,2.162,1.769,3.551,1.3,4.014-1.4-.463-4.19-1.081-8.659-2.547C580.225,166.183,581.063,164.176,581.435,162.864Zm-20.95,75.421a4.747,4.747,0,0,0-.559,1.467h.279a12.749,12.749,0,0,0,2.048-2.239c.838-1,2.328-2.393,4.656-4.632,1.117-1.081,2.235-2.239,3.259-3.4a7.832,7.832,0,0,0,.931-3.165c0-1.7-1.21-2.7-3.538-2.7-.931,0-2.979.772-6.145,1.93a99.73,99.73,0,0,1-10.242,3.628,62.071,62.071,0,0,1-15.642,1.7,36.7,36.7,0,0,1-13.873-2.7,34.066,34.066,0,0,1-4.376-2.47,12.211,12.211,0,0,0-1.769-1c-.931,0-1.49,1-1.769,2.933a51.808,51.808,0,0,0,3.818,4.863,13.583,13.583,0,0,1,1.21,5.4v1.467c.279,0,.559-.463.931-1.235a7.222,7.222,0,0,0,.559-5.867,38.068,38.068,0,0,0,14.153,2.625c9.4,0,19.087-2.239,29.422-6.33a5.9,5.9,0,0,1,2.607-.772,2.012,2.012,0,0,1,2.048,1.467c-1.21,1-2.421,2.084-3.538,3.165A22.6,22.6,0,0,0,560.485,238.285Zm31.75-56.508c-.279,0-.652.772-1.676,2.162-3.259,5.4-4.935,10.344-4.935,15.208,0,4.091,1.3,5.944,4.283,5.944,2.607,0,4.562-2.47,5.866-7.874v-.54c0-.309,0-.309-.279-.309,0,.309-.279.309-.279.54-1.676,2.47-2.98,3.551-3.911,3.551-1.955,0-2.979-1.621-2.979-4.632,0-2.161,1.024-6.253,3.259-11.657a24,24,0,0,0,.652-2.393ZM37.491,245.387a4.26,4.26,0,0,0,2.886,1.158c2.793,0,4.562-1.621,5.68-4.709.838,2.316,2.514,3.783,4.842,3.783,1.117,0,2.235-.926,3.445-2.625a10.068,10.068,0,0,0,.838-4.014,7.862,7.862,0,0,0-.838-2.856c-1.117-2.084-1.676-3.319-1.676-3.319a9.536,9.536,0,0,0-.559-2.316c0-.463,0-.926-.279-.926a2.77,2.77,0,0,1-.838.926,3.765,3.765,0,0,0-.838,2.316c0,1.853,1.117,4.246,3.445,7.334a2,2,0,0,1-1.955,1.39c-2.607,0-4-1.39-4-4.014a18.259,18.259,0,0,0-.838-4.477c-.279-1.853-.838-2.856-1.117-2.856s-.559.232-.838.926a2.191,2.191,0,0,0-.559,1.621,6.655,6.655,0,0,0,.559,2.625c.279,1.621.559,2.625.559,3.088a2.912,2.912,0,0,1-1.4,2.856,3.344,3.344,0,0,1-2.793,1.158c-.838,0-1.4-.463-1.955-1.39a5.205,5.205,0,0,1-.838-2.856c0-.232.279-.926.279-1.39a4.974,4.974,0,0,0,.279-2.316c0-1.621-.279-2.625-.838-2.625-.279,0-.838.463-1.676,1.158a3.493,3.493,0,0,0-1.4,2.625c0,.463.279.695.838.926s.838.232.838.695v3.783A5.093,5.093,0,0,0,37.491,245.387Zm-12.57,21.229a13.766,13.766,0,0,0-4.749,1.621,20.083,20.083,0,0,0-5.587,3.783c-2.793,2.779-4.376,5.327-4.376,7.8,0,1.853.745,2.779,2.142,2.779a4.214,4.214,0,0,0,2.979-1.467,5.163,5.163,0,0,0,1.21-2.007,12.418,12.418,0,0,0,2.793,1.775,32.047,32.047,0,0,1-7.542,4.632C9,287,6.207,288.309,3.413,289.7c-.745.309-1.024.618-1.024.695h.186a2.148,2.148,0,0,0,1.21-.309c3.631-1.158,5.773-1.776,6.331-1.853,2.048-.926,4-1.93,5.959-3.011a22.6,22.6,0,0,0,4.562-3.937,5.52,5.52,0,0,1,2.142,1.467c1.024-1.158,1.583-2.007,1.583-2.625a18.391,18.391,0,0,0-2.142-1.312,12.306,12.306,0,0,0,.745-4.091,10.76,10.76,0,0,0,3.817-6.253v-.54C26.691,267.079,26.132,266.616,24.921,266.616Zm-4.19,11.58c-1.769-.695-2.607-1.312-2.607-1.776,0-.154.186-.309.745-.618a5.416,5.416,0,0,1,1.024-.309c.559,0,.838.309,1.024.849a3.985,3.985,0,0,1-.186,1.853Zm1.769-4.323a1.173,1.173,0,0,0-.838-.695,5.009,5.009,0,0,0-3.538,1.158,5.185,5.185,0,0,0-2.142,3.474,1.746,1.746,0,0,1-.838,1.621,3.385,3.385,0,0,1-2.235.618c-.745,0-1.21-.463-1.21-1.467,0-1.467,1.21-3.165,3.538-5.249a22.975,22.975,0,0,1,4.749-3.011,8.4,8.4,0,0,1,3.631-1,1.25,1.25,0,0,1,1.4,1.312c-.093.618-1.024,1.775-2.514,3.242ZM4.81,94.545c2.607,0,4.562-2.47,5.866-7.874v-.54c0-.232,0-.232-.372-.232,0,.232-.372.232-.372.54C8.255,88.909,6.951,89.99,6.02,89.99c-1.955,0-2.979-1.621-2.979-4.632,0-2.162.931-6.253,3.259-11.657a22.911,22.911,0,0,0,.652-2.47c-.186,0-.559.772-1.49,2.162C2.11,78.8.527,83.737.527,88.6c0,4.091,1.3,5.944,4.283,5.944ZM22.314,228.1c7.728,0,16.108-2.547,25.512-7.411,6.7-3.705,11.825-7.257,15.735-11.194,2.886-2.7,4.283-6.407,4.283-11.194a17.539,17.539,0,0,0-4.655-12.351c-2.886-3.242-6.145-4.709-9.59-4.709-2.048,0-4.1,1.158-6.145,3.551a11.548,11.548,0,0,0-2.793,7.1,5.26,5.26,0,0,0,1.862,4.246,6.171,6.171,0,0,0,4.655,1.7h5.493a13.177,13.177,0,0,1,5.959,1.158c2.048,1,2.886,2.007,2.886,3.551-.652,1-3.073,3.011-7.356,5.944a104.942,104.942,0,0,1-16.108,8.492c-7.169,2.856-13.687,4.246-19.553,4.246-7.356,0-12.849-1.853-16.48-5.79a14.129,14.129,0,0,1-4.283-9.65c0-.849.652-4.091,1.862-9.8.186-.695.186-1-.186-1.158a2.4,2.4,0,0,0-.838,1A25.225,25.225,0,0,0,.527,202.62a17.255,17.255,0,0,0-.466,4.863c0,5.558,1.4,10.113,4.283,13.664,3.724,4.632,9.776,6.948,17.97,6.948ZM53.04,191.272c-2.235-.154-3.445-.849-3.445-2.007,0-.849,1.024-1.39,2.607-1.39a7.9,7.9,0,0,1,6.7,3.705c-2.607-.154-4.562-.309-5.866-.309ZM14.4,68.22c5.959,4.014,13.221,5.79,21.974,5.249s15.642-3.242,20.484-8.183a10.444,10.444,0,0,0,3.166-5.944,8,8,0,0,0-.931-5.249c-1.024-1.621-4.19-4.4-9.4-8.26-7.263-5.249-12.477-9.186-15.549-11.811a46.262,46.262,0,0,1,6.518-.463c-.279,1.467-.186,2.316,0,2.47s1.4-.54,3.073-2.239A264.036,264.036,0,0,1,72.873,39.5a2.639,2.639,0,0,0,2.048-.232l3.817-2.084c.559-.386.559-.772.093-1.235-1.117-1.158-4.935-4.169-10.987-9.032-6.7-5.327-11.825-9.109-14.9-11.425a14.813,14.813,0,0,0-8.287-2.625,7.772,7.772,0,0,0-5.4,2.316,3.414,3.414,0,0,0-1.3,2.239,11.694,11.694,0,0,0,.652,5.327,52.991,52.991,0,0,1,1.769,7.565A50.643,50.643,0,0,0,31.9,31.861a9.221,9.221,0,0,0-1.4-1.158c-.372-.232-.652-.463-.931-.232s0,.695.466,1.776A42.736,42.736,0,0,0,12.91,42.514Q-1.615,57.22,14.4,68.22ZM42.24,16.267c.093-.077.372.077.931.232,1.024.309,3.166,1.621,6.425,3.783A156.353,156.353,0,0,1,65.7,32.787c.559.54.931.849.838.926-.279-.077-.652-.154-.931-.232a136.693,136.693,0,0,0-20.2-3.088c-.093-1-.559-3.319-1.3-6.871-.652-2.084-1.21-4.014-1.676-6.021C42.147,16.807,42.147,16.344,42.24,16.267ZM15.7,42.823a31.044,31.044,0,0,1,8.566-5.944,34.572,34.572,0,0,1,6.8-2.316,26.858,26.858,0,0,0,5.773,8.414,60.288,60.288,0,0,0,8.007,6.562,44.146,44.146,0,0,1,8.1,6.639,9.067,9.067,0,0,1,2.142,5.79,6.147,6.147,0,0,1-1.955,4.477c-1.4,1.467-4.19,2.393-8.1,2.933a44.753,44.753,0,0,1-12.849-.463,32.565,32.565,0,0,1-12.477-4.786C9.745,57.336,8.441,50.234,15.7,42.823ZM68.962,253.8c-.931-.618-2.793-.849-5.4-.849a10.427,10.427,0,0,0-7.542,3.088c-3.631,3.86-4.749,11.425-3.073,22.387a97.276,97.276,0,0,0-10.8-8.569c-.931-.618-5.587-3.242-13.873-7.642S15.8,255.654,15.7,255.577c-.466-.232-.466-.463-.186-.463,3.259-.154,4.283-.54,3.445-1.081a8.034,8.034,0,0,0-1.49-.54c-.838-.309-3.166-.926-7.076-1.93-3.724-.926-5.959-1.467-6.89-1.621-.466.077-.652,0-.745.077s-.093.309.093.618c1.769,2.393,2.793,3.86,3.538,4.246a12.293,12.293,0,0,1,5.028,2.161c.931.618,6.7,3.937,17.132,9.572,10.521,5.79,16.2,8.955,16.853,9.341l6.052,3.937a5.975,5.975,0,0,1,1.955,1.93c.559,2.007,1.3,4.323,1.769,6.87-1.49,2.084-2.793,3.705-3.817,4.941h8.194a69.991,69.991,0,0,0,10.987-16.906c3.631-7.179,4.935-12.429,4.1-15.517A11.973,11.973,0,0,0,68.962,253.8Zm1.862,5.558c-.931,5.1-3.352,10.653-7.076,17.061a61.528,61.528,0,0,1-6.7,10.036c-2.421-12.351-1.4-20.689,2.7-25.166,2.048-2.161,5.493-3.242,10.428-2.856.372.077.652,0,.745.154-.093.077.093.386-.093.772Zm79.236-12.815c2.607,0,4.562-2.47,5.866-7.874v-.54c0-.309,0-.309-.372-.309,0,.309-.372.309-.372.54-1.676,2.47-2.979,3.551-3.911,3.551-1.955,0-2.979-1.621-2.979-4.632,0-2.161,1.024-6.253,3.259-11.657a22.907,22.907,0,0,0,.652-2.47c-.279,0-.652.849-1.676,2.161-3.259,5.4-4.935,10.344-4.935,15.208.186,4.169,1.49,6.021,4.469,6.021Zm173.556-75.962c3.073.386,6.145.849,9.125,1.467a31.306,31.306,0,0,0-1.49,7.1,11.309,11.309,0,0,0-1.769.618c-.466.232-.745.309-.559.618.093.154.838.309,2.235.309a30.138,30.138,0,0,0,5.121,17.06c7.263,11.039,17.132,13.9,29.236,8.337a25.759,25.759,0,0,0,14.06-14.976c2.7-7.025,2.235-13.2-1.49-18.836a13.214,13.214,0,0,0-11.639-5.79q-3.352.347-12.849,4.169c-8.566,3.551-14.9,6.1-18.994,7.488a27.2,27.2,0,0,1,1.955-5.172c1.49.772,2.421,1,2.793.849.466-.232-.093-1.312-1.3-3.165a181.954,181.954,0,0,1,17.318-20.226,1.669,1.669,0,0,0,.466-1.7l-.838-3.705c-.186-.54-.652-.695-1.4-.54-1.862.54-6.611,2.316-14.339,5.172-8.473,3.165-14.618,5.635-18.342,7.179-3.166,1.621-5.121,3.319-6.052,5.4a4.88,4.88,0,0,0,.559,5.018,4.793,4.793,0,0,0,2.048,1.853,19.477,19.477,0,0,0,6.145,1.467Zm21.974,8.8a80.636,80.636,0,0,0,10.335-3.705,60.82,60.82,0,0,1,10.428-3.783,16.48,16.48,0,0,1,7.262.463,7.87,7.87,0,0,1,4.283,3.165c1.117,1.621,1.117,4.091.279,7.334a29.744,29.744,0,0,1-15.27,17.6c-11.359,5.172-19.739,3.551-25.326-4.863a24.6,24.6,0,0,1-3.445-8.878,22.294,22.294,0,0,1,0-6.1,38.3,38.3,0,0,0,11.452-1.235Zm-27.281-14.667c.745-.695,2.979-1.853,6.611-3.551a188.244,188.244,0,0,1,20.019-7.72c.838-.232,1.3-.463,1.4-.309-.186.232-.372.386-.559.618a87.08,87.08,0,0,0-10.987,14.436c-1.21-.309-3.911-.849-8.194-1.544-2.607-.309-4.935-.54-7.356-.926a3.666,3.666,0,0,1-1.4-.309C317.564,165.18,317.936,165.025,318.309,164.716ZM236,250.1a1.33,1.33,0,0,0-.186-1.312.555.555,0,0,0-.652-.232,4.355,4.355,0,0,0-1.21.926c-3.631,4.555-7.076,8.955-10.894,13.278s-7.263,7.1-10.056,8.183a27.558,27.558,0,0,1-20.018.386c-5.028-1.776-8.473-3.937-10.8-6.871,1.21-2.393,3.631-5.018,7.263-7.565a60.332,60.332,0,0,1,11.825-6.562,40.965,40.965,0,0,1,10.614-2.316,6.29,6.29,0,0,0,2.421-.232c.466-.154.559-.463.466-.695s-.838-.386-2.048-.618a37.15,37.15,0,0,0-21.881,1.544,22.784,22.784,0,0,0-11.08,8.878,11.837,11.837,0,0,0-.279,12.815c2.421,4.246,6.8,7.411,13.221,9.65a35.423,35.423,0,0,0,16.573,1.7,45.187,45.187,0,0,0-4.283,11.039h6.424a106.125,106.125,0,0,1,11.359-18.759c3.817-4.786,7.821-9.65,11.732-14.745a6.057,6.057,0,0,0,1.024-2.779Zm-71.973,26.093c-.838,0-2.793.695-5.587,1.853-3.911,1.621-7.356,2.547-10.149,3.474a58,58,0,0,1-14.618,1.621c-8.752,0-14.618-1.621-17.691-5.095a45.526,45.526,0,0,1-2.793-6.562c-.838-3.011-1.676-4.4-1.955-4.4-.559,0-.838.463-1.117,1.158a2.191,2.191,0,0,0-.559,1.621,10.98,10.98,0,0,0,1.024,3.474A8.531,8.531,0,0,1,111.7,277.5c0,2.084-1.4,3.011-4.469,3.011a8.828,8.828,0,0,1-2.793-.463,2.115,2.115,0,0,0-1.4-.463c-.838,0-1.955.463-3.631,1.853a8.108,8.108,0,0,0-2.514,4.169c.279.926.559.926,1.117.463,1.676-1.389,3.073-2.084,4.469-2.084a2.124,2.124,0,0,1,1.676.463,5.8,5.8,0,0,0,2.235.463,6.145,6.145,0,0,0,6.145-3.937,2.645,2.645,0,0,0,.279-1.158c3.073,4.863,9.59,7.257,19.367,7.257a74.452,74.452,0,0,0,28.119-6.021,7.094,7.094,0,0,1,2.514-.695,2,2,0,0,1,1.955,1.39,28.323,28.323,0,0,0-3.352,3.011,20.683,20.683,0,0,0-3.911,5.327,2.065,2.065,0,0,0-.559,1.39c.279,0,.838-.695,2.235-2.084.559-.695,2.235-2.316,4.19-4.4a27.6,27.6,0,0,0,3.073-3.242,6,6,0,0,0,.838-3.088C167.472,277.115,166.354,276.189,164.027,276.189Zm94.133-15.131a13.767,13.767,0,0,0-4.749,1.621,20.083,20.083,0,0,0-5.587,3.783c-2.793,2.779-4.376,5.327-4.376,7.8,0,1.93.745,2.779,2.141,2.779a4.214,4.214,0,0,0,2.979-1.467,5.162,5.162,0,0,0,1.21-2.007,12.419,12.419,0,0,0,2.793,1.776,32.046,32.046,0,0,1-7.542,4.632c-2.793,1.467-5.587,2.779-8.38,4.246-.745.309-1.024.618-1.024.695h.186a2.148,2.148,0,0,0,1.21-.309c3.631-1.158,5.773-1.776,6.331-1.853,2.048-.926,4-1.93,5.959-3.011a20.407,20.407,0,0,0,4.562-3.937,5.519,5.519,0,0,1,2.141,1.467c1.024-1.158,1.583-2.007,1.583-2.625a18.392,18.392,0,0,0-2.141-1.312,12.307,12.307,0,0,0,.745-4.091,10.309,10.309,0,0,0,3.817-6.253v-.618C259.929,261.521,259.37,261.058,258.16,261.058Zm-4.19,11.58c-1.769-.695-2.607-1.312-2.607-1.776,0-.154.186-.309.652-.618a5.419,5.419,0,0,1,1.024-.309c.559,0,.838.309,1.024.849a2.48,2.48,0,0,1-.093,1.853Zm1.769-4.323a1.173,1.173,0,0,0-.838-.695,5.009,5.009,0,0,0-3.538,1.158,5.185,5.185,0,0,0-2.141,3.474,1.746,1.746,0,0,1-.838,1.621,3.89,3.89,0,0,1-2.235.618c-.745,0-1.21-.463-1.21-1.467,0-1.467,1.21-3.165,3.538-5.249a23.23,23.23,0,0,1,4.749-3.088,9.628,9.628,0,0,1,3.631-1,1.25,1.25,0,0,1,1.4,1.312c-.093.772-.931,1.93-2.514,3.319ZM9.558,16.344H12.91c5.773,0,8.566.309,8.566.849,0,.154,0,.154-.186.309-1.862.926-3.724,1.853-5.68,2.625A62.093,62.093,0,0,0,9.465,23.06a3.646,3.646,0,0,0-.931.695c0,.154.559,0,1.583-.154,5.587-1.312,9.125-2.162,10.149-2.779A24.831,24.831,0,0,0,25.2,16.344c1.583-1.776,2.421-2.933,2.421-3.474,0-1.312-3.352-1.853-9.963-1.853a20.729,20.729,0,0,0-3.817.154,4.772,4.772,0,0,0-3.352,1.621L8.534,15.5c-.372.463-.559.618-.559.695S8.534,16.5,9.558,16.344ZM162.723,257.739c1.583-2.007,2.235-3.474,2.235-4.169a11.271,11.271,0,0,0-2.607-1.775c-1.955-1-2.793-1.621-3.166-1.621-.186,0-.372.154-.372.463l-2.421,3.783v.463c1.955,1,3.817,2.084,5.587,3.165C162.164,258.125,162.351,257.97,162.723,257.739Zm4.749-124.982c0-1.621-1.117-2.547-3.352-2.547-.838,0-2.793.695-5.587,1.853-3.911,1.621-7.356,2.548-10.149,3.474a58,58,0,0,1-14.618,1.621c-8.752,0-14.618-1.621-17.691-5.1a48.631,48.631,0,0,1-2.793-6.485c-.838-3.011-1.676-4.4-1.955-4.4-.559,0-.838.463-1.117,1.158a2.667,2.667,0,0,0-.559,1.621,9.011,9.011,0,0,0,1.024,3.474,8.531,8.531,0,0,1,1.117,4.169c0,2.084-1.4,3.011-4.469,3.011a8.828,8.828,0,0,1-2.793-.463,2.115,2.115,0,0,0-1.4-.463c-.838,0-1.955.463-3.631,1.853a8.108,8.108,0,0,0-2.514,4.169c.279.926.559.926,1.117.463,1.676-1.39,3.073-2.084,4.469-2.084a2.124,2.124,0,0,1,1.676.463,5.8,5.8,0,0,0,2.235.463,6.145,6.145,0,0,0,6.145-3.937,2.645,2.645,0,0,0,.279-1.158c3.073,4.863,9.59,7.256,19.367,7.256a73.151,73.151,0,0,0,28.119-6.1,7.093,7.093,0,0,1,2.514-.695,2,2,0,0,1,1.955,1.39,28.322,28.322,0,0,0-3.352,3.011A20.682,20.682,0,0,0,157.6,144.1a2.065,2.065,0,0,0-.559,1.39c.279,0,.838-.695,2.235-2.084.559-.695,2.235-2.316,4.19-4.4a27.6,27.6,0,0,0,3.073-3.242A6.842,6.842,0,0,0,167.472,132.757Zm-6.052,56.354a12.765,12.765,0,0,0-1.676.309c-9.125,1.7-14.991,2.779-17.411,3.088a40.6,40.6,0,0,1-13.315-.309,1.035,1.035,0,0,1-1.21-.772v-.232c0-.309.838-1,2.048-1.39a39.287,39.287,0,0,0,10.335-5.481c2.886-1.7,5.4-4.477,7.914-8.26,6.518.618,9.87,1.235,9.683,1.39,1.21-.077,2.048-1.081,3.166-3.088a8.725,8.725,0,0,0,1.676-5.172,1.023,1.023,0,0,0-.372-1c-2.048-4.477-6.611-8.26-13.315-11.039a9.01,9.01,0,0,0-4.935-1.39,4.253,4.253,0,0,0-3.724,1.39c-1.676,1.39-1.676,3.474-.838,6.176a12.846,12.846,0,0,0-2.514,6.87c0,2.779,2.886,4.477,8.752,5.172a28.847,28.847,0,0,1-8.287,6.562c-2.514,1.39-5.028,3.088-7.449,4.477-2.886,1.776-4.655,4.555-4.562,7.565,0,2.779,2.514,4.169,7.914,4.169a48.674,48.674,0,0,0,14.525-2.393,34.6,34.6,0,0,0,8.752-3.088c3.073-2.161,4.749-3.165,4.842-3.551Zm-9.963-24.085a14.086,14.086,0,0,1,7.449,5.867c.372.695.372,1,0,1.39h-.372c-5.028-.695-7.449-1-7.914-1a24.063,24.063,0,0,0,.838-6.253Zm-11.639,3.088c0-.695.838-1.39,2.048-2.393a4.521,4.521,0,0,1,2.886-1.7c1.21,0,2.048.695,2.514,2.393a5.4,5.4,0,0,1,.372,4.477c-4.935-.695-7.914-1.7-7.821-2.779Zm22.9-56.354c1.583-2.007,2.235-3.474,2.235-4.169a11.272,11.272,0,0,0-2.607-1.776c-1.955-1-2.793-1.621-3.166-1.621-.186,0-.372.154-.372.463l-2.421,3.783v.463a60.811,60.811,0,0,1,5.587,3.165c.186.077.372-.077.745-.309Zm-41.9-61.835c5.028,0,11.173-1.467,18.343-4.246,6.89-2.625,12.477-5.481,16.76-8.955a9.173,9.173,0,0,0,4.19-7.565,4.391,4.391,0,0,0-1.955-3.937c-1.21-.849-4-1.621-8.007-2.316-6.983-1.312-10.521-2.779-10.521-4.4a7.408,7.408,0,0,1,1.769-3.165,45.232,45.232,0,0,1,4.376-4.786c3.538-3.011,6.331-4.632,8.38-4.632a2.926,2.926,0,0,1,2.793,1.853c.372.695.559,1,.838,1,.186,0,.559-.309,1.024-1a4.754,4.754,0,0,0,.838-3.319,4.41,4.41,0,0,0-1.024-3.165,3.96,3.96,0,0,0-2.979-1.312c-1.769,0-4,1-6.983,3.011a38.834,38.834,0,0,0-7.728,7.72c-2.793,4.091-4.19,7.72-4.19,11.271a4.638,4.638,0,0,0,2.98,4.169A18.841,18.841,0,0,0,146.243,28c2.421.618,4.935,1,7.169,1.467s3.538,1,3.538,1.621-2.142,1.776-5.959,3.783a91.444,91.444,0,0,1-13.78,5.944,49.931,49.931,0,0,1-15.363,3.011c-5.214,0-9.311-1.467-11.918-4.323a10.994,10.994,0,0,1-2.979-7.8c0-3.628,1.4-7.951,4.376-13.2a4.352,4.352,0,0,0,.745-1.776.186.186,0,0,0-.186-.154h0c-.186,0-.745.463-1.583,1.467a26.914,26.914,0,0,0-5.587,17.06c0,4.169,1.024,7.565,3.538,10.036C111.047,48.3,115.237,49.925,120.824,49.925Zm-44.6,43.539L73.8,97.246v.463a60.812,60.812,0,0,1,5.587,3.165c.186.154.372,0,.745-.309,1.583-2.007,2.235-3.474,2.235-4.169a11.272,11.272,0,0,0-2.607-1.776C77.808,93.618,76.97,93,76.6,93,76.411,93,76.225,93.155,76.225,93.464Zm8.845-63.3c2.607,0,4.562-2.47,5.866-7.874v-.618c0-.309,0-.309-.279-.309,0,.309-.372.309-.372.54C88.7,24.45,87.4,25.531,86.374,25.531c-1.955,0-2.98-1.621-2.98-4.632,0-2.162,1.024-6.253,3.259-11.657.372-1.39.745-2.239.745-2.47-.279,0-.652.849-1.676,2.162-3.259,5.4-4.842,10.344-4.842,15.208,0,4.091,1.21,6.021,4.19,6.021Zm2.421,9.881.186.618A17.8,17.8,0,0,0,90.1,45.293a14.438,14.438,0,0,1,4.655,2.933c1.3,1.158,7.914,6.562,19.832,15.98s18.715,14.9,20.2,16.289,3.073,3.011,4.19,4.246a10.191,10.191,0,0,0,1.676,1.7c.372.154.466,0,.372-.54s-.466-.849-.745-1.544a30.654,30.654,0,0,0-7.821-10.344c-1.3-1.158-7.076-5.79-17.5-14.05S99.223,47.532,98.943,47.3c-.372-.309-.372-.54,0-.386,3.073.232,4.19.154,3.538-.463a5.915,5.915,0,0,0-1.117-.926c-.838-.386-2.886-1.39-6.611-2.856-3.538-1.467-5.587-2.239-6.425-2.547a1.639,1.639,0,0,0-.838-.077Zm96.74,184.423a10.068,10.068,0,0,0,.838-4.014,7.862,7.862,0,0,0-.838-2.856c-1.117-2.161-1.676-3.319-1.676-3.319a10.481,10.481,0,0,0-.559-2.316c0-.463,0-.926-.279-.926a10.044,10.044,0,0,1-.838.926,3.607,3.607,0,0,0-.838,2.316c0,1.93,1.117,4.246,3.445,7.334a2,2,0,0,1-1.955,1.39c-2.514,0-4-1.39-4-4.014a18.259,18.259,0,0,0-.838-4.477c-.279-1.853-.838-2.856-1.117-2.856s-.559.232-.838.926a2.191,2.191,0,0,0-.559,1.621,6.655,6.655,0,0,0,.559,2.625c.279,1.621.559,2.625.559,3.088a2.912,2.912,0,0,1-1.4,2.856,3.344,3.344,0,0,1-2.793,1.158c-.838,0-1.4-.463-1.955-1.39a5.205,5.205,0,0,1-.838-2.856c0-.232.279-.926.279-1.39a4.974,4.974,0,0,0,.279-2.316c0-1.621-.279-2.625-.838-2.625-.279,0-.838.463-1.676,1.158a3.493,3.493,0,0,0-1.4,2.625c0,.463.279.695.838.926s.838.232.838.695v3.783a7.012,7.012,0,0,0,1.117,4.246,3.865,3.865,0,0,0,2.793,1.158c2.886,0,4.562-1.621,5.68-4.709.838,2.316,2.514,3.783,4.842,3.783C181.9,227.091,183.114,226.088,184.231,224.467Zm474.671,17.6q5.307-3.474,5.307-7.874,0-3.474-4.19-3.474c-2.142,0-4.19.849-7.356,2.933-2.141,2.007-4.19,3.783-6.331,5.558-3.538,0-5.307,0-4.935-.309a23.968,23.968,0,0,0-8.752,3.474,48.663,48.663,0,0,0-8.1,6.1c-3.538,3.474-5.959,6.1-8.1,7.565-3.911,2.316-6.7,4.091-8.38,4.941-1.117.463-2.142.926-3.166,1.467,0,.309,0,.309.372.309a22.984,22.984,0,0,0,4.562-1.158,20.084,20.084,0,0,0,6.331-2.625c3.538-2.934,6.983-5.79,10.521-9.032,4.935-3.783,9.777-5.558,14.432-5.558a11.479,11.479,0,0,1,2.793.309,20.5,20.5,0,0,0,3.166.618,23.116,23.116,0,0,0,11.825-3.242Zm-1.024-7.565c2.142,0,3.538.309,3.817,1.467-.745.849-2.141,1.467-4.562,2.316a25.594,25.594,0,0,1-7.728,1.467h-1.4c4.19-3.474,7.728-5.249,9.87-5.249Zm-10.521,38.6a26.778,26.778,0,0,0,6.7-3.551,16.663,16.663,0,0,0,5.121-5.327,50.013,50.013,0,0,1,6.238.849c.745,0,1.3-.695,2.048-2.007a6.254,6.254,0,0,0,1.117-3.319,1.108,1.108,0,0,0-.279-.695c-1.3-2.856-4.283-5.327-8.566-7.1a5.113,5.113,0,0,0-3.166-.849,2.959,2.959,0,0,0-2.421.849c-1.117.849-1.117,2.239-.559,3.937a7.186,7.186,0,0,0-1.583,4.4c0,1.776,1.862,2.856,5.586,3.319a18.719,18.719,0,0,1-5.307,4.246c-1.583.849-3.259,2.007-4.842,2.856a5.811,5.811,0,0,0-2.98,4.863c0,1.776,1.583,2.7,5.028,2.7a31.62,31.62,0,0,0,9.311-1.544,19.592,19.592,0,0,0,5.587-2.007c2.141-1.312,3.259-2.007,3.259-2.239a2.9,2.9,0,0,0-1.117.232c-5.866,1.081-9.59,1.775-11.173,2.007a26.607,26.607,0,0,1-8.566-.232.734.734,0,0,1-.838-.463v-.154A2.661,2.661,0,0,1,647.356,273.1Zm13.873-15.98a9.9,9.9,0,0,1,4.842,3.783c.279.463.279.695,0,.849h-.279q-4.748-.695-5.028-.695A18.339,18.339,0,0,0,661.23,257.121Zm-7.449,2.007c0-.463.559-.849,1.3-1.544a2.738,2.738,0,0,1,1.862-1.081c.838,0,1.3.463,1.583,1.544a3.841,3.841,0,0,1,.279,2.856c-3.166-.463-5.028-1.081-5.028-1.776Zm-359.867,8.8c-1.955,0-3.911,1.621-5.587,5.172a62.2,62.2,0,0,0-2.98,10.576,1.215,1.215,0,0,0-.372.54c0,.309,0,.309-.372,0v-.54c-1.024-4.091-2.328-7.334-4.283-9.8a8.342,8.342,0,0,0-6.518-3.551c-.372,0-1.024.54-1.955,2.162a12.379,12.379,0,0,0-1.676,2.47c0,.54.652,1.39,1.955,2.162a4.9,4.9,0,0,0,2.98,1.389c.652,0,.931,0,.931-.309a1.675,1.675,0,0,1,1.024-.54c.931,0,1.955,1.93,3.631,5.4s2.607,5.713,2.607,7.025c0,.849.372,1.081.652,1.081s.652-.309,1.3-1.389c.931-1.081,1.676-3.242,2.328-6.253,1.3-7.025,2.979-10.576,4.935-10.576a3.532,3.532,0,0,1,2.328,1.39,2.745,2.745,0,0,0,1.3,1.081c.652,0,1.3-.54,1.676-1.621a4.511,4.511,0,0,0,.372-1.93,3.093,3.093,0,0,0-1.3-2.162A4.062,4.062,0,0,0,293.914,267.929Zm377-58.206c-1.955-1-2.793-1.621-3.166-1.621-.186,0-.373.154-.373.463l-2.421,3.783v.463a60.82,60.82,0,0,1,5.587,3.165c.186.154.372,0,.745-.309,1.583-2.007,2.235-3.474,2.235-4.246,0-.077-.931-.618-2.607-1.7Zm-54.841,77.737c-3.445-2.007-11.825-6.176-25.512-12.583s-22.812-10.962-27.654-13.818a42.7,42.7,0,0,1-9.218-6.793c-1.583-1.621-2.141-2.7-1.583-3.4.186-.232,2.141-.695,5.68-1.081a129.756,129.756,0,0,1,15.456-.926,59.688,59.688,0,0,1,10.521.772c3.911.54,6.238,1,7.356,1.7a2.667,2.667,0,0,1,1.49,2.007c0,.695.093,1.158.279,1.235.279.154.838,0,2.048-.618a13.24,13.24,0,0,0,2.607-1.467,1.849,1.849,0,0,0,.838-.772c1.117-1.312.745-2.625-1.49-3.937-2.793-1.7-9.032-2.7-18.436-2.779-9.311-.232-16.294.386-21.136,1.775-4.935,1.467-8.38,3.4-10.242,5.481-1.49,1.776-1.3,3.705.931,5.867,1.676,1.776,5.214,4.4,10.8,7.72,1.4.849,9.777,4.786,25.326,12.274,15.456,7.257,24.3,11.657,26.815,13.2l1.21.772h10.056A30.731,30.731,0,0,0,616.072,287.459Zm105.12-45.546c-1.955-1-2.793-1.621-3.166-1.621-.186,0-.372.154-.372.463l-2.421,3.783V245a60.8,60.8,0,0,1,5.587,3.165c.186.154.372,0,.745-.309,1.583-2.007,2.235-3.474,2.235-4.169,0-.154-.838-.772-2.607-1.776Zm-6.238,24.78a9.87,9.87,0,0,0,1.21-3.937,15.193,15.193,0,0,0,.372-2.007q0-4.979-3.631-6.948c-.838-.618-4-2.007-9.4-4.091-4.376-1.776-8.007-3.628-10.615-5.944,2.421.154,3.631,0,4-.309s0-.695-1.21-1.312a8.227,8.227,0,0,1-.838-.309l-7.356-2.933c-.559-.309-.838-.463-1.024-.309s-.186.463-.186.695v3.474a1.924,1.924,0,0,0,.838,1.853,12.973,12.973,0,0,1,1.955,1.158,32.917,32.917,0,0,0,8.38,6.793,62.566,62.566,0,0,0,8.194,3.628A42.886,42.886,0,0,1,713,259.668c1.21.849,1.955,1.467,1.955,2.007a1.276,1.276,0,0,1-.652,1c-1.4,1.158-6.145,3.783-14.153,8.106-8.939,4.941-15.084,7.411-18.156,7.411-2.98,0-5.4-2.007-5.4-4.477v-.463c0-2.316.745-5.481,2.141-9.727a6.936,6.936,0,0,0,.372-1.312c0-.309,0-.309-.186-.309s-.559.463-1.024,1.312a31.428,31.428,0,0,0-2.98,12.583c0,5.481,2.421,8.106,7.356,8.106,2.607,0,8.38-2.316,17.132-7.257A129.276,129.276,0,0,0,713,268.546,5.407,5.407,0,0,0,714.954,266.693Zm11.359-62.529a29.223,29.223,0,0,0-6.8-6.1c-2.979-1.853-7.449-3.4-13.315-4.477-.186-5.79-.279-10.113-.559-13.509a29.543,29.543,0,0,0-1.955-7.951,23.89,23.89,0,0,0-3.911-7.72c-1.3-1.621-2.514-2.161-3.631-1.467-1.676.926-2.886,4.555-4,11.039-.186,7.488-.279,13.355-.466,17.832-2.979-.618-4.842-1.081-4.935-1.312s.838-.772,2.7-1.853c1.21-.695,1.49-1.158,1.4-1.39s-.559-.232-1.769-.463c-2.141,0-5.028-.077-8.845,0a25.47,25.47,0,0,0-6.238.618c-.279.154-.279,1,.838,2.779a24.526,24.526,0,0,0,2.793,4.632,4.212,4.212,0,0,0,2.886,1.312c2.048.309,3.445.695,4.19.849,2.979,1,5.307,1.7,6.7,2.084a83.429,83.429,0,0,1-2.793,13.355,77.8,77.8,0,0,1-2.514,8.183,13.984,13.984,0,0,0-.745,3.4l.186.232a8.339,8.339,0,0,0,1.769-2.162c4.655-5.867,7.449-13.278,8.1-21.924,2.048.309,4,.618,6.238,1.158.466,6.176.931,10.962,1.955,13.9a28.114,28.114,0,0,0,5.587,10.653c4,4.786,7.914,6.1,11.732,3.86,2.421-1.39,4.469-4.014,6.331-7.72a20.854,20.854,0,0,0,2.793-8.646,16.04,16.04,0,0,0-1.3-4.555,28.6,28.6,0,0,0-2.421-4.632Zm-24.767-11.116a48.645,48.645,0,0,1-5.773-.54c0-9.418.931-15.517,2.328-18.6a3.576,3.576,0,0,1,.931-1.081c1.211-.695,2.235,2.239,2.235,8.723C701.639,188.03,701.546,191.813,701.546,193.048ZM723.52,208.1a22.32,22.32,0,0,1-4.19,8.569,15.358,15.358,0,0,1-4.1,4.091c-2.886,1.621-5.028,1.7-6.331.077a1.153,1.153,0,0,1-.279-.772,30.351,30.351,0,0,1-1.862-9.5,40.427,40.427,0,0,1,.093-8.878,51.467,51.467,0,0,1,16.48,4.091c.466.077.466,1,.186,2.316Zm-5.587,72.565c-1.955-1-2.793-1.621-3.166-1.621-.186,0-.372.154-.372.463l-2.421,3.783v.463a60.82,60.82,0,0,1,5.587,3.165c.186.154.372,0,.745-.309,1.583-2.007,2.235-3.474,2.235-4.169,0-.232-.931-.772-2.607-1.776Zm-84.45-10.5c0,.309-.372.309-.372.54-1.676,2.47-2.979,3.551-3.911,3.551-1.955,0-2.98-1.621-2.98-4.632,0-2.162,1.024-6.253,3.259-11.657.279-1.39.652-2.161.652-2.47-.279,0-.652.849-1.676,2.161-3.259,5.4-4.935,10.344-4.935,15.208,0,4.091,1.3,5.944,4.283,5.944,2.607,0,4.562-2.47,5.866-7.874v-.54c.093-.309.093-.309-.186-.232ZM398.662,253.724c1.4,0,5.4-1.621,12.383-4.941,8.007-3.783,13.78-7.411,17.132-10.576a15.578,15.578,0,0,0,3.724-4.941,20.854,20.854,0,0,0,2.421-4.941q7.821,6.253,12.57,6.253a3.49,3.49,0,0,0,2.607-1.853,12.021,12.021,0,0,0,1.769-3.783,6.8,6.8,0,0,0,.186-1.93,9.568,9.568,0,0,0-1.4-5.481,5.7,5.7,0,0,0-4.935-2.933c-2.607,0-5.214,1.467-8.007,4.477a1.855,1.855,0,0,0-.931-.309c-.559,0-.838.309-1.21.695-.372.618-1.024,1.93-2.235,3.937a37.779,37.779,0,0,1-2.421,4.091c-2.793,3.474-10.149,7.72-21.694,12.892-4.562,2.007-10.149,4.169-17.132,6.639-9.777,3.474-15.177,5.327-16.294,5.79-2.421.849-3.631,1.467-3.631,1.621s0,.154.186.154a27.755,27.755,0,0,0,3.538-.463c1.769-.154,6.145-1,13.315-2.47C395.124,254.419,398.476,253.724,398.662,253.724Zm42.644-29.258a7.27,7.27,0,0,1,2.235-.618,3.822,3.822,0,0,1,2.421,1.158,4.789,4.789,0,0,1,1.21,2.316c.186.849,0,1.312-.372,1.312a14.092,14.092,0,0,1-3.538-1.467,22.346,22.346,0,0,1-3.538-2.007c.186-.154.745-.309,1.583-.695Zm-83.612,24.008c2.421-2.856,3.445-5.327,3.445-7.334,0-2.856-1.676-4.246-5.68-4.246a32.594,32.594,0,0,0-9.59,2.007c-3.911,1.467-7.821,2.856-11.825,4.091a174.9,174.9,0,0,1-21.136,5.867,113.486,113.486,0,0,1-24.581,3.088c-10.8,0-18.622-1.853-23.836-5.327-3.445-2.239-5.121-4.863-5.121-7.951a17.264,17.264,0,0,1,1.024-6.485c.745-1.621,1.49-3.088,2.235-4.709a7.714,7.714,0,0,0,.745-2.47v-.386c-.466,0-.931.772-1.955,2.239a24.893,24.893,0,0,0-4.376,14.436,16.487,16.487,0,0,0,4.655,12.043c4.655,4.477,12.29,6.948,22.625,6.948,9.776,0,22.346-2.007,37.337-6.33,2.421-.618,9.59-2.856,21.6-6.716,5.4-1.621,8.845-2.47,10.8-2.47,1.21,0,1.955.232,1.955.772,0,.849-1.955,3.088-6.145,6.948-4.376,4.246-7.356,7.951-8.566,11.193a30.309,30.309,0,0,0-1.21,4.091c0,.077.093.232.186.232h0c.279,0,1.21-1.389,2.979-4.246a30.228,30.228,0,0,1,4.655-5.327c1.49-1.467,3.166-3.088,4.655-4.477,2.886-3.088,4.655-4.863,5.121-5.481Zm4.19,29.026c0,.309-.372.309-.372.54-1.676,2.47-2.979,3.551-3.911,3.551-1.955,0-2.979-1.621-2.979-4.632,0-2.161,1.024-6.253,3.259-11.657a22.9,22.9,0,0,0,.652-2.47c-.372,0-.652.849-1.676,2.161-3.259,5.4-4.935,10.344-4.935,15.208,0,4.091,1.3,6.021,4.283,6.021,2.607,0,4.562-2.47,5.866-7.874v-.54c.093-.309.093-.309-.186-.309Zm-42.551-14.436a20.729,20.729,0,0,0-3.818.154,4.772,4.772,0,0,0-3.352,1.621l-1.955,2.779c-.372.463-.559.618-.559.695s.559.309,1.583.154h3.259c5.773,0,8.566.309,8.566.849,0,.154,0,.154-.186.309a58.045,58.045,0,0,1-5.586,2.625,53.494,53.494,0,0,0-6.145,2.933,9.76,9.76,0,0,0-1.024.695c0,.154.559,0,1.583-.154,5.587-1.312,9.125-2.162,10.149-2.779a24.832,24.832,0,0,0,4.935-4.477c1.583-1.776,2.421-2.933,2.421-3.474C329.3,263.606,325.944,263.065,319.333,263.065Zm186.591,4.863a14.558,14.558,0,0,0,4-7.488,6.711,6.711,0,0,0-.652-5.172c-.279-.618-.466-.849-.745-.849-.466-.077-.745.232-1.117.926a32.385,32.385,0,0,0-2.7,4.863l1.4,3.011a5.11,5.11,0,0,1-4.283.849,5.869,5.869,0,0,1-3.911-1.93c-.931-.926-1.4-1.7-1.21-2.625,0,.154.652-.695,1.583-2.779.279-.154.279-.309.372-.695.093-.54-.093-.772-.466-.849a1.771,1.771,0,0,0-1.49.54c-2.048,1.776-3.911,3.319-5.959,5.1a12.036,12.036,0,0,1-9.87,2.393c-3.073-.463-5.587-1.621-6.983-3.319a11.683,11.683,0,0,1-2.048-4.091c-.186-1-.559-1.39-.838-1.467s-.559.309-.838.772a21.99,21.99,0,0,0-2.979,5.018,5.3,5.3,0,0,0,.186,2.084c2.328,5.79,2.886,10.422,2.141,13.741-.279,1.235-2.886,2.934-8.194,5.1a85.166,85.166,0,0,1-18.715,5.4A68.566,68.566,0,0,1,419.8,287c-7.914-1.235-13.315-4.323-16.294-9.186a13.829,13.829,0,0,1-2.235-11.194c.186-.695,1.583-4.091,4.376-10.036.372-.695.466-1.235.093-1.312a1.626,1.626,0,0,0-1.117.926,30.807,30.807,0,0,0-3.817,6.948,26.132,26.132,0,0,0-1.676,5.172c-1.4,6.021-.931,11.194,1.3,15.285,2.421,4.709,6.983,7.951,13.315,9.727h26.536c2.142-.463,4.19-.926,6.425-1.544,8.473-2.393,15.27-5.172,19.832-8.414,3.445-2.084,5.866-6.793,7.542-14.127a24.523,24.523,0,0,0,3.445.926c5.028.772,9.776-.926,14.153-5.172,1.3,3.242,3.166,5.018,5.587,5.4A9.108,9.108,0,0,0,505.924,267.929Zm36.406-.232a102.715,102.715,0,0,1-16.2-11.657c-2.421-2.393-4.842-4.863-7.356-7.411a23.6,23.6,0,0,0-2.048-1.93c-.186-.077-.186-.077-.279,0s.186.772.838,2.316c1.769,4.632,3.166,7.951,4.1,10.113s3.259,4.477,6.518,6.948c1.769,1.235,4.656,3.088,8.566,5.481,4.655,2.779,18.063,9.186,39.851,19.376.931.386,1.769.849,2.7,1.235h13.5l-11.452-5.4c-20.857-9.881-33.706-16.134-38.733-19.068Zm-18.156,16.057c-.838,1.158-1.583,1.7-2.141,1.776-1.024,0-1.583-.695-1.583-2.316a12.614,12.614,0,0,1,1.769-5.635,2.195,2.195,0,0,0,.372-1.312c0-.618-.559-1.158-1.583-1.776a9.014,9.014,0,0,0,.745-3.474c0-1.158-.372-1.853-1.024-2.161a4.786,4.786,0,0,0-3.538,1.158,4.467,4.467,0,0,0-2.142,3.474c0,1,1.024,2.007,3.352,3.011a33.268,33.268,0,0,1-7.728,4.632c-2.793,1.467-5.586,2.779-8.38,4.169-.745.309-.838.618-.838.695a2.148,2.148,0,0,0,1.21-.309c3.817-1.158,5.959-1.776,6.331-1.93a41.38,41.38,0,0,0,5.959-3.011,17.912,17.912,0,0,0,4.749-3.937c1.024.618,1.583.849,1.583,1.158,0,0-.372.849-1.024,2.625a13.6,13.6,0,0,0-1.024,4.246c0,2.161.745,3.165,2.235,3.165,1.4,0,2.421-1.467,3.166-4.323v-.309h-.186a.687.687,0,0,0-.279.386Zm-4.562-9.8c-1.769-.695-2.607-1.312-2.607-1.776,0-.154.372-.309.745-.618a5.176,5.176,0,0,1,1.024-.309c.559,0,.838.309,1.024.849a2.542,2.542,0,0,1-.186,1.853ZM386.464,284.6c-1.955-1-2.793-1.621-3.166-1.621-.186,0-.372.154-.372.463l-2.421,3.783v.463a60.792,60.792,0,0,1,5.587,3.165c.186.154.372,0,.745-.309,1.583-2.007,2.328-3.474,2.328-4.169a8.571,8.571,0,0,0-2.7-1.776Zm52.886-20.612a53.5,53.5,0,0,0-6.145,2.933,9.77,9.77,0,0,0-1.024.695c0,.154.559,0,1.583-.154,5.586-1.312,9.125-2.161,10.149-2.779a24.832,24.832,0,0,0,4.935-4.477c1.583-1.776,2.421-2.933,2.421-3.474,0-1.312-3.352-1.853-9.963-1.853a20.727,20.727,0,0,0-3.817.154,4.772,4.772,0,0,0-3.352,1.621l-1.955,2.779c-.372.463-.559.618-.559.695s.559.309,1.583.154h3.352c5.773,0,8.566.309,8.566.849,0,.154,0,.154-.186.309C443.168,262.293,441.306,263.22,439.35,263.992ZM84.7,279.2c-1.955-1-2.793-1.621-3.166-1.621-.186,0-.372.154-.372.463l-2.421,3.783v.463a60.817,60.817,0,0,1,5.587,3.165c.186.154.372,0,.745-.309,1.583-2.007,2.235-3.474,2.235-4.169C87.4,280.82,86.467,280.28,84.7,279.2ZM350.617,20.436a11.663,11.663,0,0,0-2.886,7.1,5.26,5.26,0,0,0,1.862,4.246,6.171,6.171,0,0,0,4.655,1.7h5.493a12.554,12.554,0,0,1,5.866,1.158c2.048,1,2.886,2.007,2.886,3.551-.652,1-3.073,3.011-7.356,5.944a98.592,98.592,0,0,1-16.108,8.492c-7.169,2.856-13.687,4.246-19.553,4.246-7.356,0-12.849-1.853-16.48-5.713a14.129,14.129,0,0,1-4.283-9.65c0-.849.652-4.091,1.862-9.8.186-.695.186-1-.186-1.158a2.4,2.4,0,0,0-.838,1,25.223,25.223,0,0,0-2.048,6.793,17.171,17.171,0,0,0-.372,4.863c0,5.558,1.4,10.113,4.283,13.664,3.911,4.555,9.963,6.948,18.156,6.948,7.728,0,16.108-2.547,25.512-7.411,6.7-3.783,11.825-7.334,15.642-11.194,2.886-2.7,4.283-6.407,4.283-11.116a17.539,17.539,0,0,0-4.655-12.351c-2.886-3.242-6.145-4.709-9.59-4.709C354.714,16.885,352.666,18.12,350.617,20.436Zm11.639,6.793c-2.7-.154-4.655-.309-5.959-.309-2.235-.154-3.445-.849-3.445-2.007,0-.849,1.024-1.39,2.7-1.39A8.015,8.015,0,0,1,362.256,27.229ZM348.848,75.323a36.345,36.345,0,0,1-13.873-2.7,28.762,28.762,0,0,1-4.376-2.47,12.213,12.213,0,0,0-1.769-1c-.838,0-1.49,1-1.769,2.933a52.722,52.722,0,0,0,3.817,4.863,15.388,15.388,0,0,1,1.21,5.4v1.467c.279,0,.559-.463.931-1.235,1.21-2.47,1.21-4.4.559-5.867a37.772,37.772,0,0,0,14.153,2.7c9.4,0,19.087-2.162,29.422-6.33a5.051,5.051,0,0,1,2.607-.772,2.012,2.012,0,0,1,2.048,1.467c-1.21,1-2.421,2.084-3.538,3.165a18.114,18.114,0,0,0-4.376,5.635,4.114,4.114,0,0,0-.559,1.467h.279a15.732,15.732,0,0,0,2.048-2.162,50.579,50.579,0,0,1,4.749-4.632c1.117-1.081,2.235-2.239,3.259-3.4a6.487,6.487,0,0,0,.838-3.165c0-1.7-1.21-2.7-3.538-2.7-.931,0-2.979.695-6.145,1.93Q369.8,72,364.491,73.624A66.357,66.357,0,0,1,348.848,75.323Zm27.095-29.489c.559.232.838.232.838.695v3.783a7.012,7.012,0,0,0,1.117,4.246,4.211,4.211,0,0,0,2.793,1.158c2.793,0,4.562-1.621,5.68-4.709.838,2.316,2.514,3.783,4.842,3.783,1.117,0,2.235-.926,3.445-2.625a10.068,10.068,0,0,0,.838-4.014,7.863,7.863,0,0,0-.838-2.856c-1.117-2.162-1.676-3.319-1.676-3.319a10.484,10.484,0,0,0-.559-2.316c0-.463,0-.926-.279-.926a10.038,10.038,0,0,1-.838.926,3.606,3.606,0,0,0-.838,2.316c0,1.853,1.117,4.246,3.352,7.334a1.922,1.922,0,0,1-1.955,1.39c-2.514,0-4-1.39-4-4.014a18.255,18.255,0,0,0-.838-4.477c-.279-1.853-.838-2.856-1.117-2.856s-.559.232-.838.926a2.191,2.191,0,0,0-.559,1.621,6.033,6.033,0,0,0,.559,2.547c.279,1.621.559,2.625.559,3.088a2.912,2.912,0,0,1-1.4,2.856,3.344,3.344,0,0,1-2.793,1.158c-.838,0-1.4-.463-1.955-1.39a5.2,5.2,0,0,1-.838-2.856c0-.232.279-.926.279-1.39a4.973,4.973,0,0,0,.279-2.316c0-1.621-.279-2.547-.838-2.547-.279,0-.838.463-1.676,1.158a3.622,3.622,0,0,0-1.49,2.548c-.093.618.186.849.745,1.081ZM347.452,14.877c.372.154.652.154.838-.154a31.348,31.348,0,0,0,2.235-3.705c2.235,1.39,4.469,2.547,6.145,3.551.372.154.559.154.838-.154,1.862-2.547,2.886-4.091,2.886-4.941a29.241,29.241,0,0,0-3.259-2.239,17.007,17.007,0,0,0-3.445-1.7c-.186,0-.372.154-.652.309L350.99,9.551a24.178,24.178,0,0,0-3.631-2.162,12.283,12.283,0,0,0-2.886-1.544c-.186,0-.372.154-.652.54l-2.607,4.4a.311.311,0,0,0-.093.463l.093.077C343.355,12.484,345.4,13.642,347.452,14.877Zm-80.167,8.106c1.676-1.39,3.073-2.084,4.469-2.084a2.124,2.124,0,0,1,1.676.463,5.8,5.8,0,0,0,2.235.463,6.145,6.145,0,0,0,6.145-3.937,2.644,2.644,0,0,0,.279-1.158c3.073,4.863,9.59,7.256,19.367,7.256a73.151,73.151,0,0,0,28.119-6.1,7.093,7.093,0,0,1,2.514-.695,2,2,0,0,1,1.955,1.39,28.323,28.323,0,0,0-3.352,3.011,20.684,20.684,0,0,0-3.911,5.327,2.065,2.065,0,0,0-.559,1.39c.279,0,.838-.695,2.235-2.084.559-.695,2.235-2.316,4.19-4.4a35.353,35.353,0,0,0,3.073-3.242,5.927,5.927,0,0,0,.838-3.011c0-1.621-1.117-2.547-3.352-2.547-.838,0-2.793.695-5.587,1.853-3.911,1.621-7.262,2.547-10.149,3.474a58,58,0,0,1-14.618,1.621c-8.752,0-14.618-1.621-17.691-5.095a48.634,48.634,0,0,1-2.793-6.485c-.931-3.011-1.769-4.4-2.048-4.4-.559,0-.838.463-1.117,1.158a2.667,2.667,0,0,0-.559,1.621,11.122,11.122,0,0,0,1.117,3.474,8.532,8.532,0,0,1,1.117,4.169c0,2.084-1.4,3.011-4.469,3.011a8.828,8.828,0,0,1-2.793-.463,2.3,2.3,0,0,0-1.4-.463c-.838,0-1.955.463-3.631,1.853a8.109,8.109,0,0,0-2.514,4.169C266.447,23.446,266.726,23.446,267.285,22.983ZM193.822,41.047c5.214,4.169,12.477,7.025,21.322,8.955,7.262,1.467,13.5,2.162,18.436,1.621,3.538-.154,7.914-2.7,13.5-7.488a19.468,19.468,0,0,0,5.587,6.948,40.885,40.885,0,0,0,16.387,7.642,37.346,37.346,0,0,0,10.708,1.235,16.8,16.8,0,0,0,5.121-1.544,17.8,17.8,0,0,0,4.842-2.779c1.3-1.081,1.769-3.319,1.49-6.253a11.445,11.445,0,0,0-4.842-8.723c-3.352-2.7-8.659-3.628-16.015-2.856-2.328.232-7.821,1.235-16.76,3.165a7.9,7.9,0,0,1-.372-6.639c.279-.695.372-1,.093-1.235-.093-.077-.372-.077-1.024.232-2.886,1.39-4.376,2.084-4.655,2.239a3.577,3.577,0,0,0-1.024,1.776,23.527,23.527,0,0,1-6.7,10.036c-.931.772-3.631.926-8.566.463A78.746,78.746,0,0,1,215.33,44.6a47.8,47.8,0,0,1-16.2-8.106c-4.842-3.86-6.89-8.028-6.425-12.506a12.206,12.206,0,0,1,4.469-8.569c.466-.463,3.352-2.239,8.473-5.4.652-.309,1.024-.695.745-.849s-.652-.077-1.3.232a38.282,38.282,0,0,0-6.518,3.4,23.759,23.759,0,0,0-4,3.011c-4.283,3.705-6.8,7.411-7.449,11.194C186.187,32.092,188.421,36.8,193.822,41.047ZM279.854,43.9a12.751,12.751,0,0,1,4.283,7.874c.559,2.856.652,4.555,0,5.095-.372.309-1.955.154-4.842-.463a60.675,60.675,0,0,1-9.776-2.856A46.374,46.374,0,0,1,259,47.532a19.439,19.439,0,0,1-4.19-4.632C266.912,40.044,275.2,40.43,279.854,43.9Zm-56.89-13.278c2.607,0,4.562-2.47,5.866-7.874v-.54c0-.309,0-.309-.279-.309,0,.309-.372.309-.372.54-1.676,2.47-2.98,3.551-3.911,3.551-1.955,0-2.98-1.621-2.98-4.632,0-2.162,1.024-6.253,3.259-11.657a22.911,22.911,0,0,0,.652-2.47c-.279,0-.652.849-1.676,2.162-3.259,5.4-4.935,10.344-4.935,15.208C218.775,28.7,220.078,30.626,222.965,30.626ZM392.61,17.579a4.9,4.9,0,0,0,2.98,1.39c.652,0,1.024,0,1.024-.309a1.674,1.674,0,0,1,1.024-.54c.931,0,1.955,1.93,3.631,5.4s2.607,5.713,2.607,7.025c0,.772.372,1.081.652,1.081s.652-.309,1.3-1.39c1.024-1.081,1.676-3.242,2.328-6.253,1.3-7.025,2.979-10.576,4.935-10.576a3.532,3.532,0,0,1,2.328,1.39,3.272,3.272,0,0,0,1.3,1.081c.652,0,1.3-.54,1.676-1.621a4.511,4.511,0,0,0,.372-1.93,3.093,3.093,0,0,0-1.3-2.162,3.618,3.618,0,0,0-2.98-1.93c-1.955,0-3.911,1.621-5.587,5.172a62.2,62.2,0,0,0-2.98,10.576,1.214,1.214,0,0,0-.372.54c0,.232,0,.232-.372,0v-.54a24.2,24.2,0,0,0-4.283-9.8,8.342,8.342,0,0,0-6.518-3.551c-.372,0-.931.54-1.955,2.162a15.076,15.076,0,0,0-1.676,2.47C390.561,15.958,391.306,16.807,392.61,17.579ZM240,12.87h3.352c5.773,0,8.566.309,8.566.849,0,.154,0,.154-.186.309a58.039,58.039,0,0,1-5.587,2.625A53.491,53.491,0,0,0,240,19.586a9.758,9.758,0,0,0-1.024.695c0,.154.559,0,1.583-.154,5.587-1.312,9.125-2.162,10.149-2.779a24.831,24.831,0,0,0,4.935-4.477c1.583-1.776,2.421-2.933,2.421-3.474,0-1.312-3.352-1.853-9.963-1.853a20.729,20.729,0,0,0-3.817.154,4.6,4.6,0,0,0-3.352,1.621L238.979,12.1c-.372.463-.559.54-.559.695S238.98,13.025,240,12.87ZM438.326,82.579c1.583-2.007,2.328-3.474,2.328-4.169a11.273,11.273,0,0,0-2.607-1.776c-1.955-1-2.793-1.621-3.166-1.621-.186,0-.372.154-.372.463l-2.421,3.783v.463a60.813,60.813,0,0,1,5.586,3.165c.093.077.279,0,.652-.309ZM407.414,51.855c1.583-2.007,2.235-3.474,2.235-4.246a11.272,11.272,0,0,0-2.607-1.776c-1.955-1-2.793-1.621-3.166-1.621-.186,0-.372.154-.372.463l-2.421,3.783v.463a60.8,60.8,0,0,1,5.586,3.165C406.855,52.241,407.042,52.086,407.414,51.855ZM395.03,229.948c1.583-2.007,2.235-3.474,2.235-4.169A11.272,11.272,0,0,0,394.658,224c-1.955-1-2.793-1.621-3.166-1.621-.186,0-.372.154-.372.463l-2.421,3.783v.463c1.955,1,3.818,2.084,5.587,3.165C394.472,230.334,394.658,230.179,395.03,229.948Zm12.384-32.191c1.583-2.007,2.235-3.474,2.235-4.169a11.272,11.272,0,0,0-2.607-1.776c-1.955-1-2.793-1.621-3.166-1.621-.186,0-.372.154-.372.463l-2.421,3.783v.463a60.805,60.805,0,0,1,5.586,3.165c.186.154.372,0,.745-.309Zm-20.577-53.266c1.583-2.007,2.328-3.474,2.328-4.169a14.875,14.875,0,0,0-2.607-1.776c-1.955-1-2.793-1.621-3.166-1.621-.186,0-.372.154-.372.463l-2.421,3.783v.463c1.955,1,3.817,2.084,5.587,3.165.093.154.279,0,.652-.309Zm41.527,16.829c1.583-2.007,2.235-3.474,2.235-4.169a11.272,11.272,0,0,0-2.607-1.776c-1.955-1-2.793-1.621-3.166-1.621-.186,0-.372.154-.372.463L422.032,158v.463a60.8,60.8,0,0,1,5.587,3.165c.186.077.372,0,.745-.309Zm14.06-22.927a53.487,53.487,0,0,0-6.145,2.933,9.762,9.762,0,0,0-1.024.695c0,.154.559,0,1.583-.154,5.587-1.312,9.125-2.162,10.149-2.779a24.829,24.829,0,0,0,4.935-4.477c1.583-1.776,2.421-2.933,2.421-3.474,0-1.312-3.352-1.853-9.963-1.853a20.727,20.727,0,0,0-3.817.154,4.772,4.772,0,0,0-3.352,1.621l-1.955,2.779c-.372.463-.466.618-.466.695s.466.309,1.583.154h3.352c5.773,0,8.566.309,8.566.849,0,.154,0,.154-.186.309-1.862.926-3.724,1.776-5.68,2.548ZM176.41,14.491c1.583-2.084,2.235-3.474,2.235-4.169a11.271,11.271,0,0,0-2.607-1.776c-1.955-1-2.793-1.621-3.166-1.621-.186,0-.372.154-.372.463l-2.421,3.783v.463a60.807,60.807,0,0,1,5.587,3.165C175.852,14.877,176.038,14.723,176.41,14.491Zm259.4,8.492c2.7,2.856,12.756,11.425,12.942,13.587.186,1.621-9.5,16.057-38.826,34.893l-2.142,1.312a354.567,354.567,0,0,1-41.154,21.847s4.655-.232,16.946-3.937a238.842,238.842,0,0,0,23.184-8.569s40.782-24.24,43.389-35.9.559-18.913-4.1-23.7-8.939-9.958-8.939-9.958l3.166-.695-12.57-8.8s-1.21,7.951.093,10.113a92.328,92.328,0,0,0,8.007,9.8Zm10.428,71.33c-2.514,0-5.028,2.084-7.076,6.176-2.048,6.176-3.352,10.344-3.724,13.432a4.842,4.842,0,0,0-.466,1H434.6v-1a26.356,26.356,0,0,0-5.4-12.043c-2.514-3.088-5.4-4.786-8.287-4.786-.465,0-1.21,1-2.514,2.779a16.484,16.484,0,0,0-2.048,3.088c0,.695.838,1.7,2.514,3.088,1.676,1,2.886,1.7,3.724,1.7a2.15,2.15,0,0,0,1.676-.695c0-.309.466-.309.838-.309,1.21,0,2.514,2.084,4.562,6.562,2.514,4.477,3.352,7.565,3.352,8.955a3.328,3.328,0,0,0,.279,1.312c-.466.386-.931.926-1.49,1.467-1.676,2.084-4.562,3.783-7.914,6.176-13.687,7.256-24.115,12.737-31.564,16.134-1.676.695-2.514,1.39-2.514,1.7h.466a6.039,6.039,0,0,0,2.886-.695c9.125-2.779,13.687-4.169,14.991-4.477a116.846,116.846,0,0,0,14.153-7.179c5.4-3.474,9.59-6.87,11.173-10.653.838-1.621,1.49-2.779,1.862-3.474l.279-.309c1.21-1.7,2.048-4.477,2.886-8.26,2.048-8.569,4.19-13.046,6.238-13.046a3.581,3.581,0,0,1,2.886,1.39c.838,1,1.676,1.7,2.048,1.7s1.21-.695,1.676-2.084a5.38,5.38,0,0,0,.372-2.393,5.279,5.279,0,0,0-1.676-3.088c-1.3-1.467-2.514-2.162-3.818-2.162ZM15.611,166.106a62.1,62.1,0,0,0-6.145,2.933,9.759,9.759,0,0,0-1.024.695c0,.154.559,0,1.583-.154,5.587-1.312,9.125-2.162,10.149-2.779a24.831,24.831,0,0,0,4.935-4.477c1.583-1.775,2.421-2.933,2.421-3.474,0-1.312-3.352-1.853-9.963-1.853a20.727,20.727,0,0,0-3.817.154,4.772,4.772,0,0,0-3.352,1.621l-1.955,2.779c-.372.463-.559.618-.559.695s.559.309,1.583.154h3.352c5.773,0,8.566.309,8.566.849,0,.154,0,.154-.186.309a57.735,57.735,0,0,1-5.587,2.548ZM152.388,77.252c-.279,0-.652.849-1.676,2.162-3.259,5.4-4.935,10.344-4.935,15.208,0,4.091,1.3,5.944,4.283,5.944,2.607,0,4.562-2.47,5.866-7.874v-.54c0-.232,0-.232-.372-.232,0,.232-.372.232-.372.54-1.676,2.47-2.979,3.551-3.911,3.551-1.955,0-2.979-1.621-2.979-4.632,0-2.162,1.024-6.253,3.259-11.657C152.016,78.333,152.388,77.484,152.388,77.252Zm0,139.186c.372-.077.372-.232,0-.618a17.748,17.748,0,0,1-1.676-.926,40.7,40.7,0,0,0-13.5-4.941c-1.862-.386-9.776-1.544-24.022-3.474-14.339-2.007-21.415-3.011-21.788-3.088-.559-.077-.652-.309-.279-.386,2.7-1.235,3.538-1.853,2.607-2.007a5.2,5.2,0,0,0-1.583-.154c-.931.077-3.352.232-7.449.772-3.911.386-6.145.695-7.076.849-.372.077-.745.154-.838.309l.559.386a20.906,20.906,0,0,0,5.121,2.7,16.707,16.707,0,0,1,5.866.309c1.862.386,10.987,1.775,27.281,4.014,16.2,2.393,25.512,3.628,27.747,4.091,2.421.463,4.562,1.081,6.425,1.544.838.154,1.676.386,2.607.618ZM138.049,276.5c2.607,0,4.562-2.47,5.866-7.874v-.54c0-.309,0-.309-.372-.309,0,.309-.372.309-.372.54-1.676,2.47-2.98,3.551-3.911,3.551-1.955,0-2.979-1.621-2.979-4.632,0-2.161.931-6.253,3.259-11.657a22.906,22.906,0,0,0,.652-2.47c-.372,0-.652.772-1.676,2.161-3.259,5.4-4.935,10.344-4.935,15.208C133.766,274.568,135.07,276.5,138.049,276.5Zm-18.343-54.81c1.583-2.007,2.235-3.474,2.235-4.169a11.272,11.272,0,0,0-2.607-1.776c-1.955-1-2.793-1.621-3.166-1.621-.186,0-.372.154-.372.463l-2.421,3.783v.463A60.8,60.8,0,0,1,118.962,222c.279.077.372,0,.745-.309ZM151.922,51.237a12.728,12.728,0,0,0-2.979-1.467,1.023,1.023,0,0,0-.559.309l-1.769,3.242a24.911,24.911,0,0,0-3.166-1.853,14.067,14.067,0,0,0-2.421-1.312q-.279,0-.559.463L138.235,54.4c-.186.077-.186.232-.093.386l.093.077c1.862.926,3.631,1.93,5.4,3.011.372.154.559.154.745-.154a23.22,23.22,0,0,0,1.955-3.165c1.955,1.158,3.817,2.162,5.214,3.011.372.154.559.154.745-.154,1.583-2.162,2.421-3.474,2.421-4.169A16.893,16.893,0,0,0,151.922,51.237ZM88.981,162.015c-.279,0-.652.849-1.676,2.162-3.259,5.4-4.935,10.344-4.935,15.208,0,4.091,1.3,5.944,4.283,5.944,2.607,0,4.562-2.47,5.866-7.874v-.54c0-.309,0-.309-.372-.309,0,.309-.279.309-.279.54-1.676,2.47-2.979,3.551-3.911,3.551-1.955,0-2.979-1.621-2.979-4.632,0-2.162,1.024-6.253,3.259-11.657A14.925,14.925,0,0,0,88.981,162.015Zm-7.449-30.338c-.186,0-.372.154-.372.463l-2.421,3.783v.463a60.813,60.813,0,0,1,5.587,3.165c.186.154.372,0,.745-.309,1.583-2.007,2.235-3.474,2.235-4.169A11.272,11.272,0,0,0,84.7,133.3a12.782,12.782,0,0,0-3.166-1.621Zm22.16-34.2c-.279,0-.652.849-1.676,2.162-3.259,5.4-4.935,10.344-4.935,15.208,0,4.091,1.3,5.944,4.283,5.944,2.607,0,4.562-2.47,5.866-7.874v-.54c0-.309,0-.309-.279-.309,0,.309-.279.309-.279.54-1.676,2.47-2.979,3.551-3.911,3.551-1.955,0-2.979-1.621-2.979-4.632,0-2.162,1.024-6.253,3.259-11.657a23.993,23.993,0,0,0,.652-2.393Zm66.108-4.4a48.189,48.189,0,0,0,14.525-2.393,34.6,34.6,0,0,0,8.752-3.088c3.352-2.084,5.028-3.088,5.028-3.4a12.763,12.763,0,0,0-1.676.309c-9.125,1.7-14.9,2.779-17.411,3.088a42.177,42.177,0,0,1-13.315-.309,1.035,1.035,0,0,1-1.21-.772v-.232c0-.309.838-1,2.048-1.39a39.288,39.288,0,0,0,10.335-5.481c2.886-1.7,5.4-4.477,7.914-8.26,6.518.618,9.87,1.312,9.683,1.39,1.21-.077,1.955-1.081,3.166-3.088a8.725,8.725,0,0,0,1.676-5.172,1.023,1.023,0,0,0-.372-1c-2.048-4.477-6.611-8.26-13.315-11.039a9.01,9.01,0,0,0-4.935-1.39c-1.676,0-2.886.309-3.724,1.39-1.676,1.39-1.676,3.474-.838,6.176a12.846,12.846,0,0,0-2.514,6.871c0,2.779,2.886,4.477,8.752,5.172a28.847,28.847,0,0,1-8.287,6.562c-2.514,1.39-5.028,3.088-7.449,4.477-2.886,1.776-4.655,4.555-4.562,7.565-.186,2.625,2.328,4.014,7.728,4.014Zm18.249-33.04A14.086,14.086,0,0,1,195.5,65.9c.372.695.372,1,0,1.39h-.372c-5.028-.695-7.449-1-7.914-1a24.063,24.063,0,0,0,.838-6.253ZM176.41,63.125c0-.695.838-1.39,2.048-2.393a4.736,4.736,0,0,1,2.886-1.7c1.21,0,2.048.695,2.514,2.393a5.4,5.4,0,0,1,.372,4.477c-4.935-.695-7.821-1.7-7.821-2.779ZM131.9,118.244a25.434,25.434,0,0,1-5.4,1.776c-1.3.077-2.793.309-4.283.463a8.62,8.62,0,0,0-2.048.463l-.279.154c.186.232.931.232,2.328.232a29.232,29.232,0,0,0,12.384-2.7c3.724-1.7,6.238-3.86,7.449-6.562,1.862-4.014.931-8.723-2.607-14.05Q134,89.8,121.848,80.881c-7.076-5.172-12.1-8.183-15.177-8.955a14.876,14.876,0,0,0-5.866-.618,25.435,25.435,0,0,0-5.4,1.776,17.932,17.932,0,0,0-9.125,8.183c-1.676,3.088-1.769,5.79-.279,7.951.838,1.235,2.793,2.084,5.773,2.316a15.973,15.973,0,0,0,7.635-1.158,5.461,5.461,0,0,0,3.073-2.933,3.435,3.435,0,0,0-.372-3.628l-2.328-3.4a6.914,6.914,0,0,1-1.4-4.169,3.07,3.07,0,0,1,2.048-3.242,92.776,92.776,0,0,1,14.339,8.955c7.542,5.635,13.315,11.271,16.946,16.752,3.724,5.558,5.214,10.19,4.19,14.127a6.828,6.828,0,0,1-4,5.4Zm-37.151-29.8c-.931.463-1.676-.077-2.514-1.158-.838-1.621-.745-3.474.745-5.79q1.536,2.779,2.235,3.937c.559,1.544.466,2.548-.466,3.011Zm17.132,82.909a8.342,8.342,0,0,0-6.518-3.551c-.279,0-.931.54-1.955,2.162a15.081,15.081,0,0,0-1.676,2.47c0,.54.652,1.39,1.955,2.162a4.9,4.9,0,0,0,2.979,1.39c.652,0,1.024,0,1.024-.309a1.469,1.469,0,0,1,1.024-.54c.931,0,1.955,1.93,3.631,5.4s2.607,5.713,2.607,7.025c0,.849.372,1.081.652,1.081s.652-.309,1.3-1.39c.931-1.081,1.676-3.242,2.328-6.253,1.3-7.025,2.979-10.576,4.935-10.576a3.532,3.532,0,0,1,2.328,1.39,2.745,2.745,0,0,0,1.3,1.081c.652,0,1.3-.54,1.676-1.621a4.511,4.511,0,0,0,.372-1.93,3.093,3.093,0,0,0-1.3-2.161c-1.024-1.39-1.955-1.93-2.98-1.93-1.955,0-3.911,1.621-5.587,5.172A62.2,62.2,0,0,0,117.006,181a1.214,1.214,0,0,0-.372.54c0,.309,0,.309-.279,0V181c-1.21-3.937-2.514-7.179-4.469-9.65Zm-64.152-9.5c-.186,0-.372.154-.652.309l-2.048,3.705a33.68,33.68,0,0,0-3.631-2.239,12.282,12.282,0,0,0-2.886-1.544c-.186,0-.372.154-.652.54l-2.7,4.4a.311.311,0,0,0-.093.463.082.082,0,0,0,.093.077,71,71,0,0,1,6.331,3.551c.372.154.652.154.838-.154a26.136,26.136,0,0,0,2.235-3.705c2.235,1.39,4.469,2.548,6.145,3.551.372.154.652.154.838-.154,1.862-2.548,2.886-4.091,2.886-4.941a29.242,29.242,0,0,0-3.259-2.239A22.091,22.091,0,0,0,47.733,161.86Zm11.173-13.2a67.983,67.983,0,0,0,11.918-17.987c3.631-7.179,4.935-12.429,4.1-15.517a13.935,13.935,0,0,0-5.959-7.334c-.931-.618-2.793-.849-5.4-.849a10.427,10.427,0,0,0-7.542,3.088c-3.631,3.86-4.749,11.425-3.073,22.387a119.365,119.365,0,0,0-10.8-8.569c-.931-.618-5.587-3.242-13.873-7.642S15.8,109.675,15.7,109.6c-.466-.309-.466-.463-.186-.463,3.259-.154,4.283-.54,3.445-1.081a8.038,8.038,0,0,0-1.49-.54c-.838-.309-3.166-.926-7.076-1.93-3.724-.926-5.959-1.467-6.89-1.621-.466.077-.652,0-.745.077s-.093.309.093.618c1.769,2.393,2.793,3.86,3.538,4.246a12.292,12.292,0,0,1,5.028,2.162c.931.618,6.7,3.937,17.132,9.572,10.521,5.79,16.2,8.955,16.853,9.341l6.052,3.937a5.517,5.517,0,0,1,1.955,2.007c.559,2.007,1.3,4.323,1.769,6.871-1.583,2.239-3.352,4.4-5.214,6.562-1.3,1.39-2.7,2.856-4.469,4.477-1.583,1.7-2.7,2.625-3.073,3.011s-.745.772-.745,1c-.186.232-.093.309.279.386.372-.154.931-.309,1.676-.618a49.571,49.571,0,0,0,8.38-3.937,32.674,32.674,0,0,0,6.89-5.018Zm.838-33.349c2.048-2.162,5.493-3.242,10.428-2.856a3.168,3.168,0,0,1,.745.154c-.093.077.093.386-.093.849-.931,5.095-3.352,10.653-7.076,17.061a61.529,61.529,0,0,1-6.7,10.036c-2.421-12.429-1.49-20.766,2.7-25.243ZM11.793,139.473c-2.793,1.467-5.587,2.779-8.38,4.169-.745.309-1.024.618-1.024.695h.186a2.148,2.148,0,0,0,1.21-.309c3.631-1.158,5.773-1.776,6.331-1.853,2.048-.926,4-1.93,5.959-3.011a22.6,22.6,0,0,0,4.562-3.937,5.519,5.519,0,0,1,2.142,1.467c1.024-1.158,1.583-2.007,1.583-2.625a18.387,18.387,0,0,0-2.142-1.312,12.306,12.306,0,0,0,.745-4.091,10.76,10.76,0,0,0,3.817-6.253v-.618c0-.849-.559-1.312-1.769-1.312a13.767,13.767,0,0,0-4.749,1.621,20.083,20.083,0,0,0-5.587,3.783c-2.793,2.779-4.376,5.327-4.376,7.8,0,1.853.745,2.779,2.142,2.779A4.214,4.214,0,0,0,15.424,135a5.163,5.163,0,0,0,1.21-2.007,12.419,12.419,0,0,0,2.793,1.776A32.252,32.252,0,0,1,11.793,139.473Zm4.19-7.72a1.746,1.746,0,0,1-.838,1.621,3.385,3.385,0,0,1-2.235.618c-.745,0-1.21-.463-1.21-1.467,0-1.467,1.21-3.165,3.538-5.249a22.975,22.975,0,0,1,4.749-3.011,8.4,8.4,0,0,1,3.631-1,1.25,1.25,0,0,1,1.4,1.312c0,.695-.838,1.853-2.421,3.319a1.385,1.385,0,0,0-.838-.695,5.009,5.009,0,0,0-3.538,1.158,4.34,4.34,0,0,0-2.235,3.4Zm2.142-1.235c0-.154.186-.309.745-.618a5.42,5.42,0,0,1,1.024-.309c.559,0,.838.309,1.024.849a2.937,2.937,0,0,1-.186,1.776C18.963,131.522,18.125,130.9,18.125,130.518ZM38.609,88.6c0-1.621-.279-2.625-.838-2.625-.279,0-.838.463-1.676,1.158a3.476,3.476,0,0,0-1.4,2.547c0,.463.279.695.838.926s.838.232.838.695v3.783a7.012,7.012,0,0,0,1.117,4.246,4.26,4.26,0,0,0,2.886,1.158c2.793,0,4.562-1.621,5.68-4.709.838,2.316,2.514,3.783,4.842,3.783,1.117,0,2.235-.926,3.445-2.548A10.068,10.068,0,0,0,55.182,93a7.861,7.861,0,0,0-.838-2.856c-1.117-2.084-1.676-3.319-1.676-3.319a10.482,10.482,0,0,0-.559-2.316c0-.463,0-.926-.279-.926a2.77,2.77,0,0,1-.838.926,3.607,3.607,0,0,0-.838,2.316c0,1.853,1.117,4.169,3.445,7.257a2,2,0,0,1-1.955,1.39c-2.607,0-4-1.39-4-4.014a18.259,18.259,0,0,0-.838-4.477c-.279-1.853-.838-2.856-1.117-2.856s-.559.232-.838.926a2.191,2.191,0,0,0-.559,1.621,6.655,6.655,0,0,0,.559,2.625c.279,1.621.559,2.548.559,3.088a2.912,2.912,0,0,1-1.4,2.856,3.48,3.48,0,0,1-2.886,1.081c-.838,0-1.4-.463-1.955-1.39a5.205,5.205,0,0,1-.838-2.856c0-.232.279-.926.279-1.39a15.463,15.463,0,0,1,0-2.084Zm44.6,157.482c6.89,2.47,15.735,4.091,26.536,4.632,9.4.54,15.642.386,18.622-.618a13.83,13.83,0,0,0,5.121-2.47,13.612,13.612,0,0,0,2.886-4.169,14.111,14.111,0,0,0,1.21-11.116c-.931-3.319-2.886-5.481-5.587-6.407-1.583-.54-3.724-.232-6.238,1.081a12.911,12.911,0,0,0-5.214,4.786,4.082,4.082,0,0,0-.279,3.86,4.428,4.428,0,0,0,2.979,2.625l4.283,1.544a9.367,9.367,0,0,1,4.19,2.625,2.778,2.778,0,0,1,.745,3.628,102.262,102.262,0,0,1-17.97.154c-10.149-.618-18.9-2.162-25.791-4.632-7.076-2.548-11.639-5.4-13.78-9.032-1.49-2.239-1.676-4.4-.745-6.253a18.758,18.758,0,0,1,2.979-4.169c.931-.772,2.048-1.621,3.073-2.547a10.045,10.045,0,0,0,1.3-1.39c.093-.077.093-.154.186-.309-.279-.077-.931.309-2.048,1a21.488,21.488,0,0,0-7.821,8.414c-1.676,3.165-2.048,6.176-1.024,8.955,1.4,4.091,5.68,7.334,12.384,9.8Zm44.32-12.351c-1.676-.926-2.328-1.776-1.862-2.547s1.4-.772,2.886-.386a6.545,6.545,0,0,1,3.724,4.941c-2.235-1-3.817-1.7-4.749-2.007ZM73.711,45.911c-.279,0-.652.772-1.676,2.162C68.776,53.476,67.1,58.416,67.1,63.28c0,4.091,1.3,6.021,4.283,6.021,2.607,0,4.562-2.47,5.866-7.874v-.54c0-.232,0-.232-.279-.232,0,.232-.372.232-.372.54-1.676,2.47-2.979,3.551-3.911,3.551-1.955,0-2.979-1.621-2.979-4.632,0-2.162.931-6.253,3.259-11.657C73.338,46.991,73.711,46.219,73.711,45.911ZM95.684,211.189c-.279,0-.652.772-1.676,2.162-3.259,5.4-4.935,10.344-4.935,15.208,0,4.091,1.3,5.944,4.283,5.944,2.607,0,4.562-2.47,5.866-7.874v-.54c0-.309,0-.309-.279-.309,0,.309-.279.309-.279.54-1.676,2.47-2.979,3.551-3.911,3.551-1.955,0-2.979-1.621-2.979-4.632,0-2.161,1.024-6.253,3.259-11.657A19.235,19.235,0,0,0,95.684,211.189Zm-70.577-5.635c2.607,0,4.562-2.47,5.866-7.874v-.54c0-.309,0-.309-.372-.309,0,.309-.279.309-.279.54-1.676,2.47-2.979,3.551-3.911,3.551-1.955,0-2.979-1.621-2.979-4.632,0-2.161,1.024-6.253,3.259-11.657a22.911,22.911,0,0,0,.652-2.47c-.372,0-.652.772-1.676,2.162-3.259,5.4-4.935,10.344-4.935,15.208C20.825,203.7,22.128,205.554,25.108,205.554Z" transform="translate(-0.038 0.022)" fill="url(#linear-gradient)"/>
      </g>
    </g>
  </g>
</svg>
