<svg xmlns="http://www.w3.org/2000/svg" xmlns:xlink="http://www.w3.org/1999/xlink" width="47" height="50" viewBox="0 0 47 50">
  <defs>
    <linearGradient id="linear-gradient" x1="0.5" x2="0.5" y2="1" gradientUnits="objectBoundingBox">
      <stop offset="0" stop-color="#35337b"/>
      <stop offset="1" stop-color="#356581"/>
    </linearGradient>
    <clipPath id="clip-path">
      <path id="Rectangle_4" data-name="Rectangle 4" d="M0,0H37A10,10,0,0,1,47,10V40A10,10,0,0,1,37,50H25A25,25,0,0,1,0,25V0A0,0,0,0,1,0,0Z" transform="translate(833 300)" fill="url(#linear-gradient)"/>
    </clipPath>
    <linearGradient id="linear-gradient-2" x1="0.343" y1="0.821" x2="0.947" y2="0.081" gradientUnits="objectBoundingBox">
      <stop offset="0" stop-color="#e9bf68"/>
      <stop offset="0.356" stop-color="#f3d49b"/>
      <stop offset="0.732" stop-color="#d4a858"/>
      <stop offset="1" stop-color="#ffe4b4"/>
    </linearGradient>
  </defs>
  <g id="Mask_Group_1" data-name="Mask Group 1" transform="translate(-833 -300)" clip-path="url(#clip-path)">
    <path id="Path_118" data-name="Path 118" d="M668.33,310.137l-5.272-7.276v-9l-8.552-2.766-5.288-7.28-8.552,2.767-8.552-2.767-5.28,7.268-8.556,2.767v9.007L613,310.137l5.288,7.28v8.991l8.56,2.767,5.268,7.28,8.549-2.766,8.549,2.766,5.284-7.268,8.56-2.767v-9Zm-12.252,11.2,2.853-.929,2.857.925V325.5l-3.952,1.277-1.759-2.431Zm-36.546,0,2.857-.925,2.854.929v3l-1.771,2.431-3.952-1.276Zm42.26-1.324-2.857-.948-2.858.945v-3l-1.767-2.431,2.861-.929,1.763-2.435,1.77,2.431,2.854.929L661.793,317Zm-25.752,7.837,2.861-.929,1.763-2.431,1.763,2.431,2.861.929-1.766,2.427v3.016l-2.858-.933-2.857.933v-3.012Zm-4.118,1.34,2.854-.929,1.766,2.431v3l-3.952,1.28-2.443-3.363ZM617.77,314.568l2.853-.929,1.771-2.431,1.763,2.435,2.861.929-1.767,2.435v3l-2.857-.945-2.861.929v-3.008Zm-.791-7.794,2.858.929,1.767,2.434-1.767,2.431-2.858.929-2.442-3.359Zm19.559-20.2v3l-1.771,2.431-2.857-.925-1.763-2.435,2.443-3.355Zm1.261.4,2.858.929,2.857-.929v3.008l1.767,2.431-2.857.925-1.759,2.446-1.763-2.427-2.857-.925L637.811,290Zm25.752,18.713-2.857.929-1.767,2.431-1.767-2.431-2.861-.933,1.778-2.423v-3l2.858.933,2.857-.929v3.008Zm-15.726,15.639v3l-1.767,2.435-2.857-.929-1.747-2.415,2.438-3.363Zm5.7-14.56,2.854.925,1.767,2.43-1.767,2.431-2.861.933-2.434-3.359Zm-4.438,6.094,1.213-1.664,1.976,2.7-3.162,1.028Zm5.727-9.995-1.763,2.434-3.952-1.284v-4.154l2.857-.929,2.861.925Zm-2.545,3.509-1.976,2.7-1.209-1.664v-2.059Zm-9.651,13.279-1.952,2.687-1.952-2.687,1.952-.64Zm5.217-7.177v2.877l-2.739.893-1.692,2.332-2.739-.893-2.735.889-1.7-2.332-2.739-.893v-2.877l-1.7-2.332,1.7-2.328v-2.881l2.735-.889,1.692-2.336,2.739.893,2.739-.893,1.692,2.336,2.735.889v2.881l1.7,2.328ZM644.673,301.3l3.162-1.028V303.6l-1.976-.636Zm-5.984-.668,1.976-2.687,1.976,2.687-1.976.632Zm-5.213,2.964v-3.332l3.162,1.031-1.213,1.664Zm3.162,15.382-3.162,1.032v-3.316l1.976.64Zm11.2-2.284v3.332l-3.162-1.031,1.209-1.66Zm0-17.741-3.952,1.284-2.442-3.359,1.763-2.435,2.861-.929,1.767,2.431Zm-14.339,0v-3.008l1.767-2.431,2.861.929,1.763,2.435-2.442,3.359Zm-3.256,11.2-2.435,3.359-2.861-.933-1.767-2.43,1.767-2.431,2.853-.925Zm1.976-6.134-3.952,1.284-1.747-2.446v-3l2.861-.925,2.857.929Zm0,1.332v2.059l-1.209,1.664-1.976-2.7Zm0,7.537v2.059l-3.162-1.028,1.976-2.7Zm0,7.545-2.857.925-2.857-.925v-3L628.263,315l3.952,1.284Zm5.213-.367,2.446,3.344-1.763,2.431-2.857.929-1.767-2.434v-3ZM653.035,315l1.763,2.435v3l-2.857.925-2.857-.925v-4.17Zm1.763-19.464v2.98l-2.857-.925-2.846.925v-3l-1.759-2.427,2.853-.933,1.767-2.427,1.767,2.431,2.857.925Zm-22.579,0v2.98l-2.861-.921-2.841.921v-3.008l-1.767-2.431,2.857-.925,1.767-2.431,1.766,2.427,2.853.933Zm-12.7,7.758v-3.008l2.857.929,2.853-.933v2.976l1.775,2.43-2.865.933-1.763,2.431-1.767-2.431-2.857-.929Zm7,21.464v-3.012l2.849.933,2.861-.925v3L634,327.183l-2.858.933-1.763,2.431-1.755-2.435-2.857-.925Zm22.587,0v-3l2.861.925,2.849-.933v3.012l1.767,2.431-2.873.925-1.771,2.435-1.763-2.431-2.857-.933Zm17.678-14.623-2.438,3.359-2.858-.929-1.766-2.43,1.766-2.435,2.858-.929Zm-10.7-11.193v-3.011l1.763-2.427,3.952,1.28v4.15l-2.857.933Zm-6.671-7.853-2.857.925-1.77-2.431v-3l3.952-1.28,2.442,3.355Zm-29.878,3.7,3.952-1.281,1.763,2.427v3.012l-2.853.925-2.858-.933Zm25.254,35.909,1.767-2.43,2.854.929,1.767,2.427-2.443,3.363-3.952-1.28Z" transform="translate(220 13.18)" fill="url(#linear-gradient-2)"/>
  </g>
</svg>
